<?xml version="1.0" encoding="UTF-8"?>
<svg width="10px" height="30px" viewBox="0 0 10 30" version="1.1" xmlns="http://www.w3.org/2000/svg" xmlns:xlink="http://www.w3.org/1999/xlink">
    <!-- Generator: Sketch 48.2 (47327) - http://www.bohemiancoding.com/sketch -->
    <title>Size ver</title>
    <desc>Created with Sketch.</desc>
    <defs></defs>
    <g id="Cursors" stroke="none" stroke-width="1" fill="none" fill-rule="evenodd" transform="translate(-106.000000, -8.000000)">
        <g transform="translate(4.000000, 4.000000)" fill="#FF3466" id="Size-ver">
            <g transform="translate(88.000000, 0.000000)">
                <g transform="translate(19.091883, 19.091883) rotate(-135.000000) translate(-19.091883, -19.091883) translate(5.591883, 5.591883)">
                    <circle id="Oval" stroke="#FEFEFF" stroke-width="0.5" cx="13.5" cy="13.5" r="1.5"></circle>
                    <path d="M24.2484757,18.2347929 C24.0900541,18.0820259 23.8750824,17.996188 23.6509156,17.996188 C23.4267489,17.996188 23.2117772,18.0820259 23.0533555,18.2347929 L19.7439002,21.4239303 C19.5853022,21.5765275 19.496188,21.7835957 19.496188,21.9995208 C19.496188,22.2154459 19.5853022,22.4225141 19.7439002,22.5751113 L23.0547632,25.7628927 C23.3855548,26.0760188 23.9165918,26.07364 24.2443456,25.757564 C24.5720993,25.4414879 24.5739431,24.9299724 24.2484757,24.6117118 L21.5358767,21.9988428 L24.2484757,19.3859739 C24.4070737,19.2333767 24.496188,19.0263086 24.496188,18.8103834 C24.496188,18.5944583 24.4070737,18.3873901 24.2484757,18.2347929 Z" id="Shape-Copy-4" stroke="#FFFFFF" stroke-width="0.5" fill-rule="nonzero" transform="translate(21.996188, 21.996188) rotate(-135.000000) translate(-21.996188, -21.996188) "></path>
                    <path d="M7.22927228,1.25260398 C7.07085064,1.09983695 6.85587893,1.01399902 6.63171218,1.01399902 C6.40754543,1.01399902 6.19257371,1.09983695 6.03415208,1.25260398 L2.72469674,4.44174136 C2.56609876,4.59433854 2.47698451,4.8014067 2.47698451,5.01733185 C2.47698451,5.23325699 2.56609876,5.44032515 2.72469674,5.59292233 L6.03555976,8.78070378 C6.36635134,9.09382983 6.89738831,9.09145103 7.22514209,8.775375 C7.55289587,8.45929897 7.55473961,7.94778341 7.22927228,7.62952281 L4.5166732,5.01665388 L7.22927228,2.40378495 C7.38787025,2.25118777 7.47698451,2.04411961 7.47698451,1.82819447 C7.47698451,1.61226933 7.38787025,1.40520116 7.22927228,1.25260398 Z" id="Shape-Copy-3" stroke="#FEFEFF" stroke-width="0.5" fill-rule="nonzero" transform="translate(4.976985, 5.013999) rotate(44.000000) translate(-4.976985, -5.013999) "></path>
                </g>
            </g>
        </g>
    </g>
</svg>