<?xml version="1.0" encoding="utf-8"?>
<!-- Generator: Adobe Illustrator 21.0.0, SVG Export Plug-In . SVG Version: 6.00 Build 0)  -->
<svg version="1.1" id="Слой_1" xmlns="http://www.w3.org/2000/svg" xmlns:xlink="http://www.w3.org/1999/xlink" x="0px" y="0px"
	 viewBox="0 0 33 30" style="enable-background:new 0 0 33 30;" xml:space="preserve">
<style type="text/css">
	.st0{fill:#EA4D44;}
</style>
<title>Shape</title>
<desc>Created with Sketch.</desc>
<g>
	<path class="st0" d="M31.7,24.4L19.3,2.3c-1.7-3.1-4.5-3.1-6.2,0L0.7,24.4c-1.7,3.1-0.2,5.5,3.4,5.5h24.3
		C31.9,29.9,33.4,27.4,31.7,24.4z M28.3,28.3H4.1c-2.3,0-3.1-1.2-1.9-3.2L14.5,3.1c1.1-2,2.3-2,3.4,0l12.4,22.1
		C31.4,27.1,30.7,28.3,28.3,28.3z"/>
	<rect x="15.4" y="11" class="st0" width="1.6" height="11.1"/>
	<rect x="15.4" y="23.6" class="st0" width="1.6" height="1.6"/>
</g>
</svg>
