<?xml version="1.0" encoding="UTF-8"?><svg width="30px" height="10px" viewBox="0 0 30 10" version="1.1" xmlns="http://www.w3.org/2000/svg" xmlns:xlink="http://www.w3.org/1999/xlink">    <!-- Generator: Sketch 48.2 (47327) - http://www.bohemiancoding.com/sketch -->    <title>Size horizontal</title>    <desc>Created with Sketch.</desc>    <defs></defs>    <g id="Cursors" stroke="none" stroke-width="1" fill="none" fill-rule="evenodd" transform="translate(-53.000000, -18.000000)">        <g transform="translate(4.000000, 4.000000)" fill="#FF3466" id="Size-horizontal" stroke="#FFFFFF">            <g transform="translate(45.000000, 0.000000)">                <g transform="translate(19.091883, 19.091883) rotate(-45.000000) translate(-19.091883, -19.091883) translate(5.591883, 5.591883)">                    <circle id="Oval" stroke-width="0.5" cx="13.5" cy="13.5" r="1.5"></circle>                    <path d="M24.1951431,18.051518 C24.0367215,17.898751 23.8217498,17.812913 23.597583,17.812913 C23.3734163,17.812913 23.1584446,17.898751 23.0000229,18.051518 L19.6905676,21.2406554 C19.5319696,21.3932525 19.4428553,21.6003207 19.4428553,21.8162459 C19.4428553,22.032171 19.5319696,22.2392392 19.6905676,22.3918363 L23.0014306,25.5796178 C23.3322222,25.8927438 23.8632591,25.890365 24.1910129,25.574289 C24.5187667,25.258213 24.5206104,24.7466974 24.1951431,24.4284368 L21.482544,21.8155679 L24.1951431,19.202699 C24.3537411,19.0501018 24.4428553,18.8430336 24.4428553,18.6271085 C24.4428553,18.4111833 24.3537411,18.2041152 24.1951431,18.051518 Z" id="Shape-Copy-4" stroke-width="0.5" fill-rule="nonzero" transform="translate(21.942855, 21.812913) rotate(-135.000000) translate(-21.942855, -21.812913) "></path>                    <path d="M7.39489172,1.20117154 C7.23647008,1.0484045 7.02149837,0.962566583 6.79733162,0.962566583 C6.57316487,0.962566583 6.35819316,1.0484045 6.19977152,1.20117154 L2.89031618,4.39030892 C2.7317182,4.5429061 2.64260395,4.74997426 2.64260395,4.9658994 C2.64260395,5.18182455 2.7317182,5.38889271 2.89031618,5.54148989 L6.2011792,8.72927134 C6.53197078,9.04239739 7.06300775,9.04001859 7.39076153,8.72394256 C7.71851531,8.40786653 7.72035905,7.89635097 7.39489172,7.57809037 L4.68229264,4.96522144 L7.39489172,2.35235251 C7.55348969,2.19975533 7.64260395,1.99268717 7.64260395,1.77676203 C7.64260395,1.56083688 7.55348969,1.35376872 7.39489172,1.20117154 Z" id="Shape-Copy-3" stroke-width="0.5" fill-rule="nonzero" transform="translate(5.142604, 4.962567) rotate(44.000000) translate(-5.142604, -4.962567) "></path>                </g>            </g>        </g>    </g></svg>