<?xml version="1.0" encoding="utf-8"?>
<!-- Generator: Adobe Illustrator 21.0.0, SVG Export Plug-In . SVG Version: 6.00 Build 0)  -->
<svg version="1.1" id="Слой_1" xmlns="http://www.w3.org/2000/svg" xmlns:xlink="http://www.w3.org/1999/xlink" x="0px" y="0px"
	 viewBox="0 0 103 25" style="enable-background:new 0 0 103 25;" xml:space="preserve">
<style type="text/css">
	.st0{fill:#43A3DB;}
	.st1{fill:#FF3168;}
	.st2{fill:#FFFFFF;}
</style>
<g>
	<path class="st0" d="M0,0.3c0.3,6,3.8,9.9,7.5,12.3c4.4-2.8,9-3.7,9-3.7V7.1C16.5-0.3,0,0.3,0,0.3z"/>
	<path class="st1" d="M0,24.8c0,0,16.5,0.6,16.5-6.8v-1.8V8.9c0,0-4.7,0.8-9,3.7C3.8,14.9,0.3,18.8,0,24.8z"/>
	<path class="st2" d="M25.7,4.6c-1.5,0-2.3,0-4.1,0.3V20c1.8,0.3,2.9,0.3,4.3,0.3c5.2,0,8.5-3.3,8.5-8C34.4,7.7,31.3,4.6,25.7,4.6z
		 M26,18.6c-1,0-1.7,0-2.4-0.1v-12c0.8-0.1,1.4-0.1,2.1-0.1c4.6,0,6.7,2.5,6.7,6C32.4,16,30.2,18.6,26,18.6z"/>
	<path class="st2" d="M37.1,10.1v10c0.3,0.1,0.6,0.1,1,0.1c0.3,0,0.7,0,1-0.1v-9.2c0.6-0.4,1.5-0.6,2.5-0.6c0.7,0,1.4,0.1,2.1,0.2
		c0.3-0.4,0.5-1.1,0.5-1.7c-0.8-0.3-1.5-0.4-2.4-0.4C39.7,8.6,38,9.3,37.1,10.1z"/>
	<path class="st2" d="M54.5,8.9v9.2c-0.8,0.3-1.7,0.5-2.8,0.5c-2.8,0-3.3-1.3-3.3-3.4V8.9c-0.3-0.1-0.6-0.1-1-0.1
		c-0.3,0-0.6,0-1,0.1V16c0,2.7,1.6,4.4,4.8,4.4c2.3,0,3.8-0.5,5.2-1.1V8.9c-0.3-0.1-0.6-0.1-1-0.1C55.2,8.8,54.8,8.8,54.5,8.9z"/>
	<path class="st2" d="M102.8,13.5c0-2.9-2.1-5-5-5c-3.1,0-5.5,2.5-5.5,6c0,3.6,2.3,5.9,5.6,5.9c2.1,0,3.5-0.9,4.4-1.6
		c-0.1-0.5-0.6-1.1-1.1-1.3c-0.6,0.5-1.5,1.2-3.4,1.2c-2.1,0-3.5-1.5-3.6-3.6h8.4C102.7,14.4,102.8,14.1,102.8,13.5z M94.3,13.5
		c0.2-1.7,1.5-3.2,3.4-3.2c2.2,0,3,1.7,3,3.2H94.3z"/>
	<path class="st2" d="M72.3,8.6c-1.5,0-3,0.7-4,1.6c-0.8-1-2-1.6-3.7-1.6c-2,0-3.9,0.8-5,1.7v9.8c0.3,0.1,0.6,0.1,1,0.1
		c0.3,0,0.7,0,1-0.1v-9c0.7-0.5,1.8-0.8,2.8-0.8c2.3,0,3,1.5,3,3.4v6.4c0.3,0.1,0.6,0.1,1,0.1c0.3,0,0.6,0,1-0.1v-7.2
		c0-0.5-0.1-0.9-0.2-1.3c0.6-0.6,1.6-1.2,2.9-1.2c2.3,0,3,1.5,3,3.4v6.4c0.3,0.1,0.6,0.1,1,0.1c0.3,0,0.6,0,1-0.1v-7.2
		C77,10.6,75.3,8.6,72.3,8.6z"/>
	<path class="st2" d="M84.9,8.6c-3.1,0-5.5,2.5-5.5,6c0,3.6,2.3,5.9,5.6,5.9c2.1,0,3.5-0.9,4.4-1.6c-0.1-0.5-0.6-1.1-1.1-1.3
		c-0.6,0.5-1.5,1.2-3.3,1.2c-2.1,0-3.5-1.5-3.6-3.6h8.4c0.1-0.6,0.1-0.9,0.1-1.5C90,10.6,87.8,8.6,84.9,8.6z M81.5,13.5
		c0.2-1.7,1.5-3.2,3.4-3.2c2.2,0,3,1.7,3,3.2H81.5z"/>
</g>
</svg>
