<?xml version="1.0" encoding="UTF-8" standalone="no"?>
<svg
   xmlns:dc="http://purl.org/dc/elements/1.1/"
   xmlns:cc="http://creativecommons.org/ns#"
   xmlns:rdf="http://www.w3.org/1999/02/22-rdf-syntax-ns#"
   xmlns:svg="http://www.w3.org/2000/svg"
   xmlns="http://www.w3.org/2000/svg"
   xmlns:sodipodi="http://sodipodi.sourceforge.net/DTD/sodipodi-0.dtd"
   xmlns:inkscape="http://www.inkscape.org/namespaces/inkscape"
   width="100px"
   height="100px"
   viewBox="0 0 100 100"
   version="1.1"
   id="svg15"
   sodipodi:docname="icons_svg_text_g_1_buy.svg"
   inkscape:version="0.92.1 r15371">
  <metadata
     id="metadata19">
    <rdf:RDF>
      <cc:Work
         rdf:about="">
        <dc:format>image/svg+xml</dc:format>
        <dc:type
           rdf:resource="http://purl.org/dc/dcmitype/StillImage" />
        <dc:title>Artboard Copy 42</dc:title>
      </cc:Work>
    </rdf:RDF>
  </metadata>
  <sodipodi:namedview
     pagecolor="#ffffff"
     bordercolor="#666666"
     borderopacity="1"
     objecttolerance="10"
     gridtolerance="10"
     guidetolerance="10"
     inkscape:pageopacity="0"
     inkscape:pageshadow="2"
     inkscape:window-width="1920"
     inkscape:window-height="1017"
     id="namedview17"
     showgrid="false"
     inkscape:zoom="2.36"
     inkscape:cx="50"
     inkscape:cy="50"
     inkscape:window-x="-8"
     inkscape:window-y="-8"
     inkscape:window-maximized="1"
     inkscape:current-layer="svg15" />
  <!-- Generator: Sketch 48.2 (47327) - http://www.bohemiancoding.com/sketch -->
  <title
     id="title2">Artboard Copy 42</title>
  <desc
     id="desc4">Created with Sketch.</desc>
  <defs
     id="defs6" />
  <g
     id="Insert-Buttons"
     transform="matrix(7.1071429,0,0,7.1071429,-305.35714,-308.91072)"
     style="fill:none;fill-rule:evenodd;stroke:none;stroke-width:1">
    <g
       id="Artboard-Copy-42"
       style="fill:#ff3466;fill-rule:nonzero">
      <g
         id="Buy"
         transform="translate(43,44)">
        <path
           d="M 12,10 H 2.8872181 C 2.7368421,10 2.6165414,9.9442897 2.556391,9.8328691 2.4661654,9.7214485 2.4661654,9.5821727 2.5263158,9.4707521 L 3.3082707,7.632312 2.5263158,0.77994429 H 0 V 0 H 2.8872181 C 3.0977444,0 3.2781955,0.13927577 3.3082707,0.33426184 L 4.1503759,7.6044568 c 0,0.05571 0,0.1114206 -0.030075,0.1949861 L 3.518797,9.1922006 H 12 V 10"
           id="Fill-110"
           inkscape:connector-curvature="0" />
        <path
           d="M 3.4748603,9 3.3072626,8.1923077 12.217877,6.2179487 V 2.8376068 H 3 V 2 h 9.608939 C 12.832402,2 13,2.1794872 13,2.4188034 v 4.1282051 c 0,0.2094018 -0.139665,0.3589744 -0.307263,0.3888889 L 3.4748603,9"
           id="Fill-111"
           inkscape:connector-curvature="0" />
        <path
           d="M 12.5,13 C 11.681818,13 11,12.318182 11,11.5 11,10.681818 11.681818,10 12.5,10 c 0.818182,0 1.5,0.681818 1.5,1.5 0,0.818182 -0.681818,1.5 -1.5,1.5 z m 0,-2.263636 c -0.409091,0 -0.763636,0.327272 -0.763636,0.763636 0,0.436364 0.327272,0.763636 0.763636,0.763636 0.436364,0 0.763636,-0.327272 0.763636,-0.763636 0,-0.436364 -0.354545,-0.763636 -0.763636,-0.763636 z"
           id="Fill-112"
           inkscape:connector-curvature="0" />
        <path
           d="M 2.5,13 C 1.6818182,13 1,12.318182 1,11.5 1,10.681818 1.6818182,10 2.5,10 3.3181818,10 4,10.681818 4,11.5 4,12.318182 3.3181818,13 2.5,13 Z m 0,-2.263636 c -0.4090909,0 -0.7636364,0.327272 -0.7636364,0.763636 0,0.436364 0.3272728,0.763636 0.7636364,0.763636 0.4363636,0 0.7636364,-0.327272 0.7636364,-0.763636 0,-0.436364 -0.3545455,-0.763636 -0.7636364,-0.763636 z"
           id="Fill-113"
           inkscape:connector-curvature="0" />
      </g>
    </g>
  </g>
</svg>
