<?xml version="1.0" encoding="UTF-8" standalone="no"?>
<svg
   xmlns:dc="http://purl.org/dc/elements/1.1/"
   xmlns:cc="http://creativecommons.org/ns#"
   xmlns:rdf="http://www.w3.org/1999/02/22-rdf-syntax-ns#"
   xmlns:svg="http://www.w3.org/2000/svg"
   xmlns="http://www.w3.org/2000/svg"
   xmlns:sodipodi="http://sodipodi.sourceforge.net/DTD/sodipodi-0.dtd"
   xmlns:inkscape="http://www.inkscape.org/namespaces/inkscape"
   width="100px"
   height="100px"
   viewBox="0 0 100 100"
   version="1.1"
   id="svg15"
   sodipodi:docname="icons_svg_text_g_1_download.svg"
   inkscape:version="0.92.1 r15371">
  <metadata
     id="metadata19">
    <rdf:RDF>
      <cc:Work
         rdf:about="">
        <dc:format>image/svg+xml</dc:format>
        <dc:type
           rdf:resource="http://purl.org/dc/dcmitype/StillImage" />
        <dc:title>Artboard Copy 45</dc:title>
      </cc:Work>
    </rdf:RDF>
  </metadata>
  <sodipodi:namedview
     pagecolor="#ffffff"
     bordercolor="#666666"
     borderopacity="1"
     objecttolerance="10"
     gridtolerance="10"
     guidetolerance="10"
     inkscape:pageopacity="0"
     inkscape:pageshadow="2"
     inkscape:window-width="1920"
     inkscape:window-height="1017"
     id="namedview17"
     showgrid="false"
     inkscape:zoom="2.36"
     inkscape:cx="50"
     inkscape:cy="50"
     inkscape:window-x="-8"
     inkscape:window-y="-8"
     inkscape:window-maximized="1"
     inkscape:current-layer="svg15" />
  <!-- Generator: Sketch 48.2 (47327) - http://www.bohemiancoding.com/sketch -->
  <title
     id="title2">Artboard Copy 45</title>
  <desc
     id="desc4">Created with Sketch.</desc>
  <defs
     id="defs6" />
  <g
     id="Insert-Buttons"
     transform="matrix(6.21875,0,0,6.21875,-260.9375,-260.9375)"
     style="fill:none;fill-rule:evenodd;stroke:none;stroke-width:1">
    <g
       id="Artboard-Copy-45">
      <g
         id="download"
         transform="translate(42,42)">

        <path
           d="m 7.7608963,10.90885 c 0.013541,0.01422 0.028326,0.02705 0.044154,0.03831 l 0.024084,0.01383 c 0.018086,0.0123 0.038158,0.02096 0.059207,0.02554 l 0.025088,0.0074 c 0.038433,0.008 0.077974,0.008 0.1164072,0 l 0.026091,-0.0085 0.030105,-0.0096 c 0.010331,-0.0051 0.020382,-0.01075 0.030105,-0.01703 l 0.021074,-0.01277 c 0.016616,-0.01182 0.03208,-0.02536 0.046162,-0.04044 L 10.883819,8.0453708 C 10.975768,7.9695016 11.018178,7.8441867 10.992705,7.7236351 10.967231,7.6030834 10.878447,7.5089394 10.764759,7.4819279 10.651071,7.4549164 10.532891,7.4998873 10.461342,7.597387 L 8.2746934,9.912857 V 1.3192284 C 8.2746934,1.1429234 8.1399074,1 7.9736404,1 7.8073734,1 7.6725874,1.1429234 7.6725874,1.3192284 V 9.912857 L 5.4859391,7.597387 C 5.366094,7.4984994 5.1955563,7.5097367 5.0881789,7.6235967 4.9808016,7.7374568 4.9702041,7.9182903 5.0634614,8.0453708 Z"
           id="Shape"
           inkscape:connector-curvature="0"
           style="fill:#4a4a4a;fill-rule:nonzero" />
        <path
           d="m 14.671875,11 c -0.181218,0 -0.328125,0.134315 -0.328125,0.3 v 2.2 c 0,0.497056 -0.44072,0.9 -0.984375,0.9 H 2.640625 C 2.0969697,14.4 1.65625,13.997056 1.65625,13.5 V 11.3 C 1.65625,11.134315 1.5093434,11 1.328125,11 1.1469066,11 1,11.134315 1,11.3 v 2.2 C 1,14.328427 1.7345328,15 2.640625,15 h 10.71875 C 14.265467,15 15,14.328427 15,13.5 V 11.3 C 15,11.134315 14.853093,11 14.671875,11 Z"
           id="path10"
           inkscape:connector-curvature="0"
           style="fill:#4a4a4a;fill-rule:nonzero" />
      </g>
    </g>
  </g>
</svg>
