<?xml version="1.0" encoding="UTF-8" standalone="no"?>
<svg
   xmlns:dc="http://purl.org/dc/elements/1.1/"
   xmlns:cc="http://creativecommons.org/ns#"
   xmlns:rdf="http://www.w3.org/1999/02/22-rdf-syntax-ns#"
   xmlns:svg="http://www.w3.org/2000/svg"
   xmlns="http://www.w3.org/2000/svg"
   xmlns:sodipodi="http://sodipodi.sourceforge.net/DTD/sodipodi-0.dtd"
   xmlns:inkscape="http://www.inkscape.org/namespaces/inkscape"
   width="100px"
   height="100px"
   viewBox="0 0 100 100"
   version="1.1"
   id="svg15"
   sodipodi:docname="icons_svg_text_g_1_subscribe.svg"
   inkscape:version="0.92.1 r15371">
  <metadata
     id="metadata19">
    <rdf:RDF>
      <cc:Work
         rdf:about="">
        <dc:format>image/svg+xml</dc:format>
        <dc:type
           rdf:resource="http://purl.org/dc/dcmitype/StillImage" />
        <dc:title>Artboard Copy 43</dc:title>
      </cc:Work>
    </rdf:RDF>
  </metadata>
  <sodipodi:namedview
     pagecolor="#ffffff"
     bordercolor="#666666"
     borderopacity="1"
     objecttolerance="10"
     gridtolerance="10"
     guidetolerance="10"
     inkscape:pageopacity="0"
     inkscape:pageshadow="2"
     inkscape:window-width="1920"
     inkscape:window-height="1017"
     id="namedview17"
     showgrid="false"
     inkscape:zoom="2.36"
     inkscape:cx="50"
     inkscape:cy="50"
     inkscape:window-x="-8"
     inkscape:window-y="-8"
     inkscape:window-maximized="1"
     inkscape:current-layer="svg15" />
  <!-- Generator: Sketch 48.2 (47327) - http://www.bohemiancoding.com/sketch -->
  <title
     id="title2">Artboard Copy 43</title>
  <desc
     id="desc4">Created with Sketch.</desc>
  <defs
     id="defs6" />
  <g
     id="Insert-Buttons"
     transform="matrix(6.21875,0,0,6.21875,-260.9375,-260.9375)"
     style="fill:none;fill-rule:evenodd;stroke:none;stroke-width:1">
    <g
       id="Artboard-Copy-43">
      <g
         id="Mail"
         transform="translate(42,42)">
        <g
           id="MAil"
           transform="translate(1,2.5)"
           style="fill:#4a4a4a;fill-rule:nonzero">
          <path
             d="m 13.916016,1.6789474 -0.556641,-0.55 -5.15625,5.0947368 c -0.6445313,0.6368421 -1.7285156,0.6368421 -2.3730469,0 L 0.67382812,1.1578947 0.1171875,1.7078947 3.9550781,5.5 0.1171875,9.2921053 l 0.55664062,0.55 L 4.5117187,6.05 5.2734375,6.8026316 c 0.46875,0.4631579 1.0839844,0.7236842 1.7285156,0.7236842 0.6445313,0 1.2597657,-0.2605263 1.7285157,-0.7236842 L 9.4921875,6.05 l 3.8378905,3.7921053 0.556641,-0.55 L 10.048828,5.5 13.916016,1.6789474"
             id="Fill-3"
             inkscape:connector-curvature="0" />
          <path
             d="M 12.832031,10.826316 H 1.2597656 c -0.6738281,0 -1.23046872,-0.55 -1.23046872,-1.2157897 V 1.4473684 c 0,-0.66578945 0.55664062,-1.21578945 1.23046872,-1.21578945 H 12.832031 c 0.673828,0 1.230469,0.55 1.230469,1.21578945 v 8.1631579 c 0,0.6657897 -0.556641,1.2157897 -1.230469,1.2157897 z M 1.2304687,1.0131579 c -0.23437495,0 -0.4101562,0.1736842 -0.4101562,0.4052631 v 8.163158 c 0,0.2315789 0.17578125,0.4052631 0.4101562,0.4052631 H 12.802734 c 0.234375,0 0.410157,-0.1736842 0.410157,-0.4052631 V 1.418421 c 0,-0.2315789 -0.175782,-0.4052631 -0.410157,-0.4052631 z"
             id="Fill-4"
             inkscape:connector-curvature="0" />
        </g>
      </g>
    </g>
  </g>
</svg>
