<?xml version="1.0" encoding="UTF-8" standalone="no"?>
<svg
   xmlns:dc="http://purl.org/dc/elements/1.1/"
   xmlns:cc="http://creativecommons.org/ns#"
   xmlns:rdf="http://www.w3.org/1999/02/22-rdf-syntax-ns#"
   xmlns:svg="http://www.w3.org/2000/svg"
   xmlns="http://www.w3.org/2000/svg"
   xmlns:sodipodi="http://sodipodi.sourceforge.net/DTD/sodipodi-0.dtd"
   xmlns:inkscape="http://www.inkscape.org/namespaces/inkscape"
   width="100px"
   height="100px"
   viewBox="0 0 100 100"
   version="1.1"
   id="svg14"
   sodipodi:docname="icons_svg_text_g_1_send.svg"
   inkscape:version="0.92.1 r15371">
  <metadata
     id="metadata18">
    <rdf:RDF>
      <cc:Work
         rdf:about="">
        <dc:format>image/svg+xml</dc:format>
        <dc:type
           rdf:resource="http://purl.org/dc/dcmitype/StillImage" />
        <dc:title>Artboard Copy 44</dc:title>
      </cc:Work>
    </rdf:RDF>
  </metadata>
  <sodipodi:namedview
     pagecolor="#ffffff"
     bordercolor="#666666"
     borderopacity="1"
     objecttolerance="10"
     gridtolerance="10"
     guidetolerance="10"
     inkscape:pageopacity="0"
     inkscape:pageshadow="2"
     inkscape:window-width="1920"
     inkscape:window-height="1017"
     id="namedview16"
     showgrid="false"
     inkscape:zoom="2.36"
     inkscape:cx="50"
     inkscape:cy="50"
     inkscape:window-x="-8"
     inkscape:window-y="-8"
     inkscape:window-maximized="1"
     inkscape:current-layer="svg14" />
  <!-- Generator: Sketch 48.2 (47327) - http://www.bohemiancoding.com/sketch -->
  <title
     id="title2">Artboard Copy 44</title>
  <desc
     id="desc4">Created with Sketch.</desc>
  <defs
     id="defs6" />
  <g
     id="Insert-Buttons"
     transform="matrix(7.1631417,0,0,7.1631417,-308.4109,-307.83665)"
     style="fill:none;fill-rule:evenodd;stroke:none;stroke-width:1">
    <g
       id="Artboard-Copy-44"
       style="fill:#4184f3;fill-rule:nonzero">
      <g
         id="Send"
         transform="translate(43,43)">
        <path
           d="m 8.8308182,13.880292 c -0.1228182,0 -0.2352955,-0.07 -0.2879546,-0.180584 L 5.8601136,8.0619551 0.27554546,5.5238652 C 0.15877273,5.4708539 0.08575,5.3535056 0.09036364,5.2264045 0.09513636,5.0993034 0.17675,4.987618 0.29718182,4.9432584 L 13.551364,0.05002247 c 0.115977,-0.04262921 0.246909,-0.01510112 0.334886,0.07110113 0.0883,0.0862022 0.117568,0.21534831 0.07557,0.33065168 L 9.1300682,13.672652 C 9.0864773,13.79236 8.9741591,13.874 8.8456136,13.879978 c -0.00509,1.57e-4 -0.010023,3.14e-4 -0.014795,3.14e-4 z M 1.2364545,5.2680899 6.2312727,7.5382921 c 0.06825,0.030989 0.1231364,0.084787 0.1551137,0.1517978 L 8.7921591,12.745663 13.129614,0.8774382 Z"
           id="Shape"
           inkscape:connector-curvature="0" />
        <path
           d="m 6.0985909,8.1385618 c -0.081454,0 -0.16275,-0.030674 -0.2249545,-0.09218 -0.12425,-0.1226966 -0.12425,-0.322 0,-0.4448539 L 13.437614,0.12238202 c 0.12425,-0.12285393011 0.325659,-0.12285393011 0.449909,0 0.12425,0.12285393 0.12425,0.322 0,0.44485394 L 6.3235454,8.046382 c -0.062204,0.061506 -0.1435,0.09218 -0.2249545,0.09218 z"
           id="path9"
           inkscape:connector-curvature="0" />
      </g>
    </g>
  </g>
</svg>
