<?xml version="1.0" encoding="UTF-8" standalone="no"?>
<svg
   xmlns:dc="http://purl.org/dc/elements/1.1/"
   xmlns:cc="http://creativecommons.org/ns#"
   xmlns:rdf="http://www.w3.org/1999/02/22-rdf-syntax-ns#"
   xmlns:svg="http://www.w3.org/2000/svg"
   xmlns="http://www.w3.org/2000/svg"
   xmlns:sodipodi="http://sodipodi.sourceforge.net/DTD/sodipodi-0.dtd"
   xmlns:inkscape="http://www.inkscape.org/namespaces/inkscape"
   width="100px"
   height="100px"
   viewBox="0 0 100 100"
   version="1.1"
   id="svg11"
   sodipodi:docname="social_svg_g_1_linkedin.svg"
   inkscape:version="0.92.1 r15371">
  <metadata
     id="metadata15">
    <rdf:RDF>
      <cc:Work
         rdf:about="">
        <dc:format>image/svg+xml</dc:format>
        <dc:type
           rdf:resource="http://purl.org/dc/dcmitype/StillImage" />
        <dc:title>Artboard Copy 9</dc:title>
      </cc:Work>
    </rdf:RDF>
  </metadata>
  <sodipodi:namedview
     pagecolor="#ffffff"
     bordercolor="#666666"
     borderopacity="1"
     objecttolerance="10"
     gridtolerance="10"
     guidetolerance="10"
     inkscape:pageopacity="0"
     inkscape:pageshadow="2"
     inkscape:window-width="1920"
     inkscape:window-height="1017"
     id="namedview13"
     showgrid="false"
     inkscape:zoom="2.36"
     inkscape:cx="50"
     inkscape:cy="50"
     inkscape:window-x="-8"
     inkscape:window-y="-8"
     inkscape:window-maximized="1"
     inkscape:current-layer="svg11" />
  <!-- Generator: Sketch 48.2 (47327) - http://www.bohemiancoding.com/sketch -->
  <title
     id="title2">Artboard Copy 9</title>
  <desc
     id="desc4">Created with Sketch.</desc>
  <defs
     id="defs6" />
<style type="text/css">.icon-fill-007bb6{fill:#007bb6;}</style>
  <g
     id="Insert-Buttons"
     transform="matrix(8.5490706,0,0,8.5490706,-375.59603,-375.90911)"
     style="fill:none;fill-rule:evenodd;stroke:none;stroke-width:1">
    <g
       id="Artboard-Copy-9"
       style="fill:#007bb6">
      <path class="icon-fill-007bb6"
         d="m 54.710414,44 h -9.85608 C 44.38259,44 44,44.373464 44,44.833742 v 9.971442 c 0,0.460044 0.38259,0.833508 0.854334,0.833508 h 9.85608 c 0.472446,0 0.855036,-0.373698 0.855036,-0.833508 V 44.833742 C 55.56545,44.37323 55.182626,44 54.710414,44 Z m -7.20486,9.743058 h -1.74681 v -5.255406 h 1.74681 z M 46.632266,47.76974 h -0.0117 c -0.585936,0 -0.965016,-0.40365 -0.965016,-0.90792 0,-0.515502 0.39078,-0.90792 0.988182,-0.90792 0.597636,0 0.96525,0.392418 0.97695,0.90792 0,0.50427 -0.379548,0.90792 -0.988416,0.90792 z m 7.172334,5.973318 h -1.74681 v -2.812212 c 0,-0.706212 -0.25272,-1.188252 -0.884754,-1.188252 -0.482508,0 -0.76986,0.325026 -0.896454,0.639054 -0.0461,0.112086 -0.05733,0.268866 -0.05733,0.426114 v 2.935062 h -1.74681 c 0,0 0.02293,-4.762836 0,-5.255406 h 1.74681 v 0.743886 c 0.232128,-0.35802 0.647244,-0.867906 1.574586,-0.867906 1.149174,0 2.010996,0.751374 2.010996,2.36574 v 3.01392 z"
         id="Shape"
         inkscape:connector-curvature="0" />
    </g>
  </g>
</svg>
