<?xml version="1.0" encoding="UTF-8" standalone="no"?>
<svg
   xmlns:dc="http://purl.org/dc/elements/1.1/"
   xmlns:cc="http://creativecommons.org/ns#"
   xmlns:rdf="http://www.w3.org/1999/02/22-rdf-syntax-ns#"
   xmlns:svg="http://www.w3.org/2000/svg"
   xmlns="http://www.w3.org/2000/svg"
   xmlns:sodipodi="http://sodipodi.sourceforge.net/DTD/sodipodi-0.dtd"
   xmlns:inkscape="http://www.inkscape.org/namespaces/inkscape"
   width="100px"
   height="100px"
   viewBox="0 0 100 100"
   version="1.1"
   id="svg12"
   sodipodi:docname="social_svg_g_1_skype.svg"
   inkscape:version="0.92.1 r15371">
  <metadata
     id="metadata16">
    <rdf:RDF>
      <cc:Work
         rdf:about="">
        <dc:format>image/svg+xml</dc:format>
        <dc:type
           rdf:resource="http://purl.org/dc/dcmitype/StillImage" />
        <dc:title>Artboard Copy 8</dc:title>
      </cc:Work>
    </rdf:RDF>
  </metadata>
  <sodipodi:namedview
     pagecolor="#ffffff"
     bordercolor="#666666"
     borderopacity="1"
     objecttolerance="10"
     gridtolerance="10"
     guidetolerance="10"
     inkscape:pageopacity="0"
     inkscape:pageshadow="2"
     inkscape:window-width="1920"
     inkscape:window-height="1017"
     id="namedview14"
     showgrid="false"
     inkscape:zoom="2.36"
     inkscape:cx="50"
     inkscape:cy="50"
     inkscape:window-x="-8"
     inkscape:window-y="-8"
     inkscape:window-maximized="1"
     inkscape:current-layer="svg12" />
  <!-- Generator: Sketch 48.2 (47327) - http://www.bohemiancoding.com/sketch -->
  <title
     id="title2">Artboard Copy 8</title>
  <desc
     id="desc4">Created with Sketch.</desc>
  <defs
     id="defs6" />
<style type="text/css">.icon-fill-15b2ec{fill:#15b2ec;}</style>
  <g
     id="Insert-Buttons"
     transform="matrix(8.5348282,0,0,8.5348282,-382.68888,-382.98645)"
     style="fill:none;fill-rule:evenodd;stroke:none;stroke-width:1">
    <g
       id="Artboard-Copy-8"
       style="fill:#15b2ec">
      <g
         id="07-skype"
         transform="translate(44,44)">
        <path 
           d="m 12.114298,7.96969 c 0.08284,-0.380016 0.126126,-0.772902 0.126126,-1.176786 0,-3.027492 -2.454192,-5.481918 -5.482152,-5.481918 -0.31941,0 -0.632502,0.027846 -0.937872,0.080028 C 5.330872,1.082134 4.750786,0.902656 4.129282,0.902656 c -1.75617,0 -3.179592,1.423656 -3.179592,3.18006 0,0.586638 0.159822,1.135836 0.436878,1.607814 -0.073008,0.355914 -0.110916,0.724932 -0.110916,1.102374 0,3.028194 2.454192,5.48262 5.482386,5.48262 0.343278,0 0.678132,-0.03159 1.003626,-0.09173 0.447876,0.240318 0.9594,0.376974 1.503216,0.376974 1.755936,0 3.179124,-1.423422 3.179124,-3.179358 C 12.444238,8.8741 12.325366,8.395336 12.114298,7.96969 Z M 9.570016,9.413002 c -0.253188,0.358722 -0.628056,0.643266 -1.11384,0.844974 -0.48087,0.199836 -1.057212,0.301392 -1.71288,0.301392 -0.78741,0 -1.447992,-0.138762 -1.963026,-0.412074 C 4.41172,9.948628 4.108222,9.679528 3.877498,9.346078 3.644902,9.010756 3.526966,8.67754 3.526966,8.35579 c 0,-0.200538 0.076752,-0.374868 0.228384,-0.517374 0.150228,-0.141336 0.342576,-0.21294 0.572364,-0.21294 0.18837,0 0.351,0.05616 0.482976,0.167544 0.126126,0.107406 0.234,0.265824 0.321282,0.470106 0.097344,0.223002 0.202878,0.410904 0.314964,0.55809 0.107874,0.14274 0.262314,0.262314 0.45981,0.355914 0.1989,0.093834 0.467064,0.141804 0.796068,0.141804 0.453492,0 0.825318,-0.096642 1.104714,-0.287586 0.273312,-0.186264 0.405288,-0.410202 0.405288,-0.683982 0,-0.21645 -0.06903,-0.3861 -0.211068,-0.520182 C 7.851754,7.687486 7.655428,7.579612 7.41628,7.504498 7.167304,7.427044 6.82894,7.342804 6.410782,7.255054 5.841226,7.133374 5.35825,6.988762 4.973788,6.825664 4.5802,6.65812 4.263364,6.425992 4.031704,6.1363 3.796534,5.841226 3.67696,5.472442 3.67696,5.03767 3.67696,4.62349 3.80215,4.249792 4.049254,3.928276 4.294252,3.608398 4.652506,3.359422 5.113486,3.189538 5.568148,3.021292 6.10939,2.935882 6.722236,2.935882 c 0.489528,0 0.91962,0.057096 1.279278,0.168246 0.36153,0.11232 0.665964,0.26442 0.905346,0.451386 0.240786,0.188604 0.420498,0.38961 0.533286,0.599274 0.113256,0.211068 0.17082,0.421668 0.17082,0.625014 0,0.196092 -0.075348,0.374166 -0.224874,0.529776 C 9.23563,5.465422 9.046558,5.544514 8.823088,5.544514 8.62021,5.544514 8.46109,5.494672 8.350876,5.397796 8.248384,5.306302 8.141914,5.164966 8.023744,4.96162 7.887088,4.702348 7.72165,4.497364 7.531876,4.352986 7.34725,4.212352 7.039306,4.141918 6.616,4.141918 c -0.392652,0 -0.71253,0.078624 -0.949806,0.234702 -0.228618,0.149526 -0.340002,0.321516 -0.340002,0.52533 0,0.12519 0.036036,0.229086 0.110214,0.318942 0.077688,0.095706 0.187902,0.178542 0.32643,0.248508 0.14391,0.072774 0.292968,0.130104 0.441558,0.17082 0.1521,0.042588 0.407628,0.105066 0.75816,0.18603 0.443664,0.095472 0.851994,0.201942 1.21212,0.317538 0.365508,0.117 0.680472,0.260442 0.93834,0.42822 0.262314,0.17082 0.47034,0.390078 0.617994,0.652626 0.148122,0.26325 0.223002,0.588042 0.223002,0.965718 0,0.450684 -0.129402,0.862992 -0.383994,1.22265 z"
           id="Shape"
           inkscape:connector-curvature="0" />
      </g>
    </g>
  </g>
</svg>
