<?xml version="1.0" encoding="UTF-8" standalone="no"?>
<svg
   xmlns:dc="http://purl.org/dc/elements/1.1/"
   xmlns:cc="http://creativecommons.org/ns#"
   xmlns:rdf="http://www.w3.org/1999/02/22-rdf-syntax-ns#"
   xmlns:svg="http://www.w3.org/2000/svg"
   xmlns="http://www.w3.org/2000/svg"
   xmlns:sodipodi="http://sodipodi.sourceforge.net/DTD/sodipodi-0.dtd"
   xmlns:inkscape="http://www.inkscape.org/namespaces/inkscape"
   width="100px"
   height="100px"
   viewBox="0 0 100 100"
   version="1.1"
   style="background: #4184F3;"
   id="svg12"
   sodipodi:docname="social_svg_g_2_vk.svg"
   inkscape:version="0.92.1 r15371">
  <metadata
     id="metadata16">
    <rdf:RDF>
      <cc:Work
         rdf:about="">
        <dc:format>image/svg+xml</dc:format>
        <dc:type
           rdf:resource="http://purl.org/dc/dcmitype/StillImage" />
        <dc:title>Artboard Copy 36</dc:title>
      </cc:Work>
    </rdf:RDF>
  </metadata>
  <sodipodi:namedview
     pagecolor="#ffffff"
     bordercolor="#666666"
     borderopacity="1"
     objecttolerance="10"
     gridtolerance="10"
     guidetolerance="10"
     inkscape:pageopacity="0"
     inkscape:pageshadow="2"
     inkscape:window-width="1920"
     inkscape:window-height="932"
     id="namedview14"
     showgrid="false"
     inkscape:zoom="4.72"
     inkscape:cx="47.937651"
     inkscape:cy="69.807578"
     inkscape:window-x="0"
     inkscape:window-y="27"
     inkscape:window-maximized="1"
     inkscape:current-layer="svg12" />
  <!-- Generator: Sketch 48.2 (47327) - http://www.bohemiancoding.com/sketch -->
  <title
     id="title2">Artboard Copy 36</title>
  <desc
     id="desc4">Created with Sketch.</desc>
  <defs
     id="defs6" />
  <path
     inkscape:connector-curvature="0"
     style="fill:#000000;fill-rule:nonzero;stroke:none;stroke-width:7.10714293"
     id="Shape"
     d="m 81.195547,78.428576 c -1.106568,0 -3.348815,-0.256959 -5.961301,-1.990408 -1.971849,-1.317421 -3.877132,-3.426112 -5.720018,-5.469543 -2.799689,-3.103894 -5.478737,-5.979381 -7.633624,-5.314552 -2.936969,0.909551 -3.635851,6.23634 -3.594251,8.928284 -0.0042,0.265117 -0.06656,1.329658 -0.798722,2.096455 -0.549122,0.538389 -1.285444,0.750481 -2.674888,0.791269 l -6.1693,0.01222 c 0.0042,0.0041 -0.295358,0.0204 -0.790402,0.0204 -3.124169,0 -14.077483,-0.766796 -23.824393,-10.60871 C 11.469569,54.221464 0.36233506,29.182296 0.2500147,28.929416 l 0.28704087,-2.589977 c 0.0207998,-0.01224 0.0416002,-0.02855 0.0582402,-0.04079 l 0.64480203,-0.31406 c 0.8112024,-0.277351 1.7555253,-0.297745 1.988486,-0.297745 l 13.9360432,-0.08565 c 0.382719,0.03671 1.672325,0.273273 2.575048,0.893237 0.798722,0.587333 1.243844,1.582537 1.264643,1.627403 0.04577,0.110125 2.321288,5.69795 5.374737,10.775937 5.474577,9.181165 8.382425,12.297295 10.745313,11.069605 1.468484,-0.774954 2.687369,-5.412441 2.075847,-14.002193 0.01664,-1.757922 -0.266241,-5.2289 -1.489285,-6.811437 -0.765442,-1.015597 -1.896966,-1.60701 -2.708168,-1.925149 L 32.290433,26.168134 34.49108,24.29193 c 0.320321,-0.273273 0.657282,-0.497602 0.998403,-0.664829 1.876165,-0.885079 4.759054,-2.055667 8.290906,-2.055667 h 4.879694 c 2.487688,0 3.831372,0.558783 4.908816,1.00744 0.490883,0.199856 0.919363,0.37932 1.376964,0.489445 3.810571,0.881 3.673291,4.356056 3.42369,10.661734 -0.07488,1.876204 -0.162241,4.013445 -0.162241,6.42396 0,0.542467 -0.01663,1.121643 -0.03326,1.713055 -0.08736,3.046793 -0.195517,6.774729 1.942726,8.116623 1.198083,0.730088 3.843852,-0.04897 10.441632,-10.922772 3.144966,-5.204427 5.449614,-11.126706 5.470416,-11.183807 0.06254,-0.142755 0.569922,-1.223612 1.335361,-1.692663 0.507521,-0.305903 1.114884,-0.367083 1.539208,-0.367083 l 0.557414,0.02855 15.050924,-0.114204 c -0.0085,-0.0041 0.457629,-0.04895 1.081601,-0.04895 2.129925,0 3.074251,0.50168 3.315532,0.652592 l 0.486697,0.309982 0.212148,0.53431 c 0.807089,2.096458 -1.822037,7.084714 -7.829094,14.830174 -1.289605,1.655954 -2.421126,3.087579 -3.411208,4.331585 -6.722582,8.442918 -6.722582,8.442918 0.5658,14.997397 6.348178,5.702028 8.927381,9.250502 9.971549,11.220516 0.861122,1.362288 1.073278,2.598135 0.578237,3.564788 -0.952642,1.810945 -4.039366,2.051588 -4.168332,2.063825 l -13.690603,0.22025 c 0.02077,0.0041 -0.162271,0.02039 -0.428511,0.02039 z"
     sodipodi:nodetypes="ccccccccscccccccccccccccccsscccsccccccccscccccccccccc" />
</svg>
