<?xml version="1.0" encoding="UTF-8" standalone="no"?>
<svg
   xmlns:dc="http://purl.org/dc/elements/1.1/"
   xmlns:cc="http://creativecommons.org/ns#"
   xmlns:rdf="http://www.w3.org/1999/02/22-rdf-syntax-ns#"
   xmlns:svg="http://www.w3.org/2000/svg"
   xmlns="http://www.w3.org/2000/svg"
   xmlns:sodipodi="http://sodipodi.sourceforge.net/DTD/sodipodi-0.dtd"
   xmlns:inkscape="http://www.inkscape.org/namespaces/inkscape"
   width="100px"
   height="100px"
   viewBox="0 0 100 100"
   version="1.1"
   id="svg12"
   sodipodi:docname="social_svg_g_1_vimeo.svg"
   inkscape:version="0.92.1 r15371">
  <metadata
     id="metadata16">
    <rdf:RDF>
      <cc:Work
         rdf:about="">
        <dc:format>image/svg+xml</dc:format>
        <dc:type
           rdf:resource="http://purl.org/dc/dcmitype/StillImage" />
        <dc:title>Artboard Copy 6</dc:title>
      </cc:Work>
    </rdf:RDF>
  </metadata>
  <sodipodi:namedview
     pagecolor="#ffffff"
     bordercolor="#666666"
     borderopacity="1"
     objecttolerance="10"
     gridtolerance="10"
     guidetolerance="10"
     inkscape:pageopacity="0"
     inkscape:pageshadow="2"
     inkscape:window-width="1920"
     inkscape:window-height="1017"
     id="namedview14"
     showgrid="false"
     inkscape:zoom="2.36"
     inkscape:cx="50"
     inkscape:cy="50"
     inkscape:window-x="-8"
     inkscape:window-y="-8"
     inkscape:window-maximized="1"
     inkscape:current-layer="svg12" />
  <!-- Generator: Sketch 48.2 (47327) - http://www.bohemiancoding.com/sketch -->
  <title
     id="title2">Artboard Copy 6</title>
  <desc
     id="desc4">Created with Sketch.</desc>
  <defs
     id="defs6" />
<style type="text/css">.icon-fill-44bbff{fill:#44bbff;}</style>
  <g
     id="Insert-Buttons"
     transform="matrix(8.5918486,0,0,8.5918486,-385.58301,-380.49059)"
     style="fill:none;fill-rule:evenodd;stroke:none;stroke-width:1">
    <g
       id="Artboard-Copy-6"
       style="fill:#44bbff">
      <g
         id="13-vimeo"
         transform="translate(44,45)">
        <path class="icon-fill-44bbff"
           d="m 0.906868,2.801916 0.47034,0.616824 c 0,0 0.970164,-0.764478 1.293552,-0.382356 C 2.994148,3.41874 4.228264,8.033922 4.640338,8.885682 4.999996,9.63261 5.992156,10.620324 7.080022,9.91458 8.167186,9.209304 11.782954,6.12261 12.429964,2.477826 13.07674,-1.16649 8.078968,-0.403416 7.550128,2.77173 8.872696,1.9773 9.579142,3.09465 8.90218,4.359186 8.226154,5.622552 7.608862,6.4467 7.285708,6.4467 6.963022,6.4467 6.714514,5.601492 6.344794,4.123548 5.962204,2.595528 5.964778,-0.156546 4.37545,0.155376 2.876446,0.449514 0.906868,2.801916 0.906868,2.801916 Z"
           id="Shape"
           inkscape:connector-curvature="0" />
      </g>
    </g>
  </g>
</svg>
