<?xml version="1.0" encoding="UTF-8" standalone="no"?>
<svg
   xmlns:dc="http://purl.org/dc/elements/1.1/"
   xmlns:cc="http://creativecommons.org/ns#"
   xmlns:rdf="http://www.w3.org/1999/02/22-rdf-syntax-ns#"
   xmlns:svg="http://www.w3.org/2000/svg"
   xmlns="http://www.w3.org/2000/svg"
   xmlns:sodipodi="http://sodipodi.sourceforge.net/DTD/sodipodi-0.dtd"
   xmlns:inkscape="http://www.inkscape.org/namespaces/inkscape"
   width="100px"
   height="100px"
   viewBox="0 0 100 100"
   version="1.1"
   id="svg11"
   sodipodi:docname="social_svg_g_1_pinterest.svg"
   inkscape:version="0.92.1 r15371">
  <metadata
     id="metadata15">
    <rdf:RDF>
      <cc:Work
         rdf:about="">
        <dc:format>image/svg+xml</dc:format>
        <dc:type
           rdf:resource="http://purl.org/dc/dcmitype/StillImage" />
        <dc:title>Artboard Copy 11</dc:title>
      </cc:Work>
    </rdf:RDF>
  </metadata>
  <sodipodi:namedview
     pagecolor="#ffffff"
     bordercolor="#666666"
     borderopacity="1"
     objecttolerance="10"
     gridtolerance="10"
     guidetolerance="10"
     inkscape:pageopacity="0"
     inkscape:pageshadow="2"
     inkscape:window-width="1920"
     inkscape:window-height="1017"
     id="namedview13"
     showgrid="false"
     inkscape:zoom="2.36"
     inkscape:cx="50"
     inkscape:cy="50"
     inkscape:window-x="-8"
     inkscape:window-y="-8"
     inkscape:window-maximized="1"
     inkscape:current-layer="svg11" />
  <!-- Generator: Sketch 48.2 (47327) - http://www.bohemiancoding.com/sketch -->
  <title
     id="title2">Artboard Copy 11</title>
  <desc
     id="desc4">Created with Sketch.</desc>
  <defs
     id="defs6" />
<style type="text/css">.icon-fill-ce0f19{fill:#ce0f19;}</style>
  <g
     id="Insert-Buttons"
     transform="matrix(6.8775938,0,0,6.8775938,-291.12817,-295.48653)"
     style="fill:none;fill-rule:evenodd;stroke:none;stroke-width:1">
    <g
       id="Artboard-Copy-11"
       style="fill:#ce0f19">
      <path class="icon-fill-ce0f19"

         d="M 49.938882,43 C 45.990703,43 44,45.830676 44,48.191204 c 0,1.429274 0.541123,2.700817 1.701728,3.174658 0.190312,0.0778 0.36078,0.0027 0.415972,-0.208032 0.0384,-0.145826 0.129213,-0.513712 0.16973,-0.666921 0.05565,-0.208401 0.03406,-0.281499 -0.119521,-0.463135 -0.334661,-0.394744 -0.548507,-0.905779 -0.548507,-1.629646 0,-2.100072 1.571223,-3.980113 4.09142,-3.980113 2.231592,0 3.457634,1.363561 3.457634,3.184626 0,2.396061 -1.060373,4.418328 -2.63455,4.418328 -0.869416,0 -1.520185,-0.718975 -1.311507,-1.600758 0.24975,-1.052712 0.73365,-2.188859 0.73365,-2.948721 0,-0.680211 -0.365117,-1.247546 -1.120826,-1.247546 -0.888705,0 -1.602604,0.919346 -1.602604,2.150926 0,0.784412 0.26507,1.314921 0.26507,1.314921 0,0 -0.909471,3.853394 -1.068864,4.52816 -0.317493,1.343994 -0.04772,2.991545 -0.02492,3.157953 0.01338,0.09857 0.140103,0.122013 0.19751,0.04753 0.08196,-0.106969 1.140393,-1.413677 1.50025,-2.719369 0.1018,-0.369732 0.584501,-2.284199 0.584501,-2.284199 0.288698,0.550722 1.132548,1.035822 2.029929,1.035822 2.671375,0 4.483765,-2.435378 4.483765,-5.695224 C 55.199861,45.295644 53.112064,43 49.938882,43 Z"
         id="Shape-4"
         inkscape:connector-curvature="0" />
    </g>
  </g>
</svg>
