<?xml version="1.0" encoding="UTF-8" standalone="no"?>
<svg
   xmlns:dc="http://purl.org/dc/elements/1.1/"
   xmlns:cc="http://creativecommons.org/ns#"
   xmlns:rdf="http://www.w3.org/1999/02/22-rdf-syntax-ns#"
   xmlns:svg="http://www.w3.org/2000/svg"
   xmlns="http://www.w3.org/2000/svg"
   xmlns:sodipodi="http://sodipodi.sourceforge.net/DTD/sodipodi-0.dtd"
   xmlns:inkscape="http://www.inkscape.org/namespaces/inkscape"
   width="100px"
   height="100px"
   viewBox="0 0 100 100"
   version="1.1"
   style="background: #4184F3;"
   id="svg11"
   sodipodi:docname="social_svg_g_2_gi.svg"
   inkscape:version="0.92.1 r15371">
  <metadata
     id="metadata15">
    <rdf:RDF>
      <cc:Work
         rdf:about="">
        <dc:format>image/svg+xml</dc:format>
        <dc:type
           rdf:resource="http://purl.org/dc/dcmitype/StillImage" />
        <dc:title>Artboard Copy 31</dc:title>
      </cc:Work>
    </rdf:RDF>
  </metadata>
  <sodipodi:namedview
     pagecolor="#ffffff"
     bordercolor="#666666"
     borderopacity="1"
     objecttolerance="10"
     gridtolerance="10"
     guidetolerance="10"
     inkscape:pageopacity="0"
     inkscape:pageshadow="2"
     inkscape:window-width="1920"
     inkscape:window-height="932"
     id="namedview13"
     showgrid="false"
     showguides="true"
     inkscape:guide-bbox="true"
     inkscape:zoom="3.337544"
     inkscape:cx="-56.850199"
     inkscape:cy="70.909733"
     inkscape:window-x="0"
     inkscape:window-y="27"
     inkscape:window-maximized="1"
     inkscape:current-layer="svg11">
    <sodipodi:guide
       position="102.11864,-2.1186441"
       orientation="1,0"
       id="guide4492"
       inkscape:locked="false" />
  </sodipodi:namedview>
  <!-- Generator: Sketch 48.2 (47327) - http://www.bohemiancoding.com/sketch -->
  <title
     id="title2">Artboard Copy 31</title>
  <desc
     id="desc4">Created with Sketch.</desc>
  <defs
     id="defs6" />
  <g
     id="Insert-Buttons"
     style="fill:#550000;fill-rule:evenodd;stroke:none;stroke-width:1"
     transform="matrix(7.0348868,0,0,7.0348868,-301.74434,-302.25013)">
    <g
       id="Artboard-Copy-31"
       style="fill:#550000;fill-rule:nonzero">
      <path
         d="m 48.159345,57.046071 c -0.133493,-0.01675 -0.337077,-0.05984 -0.422376,-0.08677 l -0.07946,-0.02694 C 44.870133,55.915434 43,53.19923 43,50.171184 43,46.217187 46.140258,43 49.999708,43 53.860326,43 57,46.217187 57,50.171184 c 0,3.057974 -1.894087,5.782557 -4.712432,6.779735 l -0.07653,0.02275 c -0.0742,0.01796 -0.138119,0.02846 -0.206819,0.03878 -1.360736,0.204438 -3.049078,0.133486 -3.844874,0.03362 z m 1.840363,-13.572022 c -3.60414,0 -6.53641,3.004104 -6.53641,6.697135 0,2.828132 1.746859,5.364771 4.346701,6.312869 l 0.07011,0.02454 c 0.03505,0.01137 0.07537,0.01736 0.11451,0.01736 0.211492,0 0.383257,-0.175972 0.383257,-0.392048 V 54.93801 c -0.213245,0.04669 -0.532821,0.100556 -0.831949,0.100556 -0.236615,0 -0.424154,-0.03412 -0.556775,-0.09996 -0.437007,-0.214279 -0.660184,-0.481231 -0.885699,-1.055237 -0.104578,-0.26755 -0.278095,-0.492604 -0.5299,-0.68773 l -0.734382,-0.569816 0.910236,0.146644 c 0.185787,0.02993 0.341777,0.114322 0.451029,0.243608 0.07186,0.0844 0.14898,0.193331 0.230188,0.310047 0.278096,0.397435 0.631557,0.892433 1.213454,0.835571 0.303802,-0.03232 0.55736,-0.082 0.753078,-0.146045 0.03914,-0.35434 0.149564,-0.631467 0.326003,-0.820607 -1.911614,-0.320821 -2.922339,-1.415563 -2.922339,-3.161522 0,-0.829586 0.225514,-1.514323 0.669532,-2.036255 -0.06427,-0.363318 -0.182865,-1.253356 0.0742,-1.640017 l 0.05375,-0.0808 0.09348,-0.01855 c 0.02863,-0.0054 0.07069,-0.01137 0.127947,-0.01137 0.26349,0 0.745483,0.120307 1.542962,0.69551 0.479072,-0.113125 1.019489,-0.171782 1.605475,-0.174775 l 0.262321,-0.03711 5.85e-4,0.0401 c 0.524057,0.01556 0.989692,0.07362 1.406835,0.171782 0.794558,-0.574006 1.282394,-0.694313 1.55231,-0.694313 0.04849,0 0.08413,0.0042 0.107499,0.0078 l 0.09874,0.01496 0.05725,0.08499 c 0.258232,0.384865 0.139632,1.277298 0.07653,1.643608 0.443434,0.51894 0.668364,1.203677 0.668364,2.033861 0,1.74596 -1.010141,2.840701 -2.923507,3.163916 0.347035,0.366909 0.347035,0.978025 0.347035,1.178538 v 1.758529 c 0,0.246601 0.229019,0.441129 0.475566,0.380676 l 0.04499,-0.01377 c 2.626132,-0.928944 4.394609,-3.473364 4.394609,-6.329029 -5.85e-4,-3.69363 -2.933439,-6.697734 -6.537579,-6.697734 z"
         id="Shape"
         style="fill:#550000"
         inkscape:connector-curvature="0"
         sodipodi:nodetypes="cccsssccssccccsscsccccccccccsccccscccccsccccscsscccccc" />
    </g>
  </g>
</svg>
