<?xml version="1.0" encoding="utf-8"?>
<!-- Generator: Adobe Illustrator 21.0.0, SVG Export Plug-In . SVG Version: 6.00 Build 0)  -->
<svg version="1.1" id="Слой_1" xmlns="http://www.w3.org/2000/svg" xmlns:xlink="http://www.w3.org/1999/xlink" x="0px" y="0px"
	 viewBox="0 0 100 100" style="enable-background:new 0 0 100 100;" xml:space="preserve">
<style type="text/css">
	.st0{fill:#FF3466;stroke:#FFFFFF;stroke-width:2.1465;}
</style>
<g id="VF-7.2-Copy-2" transform="translate(-437.000000, -568.000000)">
	<g id="Group-7" transform="translate(435.000000, 565.000000)">
		<path id="Combined-Shape" class="st0" d="M73,58.7c2.6-10.2-2-21.1-11.4-25.7c-10.9-5.3-24.3-0.4-29.9,11c-3.4,7-3.2,15,0.4,21.5
			c0.7,1.2,0.2,2.7-0.9,3.3c-1.2,0.7-2.7,0.2-3.3-0.9c-4.4-7.9-4.7-17.6-0.6-26c6.7-13.8,23-19.8,36.4-13.3
			c11.7,5.7,17.3,19.1,14,31.6l2.9-1.9c1.1-0.7,2.7-0.4,3.4,0.7c0.7,1.1,0.4,2.7-0.7,3.4l-8.4,5.5c-0.6,0.4-1.2,0.5-1.9,0.3
			c-1.1,0.1-2.1-0.6-2.4-1.7l-3.4-9.8c-0.4-1.3,0.2-2.7,1.5-3.1c1.3-0.4,2.7,0.2,3.1,1.5L73,58.7z"/>
		<path id="Oval" class="st0" d="M52,59.4c-3.6,0-6.4-2.9-6.4-6.4s2.9-6.4,6.4-6.4s6.4,2.9,6.4,6.4S55.6,59.4,52,59.4z M52,55.1
			c1.2,0,2.1-1,2.1-2.1s-1-2.1-2.1-2.1s-2.1,1-2.1,2.1S50.8,55.1,52,55.1z"/>
	</g>
</g>
</svg>
