<svg id="Layer_1" data-name="Layer 1" xmlns="http://www.w3.org/2000/svg" xmlns:xlink="http://www.w3.org/1999/xlink" viewBox="0 0 888.01 689.02"><defs><style>.cls-1{fill:url(#linear-gradient);}.cls-2{fill:url(#linear-gradient-2);}.cls-3{fill:#100a5b;}.cls-4{fill:#303030;}.cls-5{fill:#535354;}.cls-6{fill:#ccb2a8;}.cls-7{fill:#c6c6c6;}.cls-8{fill:#808ded;}.cls-9{fill:#6272bc;}.cls-10{fill:#1f0e93;}.cls-11{fill:#e2e2e2;}.cls-12{fill:#5b5b5b;}</style><linearGradient id="linear-gradient" x1="225.85" y1="481.85" x2="608.1" y2="481.85" gradientUnits="userSpaceOnUse"><stop offset="0" stop-color="#9ab4e8"/><stop offset="0.21" stop-color="#9eb7e9"/><stop offset="0.41" stop-color="#a9bfeb"/><stop offset="0.6" stop-color="#bccdf0"/><stop offset="0.79" stop-color="#d7e1f6"/><stop offset="0.97" stop-color="#f9fafe"/><stop offset="1" stop-color="#fff"/></linearGradient><linearGradient id="linear-gradient-2" x1="409.79" y1="480.54" x2="409.79" y2="148.16" gradientUnits="userSpaceOnUse"><stop offset="0.09" stop-color="#9ab4e8"/><stop offset="0.51" stop-color="#b4c1e3" stop-opacity="0.6"/><stop offset="0.84" stop-color="#c7cadf" stop-opacity="0.31"/><stop offset="1" stop-color="#cecedd" stop-opacity="0.2"/></linearGradient></defs><title>Exit</title><rect class="cls-1" x="225.85" y="480.62" width="382.25" height="2.47" rx="1.23"/><path class="cls-2" d="M461.76,148.44C411.4,151.37,410.3,174.93,355,174.2c-33.11-.44-57.75-9.22-85.2,6.63-11.8,6.81-17.44,15.3-28.64,27.86-41.87,46.94-46,77.35-40.46,97.1,8.05,28.72,37.48,38.14,36.92,68.16-.42,22.17-16.69,28.55-18,53-1.2,22.49,11.25,41.42,21.53,53.58H587.77c13.17-10.83,28.18-26.94,27.59-46-.71-23-23.44-27.85-28.4-53-5.51-28,19.13-39.61,29.35-81.41,1.69-6.91,11.16-45.64-3.79-79.52C589.45,168.29,516,145.29,461.76,148.44Z"/><path class="cls-3" d="M482.6,480.54H329.41l1-246.34a4,4,0,0,1,4.08-3.87h145a4,4,0,0,1,4.08,3.9Z"/><path class="cls-4" d="M346.85,238.35h124a3.13,3.13,0,0,1,3.13,3.13V463.74a0,0,0,0,1,0,0H346.85a6.08,6.08,0,0,1-6.08-6.08V244.43A6.08,6.08,0,0,1,346.85,238.35Z"/><polygon class="cls-5" points="474.09 480.54 442.99 505.98 340.39 480.59 340.49 463.74 474.09 463.74 474.09 480.54"/><path class="cls-6" d="M508.78,353.81a86.81,86.81,0,0,1,4.43,8.1c.66,1.3,1.24,2.47.86,3.74-.29,1-1.11,1.9-1.71,1.79s-1.39-1.9-1.17-1.87c.4.05,1.51,2.56-.47,3.27s-4.09-.95-3.5-1.25c.89-.45,2.83,2.27-1.09,3.27-.78.2-2.14-.88-3-1.94a14.5,14.5,0,0,1-1.55-15.5c.47-.88,1.93-3.59,3.73-3.5C506,350,506.55,350.42,508.78,353.81Z"/><path d="M530.25,467.23c.15,3.42,3,3.54,3.64,7.72.42,2.83-.73,4,0,7.92.36,1.9.64,3.42,1.5,3.65,1.8.47,5.92-4.73,6.43-10.07.3-3.07.43-5.57.43-5.57.14-2.63.1-3.58.86-4.29,1.26-1.18,3.1-.14,4.07-1.29.74-.88.46-2.47,0-3.42-1.55-3.15-8-4.82-12.43-2.15C532.27,461.21,530.12,464.19,530.25,467.23Z"/><path class="cls-7" d="M470.44,377.93c2.35,2.29,1,5.33,2.33,6.78,8.67,9.57,12.57,33.2,16.28,38.79,0,0,5,7.59,49.1,30.81a13.47,13.47,0,0,1,2.89,1.93c1.79,2.05-2.46,11.69-8,15.08-13.3,8.1-41.95-14.77-55.84-29.2,0,0-25.05-20.23-30.49-50.65-.57-3.15,4-8.46,6.92-11.94C457.51,374.83,466.59,374.18,470.44,377.93Z"/><path class="cls-8" d="M431.87,299.68c4.93-2.76,15.4-5.74,25.12-3a62.94,62.94,0,0,1,13.27,6c3.33,2,6.24,4.07,7.81,5.21,5.3,3.85,4.34,3.83,7.73,6.07,4.9,3.24,7.48,3.64,11.45,7.56a29.9,29.9,0,0,1,2.1,2.27c2.36,3.17,3.16,7.11,7.66,17.54,3.73,8.63,5,10.48,3.85,13-1.84,4-8.33,6.12-12.22,4.09-1.87-1-2.66-2.65-4.15-6.41-5.51-13.94-6.13-14.18-9.68-17.88a22.67,22.67,0,0,0-10-6c-3.41-.95-7.12-4.34-8.84-2.48-2.23,2.4,1.48,8.71,8.13,21.3,11.86,22.46,14.22,27.6,12,32.5-1.1,2.44-5.09,4.52-13.09,8.68-9.9,5.15-16.81,8.64-25.79,8a34.87,34.87,0,0,1-10.6-2.64C414,383,407,313.58,431.87,299.68Z"/><path class="cls-8" d="M473,388.06a49.63,49.63,0,0,1-16.85,7.71,48.87,48.87,0,0,1-9.95,1.37"/><path class="cls-9" d="M473,388.06a24.61,24.61,0,0,1-5.75,4.45,43.84,43.84,0,0,1-13.73,4.91,40.62,40.62,0,0,1-7.29.62l-.07-1.8a64.79,64.79,0,0,0,7-.91,59.58,59.58,0,0,0,6.81-1.73,58.12,58.12,0,0,0,6.55-2.57C468.64,390.07,470.76,389,473,388.06Z"/><path class="cls-10" d="M340.39,480.59,443,506s0,0,0,0V268.6a2.55,2.55,0,0,0-1.89-2.47l-100.61-27.7a.24.24,0,0,0-.3.23v241.7A.25.25,0,0,0,340.39,480.59Z"/><path class="cls-3" d="M353.91,238.39l-13.7,0,101,27.79a2.49,2.49,0,0,1,1.84,2.41V506l4.57-3.17a1.83,1.83,0,0,0,.79-1.5v-235a2.16,2.16,0,0,0-1.58-2.08l-92.4-25.75A2,2,0,0,0,353.91,238.39Z"/><rect class="cls-11" x="338.36" y="273.85" width="3.52" height="21.45" rx="1.76"/><rect class="cls-11" x="338.36" y="423.59" width="3.52" height="21.45" rx="1.76"/><path class="cls-11" d="M431.31,394.35l-1.27-.73a1.76,1.76,0,0,1-1.76-1.76V373.93a1.76,1.76,0,0,1,1.76-1.76l1.39.62a1.91,1.91,0,0,1,1.72,2v18.08A1.64,1.64,0,0,1,431.31,394.35Z"/><polygon class="cls-12" points="448.03 463.74 474.09 463.74 474.09 480.54 448.09 502.29 448.03 463.74"/><path class="cls-8" d="M493.38,334.12a8,8,0,0,0,4.48-2,8.58,8.58,0,0,0,2.6-6.59"/><path class="cls-9" d="M493.38,334.12a8.07,8.07,0,0,0,2.76-1.21,5.73,5.73,0,0,0,1.92-2.12c.21-.43.39-.84.62-1.23s.45-.8.67-1.22c.4-.87.75-1.79,1.11-2.82a5.89,5.89,0,0,1,.34,3.25,6.68,6.68,0,0,1-.5,1.63,3.94,3.94,0,0,1-1.06,1.34,10.1,10.1,0,0,1-2.78,1.78A8.31,8.31,0,0,1,493.38,334.12Z"/></svg>