<svg id="Layer_1" data-name="Layer 1" xmlns="http://www.w3.org/2000/svg" xmlns:xlink="http://www.w3.org/1999/xlink" viewBox="0 0 1031.27 706.33"><defs><style>.cls-1{fill:url(#linear-gradient);}.cls-2{fill:url(#linear-gradient-2);}.cls-3{fill:#100a5b;}.cls-4{fill:#303030;}.cls-5{fill:#535354;}.cls-6{fill:#c6c6c6;}.cls-7{fill:#ccb2a8;}.cls-8{opacity:0.4;}.cls-9{fill:#726258;}.cls-10{fill:#808ded;}.cls-11,.cls-13{fill:#f4f8fd;}.cls-12{fill:#a03434;}.cls-13{stroke:#1e1b19;stroke-miterlimit:10;stroke-width:0.1px;}.cls-14{fill:#522d16;}.cls-15{fill:#1f0e93;}.cls-16{fill:#e2e2e2;}.cls-17{fill:#1e1b19;}.cls-18{opacity:0.6;}.cls-19{fill:#1a1a1a;}.cls-20{opacity:0.2;}.cls-21{fill:#72364a;}</style><linearGradient id="linear-gradient" x1="460.14" y1="480.08" x2="842.39" y2="480.08" gradientUnits="userSpaceOnUse"><stop offset="0" stop-color="#1362c5" stop-opacity="0.7"/><stop offset="0.25" stop-color="#1666d5" stop-opacity="0.62"/><stop offset="1" stop-color="#1f70ff" stop-opacity="0.4"/></linearGradient><linearGradient id="linear-gradient-2" x1="644.08" y1="478.77" x2="644.08" y2="146.38" gradientUnits="userSpaceOnUse"><stop offset="0.09" stop-color="#9ab4e8"/><stop offset="0.51" stop-color="#b4c1e3" stop-opacity="0.6"/><stop offset="0.84" stop-color="#c7cadf" stop-opacity="0.31"/><stop offset="1" stop-color="#cecedd" stop-opacity="0.2"/></linearGradient></defs><title>Exit</title><rect class="cls-1" x="460.14" y="478.84" width="382.25" height="2.47" rx="1.23"/><path class="cls-2" d="M696.05,146.67c-50.36,2.92-51.46,26.48-106.74,25.76-33.11-.44-57.75-9.22-85.2,6.62-11.8,6.82-17.44,15.31-28.64,27.87-41.87,46.94-46,77.34-40.47,97.1,8.06,28.72,37.49,38.13,36.93,68.16-.42,22.17-16.69,28.55-18,53-1.2,22.49,11.25,41.42,21.53,53.58H822.05c13.18-10.83,28.19-26.94,27.6-46-.71-23-23.44-27.85-28.4-53-5.51-28,19.13-39.61,29.35-81.41,1.69-6.91,11.16-45.65-3.79-79.53C823.74,166.52,750.31,143.51,696.05,146.67Z"/><path class="cls-3" d="M716.89,478.77H563.7l1-246.34a4,4,0,0,1,4.08-3.88h145a4,4,0,0,1,4.08,3.91Z"/><path class="cls-4" d="M581.14,236.58h124a3.13,3.13,0,0,1,3.13,3.13V462a0,0,0,0,1,0,0H581.14a6.08,6.08,0,0,1-6.08-6.08V242.66A6.08,6.08,0,0,1,581.14,236.58Z"/><polygon class="cls-5" points="708.38 478.77 692.88 491.83 574.68 478.81 574.78 461.96 708.38 461.96 708.38 478.77"/><path d="M723.18,473.06c3.09.77,2.68,3.43,6.38,4.76,2.51.91,3.79.08,7.25,1.48,1.66.67,3,1.21,3.05,2,.1,1.74-5.42,4.53-10.4,4-2.86-.3-5.18-.64-5.18-.64-2.42-.36-3.29-.57-4.08,0-1.31.93-.7,2.81-1.93,3.48-.94.51-2.35,0-3.13-.64-2.59-2-2.93-8.16.35-11.76C717.3,473.79,720.42,472.37,723.18,473.06Z"/><path class="cls-6" d="M646.84,400.76c1.75,2.62,5,2.05,6.1,3.56,7.54,9.94,29.65,18.51,34.33,23.08-1.85-8.58-3.15-15.59-2.49-15.73,2.06-.46,22.63,67,22.54,67a1.67,1.67,0,0,0-.08-.2,14.26,14.26,0,0,0,1.37,3.24c2,2.54,12.32-.75,16.22-4.11,12.67-10.91-9.25-50.81-11.38-54.61-12.52-31.23-32.5-50-45.86-47.56-4.81.86-11.44,4.94-15.85,10.31C650.74,387,643.46,395.69,646.84,400.76Z"/><path class="cls-7" d="M762.37,363.39c1.1-1.21,2.64-.42,4.52-2.32.68-.68,1.44-1.75,2-1.56a.59.59,0,0,1,.36.46c.16,1-1.83,2.26-1.75,2.41s4.56-4.07,7.57-3.09c1.94.63,3.29,3.48,2.63,5.79-.76,2.67-4,3.87-5,4.26-2.35.88-3.26.15-5.31,1.37s-2.08,2.35-3,2.34C762.18,373,760.21,365.74,762.37,363.39Z"/><g class="cls-8"><path class="cls-7" d="M771.42,363.58a19.81,19.81,0,0,0,2.42-1.94,25.35,25.35,0,0,0,1.94-2"/><path class="cls-9" d="M771.42,363.58l1.09-1c.35-.34.73-.65,1.07-1l1-1a12,12,0,0,1,1.16-.95,14.89,14.89,0,0,1-.89,1.2c-.34.37-.65.76-1,1.09a10.38,10.38,0,0,1-1.17.93A8.33,8.33,0,0,1,771.42,363.58Z"/></g><g class="cls-8"><path class="cls-7" d="M771.92,365.6a13.76,13.76,0,0,0,3.69-2.38,16.32,16.32,0,0,0,1.66-1.69"/><path class="cls-9" d="M771.92,365.6c.47-.32,1-.61,1.4-.93s.92-.64,1.37-1a16.12,16.12,0,0,0,1.28-1.07c.41-.38.84-.75,1.3-1.1-.33.46-.7.9-1.07,1.34a8.14,8.14,0,0,1-1.24,1.18,10.47,10.47,0,0,1-1.44.94A7.23,7.23,0,0,1,771.92,365.6Z"/></g><g class="cls-8"><path class="cls-7" d="M772.66,367.14a11.26,11.26,0,0,0,2.69-1.46,11.63,11.63,0,0,0,2.21-2.11"/><path class="cls-9" d="M772.66,367.14a22.33,22.33,0,0,0,2.57-1.62,23.6,23.6,0,0,0,2.33-1.95,7.83,7.83,0,0,1-2.1,2.27A7.71,7.71,0,0,1,772.66,367.14Z"/></g><path class="cls-10" d="M683.46,316.52l1.16.05c4,.24,10.24,1.16,20.68,6.09,6.84,3.22,10.26,4.84,12.92,7.44,4.28,4.18,6.46,9,8,12.31,1.75,3.85,1.47,4.43,3.62,10.51,3.59,10.1,5.39,15.14,8.47,16.24,4.9,1.75,12.66-3,15.44-4.66,2.39-1.45,3.29-2.4,5.07-2.35,4.4.13,9.39,6.28,8.33,10.87-.86,3.71-5.4,5.12-12.25,7.25-8.72,2.71-18.32,5.7-25.42.71-4.47-3.14-7.33-9-7.86-10.14-1-2.16-1.41-3.72-3.18-7.42-2.38-4.94-3.56-7.41-4.71-7.43-2.88,0-5.88,11.47-7.12,20.9-1.85,14,.78,18.74-2.48,21.09-5.75,4.16-15.47-9.51-29.07-6.26-7.69,1.83-11.23,7.78-16.47,5.9-2.87-1-4-4.24-6.28-8-10.81-18.13-7.9-59.39,14.07-70.07C672.9,316.33,679.91,316.45,683.46,316.52Z"/><path class="cls-7" d="M697.43,306.61c-1.79,1.24-.47,3.67-2.82,8.2-2.18,4.2-4.56,4.52-4.43,6.5.3,4.31,12,8.35,14.5,5.49.84-.95,0-1.87.62-4.14,1.26-4.52,5.74-4.94,6.11-7.56C712,310.79,701.13,304.05,697.43,306.61Z"/><path class="cls-11" d="M705.27,332.62c-.61,1.94-1,3.06-4.17,11.13-1.27,3.28-1.24,3.2-1.26,3.27-1.5,4.12-2.5,8.06-8.28,25.76-4.44,13.59-5,15.24-6.27,15.31-4.47.24-13.24-19.76-9.36-37.7,6.86-14.58,11.48-24.7,12.22-27.22,1.19-2.73,1.89-3.55,2.32-3.75a3.29,3.29,0,0,0,1.33-.92,1.08,1.08,0,0,0,.16-.16,7.84,7.84,0,0,1,.63-.56c.54-.41,3,.65,3.61.92,2,.85,1.68.55,3.29,1.28,1.81.83,1.82,1,3.35,1.67s1.84.52,2.46,1a4.9,4.9,0,0,1,1.67,3C707.11,326.36,707,327.05,705.27,332.62Z"/><path class="cls-12" d="M696.64,323.92c-.72-.38-2.79,2.25-3.86,3.6a36.23,36.23,0,0,0-7.9,16.6c-.39,2.12-.41,5.13-.44,11.15-.05,8.51-.08,12.77.59,12.86,1.29.18,2.14-14.52,9.07-34.11C695.39,330.35,697.63,324.45,696.64,323.92Z"/><path class="cls-13" d="M699.73,320.94c-.2.18-.15.62-.05,1.48.15,1.26.22,1.89.67,2.24s.56.14,1.84.09a24,24,0,0,0,3.4-.14c1-.17,1.71-.3,1.79-.67.12-.56-1.34-1.35-2.19-1.7a16.35,16.35,0,0,0-2.35-.59C700.83,321.11,700.11,320.58,699.73,320.94Z"/><path class="cls-13" d="M691.18,318.12c.13-.47.77-.71,1.16-.85a3,3,0,0,1,1.34-.18c.76.09,1,.47,2.52,1.61,1.11.82,1.51,1,1.47,1.3s-.68.35-1.75,1.08c-.91.62-.91.95-1.34,1s-.69-.32-2.19-2.06C691.37,318.83,691.07,318.51,691.18,318.12Z"/><path class="cls-12" d="M697.94,319.57c-.92.33-2.36.85-2.77,2.08a2.71,2.71,0,0,0-.14.9,3,3,0,0,0,.27,1.18c.7,1.72.43,2.18.84,2.37s.89-.61,3.06-1.74c.39-.21.76-.37.9-.76s-.17-.81-.42-1.6c-.46-1.46.08-2.31-.42-2.64C699,319.19,698.65,319.31,697.94,319.57Z"/><path class="cls-7" d="M696.51,296.4a5.67,5.67,0,0,0,1.66-3c.1-.52.49-2.48-.7-3.59a3.78,3.78,0,0,0-3-.69,2.67,2.67,0,0,0-1.66.48c-1,.8-.78,2.34-.69,3.25a3.85,3.85,0,0,0,.69,2.14c.41.51.76.58.9,1,.22.68-.3,1.37-.55,1.79-.73,1.21-.67,2.43-.55,4.7A13.21,13.21,0,0,0,694.3,308a20.46,20.46,0,0,0,5.73,6.85c2.66,2.17,5.43,4.42,9.19,4.42a16.76,16.76,0,0,0,5.12-1,15.09,15.09,0,0,0,4.46-2,9.78,9.78,0,0,0,3.13-3.12c1-1.75.38-2.23,1.28-4.4.63-1.5,1.09-1.65,3.5-5,.41-.58,1.45-2,2.21-3.25,1.57-2.52,3.36-5.37,3.32-7.6-.11-5.59-11.78-10.05-20.39-10.64-3.16-.22-6.38-.4-8.57,1.65-1.63,1.54-1.28,3-4.08,8.16C697.61,294.92,696.45,296.37,696.51,296.4Z"/><path class="cls-14" d="M703.46,285.11c.81-.05.84.89,1.88,1,1.32.14,3-1.1,5-2.59a1.45,1.45,0,0,1,.86-.33,1.78,1.78,0,0,1,1.24.71c1.73,2,4.53,2.65,6.77,4C727,292.65,731,295,733.31,294c1.3-.54,2.15-1.67,3.24-3.13a8.17,8.17,0,0,0,2.05-5.18c-.06-1.74-.89-3.57-1.67-3.59-.44,0-.6.54-1.4.85a3,3,0,0,1-1.94,0c-2.29-1.51-4.1-2.76-5.36-3.64-1.88-1.33-2.65-1.85-4.2-2.88-.57-.38-1.24-.82-2.09-1.33-.63-.4-1.33-.8-2.19-1.27a22.09,22.09,0,0,0-5.73-2.32,12.65,12.65,0,0,0-5.93-.29,12.26,12.26,0,0,0-5,2.62,21.49,21.49,0,0,0-4.81,5.25c-2.88,4.28-3.42,7.47-5.16,9.43a7.84,7.84,0,0,0-1.48,2.37,6.68,6.68,0,0,0-.38,1.34,7.56,7.56,0,0,0,0,2.68,21.38,21.38,0,0,0,.61,2.28c.49,1.64.58,1.76.69,1.77.43,0,1.27-1.44,1.16-3s-1.11-1.85-1.27-3.43c-.1-1,.13-2.64,1.27-3.3,1.41-.82,3.63.22,4.32,1.63s-.23,3,0,3.11,1.24-2.05,2.34-4.36C702,286.24,702.59,285.16,703.46,285.11Z"/><path class="cls-15" d="M692.88,491.83l-5.26-237a2.57,2.57,0,0,0-1.88-2.47l-111-15.66a.23.23,0,0,0-.29.23v241.7a.23.23,0,0,0,.18.22"/><path class="cls-3" d="M588.2,236.61l-13.7,0,111.29,15.81a2.49,2.49,0,0,1,1.83,2.4l5.26,237h0c.5-.34.79-.38.79-1.5l-4.45-237.26a2.15,2.15,0,0,0-1.58-2.08l-99-14.31A2,2,0,0,0,588.2,236.61Z"/><rect class="cls-16" x="572.65" y="421.82" width="3.52" height="21.45" rx="1.76"/><rect class="cls-16" x="572.65" y="272.07" width="3.52" height="21.45" rx="1.76"/><path class="cls-16" d="M668,397.4l-1.27-.76a1.76,1.76,0,0,1-1.76-1.76V377a1.76,1.76,0,0,1,1.76-1.76h1.39a1.9,1.9,0,0,1,1.72,2v18.72A1.64,1.64,0,0,1,668,397.4Z"/><path class="cls-17" d="M705.94,294.47a3.17,3.17,0,0,1,3.42-.31,3.56,3.56,0,0,1,2,2.81l-.12,0a12.53,12.53,0,0,0-2.38-1.88A5.92,5.92,0,0,0,705.94,294.47Z"/><path class="cls-17" d="M718.59,301.51a3.17,3.17,0,0,1,1.53-.48,3.45,3.45,0,0,1,1.64.28,2.65,2.65,0,0,1,1.78,2.63,7.84,7.84,0,0,0-2.19-1.72A8.34,8.34,0,0,0,718.59,301.51Z"/><g class="cls-18"><path class="cls-17" d="M714.45,304.57a5.25,5.25,0,0,0-.54,1.44,5.08,5.08,0,0,0-.06,1.51,3,3,0,0,1,0,.43.65.65,0,0,1-.27.5,1.08,1.08,0,0,1-1,0,4.24,4.24,0,0,1-1.34-.89c.51.17,1,.39,1.47.51.22.06.49.09.57,0s.11-.27.09-.53a4.08,4.08,0,0,1,.19-1.62A3.72,3.72,0,0,1,714.45,304.57Z"/></g><path class="cls-19" d="M719.81,304.51a1.07,1.07,0,0,0-.17,1.17,1.19,1.19,0,0,0,1.29.75,1.11,1.11,0,0,0,.84-1.25c-.15-.69-1-.81-1.14-.83A1,1,0,0,0,719.81,304.51Z"/><path class="cls-19" d="M705.84,296.55a1.05,1.05,0,0,0-.17,1.18,1.18,1.18,0,0,0,1.28.75,1.12,1.12,0,0,0,.84-1.26c-.15-.68-1-.81-1.13-.82A1,1,0,0,0,705.84,296.55Z"/><g class="cls-20"><path class="cls-17" d="M705.91,318.67a16.1,16.1,0,0,1-5-2.44,12.24,12.24,0,0,1-3.77-4,38.9,38.9,0,0,0,4,3.71A24,24,0,0,0,705.91,318.67Z"/></g><path class="cls-21" d="M703.72,309.41l1.55,1.35a26.31,26.31,0,0,0,2.13,1.78,7.54,7.54,0,0,0,1.7,1c1,.38,1.8.35,1.81.53s-.68.39-1.14.42C706.63,314.73,703.43,309.63,703.72,309.41Z"/></svg>