<?xml version="1.0" encoding="UTF-8" standalone="no"?>
<svg
   xmlns:dc="http://purl.org/dc/elements/1.1/"
   xmlns:cc="http://creativecommons.org/ns#"
   xmlns:rdf="http://www.w3.org/1999/02/22-rdf-syntax-ns#"
   xmlns:svg="http://www.w3.org/2000/svg"
   xmlns="http://www.w3.org/2000/svg"
   xmlns:sodipodi="http://sodipodi.sourceforge.net/DTD/sodipodi-0.dtd"
   xmlns:inkscape="http://www.inkscape.org/namespaces/inkscape"
   id="Layer_1"
   data-name="Layer 1"
   viewBox="444 -110 400 430"
   version="1.1"
   sodipodi:docname="icon-hello-new.svg"
   width="500"
   height="500"
   inkscape:version="0.92.4 (5da689c313, 2019-01-14)">
  <metadata
     id="metadata3818">
    <rdf:RDF>
      <cc:Work
         rdf:about="">
        <dc:format>image/svg+xml</dc:format>
        <dc:type
           rdf:resource="http://purl.org/dc/dcmitype/StillImage" />
        <dc:title>Exit</dc:title>
      </cc:Work>
    </rdf:RDF>
  </metadata>
  <sodipodi:namedview
     pagecolor="#ffffff"
     bordercolor="#666666"
     borderopacity="1"
     objecttolerance="10"
     gridtolerance="10"
     guidetolerance="10"
     inkscape:pageopacity="0"
     inkscape:pageshadow="2"
     inkscape:window-width="1041"
     inkscape:window-height="780"
     id="namedview3816"
     showgrid="false"
     viewbox-x="444"
     viewbox-y="-110"
     units="px"
     width="500in"
     viewbox-width="400"
     viewbox-height="430"
     inkscape:pagecheckerboard="true"
     inkscape:zoom="0.60028597"
     inkscape:cx="753.15402"
     inkscape:cy="196.45068"
     inkscape:window-x="404"
     inkscape:window-y="64"
     inkscape:window-maximized="0"
     inkscape:current-layer="Layer_1" />
  <defs
     id="defs3731">
    <style
       id="style3713">.cls-1{fill:url(#linear-gradient);}.cls-2{fill:url(#linear-gradient-2);}.cls-3{fill:#100a5b;}.cls-4{fill:#303030;}.cls-5{fill:#535354;}.cls-6{fill:#c6c6c6;}.cls-7{fill:#ccb2a8;}.cls-8{opacity:0.4;}.cls-9{fill:#726258;}.cls-10{fill:#808ded;}.cls-11,.cls-13{fill:#f4f8fd;}.cls-12{fill:#a03434;}.cls-13{stroke:#1e1b19;stroke-miterlimit:10;stroke-width:0.1px;}.cls-14{fill:#522d16;}.cls-15{fill:#1f0e93;}.cls-16{fill:#e2e2e2;}.cls-17{fill:#1e1b19;}.cls-18{opacity:0.6;}.cls-19{fill:#1a1a1a;}.cls-20{opacity:0.2;}.cls-21{fill:#72364a;}</style>
    <linearGradient
       id="linear-gradient"
       x1="460.14001"
       y1="480.07999"
       x2="842.39001"
       y2="480.07999"
       gradientUnits="userSpaceOnUse"
       gradientTransform="translate(0,-206.33)">
      <stop
         offset="0"
         stop-color="#1362c5"
         stop-opacity="0.7"
         id="stop3715" />
      <stop
         offset="0.25"
         stop-color="#1666d5"
         stop-opacity="0.62"
         id="stop3717" />
      <stop
         offset="1"
         stop-color="#1f70ff"
         stop-opacity="0.4"
         id="stop3719" />
    </linearGradient>
    <linearGradient
       id="linear-gradient-2"
       x1="644.08002"
       y1="478.76999"
       x2="644.08002"
       y2="146.38"
       gradientUnits="userSpaceOnUse"
       gradientTransform="translate(0,-206.33)">
      <stop
         offset="0.09"
         stop-color="#9ab4e8"
         id="stop3722" />
      <stop
         offset="0.51"
         stop-color="#b4c1e3"
         stop-opacity="0.6"
         id="stop3724" />
      <stop
         offset="0.84"
         stop-color="#c7cadf"
         stop-opacity="0.31"
         id="stop3726" />
      <stop
         offset="1"
         stop-color="#cecedd"
         stop-opacity="0.2"
         id="stop3728" />
    </linearGradient>
  </defs>
  <title
     id="title3733">Exit</title>
  <rect
     class="cls-1"
     x="460.14001"
     y="272.51172"
     width="382.25"
     height="2.47"
     rx="1.23"
     id="rect3735"
     style="fill:url(#linear-gradient)" />
  <path
     class="cls-2"
     d="m 696.05,-59.66 c -50.36,2.92 -51.46,26.48 -106.74,25.76 -33.11,-0.44 -57.75,-9.22 -85.2,6.62 -11.8,6.82 -17.44,15.31 -28.64,27.87 -41.87,46.94 -46,77.34 -40.47,97.1 8.06,28.72 37.49,38.13 36.93,68.16 -0.42,22.17 -16.69,28.55 -18,53 -1.2,22.49 11.25,41.42 21.53,53.58 h 346.59 c 13.18,-10.83 28.19,-26.94 27.6,-46 -0.71,-23 -23.44,-27.85 -28.4,-53 -5.51,-28 19.13,-39.61 29.35,-81.41 1.69,-6.91 11.16,-45.65 -3.79,-79.53 -23.07,-52.3 -96.5,-75.31 -150.76,-72.15 z"
     id="path3737"
     inkscape:connector-curvature="0"
     style="fill:url(#linear-gradient-2)" />
  <path
     class="cls-3"
     d="M 716.89,272.44 H 563.7 l 1,-246.34 a 4,4 0 0 1 4.08,-3.88 h 145 a 4,4 0 0 1 4.08,3.91 z"
     id="path3739"
     inkscape:connector-curvature="0"
     style="fill:#100a5b" />
  <path
     class="cls-4"
     d="m 581.14,30.25 h 124 a 3.13,3.13 0 0 1 3.13,3.13 V 255.67 H 581.14 a 6.08,6.08 0 0 1 -6.08,-6.08 V 36.33 a 6.08,6.08 0 0 1 6.08,-6.08 z"
     id="path3741"
     inkscape:connector-curvature="0"
     style="fill:#303030" />
  <polygon
     class="cls-5"
     points="692.88,491.83 574.68,478.81 574.78,461.96 708.38,461.96 708.38,478.77 "
     id="polygon3743"
     style="fill:#535354"
     transform="translate(0,-206.33)" />
  <path
     d="m 723.18,266.73 c 3.09,0.77 2.68,3.43 6.38,4.76 2.51,0.91 3.79,0.08 7.25,1.48 1.66,0.67 3,1.21 3.05,2 0.1,1.74 -5.42,4.53 -10.4,4 -2.86,-0.3 -5.18,-0.64 -5.18,-0.64 -2.42,-0.36 -3.29,-0.57 -4.08,0 -1.31,0.93 -0.7,2.81 -1.93,3.48 -0.94,0.51 -2.35,0 -3.13,-0.64 -2.59,-2 -2.93,-8.16 0.35,-11.76 1.81,-1.95 4.93,-3.37 7.69,-2.68 z"
     id="path3745"
     inkscape:connector-curvature="0" />
  <path
     class="cls-6"
     d="m 646.84,194.43 c 1.75,2.62 5,2.05 6.1,3.56 7.54,9.94 29.65,18.51 34.33,23.08 -1.85,-8.58 -3.15,-15.59 -2.49,-15.73 2.06,-0.46 22.63,67 22.54,67 a 1.67,1.67 0 0 0 -0.08,-0.2 14.26,14.26 0 0 0 1.37,3.24 c 2,2.54 12.32,-0.75 16.22,-4.11 12.67,-10.91 -9.25,-50.81 -11.38,-54.61 -12.52,-31.23 -32.5,-50 -45.86,-47.56 -4.81,0.86 -11.44,4.94 -15.85,10.31 -1,1.26 -8.28,9.95 -4.9,15.02 z"
     id="path3747"
     inkscape:connector-curvature="0"
     style="fill:#c6c6c6" />
  <path
     class="cls-7"
     d="m 762.37,157.06 c 1.1,-1.21 2.64,-0.42 4.52,-2.32 0.68,-0.68 1.44,-1.75 2,-1.56 a 0.59,0.59 0 0 1 0.36,0.46 c 0.16,1 -1.83,2.26 -1.75,2.41 0.08,0.15 4.56,-4.07 7.57,-3.09 1.94,0.63 3.29,3.48 2.63,5.79 -0.76,2.67 -4,3.87 -5,4.26 -2.35,0.88 -3.26,0.15 -5.31,1.37 -2.05,1.22 -2.08,2.35 -3,2.34 -2.21,-0.05 -4.18,-7.31 -2.02,-9.66 z"
     id="path3749"
     inkscape:connector-curvature="0"
     style="fill:#ccb2a8" />
  <g
     class="cls-8"
     id="g3755"
     style="opacity:0.4"
     transform="translate(0,-206.33)">
    <path
       class="cls-7"
       d="m 771.42,363.58 a 19.81,19.81 0 0 0 2.42,-1.94 25.35,25.35 0 0 0 1.94,-2"
       id="path3751"
       inkscape:connector-curvature="0"
       style="fill:#ccb2a8" />
    <path
       class="cls-9"
       d="m 771.42,363.58 1.09,-1 c 0.35,-0.34 0.73,-0.65 1.07,-1 l 1,-1 a 12,12 0 0 1 1.16,-0.95 14.89,14.89 0 0 1 -0.89,1.2 c -0.34,0.37 -0.65,0.76 -1,1.09 a 10.38,10.38 0 0 1 -1.17,0.93 8.33,8.33 0 0 1 -1.26,0.73 z"
       id="path3753"
       inkscape:connector-curvature="0"
       style="fill:#726258" />
  </g>
  <g
     class="cls-8"
     id="g3761"
     style="opacity:0.4"
     transform="translate(0,-206.33)">
    <path
       class="cls-7"
       d="m 771.92,365.6 a 13.76,13.76 0 0 0 3.69,-2.38 16.32,16.32 0 0 0 1.66,-1.69"
       id="path3757"
       inkscape:connector-curvature="0"
       style="fill:#ccb2a8" />
    <path
       class="cls-9"
       d="m 771.92,365.6 c 0.47,-0.32 1,-0.61 1.4,-0.93 0.4,-0.32 0.92,-0.64 1.37,-1 a 16.12,16.12 0 0 0 1.28,-1.07 c 0.41,-0.38 0.84,-0.75 1.3,-1.1 -0.33,0.46 -0.7,0.9 -1.07,1.34 a 8.14,8.14 0 0 1 -1.24,1.18 10.47,10.47 0 0 1 -1.44,0.94 7.23,7.23 0 0 1 -1.6,0.64 z"
       id="path3759"
       inkscape:connector-curvature="0"
       style="fill:#726258" />
  </g>
  <g
     class="cls-8"
     id="g3767"
     style="opacity:0.4"
     transform="translate(0,-206.33)">
    <path
       class="cls-7"
       d="m 772.66,367.14 a 11.26,11.26 0 0 0 2.69,-1.46 11.63,11.63 0 0 0 2.21,-2.11"
       id="path3763"
       inkscape:connector-curvature="0"
       style="fill:#ccb2a8" />
    <path
       class="cls-9"
       d="m 772.66,367.14 a 22.33,22.33 0 0 0 2.57,-1.62 23.6,23.6 0 0 0 2.33,-1.95 7.83,7.83 0 0 1 -2.1,2.27 7.71,7.71 0 0 1 -2.8,1.3 z"
       id="path3765"
       inkscape:connector-curvature="0"
       style="fill:#726258" />
  </g>
  <path
     class="cls-10"
     d="m 683.46,110.19 1.16,0.05 c 4,0.24 10.24,1.16 20.68,6.09 6.84,3.22 10.26,4.84 12.92,7.44 4.28,4.18 6.46,9 8,12.31 1.75,3.85 1.47,4.43 3.62,10.51 3.59,10.1 5.39,15.14 8.47,16.24 4.9,1.75 12.66,-3 15.44,-4.66 2.39,-1.45 3.29,-2.4 5.07,-2.35 4.4,0.13 9.39,6.28 8.33,10.87 -0.86,3.71 -5.4,5.12 -12.25,7.25 -8.72,2.71 -18.32,5.7 -25.42,0.71 -4.47,-3.14 -7.33,-9 -7.86,-10.14 -1,-2.16 -1.41,-3.72 -3.18,-7.42 -2.38,-4.94 -3.56,-7.41 -4.71,-7.43 -2.88,0 -5.88,11.47 -7.12,20.9 -1.85,14 0.78,18.74 -2.48,21.09 -5.75,4.16 -15.47,-9.51 -29.07,-6.26 -7.69,1.83 -11.23,7.78 -16.47,5.9 -2.87,-1 -4,-4.24 -6.28,-8 -10.81,-18.13 -7.9,-59.39 14.07,-70.07 6.52,-3.22 13.53,-3.1 17.08,-3.03 z"
     id="path3769"
     inkscape:connector-curvature="0"
     style="fill:#808ded" />
  <path
     class="cls-7"
     d="m 697.43,100.28 c -1.79,1.24 -0.47,3.67 -2.82,8.2 -2.18,4.2 -4.56,4.52 -4.43,6.5 0.3,4.31 12,8.35 14.5,5.49 0.84,-0.95 0,-1.87 0.62,-4.14 1.26,-4.52 5.74,-4.94 6.11,-7.56 0.59,-4.31 -10.28,-11.05 -13.98,-8.49 z"
     id="path3771"
     inkscape:connector-curvature="0"
     style="fill:#ccb2a8" />
  <path
     class="cls-11"
     d="m 705.27,126.29 c -0.61,1.94 -1,3.06 -4.17,11.13 -1.27,3.28 -1.24,3.2 -1.26,3.27 -1.5,4.12 -2.5,8.06 -8.28,25.76 -4.44,13.59 -5,15.24 -6.27,15.31 -4.47,0.24 -13.24,-19.76 -9.36,-37.7 6.86,-14.58 11.48,-24.7 12.22,-27.22 1.19,-2.73 1.89,-3.55 2.32,-3.75 a 3.29,3.29 0 0 0 1.33,-0.92 1.08,1.08 0 0 0 0.16,-0.16 7.84,7.84 0 0 1 0.63,-0.56 c 0.54,-0.41 3,0.65 3.61,0.92 2,0.85 1.68,0.55 3.29,1.28 1.81,0.83 1.82,1 3.35,1.67 1.53,0.67 1.84,0.52 2.46,1 a 4.9,4.9 0 0 1 1.67,3 c 0.14,0.71 0.03,1.4 -1.7,6.97 z"
     id="path3773"
     inkscape:connector-curvature="0"
     style="fill:#f4f8fd" />
  <path
     class="cls-12"
     d="m 696.64,117.59 c -0.72,-0.38 -2.79,2.25 -3.86,3.6 a 36.23,36.23 0 0 0 -7.9,16.6 c -0.39,2.12 -0.41,5.13 -0.44,11.15 -0.05,8.51 -0.08,12.77 0.59,12.86 1.29,0.18 2.14,-14.52 9.07,-34.11 1.29,-3.67 3.53,-9.57 2.54,-10.1 z"
     id="path3775"
     inkscape:connector-curvature="0"
     style="fill:#a03434" />
  <path
     class="cls-13"
     d="m 699.73,114.61 c -0.2,0.18 -0.15,0.62 -0.05,1.48 0.15,1.26 0.22,1.89 0.67,2.24 0.45,0.35 0.56,0.14 1.84,0.09 a 24,24 0 0 0 3.4,-0.14 c 1,-0.17 1.71,-0.3 1.79,-0.67 0.12,-0.56 -1.34,-1.35 -2.19,-1.7 a 16.35,16.35 0 0 0 -2.35,-0.59 c -2.01,-0.54 -2.73,-1.07 -3.11,-0.71 z"
     id="path3777"
     inkscape:connector-curvature="0"
     style="fill:#f4f8fd;stroke:#1e1b19;stroke-width:0.1px;stroke-miterlimit:10" />
  <path
     class="cls-13"
     d="m 691.18,111.79 c 0.13,-0.47 0.77,-0.71 1.16,-0.85 a 3,3 0 0 1 1.34,-0.18 c 0.76,0.09 1,0.47 2.52,1.61 1.11,0.82 1.51,1 1.47,1.3 -0.04,0.3 -0.68,0.35 -1.75,1.08 -0.91,0.62 -0.91,0.95 -1.34,1 -0.43,0.05 -0.69,-0.32 -2.19,-2.06 -1.02,-1.19 -1.32,-1.51 -1.21,-1.9 z"
     id="path3779"
     inkscape:connector-curvature="0"
     style="fill:#f4f8fd;stroke:#1e1b19;stroke-width:0.1px;stroke-miterlimit:10" />
  <path
     class="cls-12"
     d="m 697.94,113.24 c -0.92,0.33 -2.36,0.85 -2.77,2.08 a 2.71,2.71 0 0 0 -0.14,0.9 3,3 0 0 0 0.27,1.18 c 0.7,1.72 0.43,2.18 0.84,2.37 0.41,0.19 0.89,-0.61 3.06,-1.74 0.39,-0.21 0.76,-0.37 0.9,-0.76 0.14,-0.39 -0.17,-0.81 -0.42,-1.6 -0.46,-1.46 0.08,-2.31 -0.42,-2.64 -0.26,-0.17 -0.61,-0.05 -1.32,0.21 z"
     id="path3781"
     inkscape:connector-curvature="0"
     style="fill:#a03434" />
  <path
     class="cls-7"
     d="m 696.51,90.07 a 5.67,5.67 0 0 0 1.66,-3 c 0.1,-0.52 0.49,-2.48 -0.7,-3.59 a 3.78,3.78 0 0 0 -3,-0.69 2.67,2.67 0 0 0 -1.66,0.48 c -1,0.8 -0.78,2.34 -0.69,3.25 a 3.85,3.85 0 0 0 0.69,2.14 c 0.41,0.51 0.76,0.58 0.9,1 0.22,0.68 -0.3,1.37 -0.55,1.79 -0.73,1.21 -0.67,2.43 -0.55,4.7 a 13.21,13.21 0 0 0 1.69,5.52 20.46,20.46 0 0 0 5.73,6.85 c 2.66,2.17 5.43,4.42 9.19,4.42 a 16.76,16.76 0 0 0 5.12,-1 15.09,15.09 0 0 0 4.46,-2 9.78,9.78 0 0 0 3.13,-3.12 c 1,-1.75 0.38,-2.23 1.28,-4.4 0.63,-1.5 1.09,-1.65 3.5,-5 0.41,-0.58 1.45,-2 2.21,-3.25 1.57,-2.52 3.36,-5.37 3.32,-7.6 -0.11,-5.59 -11.78,-10.05 -20.39,-10.64 -3.16,-0.22 -6.38,-0.4 -8.57,1.65 -1.63,1.54 -1.28,3 -4.08,8.16 -1.59,2.85 -2.75,4.3 -2.69,4.33 z"
     id="path3783"
     inkscape:connector-curvature="0"
     style="fill:#ccb2a8" />
  <path
     class="cls-14"
     d="m 703.46,78.78 c 0.81,-0.05 0.84,0.89 1.88,1 1.32,0.14 3,-1.1 5,-2.59 a 1.45,1.45 0 0 1 0.86,-0.33 1.78,1.78 0 0 1 1.24,0.71 c 1.73,2 4.53,2.65 6.77,4 7.79,4.75 11.79,7.1 14.1,6.1 1.3,-0.54 2.15,-1.67 3.24,-3.13 a 8.17,8.17 0 0 0 2.05,-5.18 c -0.06,-1.74 -0.89,-3.57 -1.67,-3.59 -0.44,0 -0.6,0.54 -1.4,0.85 a 3,3 0 0 1 -1.94,0 c -2.29,-1.51 -4.1,-2.76 -5.36,-3.64 -1.88,-1.33 -2.65,-1.85 -4.2,-2.88 -0.57,-0.38 -1.24,-0.82 -2.09,-1.33 -0.63,-0.4 -1.33,-0.8 -2.19,-1.27 a 22.09,22.09 0 0 0 -5.73,-2.32 12.65,12.65 0 0 0 -5.93,-0.29 12.26,12.26 0 0 0 -5,2.62 21.49,21.49 0 0 0 -4.81,5.25 c -2.88,4.28 -3.42,7.47 -5.16,9.43 a 7.84,7.84 0 0 0 -1.48,2.37 6.68,6.68 0 0 0 -0.38,1.34 7.56,7.56 0 0 0 0,2.68 21.38,21.38 0 0 0 0.61,2.28 c 0.49,1.64 0.58,1.76 0.69,1.77 0.43,0 1.27,-1.44 1.16,-3 -0.11,-1.56 -1.11,-1.85 -1.27,-3.43 -0.1,-1 0.13,-2.64 1.27,-3.3 1.41,-0.82 3.63,0.22 4.32,1.63 0.69,1.41 -0.23,3 0,3.11 0.23,0.11 1.24,-2.05 2.34,-4.36 1.62,-3.37 2.21,-4.45 3.08,-4.5 z"
     id="path3785"
     inkscape:connector-curvature="0"
     style="fill:#522d16" />
  <path
     class="cls-15"
     d="m 692.88,285.5 -5.26,-237 a 2.57,2.57 0 0 0 -1.88,-2.47 l -111,-15.66 a 0.23,0.23 0 0 0 -0.29,0.23 v 241.7 a 0.23,0.23 0 0 0 0.18,0.22"
     id="path3787"
     inkscape:connector-curvature="0"
     style="fill:#1f0e93" />
  <path
     class="cls-3"
     d="m 588.2,30.28 h -13.7 l 111.29,15.81 a 2.49,2.49 0 0 1 1.83,2.4 l 5.26,237 v 0 c 0.5,-0.34 0.79,-0.38 0.79,-1.5 L 689.22,46.73 a 2.15,2.15 0 0 0 -1.58,-2.08 l -99,-14.31 a 2,2 0 0 0 -0.44,-0.06 z"
     id="path3789"
     inkscape:connector-curvature="0"
     style="fill:#100a5b" />
  <rect
     class="cls-16"
     x="572.65002"
     y="215.48828"
     width="3.52"
     height="21.450001"
     rx="1.76"
     id="rect3791"
     style="fill:#e2e2e2" />
  <rect
     class="cls-16"
     x="572.65002"
     y="65.738281"
     width="3.52"
     height="21.450001"
     rx="1.76"
     id="rect3793"
     style="fill:#e2e2e2" />
  <path
     class="cls-16"
     d="m 668,191.07 -1.27,-0.76 a 1.76,1.76 0 0 1 -1.76,-1.76 v -17.88 a 1.76,1.76 0 0 1 1.76,-1.76 h 1.39 a 1.9,1.9 0 0 1 1.72,2 v 18.72 a 1.64,1.64 0 0 1 -1.84,1.44 z"
     id="path3795"
     inkscape:connector-curvature="0"
     style="fill:#e2e2e2" />
  <path
     class="cls-17"
     d="m 705.94,88.14 a 3.17,3.17 0 0 1 3.42,-0.31 3.56,3.56 0 0 1 2,2.81 h -0.12 a 12.53,12.53 0 0 0 -2.38,-1.88 5.92,5.92 0 0 0 -2.92,-0.62 z"
     id="path3797"
     inkscape:connector-curvature="0"
     style="fill:#1e1b19" />
  <path
     class="cls-17"
     d="m 718.59,95.18 a 3.17,3.17 0 0 1 1.53,-0.48 3.45,3.45 0 0 1 1.64,0.28 2.65,2.65 0 0 1 1.78,2.63 7.84,7.84 0 0 0 -2.19,-1.72 8.34,8.34 0 0 0 -2.76,-0.71 z"
     id="path3799"
     inkscape:connector-curvature="0"
     style="fill:#1e1b19" />
  <g
     class="cls-18"
     id="g3803"
     style="opacity:0.6"
     transform="translate(0,-206.33)">
    <path
       class="cls-17"
       d="m 714.45,304.57 a 5.25,5.25 0 0 0 -0.54,1.44 5.08,5.08 0 0 0 -0.06,1.51 3,3 0 0 1 0,0.43 0.65,0.65 0 0 1 -0.27,0.5 1.08,1.08 0 0 1 -1,0 4.24,4.24 0 0 1 -1.34,-0.89 c 0.51,0.17 1,0.39 1.47,0.51 0.22,0.06 0.49,0.09 0.57,0 0.08,-0.09 0.11,-0.27 0.09,-0.53 a 4.08,4.08 0 0 1 0.19,-1.62 3.72,3.72 0 0 1 0.89,-1.35 z"
       id="path3801"
       inkscape:connector-curvature="0"
       style="fill:#1e1b19" />
  </g>
  <path
     class="cls-19"
     d="m 719.81,98.18 a 1.07,1.07 0 0 0 -0.17,1.17 1.19,1.19 0 0 0 1.29,0.75 1.11,1.11 0 0 0 0.84,-1.25 c -0.15,-0.69 -1,-0.81 -1.14,-0.83 a 1,1 0 0 0 -0.82,0.16 z"
     id="path3805"
     inkscape:connector-curvature="0"
     style="fill:#1a1a1a" />
  <path
     class="cls-19"
     d="m 705.84,90.22 a 1.05,1.05 0 0 0 -0.17,1.18 1.18,1.18 0 0 0 1.28,0.75 1.12,1.12 0 0 0 0.84,-1.26 c -0.15,-0.68 -1,-0.81 -1.13,-0.82 a 1,1 0 0 0 -0.82,0.15 z"
     id="path3807"
     inkscape:connector-curvature="0"
     style="fill:#1a1a1a" />
  <g
     class="cls-20"
     id="g3811"
     style="opacity:0.2"
     transform="translate(0,-206.33)">
    <path
       class="cls-17"
       d="m 705.91,318.67 a 16.1,16.1 0 0 1 -5,-2.44 12.24,12.24 0 0 1 -3.77,-4 38.9,38.9 0 0 0 4,3.71 24,24 0 0 0 4.77,2.73 z"
       id="path3809"
       inkscape:connector-curvature="0"
       style="fill:#1e1b19" />
  </g>
  <path
     class="cls-21"
     d="m 703.72,103.08 1.55,1.35 a 26.31,26.31 0 0 0 2.13,1.78 7.54,7.54 0 0 0 1.7,1 c 1,0.38 1.8,0.35 1.81,0.53 0.01,0.18 -0.68,0.39 -1.14,0.42 -3.14,0.24 -6.34,-4.86 -6.05,-5.08 z"
     id="path3813"
     inkscape:connector-curvature="0"
     style="fill:#72364a" />
</svg>
