<?xml version="1.0" encoding="UTF-8" standalone="no"?>
<svg
   xmlns:dc="http://purl.org/dc/elements/1.1/"
   xmlns:cc="http://creativecommons.org/ns#"
   xmlns:rdf="http://www.w3.org/1999/02/22-rdf-syntax-ns#"
   xmlns:svg="http://www.w3.org/2000/svg"
   xmlns="http://www.w3.org/2000/svg"
   xmlns:sodipodi="http://sodipodi.sourceforge.net/DTD/sodipodi-0.dtd"
   xmlns:inkscape="http://www.inkscape.org/namespaces/inkscape"
   id="Layer_1"
   data-name="Layer 1"
   viewBox="190 500 440 240"
   version="1.1"
   sodipodi:docname="icon-goodbye-2.svg"
   width="1000"
   height="1000"
   inkscape:version="0.92.4 (5da689c313, 2019-01-14)">
  <metadata
     id="metadata4662">
    <rdf:RDF>
      <cc:Work
         rdf:about="">
        <dc:format>image/svg+xml</dc:format>
        <dc:type
           rdf:resource="http://purl.org/dc/dcmitype/StillImage" />
        <dc:title>Exit</dc:title>
      </cc:Work>
    </rdf:RDF>
  </metadata>
  <sodipodi:namedview
     pagecolor="#ffffff"
     bordercolor="#666666"
     borderopacity="1"
     objecttolerance="10"
     gridtolerance="10"
     guidetolerance="10"
     inkscape:pageopacity="0"
     inkscape:pageshadow="2"
     inkscape:window-width="1920"
     inkscape:window-height="1017"
     id="namedview4660"
     showgrid="false"
     inkscape:pagecheckerboard="true"
     viewbox-width="440"
     scale-x="1"
     viewbox-y="500"
     viewbox-x="190"
     inkscape:zoom="0.61536674"
     inkscape:cx="941.7881"
     inkscape:cy="487.04803"
     inkscape:window-x="-8"
     inkscape:window-y="-8"
     inkscape:window-maximized="1"
     inkscape:current-layer="Layer_1"
     viewbox-height="240" />
  <defs
     id="defs4617">
    <style
       id="style4591">.cls-1{fill:url(#linear-gradient);}.cls-2{fill:url(#linear-gradient-2);}.cls-3{fill:#100a5b;}.cls-4{fill:#303030;}.cls-5{fill:#535354;}.cls-6{fill:#ccb2a8;}.cls-7{fill:#c6c6c6;}.cls-8{fill:#808ded;}.cls-9{fill:#6272bc;}.cls-10{fill:#1f0e93;}.cls-11{fill:#e2e2e2;}.cls-12{fill:#5b5b5b;}</style>
    <linearGradient
       id="linear-gradient"
       x1="225.85001"
       y1="481.85001"
       x2="608.09998"
       y2="481.85001"
       gradientUnits="userSpaceOnUse"
       gradientTransform="translate(0,310.97998)">
      <stop
         offset="0"
         stop-color="#9ab4e8"
         id="stop4593" />
      <stop
         offset="0.21"
         stop-color="#9eb7e9"
         id="stop4595" />
      <stop
         offset="0.41"
         stop-color="#a9bfeb"
         id="stop4597" />
      <stop
         offset="0.6"
         stop-color="#bccdf0"
         id="stop4599" />
      <stop
         offset="0.79"
         stop-color="#d7e1f6"
         id="stop4601" />
      <stop
         offset="0.97"
         stop-color="#f9fafe"
         id="stop4603" />
      <stop
         offset="1"
         stop-color="#fff"
         id="stop4605" />
    </linearGradient>
    <linearGradient
       id="linear-gradient-2"
       x1="409.79001"
       y1="480.54001"
       x2="409.79001"
       y2="148.16"
       gradientUnits="userSpaceOnUse"
       gradientTransform="translate(0,310.97998)">
      <stop
         offset="0.09"
         stop-color="#9ab4e8"
         id="stop4608" />
      <stop
         offset="0.51"
         stop-color="#b4c1e3"
         stop-opacity="0.6"
         id="stop4610" />
      <stop
         offset="0.84"
         stop-color="#c7cadf"
         stop-opacity="0.31"
         id="stop4612" />
      <stop
         offset="1"
         stop-color="#cecedd"
         stop-opacity="0.2"
         id="stop4614" />
    </linearGradient>
  </defs>
  <title
     id="title4619">Exit</title>
  <rect
     class="cls-1"
     x="225.85001"
     y="791.59998"
     width="382.25"
     height="2.47"
     rx="1.23"
     id="rect4621"
     style="fill:url(#linear-gradient)" />
  <path
     class="cls-2"
     d="m 461.76,459.41998 c -50.36,2.93 -51.46,26.49 -106.76,25.76 -33.11,-0.44 -57.75,-9.22 -85.2,6.63 -11.8,6.81 -17.44,15.3 -28.64,27.86 -41.87,46.94 -46,77.35 -40.46,97.1 8.05,28.72 37.48,38.14 36.92,68.16 -0.42,22.17 -16.69,28.55 -18,53 -1.2,22.49 11.25,41.42 21.53,53.58 h 346.62 c 13.17,-10.83 28.18,-26.94 27.59,-46 -0.71,-23 -23.44,-27.85 -28.4,-53 -5.51,-28 19.13,-39.61 29.35,-81.41 1.69,-6.91 11.16,-45.64 -3.79,-79.52 -23.07,-52.31 -96.52,-75.31 -150.76,-72.16 z"
     id="path4623"
     inkscape:connector-curvature="0"
     style="fill:url(#linear-gradient-2)" />
  <path
     class="cls-3"
     d="M 482.6,791.51998 H 329.41 l 1,-246.34 a 4,4 0 0 1 4.08,-3.87 h 145 a 4,4 0 0 1 4.08,3.9 z"
     id="path4625"
     inkscape:connector-curvature="0"
     style="fill:#100a5b" />
  <path
     class="cls-4"
     d="m 346.85,549.32998 h 124 a 3.13,3.13 0 0 1 3.13,3.13 v 222.26 H 346.85 a 6.08,6.08 0 0 1 -6.08,-6.08 v -213.23 a 6.08,6.08 0 0 1 6.08,-6.08 z"
     id="path4627"
     inkscape:connector-curvature="0"
     style="fill:#303030" />
  <polygon
     class="cls-5"
     points="340.39,480.59 340.49,463.74 474.09,463.74 474.09,480.54 442.99,505.98 "
     id="polygon4629"
     style="fill:#535354"
     transform="translate(0,310.97998)" />
  <path
     class="cls-6"
     d="m 508.78,664.78998 a 86.81,86.81 0 0 1 4.43,8.1 c 0.66,1.3 1.24,2.47 0.86,3.74 -0.29,1 -1.11,1.9 -1.71,1.79 -0.6,-0.11 -1.39,-1.9 -1.17,-1.87 0.4,0.05 1.51,2.56 -0.47,3.27 -1.98,0.71 -4.09,-0.95 -3.5,-1.25 0.89,-0.45 2.83,2.27 -1.09,3.27 -0.78,0.2 -2.14,-0.88 -3,-1.94 a 14.5,14.5 0 0 1 -1.55,-15.5 c 0.47,-0.88 1.93,-3.59 3.73,-3.5 0.69,0.08 1.24,0.5 3.47,3.89 z"
     id="path4631"
     inkscape:connector-curvature="0"
     style="fill:#ccb2a8" />
  <path
     d="m 530.25,778.20998 c 0.15,3.42 3,3.54 3.64,7.72 0.42,2.83 -0.73,4 0,7.92 0.36,1.9 0.64,3.42 1.5,3.65 1.8,0.47 5.92,-4.73 6.43,-10.07 0.3,-3.07 0.43,-5.57 0.43,-5.57 0.14,-2.63 0.1,-3.58 0.86,-4.29 1.26,-1.18 3.1,-0.14 4.07,-1.29 0.74,-0.88 0.46,-2.47 0,-3.42 -1.55,-3.15 -8,-4.82 -12.43,-2.15 -2.48,1.48 -4.63,4.46 -4.5,7.5 z"
     id="path4633"
     inkscape:connector-curvature="0" />
  <path
     class="cls-7"
     d="m 470.44,688.90998 c 2.35,2.29 1,5.33 2.33,6.78 8.67,9.57 12.57,33.2 16.28,38.79 0,0 5,7.59 49.1,30.81 a 13.47,13.47 0 0 1 2.89,1.93 c 1.79,2.05 -2.46,11.69 -8,15.08 -13.3,8.1 -41.95,-14.77 -55.84,-29.2 0,0 -25.05,-20.23 -30.49,-50.65 -0.57,-3.15 4,-8.46 6.92,-11.94 3.88,-4.7 12.96,-5.35 16.81,-1.6 z"
     id="path4635"
     inkscape:connector-curvature="0"
     style="fill:#c6c6c6" />
  <path
     class="cls-8"
     d="m 431.87,610.65998 c 4.93,-2.76 15.4,-5.74 25.12,-3 a 62.94,62.94 0 0 1 13.27,6 c 3.33,2 6.24,4.07 7.81,5.21 5.3,3.85 4.34,3.83 7.73,6.07 4.9,3.24 7.48,3.64 11.45,7.56 a 29.9,29.9 0 0 1 2.1,2.27 c 2.36,3.17 3.16,7.11 7.66,17.54 3.73,8.63 5,10.48 3.85,13 -1.84,4 -8.33,6.12 -12.22,4.09 -1.87,-1 -2.66,-2.65 -4.15,-6.41 -5.51,-13.94 -6.13,-14.18 -9.68,-17.88 a 22.67,22.67 0 0 0 -10,-6 c -3.41,-0.95 -7.12,-4.34 -8.84,-2.48 -2.23,2.4 1.48,8.71 8.13,21.3 11.86,22.46 14.22,27.6 12,32.5 -1.1,2.44 -5.09,4.52 -13.09,8.68 -9.9,5.15 -16.81,8.64 -25.79,8 a 34.87,34.87 0 0 1 -10.6,-2.64 c -22.62,-10.49 -29.62,-79.91 -4.75,-93.81 z"
     id="path4637"
     inkscape:connector-curvature="0"
     style="fill:#808ded" />
  <path
     class="cls-8"
     d="m 473,699.03998 a 49.63,49.63 0 0 1 -16.85,7.71 48.87,48.87 0 0 1 -9.95,1.37"
     id="path4639"
     inkscape:connector-curvature="0"
     style="fill:#808ded" />
  <path
     class="cls-9"
     d="m 473,699.03998 a 24.61,24.61 0 0 1 -5.75,4.45 43.84,43.84 0 0 1 -13.73,4.91 40.62,40.62 0 0 1 -7.29,0.62 l -0.07,-1.8 a 64.79,64.79 0 0 0 7,-0.91 59.58,59.58 0 0 0 6.81,-1.73 58.12,58.12 0 0 0 6.55,-2.57 c 2.12,-0.96 4.24,-2.03 6.48,-2.97 z"
     id="path4641"
     inkscape:connector-curvature="0"
     style="fill:#6272bc" />
  <path
     class="cls-10"
     d="m 340.39,791.56998 102.61,25.41 c 0,0 0,0 0,0 v -237.4 a 2.55,2.55 0 0 0 -1.89,-2.47 l -100.61,-27.7 a 0.24,0.24 0 0 0 -0.3,0.23 v 241.7 a 0.25,0.25 0 0 0 0.19,0.23 z"
     id="path4643"
     inkscape:connector-curvature="0"
     style="fill:#1f0e93" />
  <path
     class="cls-3"
     d="m 353.91,549.36998 h -13.7 l 101,27.79 a 2.49,2.49 0 0 1 1.84,2.41 v 237.41 l 4.57,-3.17 a 1.83,1.83 0 0 0 0.79,-1.5 v -235 a 2.16,2.16 0 0 0 -1.58,-2.08 l -92.4,-25.75 a 2,2 0 0 0 -0.52,-0.11 z"
     id="path4645"
     inkscape:connector-curvature="0"
     style="fill:#100a5b" />
  <rect
     class="cls-11"
     x="338.35999"
     y="584.82996"
     width="3.52"
     height="21.450001"
     rx="1.76"
     id="rect4647"
     style="fill:#e2e2e2" />
  <rect
     class="cls-11"
     x="338.35999"
     y="734.56995"
     width="3.52"
     height="21.450001"
     rx="1.76"
     id="rect4649"
     style="fill:#e2e2e2" />
  <path
     class="cls-11"
     d="m 431.31,705.32998 -1.27,-0.73 a 1.76,1.76 0 0 1 -1.76,-1.76 v -17.93 a 1.76,1.76 0 0 1 1.76,-1.76 l 1.39,0.62 a 1.91,1.91 0 0 1 1.72,2 v 18.08 a 1.64,1.64 0 0 1 -1.84,1.48 z"
     id="path4651"
     inkscape:connector-curvature="0"
     style="fill:#e2e2e2" />
  <polygon
     class="cls-12"
     points="448.09,502.29 448.03,463.74 474.09,463.74 474.09,480.54 "
     id="polygon4653"
     style="fill:#5b5b5b"
     transform="translate(0,310.97998)" />
  <path
     class="cls-8"
     d="m 493.38,645.09998 a 8,8 0 0 0 4.48,-2 8.58,8.58 0 0 0 2.6,-6.59"
     id="path4655"
     inkscape:connector-curvature="0"
     style="fill:#808ded" />
  <path
     class="cls-9"
     d="m 493.38,645.09998 a 8.07,8.07 0 0 0 2.76,-1.21 5.73,5.73 0 0 0 1.92,-2.12 c 0.21,-0.43 0.39,-0.84 0.62,-1.23 0.23,-0.39 0.45,-0.8 0.67,-1.22 0.4,-0.87 0.75,-1.79 1.11,-2.82 a 5.89,5.89 0 0 1 0.34,3.25 6.68,6.68 0 0 1 -0.5,1.63 3.94,3.94 0 0 1 -1.06,1.34 10.1,10.1 0 0 1 -2.78,1.78 8.31,8.31 0 0 1 -3.08,0.6 z"
     id="path4657"
     inkscape:connector-curvature="0"
     style="fill:#6272bc" />
</svg>
