<svg version="1.1" xmlns="http://www.w3.org/2000/svg" xmlns:xlink="http://www.w3.org/1999/xlink" width="22" height="27" viewBox="0 0 22 27"><path id="ajouter-au-panie" d="M17.904,27.000 C17.904,27.000 4.070,27.000 4.070,27.000 C1.827,27.000 0.000,25.413 0.000,23.462 C0.000,23.440 0.000,23.423 0.000,23.401 C0.000,23.401 1.583,5.891 1.583,5.891 C1.617,5.544 1.913,5.282 2.266,5.282 C2.266,5.282 5.602,5.282 5.602,5.282 C5.607,2.370 8.021,0.000 10.987,0.000 C13.953,0.000 16.367,2.370 16.373,5.282 C16.373,5.282 19.709,5.282 19.709,5.282 C20.067,5.282 20.363,5.544 20.392,5.891 C20.392,5.891 21.974,23.401 21.974,23.401 C21.974,23.423 21.974,23.440 21.974,23.462 C21.974,25.413 20.147,27.000 17.904,27.000 zM10.987,1.341 C8.773,1.341 6.974,3.107 6.968,5.282 C6.968,5.282 15.006,5.282 15.006,5.282 C15.001,3.107 13.202,1.341 10.987,1.341 zM19.082,6.623 L16.373,6.623 C16.373,6.623 16.373,8.976 16.373,8.976 C16.373,9.345 16.065,9.646 15.689,9.646 C15.314,9.646 15.006,9.345 15.006,8.976 C15.006,8.976 15.006,6.623 15.006,6.623 L6.968,6.623 C6.968,6.623 6.968,8.976 6.968,8.976 C6.968,9.345 6.661,9.646 6.285,9.646 C5.909,9.646 5.602,9.345 5.602,8.976 C5.602,8.976 5.602,6.623 5.602,6.623 L2.892,6.623 C2.892,6.623 1.366,23.485 1.366,23.485 C1.383,24.686 2.590,25.653 4.070,25.653 C4.070,25.653 17.904,25.653 17.904,25.653 C19.384,25.653 20.591,24.686 20.608,23.490 C20.608,23.490 19.082,6.623 19.082,6.623 zM11.465,21.406 C11.329,21.534 11.158,21.601 10.981,21.601 C10.805,21.601 10.629,21.534 10.498,21.406 C10.498,21.406 7.810,18.768 7.810,18.768 C7.543,18.505 7.543,18.080 7.810,17.817 C8.078,17.555 8.511,17.555 8.778,17.817 C8.778,17.817 10.304,19.315 10.304,19.315 C10.304,19.315 10.304,13.011 10.304,13.011 C10.304,12.642 10.611,12.340 10.987,12.340 C11.363,12.340 11.670,12.642 11.670,13.011 C11.670,13.011 11.670,19.310 11.670,19.310 C11.670,19.310 13.196,17.812 13.196,17.812 C13.463,17.549 13.896,17.549 14.164,17.806 C14.431,18.069 14.431,18.494 14.164,18.756 C14.164,18.756 11.465,21.406 11.465,21.406 z" fill="#FFFFFF" /></svg>