<?xml version="1.0" encoding="UTF-8"?>
<svg width="24px" height="16px" viewBox="0 0 24 16" version="1.1" xmlns="http://www.w3.org/2000/svg" xmlns:xlink="http://www.w3.org/1999/xlink">
    <!-- Generator: Sketch 54.1 (76490) - https://sketchapp.com -->
    <title>Shape</title>
    <desc>Created with Sketch.</desc>
    <g id="AdressBook" stroke="none" stroke-width="1" fill="none" fill-rule="evenodd">
        <g id="Adressbook-S2-new" transform="translate(-955.000000, -683.000000)" fill="#18AC72" fill-rule="nonzero">
            <g id="1-" transform="translate(30.000000, 80.000000)">
                <g id="Group-14">
                    <g transform="translate(752.000000, 599.000000)">
                        <g id="Group" transform="translate(173.000000, 1.000000)">
                            <path d="M23.9834522,4.34686334 C23.9824679,3.60377164 23.4311699,3 22.7540593,3 C22.7534968,3 22.7529343,3 22.7524655,3 L1.22765959,3.03245144 C0.899299604,3.0329143 0.590720901,3.17367435 0.358829842,3.42876015 C0.126985657,3.68389739 -0.000420831438,4.02286322 1.04435214e-06,4.38301764 L0.0166417005,17.6530852 C0.0170635763,18.0133425 0.145360692,18.3518969 0.377861127,18.6063141 C0.609939687,18.8602685 0.91814339,19 1.24594088,19 C1.24650338,19 1.24711276,19 1.24758151,19 L22.7723406,18.9675486 C23.4500606,18.96652 24.000796,18.3607426 23.9999991,17.6169824 L23.9834522,4.34686334 Z M21.4036818,4.35077191 L12.000961,11.5221802 L2.58000588,4.37916049 L21.4036818,4.35077191 Z M15.9771872,12.8756264 L21.5539633,17.6206852 L2.43023997,17.6494852 L8.04100049,12.8756264 C8.30921974,12.6473349 8.35806358,12.223769 8.15003194,11.9293918 C7.94195342,11.6351174 7.5558902,11.5815288 7.2875772,11.8097689 L1.24505025,16.9510336 L1.23005022,4.99517214 L11.6524448,12.897535 C11.7576324,12.9773007 11.8797421,13.0171064 12.0018985,13.0171064 C12.1245706,13.0171064 12.2473365,12.9768378 12.3527586,12.896455 L22.7549031,4.96287499 L22.7706531,16.9491307 L16.7305168,11.8098203 C16.4624381,11.5816316 16.0761874,11.6351688 15.8681558,11.9294432 C15.6600773,12.2237176 15.7088742,12.6473863 15.9771872,12.8756264 Z" id="Shape"></path>
                        </g>
                    </g>
                </g>
            </g>
        </g>
    </g>
</svg>