<?xml version="1.0" encoding="utf-8"?>
<!-- Generator: Adobe Illustrator 21.1.0, SVG Export Plug-In . SVG Version: 6.00 Build 0)  -->
<svg version="1.1" id="Слой_1" xmlns="http://www.w3.org/2000/svg" xmlns:xlink="http://www.w3.org/1999/xlink" x="0px" y="0px"
	 width="35.5px" height="37.5px" viewBox="0 0 35.5 37.5" style="enable-background:new 0 0 35.5 37.5;" xml:space="preserve">
<style type="text/css">
	.st0{fill:#FF3466;}
</style>
<path id="Forma_1_copie_7" class="st0" d="M16.6,32.7l-4.9-4.9c-0.5-0.4-1.2-0.4-1.6,0c-0.4,0.4-0.5,1.2,0,1.6l0,0l6.9,6.8
	c0.5,0.4,1.3,0.4,1.8,0l6.9-6.7c0.4-0.4,0.5-1.2,0-1.6l0,0c-0.5-0.4-1.2-0.4-1.6,0l-4.9,4.8 M18.9,4.9l4.9,4.9
	c0.5,0.4,1.2,0.4,1.6,0c0.5-0.4,0.5-1.2,0-1.6l0,0l-6.9-6.8C18,1,17.2,1,16.7,1.4L10,8.1c-0.5,0.4-0.5,1.2,0,1.6l0,0
	c0.5,0.5,1.2,0.5,1.6,0l4.9-4.9"/>
</svg>
