<?xml version="1.0" encoding="utf-8"?>
<!-- Generator: Adobe Illustrator 21.0.0, SVG Export Plug-In . SVG Version: 6.00 Build 0)  -->
<svg version="1.1" id="Слой_1" xmlns="http://www.w3.org/2000/svg" xmlns:xlink="http://www.w3.org/1999/xlink" x="0px" y="0px"
	 viewBox="0 0 16 18" style="enable-background:new 0 0 16 18;" xml:space="preserve">
<title>noun_51812</title>
<desc>Created with Sketch.</desc>
<g>
	<path d="M11.8,4c0.5,0,0.9-0.4,0.9-0.9V0.9c0-0.5-0.4-0.9-0.9-0.9S11,0.4,11,0.9v2.3C11,3.6,11.3,4,11.8,4z"/>
	<path d="M4.2,4C4.7,4,5,3.6,5,3.2V0.9C5,0.4,4.7,0,4.2,0S3.3,0.4,3.3,0.9v2.3C3.3,3.6,3.7,4,4.2,4z"/>
	<path d="M13.6,1.4h-0.3v1.7c0,0.8-0.7,1.4-1.5,1.4c-0.8,0-1.5-0.6-1.5-1.4V1.4H5.7v1.7c0,0.8-0.7,1.4-1.5,1.4
		c-0.8,0-1.5-0.6-1.5-1.4V1.4H2.4c-1.2,0-2.2,1-2.2,2.2v9.8c0,0,0,0.2,0,0.2C0.4,17.2,4.8,18,7.6,18c0,0,0,0,0.1,0h0h6
		c1.2,0,2.2-1,2.2-2.2V3.6C15.9,2.4,14.9,1.4,13.6,1.4z M1.5,13.8l2.3-0.6c-0.1,1,0,1.9,0.5,2.6c0.1,0.1,0.3,0.5,0.4,0.7
		C3.3,16.2,1.7,14.9,1.5,13.8z M14.5,15.8c0,0.5-0.4,0.9-0.9,0.9h-6c-0.4,0-1.5-0.2-2.2-1.6c-0.4-0.7-0.5-1.6-0.1-2.7
		c0.1-0.2,0-0.5-0.2-0.6c-0.2-0.2-0.4-0.2-0.7-0.2l-3.1,0.9V6.7h13V15.8z"/>
</g>
</svg>
