<?xml version="1.0" encoding="utf-8"?>
<!-- Generator: Adobe Illustrator 21.0.0, SVG Export Plug-In . SVG Version: 6.00 Build 0)  -->
<svg version="1.1" id="Слой_1" xmlns="http://www.w3.org/2000/svg" xmlns:xlink="http://www.w3.org/1999/xlink" x="0px" y="0px"
	 viewBox="0 0 248 71" style="enable-background:new 0 0 248 71;" xml:space="preserve">
<style type="text/css">
	.backofficegraphic0{fill:#E7E7EA;}
	.backofficegraphic1{fill:#879BFF;}
	.backofficegraphic2{fill:#18A3AC;}
</style>
<title>Group 16</title>
<desc>Created with Sketch.</desc>
<g>
	<path class="backofficegraphic0" d="M245.6,70H220v-1.5c0-0.3-0.2-0.5-0.5-0.5s-0.5,0.2-0.5,0.5V70h-37v-1.5c0-0.3-0.2-0.5-0.5-0.5
		s-0.5,0.2-0.5,0.5V70h-37v-1.5c0-0.3-0.2-0.5-0.5-0.5s-0.5,0.2-0.5,0.5V70h-37v-1.5c0-0.3-0.2-0.5-0.5-0.5s-0.5,0.2-0.5,0.5V70H68
		v-1.5c0-0.3-0.2-0.5-0.5-0.5S67,68.2,67,68.5V70H35v-1.5c0-0.3-0.2-0.5-0.5-0.5S34,68.2,34,68.5V70H1.4c-0.3,0-0.5,0.2-0.5,0.5
		S1.1,71,1.4,71h244.3c0.3,0,0.5-0.2,0.5-0.5S245.9,70,245.6,70z"/>
	<path class="backofficegraphic1" d="M246.9,30.1c-0.5-0.2-1.1,0-1.3,0.5c-0.9,1.8-2.1,2.9-3.6,3.3c-3.8,1-9.5-2-15.3-5.7c-0.6,0.4-1.2,0.8-1.8,1.2
		c6.6,4.3,13,7.7,17.7,6.4c2.1-0.6,3.8-2,4.9-4.4C247.6,30.9,247.4,30.3,246.9,30.1z"/>
	<path class="backofficegraphic1" d="M0.4,57.2c-0.5,0.3-0.6,0.9-0.2,1.4C0.4,58.9,0.7,59,1,59c0.2,0,0.4-0.1,0.6-0.2c8.2-5.7,15-14.6,21-22.5
		c-1.3,0.6-2.7,1.3-4.1,2C13.2,45.2,7.3,52.4,0.4,57.2z"/>
	<path class="backofficegraphic1" d="M37.5,21.5c0.6,0,2.8,1,5,2.1c7.8,3.7,22.4,10.5,37.7,8.4c4-0.5,11.5,1.5,20.3,3.8c10.3,2.7,23,6.1,35.8,6.9
		c2-0.2,4-0.6,6-1c3.5-0.7,9.7-1.2,17.6-1.8c4.1-1.8,8.2-4.4,13.1-7.6c7-4.6,15.8-10.3,28-15.4c3.5-1.5,11,3.6,18.2,8.6
		c1.3,0.9,2.6,1.8,3.9,2.6c0.6-0.4,1.2-0.7,1.9-1.2c-1.6-1-3.1-2.1-4.6-3.1c-8.4-5.8-15.6-10.7-20.1-8.8
		c-12.4,5.3-21.2,11-28.3,15.6c-6.8,4.4-12.1,7.9-17.5,9c-17.5,3.7-38.2-1.8-53.3-5.8c-9.3-2.5-16.7-4.5-21.1-3.8
		c-14.7,2-28.9-4.7-36.5-8.3c-3.2-1.5-4.8-2.2-5.8-2.2c-4.8,0-9.8,6.7-16.2,15.1c1.3-0.6,2.6-1.2,3.8-1.7
		C30,26.5,34.2,21.5,37.5,21.5z"/>
	<path class="backofficegraphic2" d="M246.9,1.4c0.2-0.5,0-1.1-0.5-1.3c-0.5-0.2-1.1,0-1.3,0.5c-6,12.6-12.8,21.5-20.2,26.4
		c-0.6,0.4-1.2,0.8-1.9,1.2c-1,0.6-2.1,1.1-3.1,1.6c-16.6,7.1-41.6,8.9-59.9,10.2c0,0-0.1,0-0.1,0c-7.8,0.6-14,1-17.6,1.8
		c-2,0.4-4.1,0.8-6,1c-14.9,1.8-28-1.7-38.7-4.6c-7.2-1.9-12.9-3.5-17.3-2.9c-15,2.1-28.9-2.1-36.4-4.3c-2.7-0.8-4.3-1.3-5.2-1.3
		c-3.8,0-8.3,1.1-13.5,3.3c-1.2,0.5-2.5,1.1-3.8,1.7c-6,2.9-12.9,7-20.8,12.5c-0.5,0.3-0.6,0.9-0.2,1.4C0.4,48.9,0.7,49,1,49
		c0.2,0,0.4-0.1,0.6-0.2c6.2-4.3,11.8-7.8,16.9-10.5c1.4-0.7,2.7-1.4,4.1-2c6.5-3.1,11.8-4.6,16.1-4.6c0.6,0,2.5,0.6,4.6,1.2
		c7.6,2.3,21.8,6.5,37.2,4.4c4-0.5,9.8,1,16.5,2.8c11.7,3.1,27.8,7.5,45.7,3.6c3.4-0.7,9.6-1.2,17.4-1.7
		c18.4-1.3,43.6-3.2,60.6-10.4c1.4-0.6,2.8-1.4,4.2-2.2c0.6-0.4,1.2-0.8,1.8-1.2C234.1,22.9,240.9,14,246.9,1.4z"/>
</g>
</svg>
