<?xml version="1.0" encoding="utf-8"?>
<!-- Generator: Adobe Illustrator 21.0.0, SVG Export Plug-In . SVG Version: 6.00 Build 0)  -->
<svg version="1.1" id="Слой_1" xmlns="http://www.w3.org/2000/svg" xmlns:xlink="http://www.w3.org/1999/xlink" x="0px" y="0px"
	 viewBox="0 0 22 12" style="enable-background:new 0 0 22 12;" xml:space="preserve">
<title>Shape</title>
<desc>Created with Sketch.</desc>
<path d="M20,0c-1.1,0-2,0.9-2,2c0,0.2,0,0.3,0.1,0.5l-3.5,3.6C14.4,6,14.2,6,14,6s-0.4,0-0.5,0.1l-2.5-2.5
	C11,3.4,11,3.2,11,3c0-1.1-0.9-2-2-2S7,1.9,7,3c0,0.2,0,0.4,0.1,0.5L2.5,8.1C2.3,8,2.2,8,2,8c-1.1,0-2,0.9-2,2s0.9,2,2,2s2-0.9,2-2
	c0-0.2,0-0.3-0.1-0.5l4.5-4.6C8.6,5,8.8,5,9,5s0.4,0,0.5-0.1l2.5,2.5C12,7.6,12,7.8,12,8c0,1.1,0.9,2,2,2s2-0.9,2-2
	c0-0.2,0-0.4-0.1-0.5l3.6-3.5C19.7,4,19.8,4,20,4c1.1,0,2-0.9,2-2S21.1,0,20,0z"/>
</svg>
