<?xml version="1.0" encoding="utf-8"?>
<!-- Generator: Adobe Illustrator 21.0.0, SVG Export Plug-In . SVG Version: 6.00 Build 0)  -->
<svg version="1.1" id="Слой_1" xmlns="http://www.w3.org/2000/svg" xmlns:xlink="http://www.w3.org/1999/xlink" x="0px" y="0px"
	 viewBox="0 0 24 23" style="enable-background:new 0 0 24 23;" xml:space="preserve">
<style type="text/css">
	.st0{fill:#592E2E;}
</style>
<title>Group 16</title>
<desc>Created with Sketch.</desc>
<path id="BO-Diffusion-_x26_-access" class="st0" d="M16,4.6l-13.7,0C1.1,4.6,0,5.7,0,7v8.5c0,1.3,1.1,2.4,2.4,2.4h2.4v4
	c0,0.2,0.1,0.3,0.3,0.4c0,0,0.1,0,0.1,0c0.1,0,0.2,0,0.3-0.1l3.9-4.3l6.7,0c1.3,0,2.4-1.1,2.4-2.4V7C18.4,5.7,17.3,4.6,16,4.6z
	 M21.6,0.2L8,0.2c-1.3,0-2.4,1.1-2.4,2.4v1.2l10.4,0c1.8,0,3.2,1.4,3.2,3.2v8.4v0v0.8l1.3,1.4c0.1,0.1,0.2,0.1,0.3,0.1
	c0,0,0.1,0,0.1,0c0.2-0.1,0.3-0.2,0.3-0.4v-4h0.4c1.3,0,2.4-1.1,2.4-2.4V2.6C24,1.3,22.9,0.2,21.6,0.2z"/>
</svg>
