<?xml version="1.0" encoding="utf-8"?>
<!-- Generator: Adobe Illustrator 21.0.0, SVG Export Plug-In . SVG Version: 6.00 Build 0)  -->
<svg version="1.1" id="Слой_1" xmlns="http://www.w3.org/2000/svg" xmlns:xlink="http://www.w3.org/1999/xlink" x="0px" y="0px"
	 viewBox="0 0 10 14" style="enable-background:new 0 0 10 14;" xml:space="preserve">
<style type="text/css">
	.st0{fill:#494949;}
</style>
<title>Shape Copy</title>
<desc>Created with Sketch.</desc>
<g>
	<path class="st0" d="M9.1,6.3V3.7C9.1,1.7,7.2,0,5,0S0.9,1.7,0.9,3.7v2.6H0V14h10V6.3H9.1z M5.6,10.1v1.2C5.6,11.7,5.3,12,5,12
		c-0.3,0-0.6-0.3-0.6-0.7v-1.2C4.2,9.9,4,9.6,4,9.2C4,8.5,4.4,8,5,8s1,0.5,1,1.2C6,9.6,5.8,9.9,5.6,10.1z M8,6H2V3.4
		C2,2.1,3.3,1,5,1s3,1.1,3,2.4V6z"/>
</g>
</svg>
