<?xml version="1.0" encoding="UTF-8"?>
<svg width="17px" height="18px" viewBox="0 0 17 18" version="1.1" xmlns="http://www.w3.org/2000/svg" xmlns:xlink="http://www.w3.org/1999/xlink">
    <!-- Generator: Sketch 51.2 (57519) - http://www.bohemiancoding.com/sketch -->
    <title>Shape</title>
    <desc>Created with Sketch.</desc>
    <defs></defs>
    <g id="Symbols" stroke="none" stroke-width="1" fill="none" fill-rule="evenodd">
        <g id="baseline/share" transform="translate(-3.000000, -3.000000)" fill="#494949" fill-rule="nonzero">
            <g id="baseline-share-24px">
                <path d="M17.1666667,15.7228916 C16.4488889,15.7228916 15.8066667,15.9939759 15.3155556,16.4186747 L8.58166667,12.6686747 C8.62888889,12.4608434 8.66666667,12.253012 8.66666667,12.0361446 C8.66666667,11.8192771 8.62888889,11.6114458 8.58166667,11.4036145 L15.24,7.68975904 C15.75,8.14156627 16.4205556,8.42168675 17.1666667,8.42168675 C18.7344444,8.42168675 20,7.21084337 20,5.71084337 C20,4.21084337 18.7344444,3 17.1666667,3 C15.5988889,3 14.3333333,4.21084337 14.3333333,5.71084337 C14.3333333,5.92771084 14.3711111,6.13554217 14.4183333,6.34337349 L7.76,10.0572289 C7.25,9.60542169 6.57944444,9.3253012 5.83333333,9.3253012 C4.26555556,9.3253012 3,10.5361446 3,12.0361446 C3,13.5361446 4.26555556,14.746988 5.83333333,14.746988 C6.57944444,14.746988 7.25,14.4668675 7.76,14.0150602 L14.4844444,17.7740964 C14.4372222,17.9638554 14.4088889,18.1626506 14.4088889,18.3614458 C14.4088889,19.8162651 15.6461111,21 17.1666667,21 C18.6872222,21 19.9244444,19.8162651 19.9244444,18.3614458 C19.9244444,16.9066265 18.6872222,15.7228916 17.1666667,15.7228916 Z" id="Shape"></path>
            </g>
        </g>
    </g>
</svg>