<?xml version="1.0" encoding="UTF-8"?>
<svg width="37px" height="29px" viewBox="0 0 37 29" version="1.1" xmlns="http://www.w3.org/2000/svg" xmlns:xlink="http://www.w3.org/1999/xlink">
    <!-- Generator: Sketch 51.2 (57519) - http://www.bohemiancoding.com/sketch -->
    <title>Group</title>
    <desc>Created with Sketch.</desc>
    <defs></defs>
    <g id="BO-Diffusion-&amp;-access" stroke="none" stroke-width="1" fill="none" fill-rule="evenodd">
        <g id="Private-S12" transform="translate(-1201.000000, -585.000000)" fill="#C7CDD4" fill-rule="nonzero">
            <g id="Under-maintenance" transform="translate(1160.000000, 585.000000)">
                <g id="Group" transform="translate(59.500000, 14.500000) scale(-1, 1) translate(-59.500000, -14.500000) translate(41.000000, 0.000000)">
                    <path d="M30.6247104,8.66459486 C31.1477313,8.78792355 31.6884563,8.93237275 32.1392891,9.0597244 C32.2521219,9.09153088 32.3595937,9.12233162 32.4598341,9.15137232 L32.1688376,12.0524252 C32.1662193,12.0784487 32.1655959,12.104095 32.1649726,12.1297414 L31.5708857,12.4197712 L31.7077813,13.3305932 L32.5277832,12.930435 C32.6745283,13.0523808 32.8573051,13.1335942 33.0607783,13.1543375 C33.0949398,13.1578576 33.128852,13.1596176 33.1625149,13.1596176 C33.6682056,13.1596176 34.1017082,12.7731626 34.1536986,12.2548301 L34.1661663,12.1309985 L36.3018868,11.0886762 L35.9214967,10.2965314 L34.2691497,11.1028823 L34.5274809,8.52530007 C34.5752322,8.05071718 34.2833629,7.60555215 33.8317821,7.46386873 C33.82293,7.46122867 32.974751,7.19445652 31.9540187,6.92491858 C31.4428422,6.7900239 30.8895248,6.65437491 30.367626,6.54965238 C29.8409895,6.44580987 29.3636005,6.368368 28.9168821,6.36585366 C28.8085376,6.36698511 28.7006918,6.37151094 28.584742,6.38709989 C28.2638229,6.3610764 27.9629768,6.39803729 27.7885534,6.49911402 C26.4234627,7.27403558 25.0587461,8.04958573 23.6937801,8.82463301 C23.6855514,8.82941027 23.6776967,8.83594757 23.6695927,8.84122769 C23.4770911,8.93815575 23.313764,9.09743959 23.2145209,9.30877041 L19.002551,18.2599693 C18.9510593,18.3694691 18.9220096,18.4836204 18.9115367,18.5976461 L15.6326509,20.1979018 L14.9612642,19.3886594 L12.2598833,18.0057689 L10.3640417,19.0319994 L9.71684239,19.9380441 L9.14158178,20.8443403 L8.13481338,20.9197707 L6.69653718,21.0707572 L5.52195326,22.2540086 L5.23419828,23.1600533 L4.13167779,23.5629773 L3.41241501,25.1739191 L3.11693004,26.2611225 L2.16601703,26.8100043 L0.623386009,27.9374372 L0,29 L22.0858182,29 L21.4340058,27.7278664 L19.719819,26.5754158 L18.9404618,25.4335253 L18.0475237,25.0042007 L17.7041626,23.3277602 L16.7899047,22.7830271 L16.6652275,21.4420004 L16.2101557,20.8936215 L19.2213595,19.4242374 C19.2950437,19.4940105 19.3801983,19.5537263 19.4764491,19.5997388 C19.6144667,19.6657404 19.759965,19.697044 19.9033438,19.697044 C20.2765027,19.697044 20.6344509,19.4848332 20.8048847,19.1221387 L21.092515,18.5110268 L26.130596,16.0523732 L25.9829782,15.1468313 L21.6894694,17.2420362 L24.3450938,11.5982085 C25.2650869,12.534174 25.8854806,13.5138891 26.0990527,15.0900071 L31.5277474,12.440766 C31.3821244,11.1397175 31.1378818,9.95872895 30.6247104,8.66459486 Z" id="Shape"></path>
                    <path d="M36.5984015,26.3696967 C34.2961567,23.821945 33.1247536,21.1033539 32.5289742,19.0201108 C32.2315227,17.9798609 32.0792916,17.1015967 32.0024249,16.4959274 C31.9797655,16.3184789 31.9637412,16.1652222 31.9522237,16.0372797 C31.9637412,15.9508624 31.9679976,15.8614523 31.9624893,15.7696729 C31.9125384,14.9214615 31.8711005,14.1563005 31.8132627,13.4390244 L26.3500947,16.0726946 C26.3544764,16.2047522 26.3569802,16.3399273 26.3566046,16.4797164 C25.9462317,16.7127812 25.4776454,17.0245319 24.9990438,17.4382875 C24.3411702,18.0101631 23.6690249,18.7841778 23.1658861,19.7968689 C22.6612451,20.8075648 22.3376288,22.0518243 22.3396319,23.490741 C22.3396319,24.8178015 22.6075386,26.3057254 23.2134583,27.9717214 C23.4440584,28.6058224 24.0449706,29 24.6851924,29 C24.8620859,29 25.0418588,28.9700719 25.2177508,28.9065995 C26.0302342,28.6133044 26.4503719,27.7194527 26.1563005,26.9101478 C25.6522855,25.5242287 25.4693828,24.3979356 25.4693828,23.490741 C25.4713859,22.5048605 25.6788257,21.7717474 25.9706437,21.180294 C26.4074318,20.2992864 27.0751954,19.7118233 27.6554512,19.3390941 C27.9433883,19.154413 28.2041592,19.027094 28.3811779,18.9509021 C28.4698124,18.9127438 28.5371647,18.8873049 28.5764743,18.8733385 C28.5955032,18.86648 28.6077718,18.8623649 28.6126543,18.8607438 C28.8309857,18.7939044 29.0230272,18.6826718 29.184272,18.5413863 C29.2737828,18.9533961 29.3835745,19.3994491 29.5190301,19.8740584 C30.2124577,22.3007261 31.5790322,25.4737251 34.2717447,28.4551844 C34.5808389,28.7971126 35.0073613,28.9711942 35.4356365,28.9711942 C35.8085776,28.9711942 36.1828958,28.8391366 36.4819748,28.5711557 C37.1243249,27.9954144 37.1764039,27.0096586 36.5984015,26.3696967 Z" id="Shape"></path>
                    <path d="M24.8166575,6.8426656 C26.256326,6.23142057 26.9174265,4.59315035 26.2929555,3.18360249 C26.2378849,3.05935062 26.1743515,2.94140406 26.1037448,2.82926829 L20.9433962,5.02055207 C20.9787627,5.14740025 21.0233497,5.27350663 21.0782941,5.3977585 C21.7028914,6.80705909 23.3766102,7.4541579 24.8166575,6.8426656 Z" id="Shape"></path>
                    <path d="M20.4771843,4.19196764 C20.2821081,4.27883696 20.1924855,4.51201942 20.2772568,4.71265869 C20.3619004,4.91342918 20.5886381,5.00541619 20.7839696,4.91841564 L26.2962751,2.46074862 C26.4914789,2.37361685 26.5811016,2.14069684 26.4963303,1.93979512 C26.4116866,1.73928707 26.1848213,1.64730007 25.9896174,1.7341694 L25.9407207,1.75595234 C25.9044631,1.67577536 25.8655245,1.59769795 25.8232665,1.52224499 C25.0850922,0.199915415 23.4819697,-0.369721647 22.0888605,0.251354652 C20.6957513,0.872430951 20.0050694,2.46455407 20.4401607,3.92230531 C20.4649282,4.0055004 20.4937811,4.08817061 20.526081,4.17031592 L20.4771843,4.19196764 Z" id="Shape"></path>
                </g>
            </g>
        </g>
    </g>
</svg>