<?xml version="1.0" encoding="utf-8"?>
<!-- Generator: Adobe Illustrator 21.0.0, SVG Export Plug-In . SVG Version: 6.00 Build 0)  -->
<svg version="1.1" id="Слой_1" xmlns="http://www.w3.org/2000/svg" xmlns:xlink="http://www.w3.org/1999/xlink" x="0px" y="0px"
	 viewBox="0 0 54 54" style="enable-background:new 0 0 54 54;" xml:space="preserve">
<style type="text/css">
	.st0{fill:#4A90E2;}
</style>
<title>drag</title>
<desc>Created with Sketch.</desc>
<g>
	<path class="st0" d="M40,29c-1.4-1.4-3.6-1.4-4.9,0c-0.4,0.4-0.7,0.9-0.9,1.4c-1.2-0.4-2.6-0.2-3.6,0.9c-0.5,0.5-0.8,1.2-1,1.9
		c-1.1-0.2-2.2,0.2-3,1c-0.3,0.3-0.6,0.7-0.7,1.1l-2-2.1c-1.3-1.4-3.6-1.4-4.9,0c-0.7,0.7-1,1.6-1,2.5s0.4,1.9,1,2.5l8.5,8.8h-1.8
		c-3.1,0-5.6,2.6-5.6,5.7c0,0.6,0.5,1.1,1.1,1.1h13.5C41.5,54,47,48.4,47,41.5c0-3.3-1.3-6.5-3.6-8.9L40,29z M34.8,51.7H22.6
		c0.5-1.3,1.7-2.3,3.2-2.3h4.5c0.5,0,0.9-0.3,1-0.7c0.2-0.4,0.1-0.9-0.2-1.3L20.6,36.7c-0.2-0.2-0.4-0.6-0.4-0.9s0.1-0.7,0.4-0.9
		c0.5-0.5,1.3-0.5,1.8,0l7.1,7.3c0.4,0.4,1.1,0.4,1.6,0c0.2-0.2,0.3-0.5,0.3-0.8s-0.1-0.6-0.3-0.8l-2.8-2.9
		c-0.2-0.2-0.4-0.6-0.4-0.9s0.1-0.7,0.4-0.9c0.5-0.5,1.3-0.5,1.8,0l1.7,1.7c0.4,0.4,1.1,0.4,1.6,0c0.2-0.2,0.3-0.5,0.3-0.8
		s-0.1-0.6-0.3-0.8l-1.1-1.1c-0.2-0.2-0.4-0.6-0.4-0.9s0.1-0.7,0.4-0.9c0.5-0.5,1.3-0.5,1.8,0l1.1,1.1c0.4,0.4,1.1,0.4,1.6,0
		c0.2-0.2,0.3-0.5,0.3-0.8s-0.1-0.6-0.3-0.8c-0.5-0.5-0.5-1.3,0-1.8c0.5-0.5,1.3-0.5,1.8,0l3.5,3.6c1.9,1.9,2.9,4.5,2.9,7.2
		C44.8,47.1,40.3,51.7,34.8,51.7z"/>
	<path class="st0" d="M12.5,31.4c0.1-0.4,0.3-0.8,0.5-1.2c0.3-0.6,0.1-1.2-0.5-1.5s-1.2-0.1-1.5,0.5c-0.2,0.4-0.4,0.9-0.6,1.3
		C9.7,30.1,8.9,30,8,30c-4.4,0-8,3.6-8,8s3.6,8,8,8s8-3.6,8-8C16,35.3,14.6,32.8,12.5,31.4z M8,43.7c-3.1,0-5.7-2.6-5.7-5.7
		s2.6-5.7,5.7-5.7s5.7,2.6,5.7,5.7S11.1,43.7,8,43.7z"/>
	<path class="st0" d="M43.7,12.4c-0.6-0.3-1.1-0.6-1.6-1c-0.5-0.4-1.2-0.4-1.6,0c-0.4,0.4-0.4,1.1,0,1.5c0.6,0.6,1.4,1.1,2.2,1.4
		c0.2,0.1,0.3,0.1,0.5,0.1c0.4,0,0.8-0.2,1-0.6C44.5,13.3,44.2,12.7,43.7,12.4z"/>
	<path class="st0" d="M41.6,3.6c0.3,0,0.5-0.1,0.7-0.3c0.5-0.4,1-0.7,1.6-0.9c0.6-0.2,0.9-0.9,0.6-1.4c-0.2-0.6-0.9-0.8-1.5-0.6
		c-0.8,0.3-1.6,0.8-2.3,1.3c-0.5,0.4-0.5,1.1-0.1,1.5C40.9,3.4,41.2,3.6,41.6,3.6z"/>
	<path class="st0" d="M48.3,0.1c-0.6-0.2-1.2,0.2-1.4,0.7C46.7,1.4,47,2,47.6,2.2c0.6,0.2,1.2,0.4,1.7,0.8c0.2,0.1,0.4,0.2,0.7,0.2
		c0.4,0,0.7-0.2,0.9-0.5c0.4-0.5,0.2-1.2-0.3-1.5C49.9,0.7,49.1,0.3,48.3,0.1z"/>
	<path class="st0" d="M49.1,12c-0.5,0.3-1.1,0.6-1.7,0.7c-0.6,0.1-1,0.7-0.8,1.3c0.1,0.5,0.6,0.8,1.1,0.8c0.1,0,0.2,0,0.3,0
		c0.9-0.2,1.7-0.5,2.4-1c0.5-0.3,0.7-1,0.3-1.5C50.3,11.9,49.6,11.7,49.1,12z"/>
	<path class="st0" d="M53.7,5.3c-0.2-0.6-0.8-0.9-1.4-0.7c-0.6,0.2-0.9,0.8-0.8,1.4c0.2,0.5,0.2,1,0.2,1.5c0,0.6-0.1,1.2-0.3,1.8
		c-0.2,0.6,0.1,1.2,0.7,1.4c0.1,0,0.3,0.1,0.4,0.1c0.5,0,0.9-0.3,1.1-0.7C53.9,9.1,54,8.3,54,7.4C54,6.7,53.9,6,53.7,5.3z"/>
	<path class="st0" d="M19.1,22.1c0.3,0,0.5-0.1,0.8-0.3c0.5-0.5,1.1-1,1.6-1.5c0.5-0.4,0.5-1.1,0.1-1.6c-0.4-0.5-1.1-0.5-1.6-0.1
		c-0.6,0.5-1.1,1-1.7,1.5c-0.5,0.4-0.5,1.1-0.1,1.6C18.5,22,18.8,22.1,19.1,22.1z"/>
	<path class="st0" d="M15.2,23.4c-0.5,0.6-1,1.2-1.5,1.8c-0.4,0.5-0.3,1.2,0.2,1.6C14,27,14.3,27,14.5,27c0.3,0,0.6-0.1,0.9-0.4
		c0.4-0.5,0.9-1.1,1.4-1.7c0.4-0.5,0.4-1.2-0.1-1.6C16.3,22.9,15.6,23,15.2,23.4z"/>
	<path class="st0" d="M35.7,10.9c0.1,0,0.3,0,0.4-0.1c0.7-0.3,1.4-0.5,1.9-0.5c0.5-0.1,0.8-0.4,0.9-0.9c0.1,0,0.2,0.1,0.3,0.1
		c0.1,0,0.1,0,0.2,0c0.6-0.1,1.1-0.6,1-1.2c0-0.3-0.1-0.5-0.1-0.8c0-0.4,0-0.7,0.1-1c0.1-0.6-0.3-1.2-0.9-1.3
		C38.9,5,38.3,5.4,38.2,6c-0.1,0.5-0.1,1-0.1,1.5c0,0.2,0,0.4,0,0.6c-0.1,0-0.3,0-0.4,0c-0.7,0.1-1.5,0.3-2.3,0.7
		c-0.6,0.2-0.9,0.9-0.7,1.5C34.8,10.6,35.3,10.9,35.7,10.9z"/>
	<path class="st0" d="M29.8,13.9c0.2,0,0.4-0.1,0.6-0.2c0.6-0.4,1.3-0.8,1.9-1.1c0.5-0.3,0.7-1,0.4-1.5c-0.3-0.5-1-0.8-1.5-0.5
		c-0.6,0.4-1.3,0.7-2,1.2c-0.5,0.3-0.7,1-0.4,1.6C29,13.7,29.4,13.9,29.8,13.9z"/>
	<path class="st0" d="M24.3,17.8c0.2,0,0.5-0.1,0.7-0.2c0.6-0.5,1.2-0.9,1.8-1.3c0.5-0.4,0.6-1.1,0.3-1.6c-0.4-0.5-1-0.6-1.5-0.3
		c-0.6,0.4-1.2,0.9-1.8,1.4c-0.5,0.4-0.6,1.1-0.2,1.6C23.6,17.6,23.9,17.8,24.3,17.8z"/>
</g>
</svg>
