<?xml version="1.0" encoding="UTF-8"?>
<svg width="34px" height="38px" viewBox="0 0 34 38" version="1.1" xmlns="http://www.w3.org/2000/svg" xmlns:xlink="http://www.w3.org/1999/xlink">
    <!-- Generator: Sketch 51.3 (57544) - http://www.bohemiancoding.com/sketch -->
    <title>Group 3</title>
    <desc>Created with Sketch.</desc>
    <g id="Tunnel-ver-7-Copy-2">
        <g id="4" transform="translate(-305.000000, -689.000000)">
            <g id="Slider-btn-Copy-3" transform="translate(307.000000, 693.000000)">
                <g id="Right-slider-btn">
                    <g id="right-arrow-copy">
                        <g id="Group-2-Copy-2">
                            <g id="Group-3" transform="translate(8.000000, 7.000000)">
                                <path d="M5.32380775,7.20791772 L12.112589,0.328385493 C12.5444375,-0.109461831 13.2446058,-0.109461831 13.6762447,0.328385493 C14.1079184,0.765843305 14.1079184,1.47535781 13.6762447,1.91278021 L7.66922132,8.00011508 L13.67607,14.0872375 C14.1077437,14.5248724 14.1077437,15.234316 13.67607,15.6717739 C13.2443962,16.1094087 12.5442628,16.1094087 12.1124143,15.6717739 L5.32363304,8.79213539 C5.10779615,8.57330025 5,8.28679619 5,8.00015049 C5,7.71336315 5.1080058,7.42664663 5.32380775,7.20791772 Z" id="Shape-Copy-16"></path>
                                <path d="M0.323807749,7.20791772 L7.11258903,0.328385493 C7.54443752,-0.109461831 8.24460582,-0.109461831 8.67624466,0.328385493 C9.10791845,0.765843305 9.10791845,1.47535781 8.67624466,1.91278021 L2.66922132,8.00011508 L8.67606995,14.0872375 C9.10774374,14.5248724 9.10774374,15.234316 8.67606995,15.6717739 C8.24439617,16.1094087 7.54426281,16.1094087 7.11241432,15.6717739 L0.323633039,8.79213539 C0.107796148,8.57330025 5.32907052e-15,8.28679619 5.32907052e-15,8.00015049 C5.32907052e-15,7.71336315 0.1080058,7.42664663 0.323807749,7.20791772 Z" id="Shape-Copy-17"></path>
                            </g>
                        </g>
                    </g>
                </g>
            </g>
        </g>
    </g>
</svg>