<?xml version="1.0" encoding="UTF-8"?>
<svg width="26px" height="19px" viewBox="0 0 26 19" version="1.1" xmlns="http://www.w3.org/2000/svg" xmlns:xlink="http://www.w3.org/1999/xlink">
    <!-- Generator: Sketch 51.3 (57544) - http://www.bohemiancoding.com/sketch -->
    <title>Shape Copy</title>
    <desc>Created with Sketch.</desc>
    <defs></defs>
    <g id="Tunnel-Final" stroke="none" stroke-width="1" fill="none" fill-rule="evenodd">
        <g id="Slide-11.1" transform="translate(-1325.000000, -25.000000)" fill="#89929E" fill-rule="nonzero">
            <path d="M1347.24565,35.054869 C1349.52513,37.8785382 1350.33849,41.192135 1350.33331,43.3572992 C1350.33331,43.6470414 1350.14163,43.9051753 1349.86187,43.9789278 C1349.81006,43.994732 1349.75308,44 1349.70127,44 C1349.47332,44 1349.26092,43.8788351 1349.14694,43.6733816 C1345.91941,37.8838062 1339.83734,37.583528 1335.85861,37.5677239 L1335.85861,41.7558152 C1335.85861,42.0086811 1335.71874,42.2352068 1335.49597,42.3405676 C1335.2732,42.4511964 1335.01417,42.4143201 1334.82249,42.2562789 L1325.22795,34.1803745 C1325.08289,34.0592096 1325,33.8800962 1325,33.6851788 C1325,33.4955294 1325.08807,33.311148 1325.23313,33.1899831 L1334.82767,25.1456869 C1335.01417,24.9876457 1335.27838,24.9560374 1335.50115,25.0613982 C1335.72392,25.166759 1335.86379,25.3985528 1335.86379,25.6461506 L1335.86379,29.8500461 C1341.95622,30.0818398 1345.4117,32.784344 1347.24565,35.054869 Z" id="Shape-Copy"></path>
        </g>
    </g>
</svg>