<?xml version="1.0" encoding="UTF-8"?>
<svg width="37px" height="39px" viewBox="0 0 37 39" version="1.1" xmlns="http://www.w3.org/2000/svg" xmlns:xlink="http://www.w3.org/1999/xlink">
    <!-- Generator: Sketch 51.3 (57544) - http://www.bohemiancoding.com/sketch -->
    <title>Group</title>
    <desc>Created with Sketch.</desc>
    <g id="Tunnel-ver-7-Copy-2">
        <g id="4" transform="translate(-1025.000000, -688.000000)" >
            <g id="Slider-btn-Copy-3" transform="translate(307.000000, 693.000000)">
                <g id="Right-slider-btn">
                    <g id="right-arrow-copy" >
                        <g id="right-arrow-copy-2" transform="translate(737.000000, 15.000000) scale(-1, 1) translate(-737.000000, -15.000000) translate(722.000000, 0.000000)">
                            <g id="Group" transform="translate(8.000000, 7.000000)">
                                <path d="M5.33649994,7.00147693 L12.391379,0.318980258 C12.8401545,-0.106326753 13.5677671,-0.106326753 14.0163248,0.318980258 C14.4649187,0.743908913 14.4649187,1.43310233 14.0163248,1.85799659 L7.77384596,7.7709851 L14.0161432,13.6837672 C14.4647372,14.1088679 14.4647372,14.7979925 14.0161432,15.2229211 C13.5675492,15.6480218 12.839973,15.6480218 12.3911974,15.2229211 L5.33631838,8.54032128 C5.1120214,8.32775377 5,8.04945542 5,7.77101949 C5,7.49244598 5.11223927,7.21394126 5.33649994,7.00147693 Z" id="Shape-Copy-13"></path>
                                <path d="M0.336499942,7.00147693 L7.39137899,0.318980258 C7.84015452,-0.106326753 8.5677671,-0.106326753 9.01632476,0.318980258 C9.46491872,0.743908913 9.46491872,1.43310233 9.01632476,1.85799659 L2.77384596,7.7709851 L9.0161432,13.6837672 C9.46473716,14.1088679 9.46473716,14.7979925 9.0161432,15.2229211 C8.56754923,15.6480218 7.83997296,15.6480218 7.39119744,15.2229211 L0.336318384,8.54032128 C0.112021401,8.32775377 5.32907052e-15,8.04945542 5.32907052e-15,7.77101949 C5.32907052e-15,7.49244598 0.112239271,7.21394126 0.336499942,7.00147693 Z" id="Shape-Copy-14"></path>
                            </g>
                        </g>
                    </g>
                </g>
            </g>
        </g>
    </g>
</svg>