<svg xmlns="http://www.w3.org/2000/svg" width="14" height="18" viewBox="0 0 14 18">
  <metadata><?xpacket begin="﻿" id="W5M0MpCehiHzreSzNTczkc9d"?>
<x:xmpmeta xmlns:x="adobe:ns:meta/" x:xmptk="Adobe XMP Core 5.6-c138 79.159824, 2016/09/14-01:09:01        ">
   <rdf:RDF xmlns:rdf="http://www.w3.org/1999/02/22-rdf-syntax-ns#">
      <rdf:Description rdf:about=""/>
   </rdf:RDF>
</x:xmpmeta>
                                                                                                    
                                                                                                    
                                                                                                    
                                                                                                    
                                                                                                    
                                                                                                    
                                                                                                    
                                                                                                    
                                                                                                    
                                                                                                    
                                                                                                    
                                                                                                    
                                                                                                    
                                                                                                    
                                                                                                    
                                                                                                    
                                                                                                    
                                                                                                    
                                                                                                    
                                                                                                    
                           
<?xpacket end="w"?></metadata>
<defs>
    <style>
      .cls-1 {
        fill: #fff;
        fill-rule: evenodd;
      }
    </style>
  </defs>
  <path id="Forma_1" data-name="Forma 1" class="cls-1" d="M12.371,9.833H7.212V8.167H10.98a0.962,0.962,0,0,0,.962-0.961V3.016a0.962,0.962,0,0,0-.962-0.961H7.212V0.944a0.278,0.278,0,0,0-.556,0V2.056H2.887a0.962,0.962,0,0,0-.962.961v4.19a0.962,0.962,0,0,0,.962.961H6.655V9.833H1.5a0.962,0.962,0,0,0-.962.961v4.19a0.962,0.962,0,0,0,.962.961h5.16v1.111a0.278,0.278,0,0,0,.556,0V15.944h5.16a0.962,0.962,0,0,0,.962-0.96v-4.19A0.962,0.962,0,0,0,12.371,9.833Zm0.406,5.151a0.406,0.406,0,0,1-.406.4H1.5a0.406,0.406,0,0,1-.406-0.4v-4.19A0.406,0.406,0,0,1,1.5,10.389H12.371a0.406,0.406,0,0,1,.406.405v4.19Z"/>
</svg>
