<?xml version="1.0" encoding="UTF-8"?>
<svg width="22px" height="16px" viewBox="0 0 22 16" version="1.1" xmlns="http://www.w3.org/2000/svg" xmlns:xlink="http://www.w3.org/1999/xlink">
    <title>C0985241-DE77-464F-AFC6-DD731D3DEB35</title>
    <g id="Tchat-06/2020" stroke="none" stroke-width="1" fill="none" fill-rule="evenodd">
        <g id="Tchat-S2.1" transform="translate(-465.000000, -134.000000)" fill="#89929E" fill-rule="nonzero">
            <g id="Messagerie/Fill" transform="translate(31.000000, 80.000000)">
                <g id="identification" transform="translate(434.000000, 54.000000)">
                    <path d="M6.45945946,7.81981982 C7.74563625,7.81981982 8.78828829,6.77702703 8.78828829,5.49099099 C8.78828829,4.2048142 7.74563625,3.16216216 6.45945946,3.16216216 C5.17328267,3.16216216 4.13063063,4.2048142 4.13063063,5.49099099 C4.13231982,6.77646396 5.17398649,7.81813063 6.45945946,7.81981982 Z M6.45945946,4.06756757 C7.24802926,4.06756757 7.88738739,4.7067849 7.88738739,5.4954955 C7.88738739,6.2840653 7.24802926,6.92342342 6.45945946,6.92342342 C5.67074886,6.92342342 5.03153153,6.2840653 5.03153153,5.4954955 C5.03181305,4.70692569 5.67088966,4.06784908 6.45945946,4.06756757 Z" id="Shape"></path>
                    <path d="M6.45945946,8.68018018 C5.506616,8.67314191 4.59206083,9.05560249 3.92792793,9.73873874 C3.25225225,10.4279279 2.88288288,11.3648649 2.88288288,12.3828829 C2.8835867,12.6313345 3.08488177,12.8326295 3.33333333,12.8333333 L9.58558559,12.8333333 C9.83403715,12.8326295 10.0353322,12.6313345 10.036036,12.3828829 C10.036036,11.3648649 9.66666667,10.4279279 8.99099099,9.73873874 C8.32685809,9.05560249 7.41244368,8.67314191 6.45945946,8.68018018 Z M3.81531532,11.9324324 C3.89245495,11.3434685 4.15793917,10.7953266 4.57207207,10.3693694 C5.07052364,9.86500562 5.75028151,9.58108108 6.45945946,9.58108108 C7.16863741,9.58108108 7.84839528,9.86500562 8.34684685,10.3693694 C8.76013514,10.7957489 9.02561939,11.34375 9.1036036,11.9324324 L3.81531532,11.9324324 Z" id="Shape"></path>
                    <path d="M19.3693694,0.027027027 L2.25225225,0.027027027 C1.0085867,0.0275900901 0.000563063063,1.03561373 0,2.27927928 L0,13.7207207 C0.000563063063,14.9643863 1.0085867,15.9724099 2.25225225,15.972973 L19.3693694,15.972973 C20.6130349,15.9724099 21.6210586,14.9643863 21.6216216,13.7207207 L21.6216216,2.27927928 C21.6210586,1.03561373 20.6130349,0.0275900901 19.3693694,0.027027027 Z M20.7207207,13.7207207 C20.7186092,14.4660755 20.1147241,15.0699606 19.3693694,15.0720721 L2.25225225,15.0720721 C1.50689751,15.0699606 0.903012396,14.4660755 0.900900901,13.7207207 L0.900900901,2.27927928 C0.903012396,1.53392454 1.50689751,0.930039423 2.25225225,0.927927928 L19.3693694,0.927927928 C20.1147241,0.930039423 20.7186092,1.53392454 20.7207207,2.27927928 L20.7207207,13.7207207 Z" id="Shape"></path>
                    <path d="M18.2612613,7.54954955 L13.0135135,7.54954955 C12.7647804,7.54954955 12.5630631,7.75112613 12.5630631,8 C12.5630631,8.24887387 12.7647804,8.45045045 13.0135135,8.45045045 L18.2612613,8.45045045 C18.5099944,8.45045045 18.7117117,8.24887387 18.7117117,8 C18.7117117,7.75112613 18.5099944,7.54954955 18.2612613,7.54954955 Z" id="Path"></path>
                    <path d="M18.2612613,10.4324324 L13.0135135,10.4324324 C12.7647804,10.4324324 12.5630631,10.634009 12.5630631,10.8828829 C12.5630631,11.1317568 12.7647804,11.3333333 13.0135135,11.3333333 L18.2612613,11.3333333 C18.5099944,11.3333333 18.7117117,11.1317568 18.7117117,10.8828829 C18.7117117,10.634009 18.5099944,10.4324324 18.2612613,10.4324324 Z" id="Path"></path>
                    <path d="M18.2612613,4.66666667 L13.0135135,4.66666667 C12.7647804,4.66666667 12.5630631,4.86824324 12.5630631,5.11711712 C12.5630631,5.36599099 12.7647804,5.56756757 13.0135135,5.56756757 L18.2612613,5.56756757 C18.5099944,5.56756757 18.7117117,5.36599099 18.7117117,5.11711712 C18.7117117,4.86824324 18.5099944,4.66666667 18.2612613,4.66666667 Z" id="Path"></path>
                </g>
            </g>
        </g>
    </g>
</svg>