<?xml version="1.0" encoding="utf-8"?>
<!-- Generator: Adobe Illustrator 21.0.0, SVG Export Plug-In . SVG Version: 6.00 Build 0)  -->
<svg version="1.1" id="Слой_1" xmlns="http://www.w3.org/2000/svg" xmlns:xlink="http://www.w3.org/1999/xlink" x="0px" y="0px"
	 viewBox="0 0 65.1 56.7" style="enable-background:new 0 0 65.1 56.7;" xml:space="preserve">
<style type="text/css">
	.desktop_drumeefile0{fill:#FFFFFF;}
	.desktop_drumeefile1{fill:#879BFF;}
	.desktop_drumeefile2{fill:none;stroke:#879BFF;stroke-width:1.05;stroke-linecap:round;}
	.desktop_drumeefile3{fill:#2F2F2F;}
	.desktop_drumeefile4{font-family:'Roboto-Light';}
	.desktop_drumeefile5{font-size:8.4px;}
</style>
<title>files/documents</title>
<desc>Created with Sketch.</desc>
<g id="Page-1-Copy-5">
	<g id="Desktop-40" transform="translate(-334.000000, -251.000000)">
		<g id="files_x2F_documents" transform="translate(345.000000, 258.000000)">
			<g id="Documents_x2F_Music">
				<path class="desktop_drumeefile0" d="M51.3-7H-8.2C-9.7-7-11-5.7-11-4.2v51.1c0,1.5,1.3,2.8,2.8,2.8h59.5c1.5,0,2.8-1.3,2.8-2.8V-4.2
					C54.1-5.7,52.8-7,51.3-7z"/>
				<g id="files_x2F_kind_x2F_documents" transform="translate(25.900000, 16.800000)">
					<g id="Group" transform="translate(0.700000, 0.000000)">
						<path id="Shape" class="desktop_drumeefile1" d="M-2-7h-6.8C-10-7-11-6-11-4.9V6.7c0,1.2,1,2.1,2.2,2.1h8.7c1.2,0,2.2-1,2.2-2.1v-9.3L-2-7z
							 M-1.6-5l1.8,2h-1.8V-5z M-0.1,7.7h-8.7c-0.6,0-1-0.5-1-1V-4.9c0-0.6,0.5-1,1-1h6v3.3c0,0.4,0.3,0.7,0.7,0.7h3v8.5
							C0.9,7.2,0.5,7.7-0.1,7.7z"/>
						<path id="Path-10" class="desktop_drumeefile2" d="M-7.5,1.6h6.3"/>
						<path id="Path-10_1_" class="desktop_drumeefile2" d="M-7.5,4.5h6.3"/>
					</g>
				</g>
			</g>
		</g>
	</g>
</g>
</svg>
