<?xml version="1.0" encoding="utf-8"?>
<!-- Generator: Adobe Illustrator 21.0.0, SVG Export Plug-In . SVG Version: 6.00 Build 0)  -->
<svg version="1.1" id="Слой_1" xmlns="http://www.w3.org/2000/svg" xmlns:xlink="http://www.w3.org/1999/xlink" x="0px" y="0px"
	 viewBox="0 0 20 20" style="enable-background:new 0 0 20 20;" xml:space="preserve">
<style type="text/css">
	.st0{fill:#89929E;}
</style>
<title>Shape</title>
<desc>Created with Sketch.</desc>
<g>
	<path class="st0" d="M10,0C4.5,0,0,3.9,0,8.8c0,2.8,1.5,5.2,3.8,6.8V20l4.4-2.7c0.6,0.1,1.2,0.2,1.9,0.2c5.5,0,10-3.9,10-8.8
		S15.5,0,10,0z M10,16.2c-0.7,0-1.4-0.1-2.1-0.2l-2.9,1.8l0-2.9c-2.3-1.4-3.7-3.6-3.7-6.1c0-4.1,3.9-7.5,8.8-7.5s8.8,3.4,8.8,7.5
		S14.8,16.2,10,16.2z"/>
	<path class="st0" d="M14.4,6.9H5.6C5.3,6.9,5,7.2,5,7.5s0.3,0.6,0.6,0.6h8.8c0.3,0,0.6-0.3,0.6-0.6S14.7,6.9,14.4,6.9z"/>
	<path class="st0" d="M13.1,10.6H6.9c-0.3,0-0.6,0.3-0.6,0.6s0.3,0.6,0.6,0.6h6.2c0.3,0,0.6-0.3,0.6-0.6S13.5,10.6,13.1,10.6z"/>
</g>
</svg>
