<?xml version="1.0" encoding="UTF-8"?>
<svg width="12px" height="12px" viewBox="0 0 12 12" version="1.1" xmlns="http://www.w3.org/2000/svg" xmlns:xlink="http://www.w3.org/1999/xlink">
    <!-- Generator: Sketch 51 (57462) - http://www.bohemiancoding.com/sketch -->
    <title>Shape</title>
    <desc>Created with Sketch.</desc>
    <defs></defs>
    <g id="Page-1-Copy-5" stroke="none" stroke-width="1" fill="none" fill-rule="evenodd">
        <g id="Desktop-33" transform="translate(-142.000000, -227.000000)">
            <path d="M150.275486,235.528655 C150.161161,235.63524 150.062762,235.752403 149.977673,235.876278 L146.20756,233.742741 C146.307267,233.510043 146.363775,233.257005 146.363775,232.991559 C146.363775,232.726112 146.307267,232.473074 146.207778,232.240376 L149.978764,230.123112 C150.36603,230.690211 151.044999,231.068141 151.818221,231.068141 C153.021254,231.068141 154,230.155657 154,229.034071 C154,227.912484 153.021254,227 151.818221,227 C150.615189,227 149.636443,227.912484 149.636443,229.034071 C149.636443,229.28955 149.68946,229.533232 149.781968,229.758607 L146.005964,231.878719 C145.615862,231.324638 144.94431,230.957488 144.181779,230.957488 C142.978746,230.957488 142,231.869972 142,232.991559 C142,234.113145 142.978746,235.025629 144.181779,235.025629 C144.94431,235.025629 145.615643,234.65848 146.005745,234.104399 L149.781095,236.240783 C149.687278,236.469819 149.636225,236.714518 149.636225,236.966946 C149.636225,237.510247 149.86313,238.021205 150.275268,238.405238 C150.700496,238.801678 151.25925,239 151.818003,239 C152.376757,239 152.93551,238.801678 153.360739,238.405238 C153.772877,238.021002 153.999782,237.510247 153.999782,236.966946 C153.999782,236.423646 153.772877,235.912688 153.360739,235.528655 C152.510063,234.735367 151.126161,234.735367 150.275486,235.528655 Z" id="Shape" fill="#FA8540" fill-rule="nonzero"></path>
        </g>
    </g>
</svg>