<?xml version="1.0" encoding="UTF-8"?>
<svg width="24px" height="23px" viewBox="0 0 24 23" version="1.1" xmlns="http://www.w3.org/2000/svg" xmlns:xlink="http://www.w3.org/1999/xlink">
    <!-- Generator: Sketch 51.3 (57544) - http://www.bohemiancoding.com/sketch -->
    <title>Shape</title>
    <desc>Created with Sketch.</desc>
    <defs></defs>
    <g id="Page-1-Copy" stroke="none" stroke-width="1" fill="none" fill-rule="evenodd">
        <g id="Desktop-S9" transform="translate(-604.000000, -33.000000)" fill="#FF4578" fill-rule="nonzero">
            <g id="Group-9" transform="translate(421.000000, 20.000000)">
                <g id="scissors" transform="translate(183.000000, 13.000000)">
                    <path d="M8.00507494,13.2550418 L3.9289964,13.2550418 C1.79273837,13.2550418 -0.0243086901,15.2228806 0.000245999853,17.6218751 C0.0100678759,18.6279051 0.329278846,19.5510205 0.849838274,20.2806685 L0.501161676,20.9163468 C0.2457929,21.386196 0.309635094,21.994236 0.653400754,22.3811706 C1.06591955,22.8454921 1.73871805,22.8454921 2.15123684,22.3811706 L2.75037128,21.7067989 C3.21199945,21.8615727 3.70800419,21.9168491 4.22365268,21.8615727 C5.87863878,21.6791607 7.25861236,20.2696133 7.59255615,18.4344378 C7.71041866,17.7877042 7.69077491,17.1630812 7.56800146,16.5771517 L8.31446403,16.5771517 C8.75644845,16.5771517 9.188611,16.4113226 9.54219853,16.1073026 L24,3.54851117 C23.7888297,3.08418966 23.4941734,2.69725506 23.1504077,2.39876266 C22.0749123,1.48670255 20.5721653,1.59172765 19.5457792,2.56459177 L13.0093208,8.7887111 L9.54219853,5.7761489 C9.19352193,5.47212887 8.76135939,5.30629975 8.31446403,5.30629975 L7.56800146,5.30629975 C7.69077491,4.72589786 7.71041866,4.10127487 7.59255615,3.4490137 C7.25861236,1.6138382 5.87863878,0.204290748 4.22365268,0.021878725 C1.94497745,-0.23239258 0.0248006898,1.7630844 0.000245999853,4.26710399 C-0.0243086901,6.67162611 1.79273837,8.63393726 3.9289964,8.63393726 L8.00507494,8.63393726 C8.2064234,8.63393726 8.40286092,8.71685182 8.56001093,8.86057038 L10.7453783,10.9444896 L8.56001093,13.0284087 C8.40286092,13.1776549 8.2064234,13.2550418 8.00507494,13.2550418 Z M3.83568858,19.5289099 C2.87314473,19.5289099 2.09721653,18.6500156 2.09721653,17.5721264 C2.09721653,16.4887095 2.87805567,15.6153429 3.83568858,15.6153429 C4.79823242,15.6153429 5.57416063,16.4942372 5.57416063,17.5721264 C5.57416063,18.6555433 4.79332149,19.5289099 3.83568858,19.5289099 Z M3.83568858,6.27916388 C2.87314473,6.27916388 2.09721653,5.40026958 2.09721653,4.32238036 C2.09721653,3.24449113 2.87314473,2.3600692 3.83568858,2.3600692 C4.79823242,2.3600692 5.57416063,3.23896349 5.57416063,4.31685272 C5.57416063,5.39474195 4.79332149,6.27916388 3.83568858,6.27916388 Z M16.6581477,12.0057959 L23.9950891,18.3349403 C23.8133844,18.7439854 23.5629265,19.0922266 23.2731812,19.3686084 C22.2025967,20.3912213 20.6114528,20.3359449 19.5359574,19.3188597 L14.1290146,14.2002678 L16.6581477,12.0057959 Z" id="Shape"></path>
                </g>
            </g>
        </g>
    </g>
</svg>