<?xml version="1.0" encoding="utf-8"?>
<!-- Generator: Adobe Illustrator 21.0.0, SVG Export Plug-In . SVG Version: 6.00 Build 0)  -->
<svg version="1.1" id="Слой_1" xmlns="http://www.w3.org/2000/svg" xmlns:xlink="http://www.w3.org/1999/xlink" x="0px" y="0px"
	 viewBox="0 0 22 26" style="enable-background:new 0 0 22 26;" xml:space="preserve">
<style type="text/css">
	.st0{fill:#4A90E2;}
</style>
<title>Group 13</title>
<desc>Created with Sketch.</desc>
<g>
	<path class="st0" d="M20.4,6.3c-1.1-2-2.5-3.5-4.5-4.6C14,0.6,11.9,0,9.4,0H1.2C0.5,0,0,0.5,0,1.2v23.6C0,25.5,0.5,26,1.2,26h8.2
		c2.5,0,4.6-0.6,6.6-1.7c1.9-1.1,3.4-2.7,4.5-4.6c1.1-2,1.6-4.2,1.6-6.7S21.5,8.3,20.4,6.3z M4.5,5h7C11.8,5,12,5.2,12,5.5
		S11.8,6,11.5,6h-7C4.2,6,4,5.8,4,5.5S4.2,5,4.5,5z M4.5,8h10C14.8,8,15,8.2,15,8.5S14.8,9,14.5,9h-10C4.2,9,4,8.8,4,8.5
		S4.2,8,4.5,8z M8.5,21h-4C4.2,21,4,20.8,4,20.5S4.2,20,4.5,20h4C8.8,20,9,20.2,9,20.5S8.8,21,8.5,21z M11.5,18h-7
		C4.2,18,4,17.8,4,17.5S4.2,17,4.5,17h7c0.3,0,0.5,0.2,0.5,0.5S11.8,18,11.5,18z M13.5,15h-9C4.2,15,4,14.8,4,14.5S4.2,14,4.5,14h9
		c0.3,0,0.5,0.2,0.5,0.5S13.8,15,13.5,15z M16.5,12h-12C4.2,12,4,11.8,4,11.5S4.2,11,4.5,11h12c0.3,0,0.5,0.2,0.5,0.5
		S16.8,12,16.5,12z"/>
</g>
</svg>
