<?xml version="1.0" encoding="utf-8"?>
<!-- Generator: Adobe Illustrator 21.0.0, SVG Export Plug-In . SVG Version: 6.00 Build 0)  -->
<svg version="1.1" id="Слой_1" xmlns="http://www.w3.org/2000/svg" xmlns:xlink="http://www.w3.org/1999/xlink" x="0px" y="0px"
	 viewBox="0 0 12 12" style="enable-background:new 0 0 12 12;" xml:space="preserve">
<title>edit</title>
<desc>Created with Sketch.</desc>
<g>
	<path d="M12,2.4c0,0,0-0.1,0-0.1c0-0.1-0.1-0.3-0.1-0.4c-0.4-0.8-1-1.4-1.8-1.7C9.9,0.1,9.7,0,9.6,0l0,0
		c-0.2,0-0.4,0-0.6,0.2C7.8,1.3,6.7,2.5,5.6,3.6L4.5,4.7C4,5.2,3.6,5.6,3.2,6C3.1,6.1,3,6.3,3,6.4C2.8,7.1,2.7,7.8,2.5,8.5L2.4,8.9
		c0,0.2,0,0.4,0.1,0.5C2.7,9.5,2.8,9.6,3,9.6c0,0,0.1,0,0.1,0l0.4-0.1C4.2,9.3,4.9,9.2,5.6,9C5.7,9,5.9,8.9,6,8.8
		C7.9,6.9,9.8,5,11.7,3C11.9,2.9,12,2.7,12,2.5C12,2.5,12,2.5,12,2.4z M5.5,8.4C4.8,8.6,4.1,8.7,3.4,8.9L3,9l0.1-0.3
		c0.1-0.7,0.3-1.4,0.4-2.1c0,0,0-0.1,0-0.1c0.7,0.7,1.3,1.2,2,2C5.6,8.4,5.5,8.4,5.5,8.4z"/>
	<path d="M9.6,6.6c-0.2,0-0.3,0.1-0.3,0.3V11c0,0.2-0.2,0.4-0.4,0.4H1c-0.2,0-0.4-0.2-0.4-0.4V3c0-0.2,0.2-0.4,0.4-0.4
		h4.3c0.2,0,0.3-0.1,0.3-0.3S5.4,2.1,5.2,2.1H1c-0.5,0-1,0.4-1,1v8c0,0.5,0.4,1,1,1h8c0.5,0,1-0.4,1-1V6.9C9.9,6.8,9.8,6.6,9.6,6.6z
		"/>
</g>
</svg>
