<?xml version="1.0" encoding="utf-8"?>
<!-- Generator: Adobe Illustrator 21.0.0, SVG Export Plug-In . SVG Version: 6.00 Build 0)  -->
<svg version="1.1" id="Слой_1" xmlns="http://www.w3.org/2000/svg" xmlns:xlink="http://www.w3.org/1999/xlink" x="0px" y="0px"
	 viewBox="0 0 22 26" style="enable-background:new 0 0 22 26;" xml:space="preserve">
<style type="text/css">
	.st0{fill:#AB47BC;}
</style>
<title>Group 12</title>
<desc>Created with Sketch.</desc>
<g>
	<polygon class="st0" points="8.8,15 8.4,15.7 11.1,15.7 10.7,15 	"/>
	<polygon class="st0" points="11.7,15.3 11.7,15 11.5,15 	"/>
	<path class="st0" d="M4.8,13.9c0,0.2,0.2,0.4,0.4,0.4h6.5v-0.7H4.8V13.9z"/>
	<rect x="12.4" y="14" class="st0" width="3.8" height="3.7"/>
	<path class="st0" d="M15.9,12.5h-3c-0.2,0-0.4,0.2-0.4,0.4v0.4h3.8v-0.4C16.2,12.7,16.1,12.5,15.9,12.5z"/>
	<path class="st0" d="M14.7,11.8V7.1c0-0.2-0.2-0.4-0.4-0.4H5.1c-0.2,0-0.4,0.2-0.4,0.4v5.6h6.9v0.2c0-0.6,0.5-1.1,1.1-1.1H14.7z"/>
	<path class="st0" d="M20.4,6.3c-1.1-2-2.5-3.5-4.5-4.6C14,0.6,11.9,0,9.4,0H1.2C0.5,0,0,0.5,0,1.2v23.6C0,25.5,0.5,26,1.2,26h8.2
		c2.5,0,4.6-0.6,6.6-1.7c1.9-1.1,3.4-2.7,4.5-4.6c1.1-2,1.6-4.2,1.6-6.7S21.5,8.3,20.4,6.3z M17,18.9c0,0.6-0.5,1.1-1.1,1.1h-3
		c-0.6,0-1.1-0.5-1.1-1.1v-1.1v-1.3H7.8c-0.1,0-0.3-0.1-0.3-0.2s-0.1-0.2,0-0.4L8,15H5.1C4.5,15,4,14.5,4,13.9V7.1
		C4,6.5,4.5,6,5.1,6h9.2c0.6,0,1.1,0.5,1.1,1.1v4.7h0.4c0.6,0,1.1,0.5,1.1,1.1V18.9z"/>
	<path class="st0" d="M12.4,18.9c0,0.2,0.2,0.4,0.4,0.4h3c0.2,0,0.4-0.2,0.4-0.4v-0.4h-3.8V18.9z"/>
</g>
</svg>