<?xml version="1.0" encoding="utf-8"?>
<!-- Generator: Adobe Illustrator 21.0.0, SVG Export Plug-In . SVG Version: 6.00 Build 0)  -->
<svg version="1.1" id="Слой_1" xmlns="http://www.w3.org/2000/svg" xmlns:xlink="http://www.w3.org/1999/xlink" x="0px" y="0px"
	 viewBox="0 0 22 26" style="enable-background:new 0 0 22 26;" xml:space="preserve">
<style type="text/css">
	.st0{fill:#E9223B;}
</style>
<title>Group 11</title>
<desc>Created with Sketch.</desc>
<g>
	<path class="st0" d="M20.4,6.3c-1.1-2-2.5-3.5-4.5-4.6C14,0.6,11.9,0,9.4,0H1.2C0.5,0,0,0.5,0,1.2v23.6C0,25.5,0.5,26,1.2,26h8.2
		c2.5,0,4.6-0.6,6.6-1.7c1.9-1.1,3.4-2.7,4.5-4.6c1.1-2,1.6-4.2,1.6-6.7S21.5,8.3,20.4,6.3z M14.5,7v2.5H17c0,1.4-1.1,2.5-2.5,2.5
		S12,10.9,12,9.5S13.1,7,14.5,7z M4.5,7h3C7.8,7,8,7.2,8,7.5S7.8,8,7.5,8h-3C4.2,8,4,7.8,4,7.5S4.2,7,4.5,7z M4.5,10h5
		c0.3,0,0.5,0.2,0.5,0.5S9.8,11,9.5,11h-5C4.2,11,4,10.8,4,10.5S4.2,10,4.5,10z M13.5,20h-9C4.2,20,4,19.8,4,19.5S4.2,19,4.5,19h9
		c0.3,0,0.5,0.2,0.5,0.5S13.8,20,13.5,20z M15.5,17h-11C4.2,17,4,16.8,4,16.5S4.2,16,4.5,16h11c0.3,0,0.5,0.2,0.5,0.5
		S15.8,17,15.5,17z M17.5,14h-13C4.2,14,4,13.8,4,13.5S4.2,13,4.5,13h13c0.3,0,0.5,0.2,0.5,0.5S17.8,14,17.5,14z M15,9
		c0-1.2,0-2.2,0-3c0.8,0,1.6,0.3,2.1,0.9C17.7,7.4,18,8.2,18,9C17.4,9,16.4,9,15,9z"/>
</g>
</svg>
