<?xml version="1.0" encoding="UTF-8"?>
<svg width="24px" height="24px" viewBox="0 0 24 24" version="1.1" xmlns="http://www.w3.org/2000/svg" xmlns:xlink="http://www.w3.org/1999/xlink">
    <!-- Generator: Sketch 53.2 (72643) - https://sketchapp.com -->
    <title>Shape</title>
    <desc>Created with Sketch.</desc>
    <g id="AdressBook" stroke="none" stroke-width="1" fill="none" fill-rule="evenodd">
        <g id="Adressbook-S6" transform="translate(-697.000000, -398.000000)" fill="#89929E" fill-rule="nonzero">
            <g id="address" transform="translate(697.000000, 398.000000)">
                <path d="M9.5859375,21.5392001 L9.5859375,23.974682 L8.99816897,23.4989604 C8.90734866,23.4253914 6.74652098,21.6676248 4.55529787,19.1470157 C1.53259275,15.6698263 0,12.5485568 0,9.8701688 L0,9.60469667 C0,4.30864725 4.30023192,0 9.5859375,0 C14.8716431,0 19.171875,4.30864725 19.171875,9.60469667 L19.171875,9.8701688 C19.171875,10.0950954 19.1599732,10.3235079 19.1383667,10.5546722 L17.2637329,8.84112038 C16.8797607,4.93554308 13.5831299,1.87408269 9.5859375,1.87408269 C5.33166506,1.87408269 1.87042237,5.34209885 1.87042237,9.60469667 L1.87042237,9.8701688 C1.87042237,14.3962206 7.69061278,19.875367 9.5859375,21.5392001 Z M15.3374634,20.1931262 L18.1430054,20.1931262 L18.1430054,17.3820939 L15.3374634,17.3820939 L15.3374634,20.1931262 Z M9.5859375,5.62224803 C11.7775268,5.62224803 13.5606079,7.4088185 13.5606079,9.60469667 C13.5606079,11.8005748 11.7775268,13.5871453 9.5859375,13.5871453 C7.39434816,13.5871453 5.61126708,11.8005748 5.61126708,9.60469667 C5.61126708,7.4088185 7.39434816,5.62224803 9.5859375,5.62224803 Z M9.5859375,7.49633072 C8.42559816,7.49633072 7.48168945,8.44208661 7.48168945,9.60469667 C7.48168945,10.7671233 8.42559816,11.7130626 9.5859375,11.7130626 C10.7460937,11.7130626 11.6901855,10.7671233 11.6901855,9.60469667 C11.6901855,8.44208661 10.7460937,7.49633072 9.5859375,7.49633072 Z M22.739502,18.919704 L22.213623,18.4390289 L22.213623,21.4476517 C22.213623,22.8485812 21.0759888,23.9882583 19.6777954,23.9882583 L13.7559815,23.9882583 C12.3577881,23.9882583 11.2201538,22.8485812 11.2201538,21.4476517 L11.2201538,18.4390289 L10.6942749,18.919704 L9.43377684,17.5352862 L16.7167969,10.8779354 L24,17.5352862 L22.739502,18.919704 Z M20.3432007,16.7293297 L16.7167969,13.4146893 L13.0905762,16.7293297 L13.0905762,21.4474682 C13.0905762,21.8151297 13.3890381,22.1141756 13.7559815,22.1141756 L19.6777954,22.1141756 C20.0447388,22.1141756 20.3432007,21.8151297 20.3432007,21.4474682 L20.3432007,16.7293297 Z" id="Shape"></path>
            </g>
        </g>
    </g>
</svg>