<?xml version="1.0" encoding="utf-8"?>
<!-- Generator: Adobe Illustrator 21.0.0, SVG Export Plug-In . SVG Version: 6.00 Build 0)  -->
<svg version="1.1" id="Слой_1" xmlns="http://www.w3.org/2000/svg" xmlns:xlink="http://www.w3.org/1999/xlink" x="0px" y="0px"
	 viewBox="0 0 39 44" style="enable-background:new 0 0 39 44;" xml:space="preserve">
<title>Group 10</title>
<desc>Created with Sketch.</desc>
<g>
	<path d="M37.4,25.5c0-9.3-7.6-16.9-16.9-16.9c-1.6,0-3.1,0.2-4.5,0.6v2.5l1.2-0.4l-0.7,1.3c-0.2,0.3-0.3,0.7-0.5,1v6.1
		c0,0.4-0.3,0.6-0.6,0.6H4.4c-0.5,1.6-0.8,3.4-0.8,5.2c0,9.3,7.6,16.9,16.9,16.9C29.8,42.4,37.4,34.8,37.4,25.5z M34.6,21.9
		c0.3,1.3,0.5,2.5,0.5,3.6s-0.2,2.4-0.5,3.6l-0.1,0.4h-7l0.1-0.6c0.1-0.9,0.2-2.2,0.2-3.4s-0.1-2.5-0.2-3.4l-0.1-0.6h7L34.6,21.9z
		 M25.2,11.7c3.3,1.1,6.1,3.4,7.9,6.5l0.5,0.9H27l-0.1-0.4c-0.6-2.2-1.4-4.2-2.4-6.1l-0.7-1.3L25.2,11.7z M16.6,18.3
		c0.8-2.5,1.9-4.9,3.4-7.1l0.5-0.7l0.5,0.7c1.5,2.2,2.7,4.6,3.4,7.1l0.2,0.7h-8.2L16.6,18.3z M15.8,21.9l0.1-0.5h9.2l0.1,0.5
		c0.1,1,0.3,2.3,0.3,3.6c0,1.1-0.1,2.2-0.3,3.6l-0.1,0.5h-9.2l-0.1-0.5c-0.2-1.4-0.3-2.5-0.3-3.6C15.5,24.2,15.7,23,15.8,21.9z
		 M6.4,29.1c-0.3-1.3-0.5-2.5-0.5-3.6s0.2-2.4,0.5-3.6l0.1-0.4h7l-0.1,0.6c-0.1,0.9-0.2,2.2-0.2,3.4s0.1,2.5,0.2,3.4l0.1,0.6h-7
		L6.4,29.1z M15.8,39.3c-3.3-1.1-6.1-3.4-7.9-6.5l-0.5-0.9H14l0.1,0.4c0.6,2.2,1.4,4.2,2.4,6.1l0.7,1.3L15.8,39.3z M20.5,40.4
		L20,39.8c-1.5-2.2-2.7-4.6-3.4-7.1l-0.2-0.7h8.2l-0.2,0.7c-0.8,2.5-1.9,4.9-3.4,7.1L20.5,40.4z M25.2,39.3l-1.4,0.5l0.7-1.3
		c1-1.9,1.8-3.9,2.4-6.1l0.1-0.4h6.6l-0.5,0.9C31.3,35.8,28.5,38.1,25.2,39.3z"/>
	<path d="M14.7,19V9.6h-0.6c-0.4,0-0.6-0.3-0.6-0.6V6.5C13.5,4,11.2,2,8.3,2S3.2,4,3.2,6.5V9c0,0.4-0.3,0.6-0.6,0.6H2V19H14.7z
		 M9.5,13.4c0,0.4-0.1,0.7-0.4,0.9v0.8c0,0.5-0.4,0.9-0.9,0.9c-0.5,0-0.9-0.4-0.9-0.9v-0.8c-0.3-0.2-0.4-0.6-0.4-0.9
		c0-0.7,0.6-1.3,1.3-1.3S9.5,12.7,9.5,13.4z M4.5,6.2c0-1.6,1.7-2.9,3.8-2.9s3.8,1.3,3.8,2.9v2.5c0,0.4-0.3,0.6-0.6,0.6H5.2
		C4.8,9.3,4.5,9,4.5,8.6V6.2z"/>
</g>
</svg>
