<?xml version="1.0" encoding="utf-8"?>
<!-- Generator: Adobe Illustrator 23.0.3, SVG Export Plug-In . SVG Version: 6.00 Build 0)  -->
<svg version="1.1" id="Layer_1" xmlns="http://www.w3.org/2000/svg" xmlns:xlink="http://www.w3.org/1999/xlink" x="0px" y="0px"
	 viewBox="0 0 24 17" style="enable-background:new 0 0 24 17;" xml:space="preserve">
<style type="text/css">
	.st0{fill:#89929E;}
</style>
<title>add-user</title>
<desc>Created with Sketch.</desc>
<g>
	<path class="st0" d="M23.1,7.5h-1.8V5.6c0-0.5-0.4-0.9-0.9-0.9c-0.5,0-0.9,0.4-0.9,0.9v1.9h-1.8c-0.5,0-0.9,0.4-0.9,0.9
		s0.4,0.9,0.9,0.9h1.8v1.9c0,0.5,0.4,0.9,0.9,0.9c0.5,0,0.9-0.4,0.9-0.9V9.4h1.8C23.6,9.4,24,9,24,8.4S23.6,7.5,23.1,7.5z"/>
	<path class="st0" d="M7.4,9.4c2.4,0,4.4-2.1,4.4-4.7S9.8,0,7.4,0S3,2.1,3,4.7S4.9,9.4,7.4,9.4z"/>
	<path class="st0" d="M7.4,11.4c-4.6,0-7.4,1.9-7.4,3.8C0,16.1,2.8,17,7.4,17c4.3,0,7.4-0.9,7.4-1.9C14.7,13.2,11.8,11.4,7.4,11.4z"
		/>
</g>
</svg>
