<?xml version="1.0" encoding="UTF-8"?>
<svg width="22px" height="22px" viewBox="0 0 22 22" version="1.1" xmlns="http://www.w3.org/2000/svg" xmlns:xlink="http://www.w3.org/1999/xlink">
    <!-- Generator: Sketch 54.1 (76490) - https://sketchapp.com -->
    <title>Shape</title>
    <desc>Created with Sketch.</desc>
    <g id="AdressBook" stroke="none" stroke-width="1" fill="none" fill-rule="evenodd">
        <g id="Adressbook-S3-new" transform="translate(-58.000000, -456.000000)" fill="#EA4D44" fill-rule="nonzero">
            <g id="Group-8" transform="translate(30.000000, 445.000000)">
                <path d="M39,11 C32.9344182,11 28,15.9347932 28,22.0004595 C28.0005105,28.0655131 32.9351329,33 39,33 C45.0653776,33 50,28.0656152 50,22.0003574 C49.9998979,15.9347932 45.0653776,11 39,11 Z M39,12.5316566 C41.2485426,12.5316566 43.316046,13.3200512 44.9419278,14.6343147 L31.6343662,27.9419595 C30.3203253,26.3161571 29.5318394,24.2487271 29.5316352,22.0003574 C29.5316352,16.7793486 33.779166,12.5316566 39,12.5316566 Z M39,31.4683434 C36.5781784,31.4683434 34.3661908,30.5538424 32.6899692,29.0526147 L46.0524655,15.6899324 C47.5537743,17.3661773 48.4682627,19.5783999 48.4682627,22.0004595 C48.4682627,27.2210598 44.2207318,31.4683434 39,31.4683434 Z" id="Shape"></path>
            </g>
        </g>
    </g>
</svg>