<?xml version="1.0" encoding="utf-8"?><!DOCTYPE svg PUBLIC "-//W3C//DTD SVG 1.1//EN" "http://www.w3.org/Graphics/SVG/1.1/DTD/svg11.dtd"><svg version="1.1" baseProfile="full" xmlns="http://www.w3.org/2000/svg" xmlns:xlink="http://www.w3.org/1999/xlink" xmlns:ev="http://www.w3.org/2001/xml-events"   height="18px"   width="36px" ><path fill="rgb( 255, 52, 102 )" d="M35.4299999999999,9.86500000000001 L28.623,16.744 C28.172,17.199 27.443,17.2 26.9930000000001,16.746 C26.544,16.2910000000001 26.545,15.553 26.995,15.098 L31.89,10.152 L31.893,7.822 L27.01,2.88699999999994 C26.561,2.43299999999999 26.561,1.69600000000003 27.0119999999999,1.24199999999996 C27.463,0.78700000000003 28.192,0.78599999999994 28.6420000000001,1.24000000000001 L35.432,8.10199999999998 C35.672,8.34299999999996 35.774,8.66499999999996 35.7569999999999,8.98299999999995 C35.774,9.29999999999995 35.671,9.62199999999996 35.4299999999999,9.86500000000001 ZM4.12800000000004,7.83500000000004 L4.125,10.165 L8.97400000000005,15.1 C9.41999999999996,15.554 9.41899999999998,16.2910000000001 8.97199999999998,16.745 C8.524,17.2 7.79999999999995,17.201 7.35299999999995,16.747 L0.61000000000001,9.88499999999999 C0.37199999999996,9.64300000000003 0.27099999999996,9.322 0.28800000000001,9.00400000000002 C0.27200000000005,8.68700000000001 0.37400000000002,8.36500000000001 0.61199999999997,8.12199999999996 L7.37199999999996,1.24300000000005 C7.82000000000005,0.78800000000001 8.54399999999998,0.78700000000003 8.99099999999999,1.24099999999999 C9.43700000000001,1.69600000000003 9.43600000000004,2.43399999999997 8.98900000000003,2.88900000000001 L4.12800000000004,7.83500000000004 Z "/></svg>