<?xml version="1.0" encoding="utf-8"?>
<!-- Generator: Adobe Illustrator 23.1.0, SVG Export Plug-In . SVG Version: 6.00 Build 0)  -->
<svg version="1.1" id="Calque_1" xmlns="http://www.w3.org/2000/svg" xmlns:xlink="http://www.w3.org/1999/xlink" x="0px" y="0px"
	 viewBox="0 0 203.02 188.69" style="enable-background:new 0 0 203.02 188.69;" xml:space="preserve">
<style type="text/css">
	.st0{fill:#010202;}
	.st1{fill:#494849;}
</style>
<path class="st0" d="M170.49,0H32.53C14.56,0,0,14.57,0,32.53v123.63c0,15.7,11.12,28.8,25.92,31.85c1.04,0.23,2.11,0.39,3.19,0.51
	c0.33,0.03,0.68,0.06,1.02,0.08c0.79,0.06,1.6,0.09,2.4,0.09h137.96c0.49,0,0.98-0.01,1.47-0.04c0.28-0.01,0.58-0.03,0.87-0.05
	c1.06-0.08,2.11-0.2,3.14-0.37c15.36-2.62,27.05-15.97,27.05-32.07V32.53C203.02,14.57,188.45,0,170.49,0z M166.77,143.25
	c-0.27,0-0.55-0.01-0.82-0.03h-0.01c-3.11-0.18-6.01-1.39-8.28-3.35c-1.88-1.62-3.34-3.75-4.15-6.23l-15.85-52.89l-0.01,0.02
	c0-0.01,0-0.02,0-0.02l-8.35-27.94c0.26,1.36,0.6,3.06,0.77,3.82c1.52,7.06,2.03,40.97,1.3,46.11l-11.5,40.52H82.82L64.8,80.76
	l-0.02,0.03c0,0,0-0.05,0-0.05L56.44,52.8c0.26,1.36,0.6,3.05,0.77,3.81c1.51,7.05,1.77,40.44,1.06,45.68l-9.55,31.37
	c-0.78,2.39-2.17,4.45-3.96,6.05c-2.29,2.05-5.25,3.33-8.44,3.52c-0.02,0-0.03,0.01-0.05,0.01c-0.27,0.02-0.54,0.02-0.81,0.02H15.54
	l29.57-91.07c1.91-5.68,7.24-9.49,13.23-9.49h11.11c7,0,13.15,4.64,15.08,11.37l10.27,35.83c0.72,5.15,0.23,39.07-1.29,46.13
	c-0.17,0.76-0.51,2.46-0.77,3.82l8.35-27.94c0,0,0-0.04,0-0.05l0.02,0.04l16.58-57.83c1.93-6.73,8.08-11.37,15.08-11.37h11.33
	c5.99,0,11.31,3.81,13.23,9.49l29.33,91.04H166.77z"/>
<path class="st1" d="M44.75,139.73c-2.29,2.05-5.25,3.33-8.44,3.52c-0.02,0-0.03,0.01-0.05,0.01c-0.26,0.05-0.54,0.07-0.81,0.07
	H15.54l14.59,45.27c0.79,0.06,1.6,0.09,2.4,0.09h26.91L44.75,139.73z M166.78,143.29c-0.29,0-0.57-0.02-0.83-0.07h-0.01
	c-3.11-0.18-6.01-1.39-8.28-3.35l-15.26,48.82h28.09c0.49,0,0.98-0.01,1.47-0.04l14.72-45.36H166.78z M119.89,143.28H82.82
	l-13.37,45.41h27.63l4.03-14.03l0.01,0.04c0-0.01,0-0.05,0-0.05l0.01-0.05l4.03,14.08h27.46L119.89,143.28z"/>
</svg>