<?xml version="1.0" encoding="utf-8"?>
<!-- Generator: Adobe Illustrator 23.1.0, SVG Export Plug-In . SVG Version: 6.00 Build 0)  -->
<svg version="1.1" id="Calque_1" xmlns="http://www.w3.org/2000/svg" xmlns:xlink="http://www.w3.org/1999/xlink" x="0px" y="0px"
	 viewBox="0 0 879.89 212.13" style="enable-background:new 0 0 879.89 212.13;" xml:space="preserve">
<style type="text/css">
	.st0{fill:#010202;}
	.st1{fill:#494849;}
</style>
<g>
	<path class="st0" d="M554.76,16.33H416.8c-17.96,0-32.53,14.57-32.53,32.53v123.63c0,15.7,11.12,28.8,25.92,31.85
		c1.04,0.23,2.11,0.39,3.19,0.51c0.33,0.03,0.68,0.06,1.02,0.08c0.79,0.06,1.6,0.09,2.4,0.09h137.96c0.49,0,0.98-0.01,1.47-0.04
		c0.28-0.01,0.58-0.03,0.87-0.05c1.06-0.08,2.11-0.2,3.14-0.37c15.36-2.62,27.05-15.97,27.05-32.07V48.86
		C587.29,30.9,572.73,16.33,554.76,16.33z M551.05,159.59c-0.27,0-0.55-0.01-0.82-0.03h-0.01c-3.11-0.18-6.01-1.39-8.28-3.35
		c-1.88-1.62-3.34-3.75-4.15-6.23l-15.85-52.89l-0.01,0.02c0-0.01,0-0.02,0-0.02l-8.35-27.94c0.26,1.36,0.6,3.06,0.77,3.82
		c1.52,7.06,2.03,40.97,1.3,46.11l-11.5,40.52h-37.06l-18.02-62.52l-0.02,0.03c0,0,0-0.05,0-0.05l-8.35-27.93
		c0.26,1.36,0.6,3.05,0.77,3.81c1.51,7.05,1.77,40.44,1.06,45.68l-9.55,31.37c-0.78,2.39-2.17,4.45-3.96,6.05
		c-2.29,2.05-5.25,3.33-8.43,3.52c-0.02,0-0.03,0.01-0.05,0.01c-0.27,0.02-0.54,0.02-0.81,0.02h-19.91l29.57-91.07
		c1.91-5.68,7.24-9.49,13.23-9.49h11.11c7,0,13.15,4.64,15.08,11.37l10.27,35.83c0.72,5.15,0.23,39.07-1.29,46.13
		c-0.17,0.76-0.51,2.46-0.77,3.82l8.35-27.94c0,0,0-0.04,0-0.05l0.02,0.04l16.58-57.83c1.93-6.73,8.08-11.37,15.08-11.37h11.33
		c5.99,0,11.31,3.81,13.23,9.49l29.33,91.04H551.05z"/>
	<path class="st0" d="M131.71,33.21L131.71,33.21c-7.08-7.07-15.49-12.73-25.01-16.83c-9.54-4.1-19.81-6.18-30.53-6.18H10.84V167.3
		h65.33c10.72,0,21-2.08,30.53-6.18c9.52-4.09,17.94-9.75,25.01-16.83c7.07-7.07,12.73-15.48,16.83-25.01
		c4.1-9.54,6.17-19.81,6.17-30.53c0-10.72-2.08-20.99-6.17-30.53C144.44,48.7,138.78,40.28,131.71,33.21z M121.63,107.68
		c-2.49,5.89-6.06,11.27-10.57,15.93c-4.69,4.55-10.1,8.12-16.06,10.6c-5.96,2.48-12.29,3.74-18.82,3.74H40.18v-98.4h35.99
		c6.53,0,12.86,1.26,18.82,3.74c5.97,2.49,11.37,6.05,16.03,10.57c4.55,4.69,8.12,10.1,10.6,16.07c2.48,5.97,3.74,12.3,3.74,18.82
		C125.37,95.42,124.11,101.79,121.63,107.68z"/>
	<path class="st0" d="M212.93,54.37c-4.34,1.83-8.35,4.09-11.96,6.74v-7.07h-29.35V167.3h14.12c8.4,0,15.23-6.83,15.23-15.23v-41.51
		c0-8.09,2.98-15.31,8.82-21.44c5.85-5.85,13.07-8.82,21.44-8.82h1.46V50.95h-1.46C224.45,50.95,218.3,52.1,212.93,54.37z"/>
	<path class="st0" d="M325.37,69.48v47.46c0,0.76-0.04,1.57-0.12,2.47c-0.5,5.57-2.84,10.47-6.95,14.55
		c-3.54,3.55-7.72,5.78-12.42,6.64c-1.54,0.29-3.16,0.43-4.83,0.43c-1.35,0-2.57-0.08-3.73-0.24c-5.16-0.72-9.71-3.01-13.53-6.83
		c-3.54-3.54-5.75-7.66-6.6-12.32c-0.14-0.62-0.24-1.31-0.33-2.23c-0.08-0.9-0.12-1.71-0.12-2.47V69.48
		c0-8.4-6.83-15.23-15.23-15.23h-14.13v62.69c0,7.3,1.18,14.29,3.5,20.77c2.32,6.43,5.67,12.15,9.97,17
		c3.86,4.33,8.49,7.89,13.73,10.56c0.47,0.26,0.97,0.5,1.47,0.73l0.38,0.18c6.07,2.8,12.87,4.21,20.22,4.21c1.68,0,7.38,0,8.8,0
		c7.32,0,14.13-1.42,20.3-4.25c0.58-0.28,1.16-0.56,1.73-0.86c5.26-2.7,9.88-6.26,13.74-10.58c4.3-4.85,7.65-10.57,9.97-17
		c2.33-6.41,3.51-13.4,3.51-20.77V54.25H340.6C332.2,54.25,325.37,61.08,325.37,69.48z"/>
	<path class="st0" d="M717.31,68.31c-5.44-5.44-11.87-9.77-19.13-12.87c-7.27-3.1-15.16-4.67-23.47-4.67
		c-8.3,0-16.2,1.57-23.47,4.67c-7.25,3.1-13.69,7.43-19.13,12.87c-5.45,5.45-9.78,11.88-12.87,19.13
		c-3.1,7.26-4.67,15.15-4.67,23.47c0,8.16,1.57,15.98,4.67,23.24c3.09,7.24,7.42,13.68,12.87,19.13
		c5.45,5.45,11.89,9.78,19.13,12.87c7.27,3.1,15.16,4.67,23.46,4.67c9.06,0,17.56-1.8,25.28-5.36c7.71-3.55,14.39-8.58,19.83-14.93
		l1.16-1.35l-13.29-7.47c-5.15-2.76-12.22-3.69-18.47-2.41c-3.27,0.67-10.52,1.93-14.52,1.93c-4.09,0-8.02-0.75-11.68-2.23
		c-3.65-1.47-7-3.72-9.99-6.71c-2.09-1.98-3.8-4.19-5.12-6.6h85.05l0.28-1.1c1.06-4.25,1.6-8.85,1.6-13.69
		c0-8.31-1.57-16.2-4.67-23.47C727.08,80.18,722.75,73.74,717.31,68.31z M647.92,96.11c1.32-2.45,3.04-4.74,5.13-6.82
		c6.21-5.93,13.5-8.93,21.66-8.93c8.45,0,15.73,3,21.64,8.91c2.1,2.1,3.82,4.4,5.15,6.85H647.92z"/>
	<path class="st0" d="M860.88,87.43c-3.1-7.26-7.43-13.69-12.87-19.13c-5.44-5.44-11.87-9.77-19.13-12.87
		c-7.26-3.1-15.16-4.67-23.47-4.67c-8.31,0-16.2,1.57-23.47,4.67c-7.25,3.1-13.69,7.43-19.13,12.87
		c-5.45,5.45-9.78,11.88-12.87,19.13c-3.1,7.26-4.67,15.16-4.67,23.47c0,8.16,1.57,15.98,4.67,23.24
		c3.09,7.24,7.42,13.68,12.87,19.13c5.45,5.45,11.89,9.78,19.13,12.87c7.27,3.1,15.16,4.67,23.47,4.67c9.06,0,17.56-1.8,25.28-5.36
		c7.71-3.55,14.39-8.58,19.83-14.93l1.16-1.35l-13.29-7.47c-5.15-2.76-12.23-3.69-18.47-2.41c-3.27,0.67-10.52,1.93-14.52,1.93
		c-4.09,0-8.02-0.75-11.68-2.23c-3.65-1.47-7-3.72-9.99-6.71c-2.09-1.98-3.8-4.19-5.12-6.6h85.05l0.28-1.1
		c1.06-4.25,1.6-8.85,1.6-13.69C865.55,102.59,863.98,94.7,860.88,87.43z M778.62,96.11c1.32-2.44,3.04-4.74,5.14-6.84
		c6.2-5.92,13.49-8.92,21.65-8.92c8.45,0,15.73,3,21.64,8.91c2.1,2.1,3.82,4.4,5.15,6.85H778.62z"/>
</g>
<path class="st1" d="M429.02,156.06c-2.29,2.05-5.25,3.33-8.44,3.52c-0.02,0-0.03,0.01-0.05,0.01c-0.26,0.05-0.54,0.07-0.81,0.07
	h-19.91l14.59,45.27c0.79,0.06,1.6,0.09,2.4,0.09h26.91L429.02,156.06z M551.05,159.62c-0.29,0-0.57-0.02-0.83-0.07h-0.01
	c-3.11-0.18-6.01-1.39-8.28-3.35l-15.26,48.82h28.09c0.49,0,0.98-0.01,1.47-0.04l14.72-45.36H551.05z M504.16,159.61h-37.06
	l-13.37,45.41h27.63l4.03-14.03l0.01,0.04c0-0.01,0-0.05,0-0.05l0.01-0.05l4.03,14.08h27.46L504.16,159.61z"/>
</svg>