<svg width="32" height="32" viewBox="0 0 32 32" fill="none" xmlns="http://www.w3.org/2000/svg">
<path fill-rule="evenodd" clip-rule="evenodd" d="M1.95262 20.6192C3.20286 19.3689 4.89856 18.6666 6.66667 18.6666H17.3333C19.1014 18.6666 20.7971 19.3689 22.0474 20.6192C23.2976 21.8694 24 23.5651 24 25.3332V27.9999C24 28.7363 23.403 29.3332 22.6667 29.3332H1.33333C0.596954 29.3332 0 28.7363 0 27.9999V25.3332C0 23.5651 0.702379 21.8694 1.95262 20.6192Z" fill="white"/>
<path d="M26.4615 27.0768H30.7692C31.449 27.0768 32 26.5258 32 25.846V23.3845C32 21.7524 31.3517 20.1871 30.1976 19.0331C29.0435 17.879 27.4783 17.2307 25.8462 17.2307H21.537C22.3599 17.6575 23.1203 18.2111 23.788 18.8787C25.4998 20.5906 26.4615 22.9124 26.4615 25.3333V27.0768Z" fill="white"/>
<path d="M24 27.0768H11.0769C10.3972 27.0768 9.84615 26.5258 9.84615 25.846V23.3845C9.84615 21.7524 10.4945 20.1871 11.6486 19.0331C11.777 18.9046 11.9106 18.7824 12.0488 18.6667L17.3333 18.6666C19.1014 18.6666 20.7971 19.3689 22.0474 20.6192C23.2976 21.8694 24 23.5651 24 25.3332V27.0768Z" fill="white"/>
<path fill-rule="evenodd" clip-rule="evenodd" d="M5.33333 9.33322C5.33333 5.65132 8.3181 2.66655 12 2.66655C15.6819 2.66655 18.6667 5.65132 18.6667 9.33322C18.6667 13.0151 15.6819 15.9999 12 15.9999C8.3181 15.9999 5.33333 13.0151 5.33333 9.33322Z" fill="white"/>
<path d="M19.4607 14.5943C19.9295 14.7086 20.4192 14.7691 20.9231 14.7691C24.3218 14.7691 27.0769 12.0139 27.0769 8.61527C27.0769 5.2166 24.3218 2.46143 20.9231 2.46143C20.0714 2.46143 19.2602 2.63442 18.5226 2.9472C20.1346 4.59338 21.1284 6.84729 21.1284 9.33332C21.1284 11.2924 20.5112 13.1073 19.4607 14.5943Z" fill="white"/>
<path d="M17.1952 13.5118C15.7207 12.3876 14.7692 10.6125 14.7692 8.61527C14.7692 6.97336 15.4123 5.48163 16.4602 4.37818C17.8151 5.59844 18.6667 7.36631 18.6667 9.33322C18.6667 10.9153 18.1158 12.3687 17.1952 13.5118Z" fill="white"/>
</svg>