<svg width="33" height="32" viewBox="0 0 33 32" fill="none" xmlns="http://www.w3.org/2000/svg">
<path fill-rule="evenodd" clip-rule="evenodd" d="M16.0093 23.6496C14.9239 23.3574 13.8635 22.9796 12.8381 22.5198C13.3241 24.3775 14.1014 26.1525 15.1431 27.7812C11.619 26.6309 8.95589 23.576 8.36961 19.8324C7.37761 19.0623 6.45781 18.2051 5.62102 17.2716C5.62052 17.278 5.62002 17.2844 5.61953 17.2908C5.59502 17.3919 5.58203 17.4975 5.58203 17.6061C5.58203 17.6612 5.58537 17.7156 5.59187 17.7689C5.58533 17.9361 5.58203 18.104 5.58203 18.2728C5.58203 25.2684 11.2531 30.9395 18.2487 30.9395C25.2443 30.9395 30.9154 25.2684 30.9154 18.2728C30.9154 18.104 30.9121 17.9361 30.9055 17.7689C30.912 17.7156 30.9154 17.6612 30.9154 17.6061C30.9154 17.4975 30.9024 17.3919 30.8779 17.2908C30.3767 10.7541 24.9139 5.60612 18.2487 5.60612C15.4566 5.60612 12.8755 6.50953 10.7817 8.03998C10.7946 8.32354 10.7714 8.609 10.7115 8.88942C10.5779 9.51452 10.2676 10.088 9.81784 10.5419L9.81258 10.5472L9.28147 11.0773C9.56899 11.51 9.87869 11.9264 10.209 12.325C11.4315 10.6754 13.1495 9.41513 15.1431 8.76442C13.9789 10.5846 13.1449 12.5875 12.6787 14.6845C12.9227 14.8686 13.1726 15.0453 13.4283 15.2144L13.9677 14.6761C14.4225 14.2272 14.9964 13.9181 15.6213 13.7851C15.645 13.7801 15.6686 13.7753 15.6923 13.7708C16.2568 12.0555 17.1185 10.4365 18.2487 8.9865C19.6261 10.7536 20.6048 12.7719 21.1325 14.9095C21.5068 15.1069 21.8433 15.3751 22.1217 15.703C22.6484 16.3234 22.9304 17.1144 22.9147 17.9278V20.9219C22.9147 20.9219 22.9147 22.5168 21.6768 23.6C21.2743 23.9522 20.7287 24.1197 20.2588 24.1979C19.7345 25.3876 19.061 26.517 18.2487 27.5591C17.3126 26.3581 16.5607 25.0412 16.0093 23.6496ZM21.3543 8.76441C24.7392 9.86926 27.3298 12.7312 28.0487 16.2728H24.0987C23.7487 13.6 22.8094 11.0395 21.3543 8.76441ZM24.2235 18.9395C24.0451 22.0916 23.0498 25.1302 21.3543 27.7812C25.1548 26.5407 27.954 23.0851 28.2268 18.9395H24.2235Z" fill="white"/>
<path d="M21.5814 17.9133V20.9241C21.5825 21.2036 21.5252 21.4803 21.413 21.7364C21.3008 21.9925 21.1362 22.2223 20.9299 22.4113C20.7235 22.6003 20.4799 22.7441 20.2146 22.8337C19.9493 22.9232 19.6681 22.9565 19.3892 22.9313C16.2948 22.5957 13.3225 21.5405 10.7109 19.8502C8.28125 18.3094 6.22129 16.2535 4.67737 13.8286C2.97789 11.2104 1.92027 8.22953 1.59019 5.1274C1.56506 4.84987 1.59811 4.57016 1.68723 4.30608C1.77635 4.042 1.9196 3.79933 2.10784 3.59352C2.29608 3.38771 2.5252 3.22328 2.78061 3.11069C3.03601 2.9981 3.31211 2.93981 3.59133 2.93955H6.60811C7.09613 2.93476 7.56925 3.10723 7.93928 3.42482C8.30931 3.74242 8.551 4.18346 8.6193 4.66575C8.74663 5.62927 8.98277 6.57533 9.32322 7.48587C9.45851 7.84508 9.48779 8.23547 9.40759 8.61079C9.32739 8.9861 9.14106 9.3306 8.8707 9.60347L7.59359 10.878C9.02511 13.3906 11.1096 15.471 13.6272 16.8997L14.9043 15.6251C15.1777 15.3553 15.5229 15.1693 15.8989 15.0893C16.275 15.0092 16.6661 15.0384 17.0261 15.1735C17.9384 15.5132 18.8864 15.7489 19.8518 15.876C20.3403 15.9448 20.7864 16.1903 21.1053 16.566C21.4242 16.9416 21.5936 17.4211 21.5814 17.9133Z" fill="white"/>
<path fill-rule="evenodd" clip-rule="evenodd" d="M1.59019 5.1274C1.56506 4.84987 1.59811 4.57016 1.68723 4.30608C1.77635 4.042 1.9196 3.79933 2.10784 3.59352C2.29608 3.38771 2.5252 3.22328 2.78061 3.11069C3.03601 2.9981 3.31211 2.93981 3.59133 2.93955H6.60811C7.09613 2.93476 7.56925 3.10723 7.93928 3.42482C8.30931 3.74242 8.551 4.18346 8.6193 4.66575C8.74663 5.62927 8.98277 6.57533 9.32322 7.48587C9.45851 7.84508 9.48779 8.23547 9.40759 8.61079C9.32739 8.9861 9.14106 9.3306 8.8707 9.60347L7.59359 10.878C9.02511 13.3906 11.1096 15.471 13.6272 16.8997L14.9043 15.6251C15.1777 15.3553 15.5229 15.1693 15.8989 15.0893C16.275 15.0092 16.6661 15.0384 17.0261 15.1735C17.9384 15.5132 18.8864 15.7489 19.8518 15.876C20.3403 15.9448 20.7864 16.1903 21.1053 16.566C21.4242 16.9416 21.5936 17.4211 21.5814 17.9133V20.9241C21.5825 21.2036 21.5252 21.4803 21.413 21.7364C21.3008 21.9925 21.1362 22.2223 20.9299 22.4113C20.7235 22.6003 20.4799 22.7441 20.2146 22.8337C19.9493 22.9232 19.6681 22.9565 19.3892 22.9313C16.2948 22.5957 13.3225 21.5405 10.7109 19.8502C8.28125 18.3094 6.22129 16.2535 4.67737 13.8286C2.97789 11.2104 1.92027 8.22953 1.59019 5.1274Z" fill="white"/>
</svg>
