<svg width="26" height="25" viewBox="0 0 26 25" fill="none" xmlns="http://www.w3.org/2000/svg">
<mask id="path-1-inside-1" fill="white">
<path d="M5.6 0.25C4.6335 0.25 3.85 1.0335 3.85 2V10.0525L5.35 11.0275V2C5.35 1.86193 5.46193 1.75 5.6 1.75H20.4C20.5381 1.75 20.65 1.86193 20.65 2V11.0275L22.15 10.0525V2C22.15 1.0335 21.3665 0.25 20.4 0.25H5.6Z"/>
<path fill-rule="evenodd" clip-rule="evenodd" d="M0.642268 7.54081C0.883999 7.40963 1.17814 7.42128 1.40874 7.57117L13 15.1055L24.5913 7.57117C24.8219 7.42128 25.116 7.40963 25.3577 7.54081C25.5995 7.672 25.75 7.92497 25.75 8.2V21.5714C25.75 23.2627 24.2809 24.55 22.6 24.55H3.4C1.7191 24.55 0.25 23.2627 0.25 21.5714V8.2C0.25 7.92497 0.400538 7.672 0.642268 7.54081ZM1.75 9.58202V21.5714C1.75 22.3316 2.4409 23.05 3.4 23.05H22.6C23.5591 23.05 24.25 22.3316 24.25 21.5714V9.58202L13.4087 16.6288C13.1602 16.7904 12.8398 16.7904 12.5913 16.6288L1.75 9.58202Z"/>
<path d="M8.2 5.35C8.2 4.93579 8.53579 4.6 8.95 4.6H17.05C17.4642 4.6 17.8 4.93579 17.8 5.35C17.8 5.76421 17.4642 6.1 17.05 6.1H8.95C8.53579 6.1 8.2 5.76421 8.2 5.35Z"/>
<path d="M8.2 9.55C8.2 9.13579 8.53579 8.8 8.95 8.8H17.05C17.4642 8.8 17.8 9.13579 17.8 9.55C17.8 9.96421 17.4642 10.3 17.05 10.3H8.95C8.53579 10.3 8.2 9.96421 8.2 9.55Z"/>
</mask>
<path d="M5.6 0.25C4.6335 0.25 3.85 1.0335 3.85 2V10.0525L5.35 11.0275V2C5.35 1.86193 5.46193 1.75 5.6 1.75H20.4C20.5381 1.75 20.65 1.86193 20.65 2V11.0275L22.15 10.0525V2C22.15 1.0335 21.3665 0.25 20.4 0.25H5.6Z" fill="black"/>
<path fill-rule="evenodd" clip-rule="evenodd" d="M0.642268 7.54081C0.883999 7.40963 1.17814 7.42128 1.40874 7.57117L13 15.1055L24.5913 7.57117C24.8219 7.42128 25.116 7.40963 25.3577 7.54081C25.5995 7.672 25.75 7.92497 25.75 8.2V21.5714C25.75 23.2627 24.2809 24.55 22.6 24.55H3.4C1.7191 24.55 0.25 23.2627 0.25 21.5714V8.2C0.25 7.92497 0.400538 7.672 0.642268 7.54081ZM1.75 9.58202V21.5714C1.75 22.3316 2.4409 23.05 3.4 23.05H22.6C23.5591 23.05 24.25 22.3316 24.25 21.5714V9.58202L13.4087 16.6288C13.1602 16.7904 12.8398 16.7904 12.5913 16.6288L1.75 9.58202Z" fill="black"/>
<path d="M8.2 5.35C8.2 4.93579 8.53579 4.6 8.95 4.6H17.05C17.4642 4.6 17.8 4.93579 17.8 5.35C17.8 5.76421 17.4642 6.1 17.05 6.1H8.95C8.53579 6.1 8.2 5.76421 8.2 5.35Z" fill="black"/>
<path d="M8.2 9.55C8.2 9.13579 8.53579 8.8 8.95 8.8H17.05C17.4642 8.8 17.8 9.13579 17.8 9.55C17.8 9.96421 17.4642 10.3 17.05 10.3H8.95C8.53579 10.3 8.2 9.96421 8.2 9.55Z" fill="black"/>
<path d="M3.85 10.0525H2.85V10.5952L3.30501 10.8909L3.85 10.0525ZM5.35 11.0275L4.80501 11.8659L6.35 12.8702V11.0275H5.35ZM20.65 11.0275H19.65V12.8702L21.195 11.8659L20.65 11.0275ZM22.15 10.0525L22.695 10.8909L23.15 10.5952V10.0525H22.15ZM1.40874 7.57117L0.863753 8.40961H0.863753L1.40874 7.57117ZM0.642268 7.54081L0.165293 6.6619L0.165292 6.6619L0.642268 7.54081ZM13 15.1055L12.455 15.9439C12.7864 16.1593 13.2136 16.1593 13.545 15.9439L13 15.1055ZM24.5913 7.57117L25.1362 8.40961L25.1362 8.40961L24.5913 7.57117ZM25.3577 7.54081L24.8808 8.41973L24.8808 8.41973L25.3577 7.54081ZM1.75 9.58202L2.29499 8.74357C1.98752 8.54372 1.59533 8.52819 1.27302 8.7031C0.950717 8.87801 0.75 9.21531 0.75 9.58202H1.75ZM24.25 9.58202H25.25C25.25 9.21531 25.0493 8.87801 24.727 8.7031C24.4047 8.52819 24.0125 8.54372 23.705 8.74357L24.25 9.58202ZM13.4087 16.6288L12.8638 15.7904L12.8638 15.7904L13.4087 16.6288ZM12.5913 16.6288L13.1362 15.7904L13.1362 15.7904L12.5913 16.6288ZM4.85 2C4.85 1.58579 5.18579 1.25 5.6 1.25V-0.75C4.08122 -0.75 2.85 0.481219 2.85 2H4.85ZM4.85 10.0525V2H2.85V10.0525H4.85ZM5.89499 10.1891L4.39499 9.21405L3.30501 10.8909L4.80501 11.8659L5.89499 10.1891ZM4.35 2V11.0275H6.35V2H4.35ZM5.6 0.75C4.90964 0.75 4.35 1.30964 4.35 2H6.35C6.35 2.41421 6.01421 2.75 5.6 2.75V0.75ZM20.4 0.75H5.6V2.75H20.4V0.75ZM21.65 2C21.65 1.30964 21.0904 0.75 20.4 0.75V2.75C19.9858 2.75 19.65 2.41421 19.65 2H21.65ZM21.65 11.0275V2H19.65V11.0275H21.65ZM21.605 9.21405L20.105 10.1891L21.195 11.8659L22.695 10.8909L21.605 9.21405ZM21.15 2V10.0525H23.15V2H21.15ZM20.4 1.25C20.8142 1.25 21.15 1.58579 21.15 2H23.15C23.15 0.481216 21.9188 -0.75 20.4 -0.75V1.25ZM5.6 1.25H20.4V-0.75H5.6V1.25ZM1.95373 6.73272C1.41567 6.38298 0.729331 6.3558 0.165293 6.6619L1.11924 8.41973C1.03867 8.46346 0.940619 8.45957 0.863753 8.40961L1.95373 6.73272ZM13.545 14.267L1.95373 6.73272L0.863753 8.40961L12.455 15.9439L13.545 14.267ZM24.0463 6.73272L12.455 14.267L13.545 15.9439L25.1362 8.40961L24.0463 6.73272ZM25.8347 6.6619C25.2707 6.3558 24.5843 6.38298 24.0463 6.73273L25.1362 8.40961C25.0594 8.45957 24.9613 8.46346 24.8808 8.41973L25.8347 6.6619ZM26.75 8.2C26.75 7.55826 26.3987 6.96799 25.8347 6.6619L24.8808 8.41973C24.8002 8.376 24.75 8.29168 24.75 8.2H26.75ZM26.75 21.5714V8.2H24.75V21.5714H26.75ZM22.6 25.55C24.7568 25.55 26.75 23.8884 26.75 21.5714H24.75C24.75 22.637 23.805 23.55 22.6 23.55V25.55ZM3.4 25.55H22.6V23.55H3.4V25.55ZM-0.75 21.5714C-0.75 23.8884 1.24321 25.55 3.4 25.55V23.55C2.19498 23.55 1.25 22.637 1.25 21.5714H-0.75ZM-0.75 8.2V21.5714H1.25V8.2H-0.75ZM0.165292 6.6619C-0.398746 6.96799 -0.75 7.55826 -0.75 8.2H1.25C1.25 8.29168 1.19982 8.376 1.11924 8.41973L0.165292 6.6619ZM2.75 21.5714V9.58202H0.75V21.5714H2.75ZM3.4 22.05C2.93248 22.05 2.75 21.7205 2.75 21.5714H0.75C0.75 22.9427 1.94932 24.05 3.4 24.05V22.05ZM22.6 22.05H3.4V24.05H22.6V22.05ZM23.25 21.5714C23.25 21.7205 23.0675 22.05 22.6 22.05V24.05C24.0507 24.05 25.25 22.9427 25.25 21.5714H23.25ZM23.25 9.58202V21.5714H25.25V9.58202H23.25ZM13.9537 17.4673L24.795 10.4205L23.705 8.74357L12.8638 15.7904L13.9537 17.4673ZM12.0463 17.4673C12.6262 17.8442 13.3738 17.8442 13.9537 17.4673L12.8638 15.7904C12.9466 15.7365 13.0534 15.7365 13.1362 15.7904L12.0463 17.4673ZM1.20501 10.4205L12.0463 17.4673L13.1362 15.7904L2.29499 8.74357L1.20501 10.4205ZM8.95 5.6H17.05V3.6H8.95V5.6ZM17.05 5.1H8.95V7.1H17.05V5.1ZM8.95 5.1C9.08807 5.1 9.2 5.21193 9.2 5.35H7.2C7.2 6.3165 7.9835 7.1 8.95 7.1V5.1ZM16.8 5.35C16.8 5.21193 16.9119 5.1 17.05 5.1V7.1C18.0165 7.1 18.8 6.3165 18.8 5.35H16.8ZM17.05 5.6C16.9119 5.6 16.8 5.48807 16.8 5.35H18.8C18.8 4.38351 18.0165 3.6 17.05 3.6V5.6ZM8.95 3.6C7.9835 3.6 7.2 4.3835 7.2 5.35H9.2C9.2 5.48807 9.08807 5.6 8.95 5.6V3.6ZM8.95 9.8H17.05V7.8H8.95V9.8ZM17.05 9.3H8.95V11.3H17.05V9.3ZM8.95 9.3C9.08807 9.3 9.2 9.41193 9.2 9.55H7.2C7.2 10.5165 7.9835 11.3 8.95 11.3V9.3ZM16.8 9.55C16.8 9.41193 16.9119 9.3 17.05 9.3V11.3C18.0165 11.3 18.8 10.5165 18.8 9.55H16.8ZM17.05 9.8C16.9119 9.8 16.8 9.68807 16.8 9.55H18.8C18.8 8.5835 18.0165 7.8 17.05 7.8V9.8ZM8.95 7.8C7.9835 7.8 7.2 8.5835 7.2 9.55H9.2C9.2 9.68807 9.08807 9.8 8.95 9.8V7.8Z" fill="#89929E" mask="url(#path-1-inside-1)"/>
</svg>