<?xml version="1.0" encoding="UTF-8"?>
<svg width="16px" height="14px" viewBox="0 0 16 14" version="1.1" xmlns="http://www.w3.org/2000/svg" xmlns:xlink="http://www.w3.org/1999/xlink">
    <!-- Generator: Sketch 48.1 (47250) - http://www.bohemiancoding.com/sketch -->
    <title>Group</title>
    <desc>Created with Sketch.</desc>
    <defs></defs>
    <g id="Button/bgstyle_horizontal_active" stroke="none" stroke-width="1" fill="none" fill-rule="evenodd" transform="translate(-7.000000, -8.000000)">
        <g id="Group" transform="translate(7.000000, 8.000000)" fill="#FFFFFF" fill-rule="nonzero">
            <path d="M1,1 L1,3 L15,3 L15,1 L1,1 Z M0,0 L16,0 L16,4 L0,4 L0,0 Z" id="Rectangle-32"></path>
            <path d="M1,11 L1,13 L3,13 L3,11 L1,11 Z M0,10 L4,10 L4,14 L0,14 L0,10 Z" id="Rectangle-32-Copy"></path>
            <path d="M7,11 L7,13 L9,13 L9,11 L7,11 Z M6,10 L10,10 L10,14 L6,14 L6,10 Z" id="Rectangle-32-Copy-2"></path>
            <path d="M13,11 L13,13 L15,13 L15,11 L13,11 Z M12,10 L16,10 L16,14 L12,14 L12,10 Z" id="Rectangle-32-Copy-3"></path>
        </g>
    </g>
</svg>