<?xml version="1.0" encoding="utf-8"?>
<!-- Generator: Adobe Illustrator 21.0.0, SVG Export Plug-In . SVG Version: 6.00 Build 0)  -->
<svg version="1.1" id="Слой_1" xmlns="http://www.w3.org/2000/svg" xmlns:xlink="http://www.w3.org/1999/xlink" x="0px" y="0px"
	 viewBox="0 0 100 100" style="enable-background:new 0 0 100 100;" xml:space="preserve">
<g>
	<path d="M47.7,78c0.6,0.5,1.4,0.5,2.1,0.4c0.8-0.2,1.5-0.8,1.8-1.5l7.3-16.2h26l7.3,16.2c0.4,0.8,1.1,1.4,1.8,1.6
		c0.2,0.1,0.5,0.1,0.7,0.1c0.5,0,0.9-0.1,1.4-0.5c1.4-0.8,1.9-2.7,1.2-4.3L74.3,23.1c-0.5-1.1-1.5-1.8-2.5-1.8s-2,0.6-2.6,1.8
		L46.5,73.7C45.8,75.3,46.3,77.2,47.7,78z M61.8,54.1l10.1-22.4L82,54.1H61.8z"/>
</g>
<g>
	<path d="M3.7,78.2c0.5,0.4,1.1,0.4,1.7,0.3c0.7-0.2,1.2-0.7,1.4-1.2l5.8-13h20.8l5.8,13c0.3,0.7,0.8,1.1,1.4,1.3
		c0.2,0.1,0.4,0.1,0.6,0.1c0.4,0,0.8-0.1,1.1-0.4c1.1-0.7,1.5-2.2,0.9-3.5L25,34.2c-0.4-0.8-1.2-1.4-2-1.4c-0.8,0-1.6,0.5-2.1,1.4
		L2.8,74.7C2.2,76,2.6,77.5,3.7,78.2z M15,59L23,41.1L31.2,59H15z"/>
</g>
</svg>
