<?xml version="1.0" encoding="utf-8"?>
<!-- Generator: Adobe Illustrator 21.0.0, SVG Export Plug-In . SVG Version: 6.00 Build 0)  -->
<svg version="1.1" id="Слой_1" xmlns="http://www.w3.org/2000/svg" xmlns:xlink="http://www.w3.org/1999/xlink" x="0px" y="0px"
	 viewBox="0 0 19 20" style="enable-background:new 0 0 19 20;" xml:space="preserve">
<style type="text/css">
	.st0{fill:#3C3C3C;}
</style>
<title>Group</title>
<desc>Created with Sketch.</desc>
<g>
	<path class="st0" d="M18.8,0.2H0.5v12.5h18.3V0.2z M17.2,11.2H2V1.7h15.3V11.2z"/>
	<ellipse class="st0" cx="5.6" cy="3.6" rx="1.1" ry="1.2"/>
	<polygon class="st0" points="10.5,11.3 16.9,11.3 11.3,5 7.9,8.8 6.3,7.3 2.1,11.3 5.6,11.3 	"/>
	<path class="st0" d="M0,20h5v-5H0V20z M1,16h3v3H1V16z"/>
	<path class="st0" d="M7,20h5v-5H7V20z M8,16h3v3H8V16z"/>
	<path class="st0" d="M14,15v5h5v-5H14z M18,19h-3v-3h3V19z"/>
</g>
</svg>
