<?xml version="1.0" encoding="utf-8"?>
<!-- Generator: Adobe Illustrator 21.0.0, SVG Export Plug-In . SVG Version: 6.00 Build 0)  -->
<svg version="1.1" id="Слой_1" xmlns="http://www.w3.org/2000/svg" xmlns:xlink="http://www.w3.org/1999/xlink" x="0px" y="0px"
	 viewBox="0 0 18 17" style="enable-background:new 0 0 18 17;" xml:space="preserve">
<title>Group 2</title>
<desc>Created with Sketch.</desc>
<g>
	<path d="M17.5,3.6l-2.3-2.6c-0.6-0.7-1.7-0.8-2.5-0.2l-10.3,9C2,10,1.7,10.3,1.5,10.8L0,16.7l3.7-0.6l2.2-0.4
		c0.2,0,0.4-0.2,0.6-0.3l0,0l0.1-0.1c0,0,0,0,0.1-0.1L17.3,6C18,5.4,18.1,4.3,17.5,3.6z M5.8,14c0,0.1-0.1,0.2-0.2,0.2l-2.2,0.4
		L3,14.7l-0.7-0.8L3,11.2C3,11.1,3.1,11,3.2,11l0.1,0L5.8,14L5.8,14z M16.3,4.9L7,13L4.4,9.9l9.2-8c0.1-0.1,0.3-0.1,0.4,0l2.3,2.6
		C16.4,4.6,16.4,4.8,16.3,4.9z"/>
</g>
</svg>
