<?xml version="1.0" encoding="utf-8"?>
<!-- Generator: Adobe Illustrator 21.0.0, SVG Export Plug-In . SVG Version: 6.00 Build 0)  -->
<svg version="1.1" id="Слой_1" xmlns="http://www.w3.org/2000/svg" xmlns:xlink="http://www.w3.org/1999/xlink" x="0px" y="0px"
	 viewBox="0 0 20 17" style="enable-background:new 0 0 20 17;" xml:space="preserve">
<title>Group</title>
<desc>Created with Sketch.</desc>
<g>
	<circle cx="7.2" cy="7" r="0.8"/>
	<polygon points="2.1,6.5 0.1,8.5 0.7,9.1 0.7,9.1 2.1,10.5 2.7,9.9 1.3,8.5 2.7,7.1 	"/>
	<polygon points="19.8,8.5 17.9,6.5 17.3,7.1 18.7,8.5 17.3,9.9 17.9,10.5 19.3,9.1 19.3,9.1 	"/>
	<path d="M4.5,12.8h11V4.3h-11V12.8z M14.7,5.1V11L12,8.1c-0.1-0.1-0.3-0.1-0.4,0l-2.3,2.5L7.9,9.1C7.8,9,7.6,9,7.5,9.1l-2.2,2.4
		V5.1H14.7z"/>
</g>
</svg>
