<?xml version="1.0" encoding="UTF-8"?>
<svg width="16px" height="14px" viewBox="0 0 16 14" version="1.1" xmlns="http://www.w3.org/2000/svg" xmlns:xlink="http://www.w3.org/1999/xlink">
    <!-- Generator: Sketch 48.1 (47250) - http://www.bohemiancoding.com/sketch -->
    <title>left</title>
    <desc>Created with Sketch.</desc>
    <defs></defs>
    <g id="Button/alignL_normal" stroke="none" stroke-width="1" fill="none" fill-rule="evenodd" transform="translate(-12.000000, -13.000000)" opacity="0.87">
        <g id="L" fill="#7D8EE2">
            <path d="M26,22 L14,22 L14,24 L26,24 L26,22 Z M26,16 L14,16 L14,18 L26,18 L26,16 Z M12,21 L28,21 L28,19 L12,19 L12,21 Z M12,27 L28,27 L28,25 L12,25 L12,27 Z M12,13 L12,15 L28,15 L28,13 L12,13 Z" id="left" transform="translate(20.000000, 20.000000) scale(-1, 1) translate(-20.000000, -20.000000) "></path>
        </g>
    </g>
</svg>