<?xml version="1.0" encoding="utf-8"?>
<!-- Generator: Adobe Illustrator 21.0.0, SVG Export Plug-In . SVG Version: 6.00 Build 0)  -->
<svg version="1.1" id="Слой_1" xmlns="http://www.w3.org/2000/svg" xmlns:xlink="http://www.w3.org/1999/xlink" x="0px" y="0px"
	 viewBox="0 0 11 14" style="enable-background:new 0 0 11 14;" xml:space="preserve">
<style type="text/css">
	.st0{fill:#89929E;}
</style>
<title>Group 2</title>
<desc>Created with Sketch.</desc>
<g id="Button_x2F_underlined_x5F_normal" transform="translate(-10.000000, -8.000000)">
	<g id="Group" transform="translate(-0.000000, 0.000000)">
		<g id="Group-2" transform="translate(10.000000, 8.000000)">
			<g id="Line">
				<rect y="13" class="st0" width="11" height="1"/>
			</g>
			<g id="U">
				<path class="st0" d="M10,0v8.1c0,1.3-0.4,2.3-1.3,3c-0.8,0.7-1.9,1-3.3,1c-1.3,0-2.4-0.3-3.2-1C1.4,10.4,1,9.4,1,8.1V0h1.6v8.1
					c0,0.9,0.3,1.6,0.8,2.1c0.5,0.5,1.2,0.7,2,0.7c0.9,0,1.6-0.2,2.1-0.7C8.1,9.7,8.4,9,8.4,8.1V0H10z"/>
			</g>
		</g>
	</g>
</g>
</svg>
