<?xml version="1.0" encoding="utf-8"?>
<!-- Generator: Adobe Illustrator 21.0.0, SVG Export Plug-In . SVG Version: 6.00 Build 0)  -->
<svg version="1.1" id="Слой_1" xmlns="http://www.w3.org/2000/svg" xmlns:xlink="http://www.w3.org/1999/xlink" x="0px" y="0px"
	 viewBox="0 0 11 14" style="enable-background:new 0 0 11 14;" xml:space="preserve">
<style type="text/css">
	.st0{fill:#879BFF;}
</style>
<title>B</title>
<desc>Created with Sketch.</desc>
<g>
	<path class="st0" d="M9.5,7.4c-0.3-0.3-0.6-0.6-1-0.8C8.7,6.4,8.9,6.2,9.1,6C9.6,5.4,9.8,4.7,9.8,4c0-1.3-0.5-2.3-1.3-3
		C7.6,0.3,6.4,0,5,0H0.7v14h5C7,14,8.2,13.6,9,12.9c0.9-0.7,1.3-1.8,1.3-3.1C10.3,8.9,10.1,8.1,9.5,7.4z M5.7,12H2.8V7.8h3
		c0.8,0,1.4,0.2,1.7,0.6C8,8.8,8.2,9.3,8.2,9.9c0,0.7-0.2,1.2-0.6,1.5C7.1,11.8,6.5,12,5.7,12z M7,5.3C6.6,5.6,6,5.8,5.2,5.8H2.8V2
		H5c0.9,0,1.6,0.2,2,0.5c0.4,0.3,0.6,0.8,0.6,1.4C7.6,4.5,7.4,5,7,5.3z"/>
</g>
</svg>
