<?xml version="1.0" encoding="UTF-8"?>
<svg width="22px" height="19px" viewBox="0 0 22 19" version="1.1" xmlns="http://www.w3.org/2000/svg" xmlns:xlink="http://www.w3.org/1999/xlink">
    <!-- Generator: Sketch 48.1 (47250) - http://www.bohemiancoding.com/sketch -->
    <title>Group 2</title>
    <desc>Created with Sketch.</desc>
    <defs></defs>
    <g id="Tab/change_normal2" stroke="none" stroke-width="1" fill="none" fill-rule="evenodd" transform="translate(-12.000000, -14.000000)">
        <g id="Group-2" transform="translate(12.000000, 14.000000)" fill="#FFFFFF">
            <path d="M19.9382274,6.51075902 C20.135923,7.10211949 19.8187906,7.74244592 19.2298924,7.94096813 C18.6409942,8.13949035 18.003334,7.82103203 17.8056383,7.22967157 C16.8193721,4.27948554 14.0929802,2.25895591 10.9913171,2.25895591 C7.9035422,2.25895591 5.18666781,4.26144443 4.1894613,7.19270948 C3.98864366,7.78300822 3.34930958,8.09806437 2.76146868,7.89640707 C2.17362778,7.69474978 1.85988345,7.05274257 2.06070109,6.46244382 C3.36538772,2.6273482 6.9300399,0 10.9913171,0 C15.0708512,0 18.6478585,2.65092092 19.9382274,6.51075902 Z M19.9382274,12.489241 C20.135923,11.8978805 19.8187906,11.2575541 19.2298924,11.0590319 C18.6409942,10.8605096 18.003334,11.178968 17.8056383,11.7703284 C16.8193721,14.7205145 14.0929802,16.7410441 10.9913171,16.7410441 C7.9035422,16.7410441 5.18666781,14.7385556 4.1894613,11.8072905 C3.98864366,11.2169918 3.34930958,10.9019356 2.76146868,11.1035929 C2.17362778,11.3052502 1.85988345,11.9472574 2.06070109,12.5375562 C3.36538772,16.3726518 6.9300399,19 10.9913171,19 C15.0708512,19 18.6478585,16.3490791 19.9382274,12.489241 Z" id="Oval-5" fill-rule="nonzero"></path>
            <rect id="Rectangle-2" transform="translate(2.418928, 4.635668) rotate(-15.000000) translate(-2.418928, -4.635668) " x="1.4189282" y="2.13566756" width="2" height="5"></rect>
            <rect id="Rectangle-2" transform="translate(19.612973, 14.673634) rotate(-14.000000) translate(-19.612973, -14.673634) " x="18.6129734" y="12.1736336" width="2" height="5"></rect>
            <rect id="Rectangle-2" transform="translate(5.590833, 6.255843) rotate(74.000000) translate(-5.590833, -6.255843) " x="4.5908332" y="3.75584305" width="2" height="5"></rect>
            <rect id="Rectangle-2" transform="translate(16.678792, 12.650355) rotate(74.000000) translate(-16.678792, -12.650355) " x="15.6787916" y="10.1503551" width="2" height="5"></rect>
        </g>
    </g>
</svg>