<?xml version="1.0" encoding="utf-8"?>
<!-- Generator: Adobe Illustrator 21.0.0, SVG Export Plug-In . SVG Version: 6.00 Build 0)  -->
<svg version="1.1" id="Слой_1" xmlns="http://www.w3.org/2000/svg" xmlns:xlink="http://www.w3.org/1999/xlink" x="0px" y="0px"
	 viewBox="0 0 16 16" style="enable-background:new 0 0 16 16;" xml:space="preserve">
<style type="text/css">
	.st0{fill:#89929E;}
</style>
<g>
	<path class="st0" d="M14.1,2.9l1.4-1.4c0.1-0.1,0.2-0.3,0.2-0.5c0-0.2-0.1-0.4-0.2-0.5c-0.1-0.1-0.3-0.2-0.5-0.2c0,0,0,0,0,0
		c-0.2,0-0.4,0.1-0.5,0.2l-1.4,1.4C11.7,0.7,9.9,0,8,0C3.6,0,0,3.6,0,8c0,1.9,0.7,3.7,1.9,5.1l-1.4,1.4c-0.1,0.1-0.2,0.3-0.2,0.5
		s0.1,0.4,0.2,0.5c0.1,0.1,0.3,0.2,0.5,0.2c0,0,0,0,0,0c0.2,0,0.4-0.1,0.5-0.2l1.4-1.4C4.3,15.3,6,16,8,16c4.4,0,8-3.6,8-8
		C16,6.1,15.3,4.3,14.1,2.9z M13.5,4.8h-1.3L13,4C13.2,4.3,13.4,4.5,13.5,4.8z M12,3l-1,1c-0.2-0.7-0.5-1.4-0.9-2.1
		C10.8,2.2,11.4,2.6,12,3z M8,1.6c0.7,1,1.2,2,1.5,3.2H6.5C6.8,3.7,7.3,2.6,8,1.6z M6.1,6.4h2.4L6,8.9C6,8.6,6,8.3,6,8
		C6,7.5,6.1,6.9,6.1,6.4z M5.9,2C5.4,2.8,5.1,3.8,4.8,4.8H2.5C3.2,3.5,4.5,2.5,5.9,2z M1.6,8c0-0.6,0.1-1.1,0.2-1.6h2.7
		C4.4,6.9,4.4,7.5,4.4,8s0,1.1,0.1,1.6H1.8C1.7,9.1,1.6,8.6,1.6,8z M2.5,11.2h1.3L3,12C2.8,11.7,2.6,11.5,2.5,11.2z M4,13l1-1
		c0.2,0.7,0.5,1.4,0.9,2.1C5.2,13.8,4.6,13.4,4,13z M8,14.4c-0.7-1-1.2-2-1.5-3.2h3.1C9.2,12.3,8.7,13.4,8,14.4z M9.9,9.6H7.4
		L10,7.1c0,0.3,0,0.6,0,0.9C10,8.5,9.9,9.1,9.9,9.6z M10.1,14c0.5-0.9,0.8-1.8,1.1-2.8h2.4C12.8,12.5,11.5,13.5,10.1,14z M11.5,9.6
		c0.1-0.5,0.1-1.1,0.1-1.6s0-1.1-0.1-1.6h2.7c0.1,0.5,0.2,1,0.2,1.6s-0.1,1.1-0.2,1.6H11.5z"/>
</g>
</svg>
