<svg version="1.1" xmlns="http://www.w3.org/2000/svg" xmlns:xlink="http://www.w3.org/1999/xlink" width="38" height="32" viewBox="0 0 38 32"><g id="document" ><path id="document-fill" d="M16.924,4.945 L14.154,1.293 L13.919,0.983 L1.015,0.983 L1.015,30.986 L37.000,30.986 L37.000,4.945 L16.924,4.945 zM35.801,6.077 L35.801,8.908 L19.929,8.908 L17.782,6.077 L35.801,6.077 zM1.226,30.770 L1.226,1.164 L13.669,1.164 L16.300,6.077 L16.307,6.077 C16.307,6.077 19.120,9.786 19.120,9.786 C19.237,9.940 19.420,10.022 19.608,10.023 C19.608,10.023 19.608,10.040 19.608,10.040 L36.778,9.238 L36.778,30.770 L1.226,30.770 z" fill="#354052" /><path id="document-stroke" d="M16.924,4.945 L14.154,1.293 L13.919,0.983 L1.015,0.983 L1.015,30.986 L37.000,30.986 L37.000,4.945 L16.924,4.945 zM35.801,6.077 L35.801,8.908 L19.929,8.908 L17.782,6.077 L35.801,6.077 zM1.226,30.770 L1.226,1.164 L13.669,1.164 L16.300,6.077 L16.307,6.077 C16.307,6.077 19.120,9.786 19.120,9.786 C19.237,9.940 19.420,10.022 19.608,10.023 C19.608,10.023 19.608,10.040 19.608,10.040 L36.778,9.238 L36.778,30.770 L1.226,30.770 z" fill="none" stroke="#FFFFFF" stroke-width="0.8" /></g></svg>