<?xml version="1.0" encoding="utf-8"?><!DOCTYPE svg PUBLIC "-//W3C//DTD SVG 1.1//EN" "http://www.w3.org/Graphics/SVG/1.1/DTD/svg11.dtd"><svg version="1.1" xmlns="http://www.w3.org/2000/svg" xmlns:xlink="http://www.w3.org/1999/xlink" width="100" height="100" viewBox="0 0 100 100"><path opacity="0.8" fill="rgb( 25, 25, 25 )" transform="matrix(2, 0, 0, 2, 25, 20)" d="M27.8,7.032 L21.6969999999999,1.189 C21.5530000000001,1.052 21.3679999999999,0.993 21.165,0.993 L1.62599999999998,0.993 C0.75099999999998,0.993 0.00199999999995,1.641 0.00199999999995,2.484 L0.00199999999995,27.427 C0.00199999999995,28.27 0.75099999999998,28.992 1.62599999999998,28.992 L26.4590000000001,28.992 C27.3340000000001,28.992 28.0070000000001,28.27 28.0070000000001,27.427 L28.0070000000001,7.556 C28.0070000000001,7.359 27.9449999999999,7.171 27.8,7.032 ZM17.2650000000001,2.472 L18.8,2.472 L18.8,9.128 L17.2650000000001,9.128 L17.2650000000001,2.472 ZM8.44100000000003,2.472 L15.731,2.472 L15.731,9.128 L8.44100000000003,9.128 L8.44100000000003,2.472 L8.44100000000003,2.472 ZM21.6389999999999,27.513 L6.29299999999989,27.513 L6.29299999999989,25.146 L21.6389999999999,25.146 L21.6389999999999,27.513 ZM21.6389999999999,23.667 L6.29299999999989,23.667 L6.29299999999989,21.375 L21.6389999999999,21.375 L21.6389999999999,23.667 ZM21.6389999999999,19.896 L6.29299999999989,19.896 L6.29299999999989,17.529 L21.6389999999999,17.529 L21.6389999999999,19.896 ZM26.4590000000001,27.513 L23.173,27.513 L23.173,16.752 C23.173,16.344 22.8679999999999,16.05 22.444,16.05 L5.56400000000008,16.05 C5.14100000000008,16.05 4.75900000000001,16.344 4.75900000000001,16.752 L4.75900000000001,27.513 L1.62599999999998,27.513 C1.59699999999998,27.513 1.53600000000006,27.454 1.53600000000006,27.427 L1.53600000000006,2.484 C1.53600000000006,2.457 1.59699999999998,2.472 1.62599999999998,2.472 L6.90699999999993,2.472 L6.90699999999993,9.83 C6.90699999999993,10.239 7.28899999999999,10.607 7.71299999999997,10.607 L19.605,10.607 C20.029,10.607 20.3340000000001,10.239 20.3340000000001,9.83 L20.3340000000001,2.472 L20.848,2.472 L26.472,7.864 L26.472,27.427 C26.472,27.454 26.4880000000001,27.513 26.4590000000001,27.513 Z "/></svg>