<?xml version="1.0" encoding="utf-8"?>
<!-- Generator: Adobe Illustrator 21.0.0, SVG Export Plug-In . SVG Version: 6.00 Build 0)  -->
<svg version="1.1" id="Слой_1" xmlns="http://www.w3.org/2000/svg" xmlns:xlink="http://www.w3.org/1999/xlink" x="0px" y="0px"
	 viewBox="0 0 24 12" style="enable-background:new 0 0 24 12;" xml:space="preserve">
<title>Shape</title>
<desc>Created with Sketch.</desc>
<g>
	<path d="M23.9,5.7C21.6,2.2,17.1,0,12,0C6.9,0,2.4,2.2,0.1,5.7C0,5.9,0,6.1,0.1,6.3C2.4,9.8,6.9,12,12,12c5.1,0,9.6-2.2,11.9-5.7
		C24,6.1,24,5.9,23.9,5.7z M12,1.1c4.5,0,8.6,1.9,10.8,4.9c-2.1,3-6.2,4.9-10.8,4.9C7.5,10.9,3.4,9,1.2,6C3.4,3,7.5,1.1,12,1.1z"/>
	<path d="M12,9.9c2.2,0,4-1.8,4-3.9c0-2.2-1.8-3.9-4-3.9S8,3.8,8,6C8,8.2,9.8,9.9,12,9.9z M12,3.2c1.6,0,2.9,1.3,2.9,2.8
		c0,1.6-1.3,2.8-2.9,2.8c-1.6,0-2.9-1.3-2.9-2.8C9.1,4.4,10.4,3.2,12,3.2z"/>
</g>
</svg>
