<?xml version="1.0" encoding="utf-8"?>
<!-- Generator: Adobe Illustrator 21.0.0, SVG Export Plug-In . SVG Version: 6.00 Build 0)  -->
<svg version="1.1" id="Слой_1" xmlns="http://www.w3.org/2000/svg" xmlns:xlink="http://www.w3.org/1999/xlink" x="0px" y="0px"
	 viewBox="0 0 24 24" style="enable-background:new 0 0 24 24;" xml:space="preserve">
<style type="text/css">
	.st0{fill:#43576D;}
</style>
<g>
	<polygon class="st0" points="1.5,22.5 1.5,0 0,0 0,24 24,24 24,22.5 	"/>
	<rect x="7.1" y="19.7" class="st0" width="1" height="1.4"/>
	<rect x="7.1" y="9.9" class="st0" width="1" height="2"/>
	<polygon class="st0" points="8.1,6.7 7.1,6.7 7.1,7.6 6.2,7.6 6.2,8.6 8.1,8.6 	"/>
	<polygon class="st0" points="7.1,18.4 8.1,18.4 8.1,16.5 6.2,16.5 6.2,17.4 7.1,17.4 	"/>
	<rect x="7.1" y="3.4" class="st0" width="1" height="2"/>
	<rect x="7.1" y="13.1" class="st0" width="1" height="2"/>
	<rect x="15.7" y="3.4" class="st0" width="1" height="2"/>
	<rect x="15.7" y="19.7" class="st0" width="1" height="1.4"/>
	<rect x="15.7" y="9.9" class="st0" width="1" height="2"/>
	<polygon class="st0" points="17.9,7.6 16.7,7.6 16.7,6.7 15.7,6.7 15.7,8.6 17.9,8.6 	"/>
	<polygon class="st0" points="16.7,17.4 17.9,17.4 17.9,16.5 15.7,16.5 15.7,18.4 16.7,18.4 	"/>
	<rect x="15.7" y="13.1" class="st0" width="1" height="2"/>
	<rect x="9.4" y="7.6" class="st0" width="2" height="1"/>
	<rect x="2.9" y="7.6" class="st0" width="2" height="1"/>
	<rect x="19.2" y="7.6" class="st0" width="1.7" height="1"/>
	<rect x="12.6" y="7.6" class="st0" width="2" height="1"/>
	<rect x="19.2" y="16.5" class="st0" width="1.7" height="1"/>
	<rect x="2.9" y="16.5" class="st0" width="2" height="1"/>
	<rect x="12.6" y="16.5" class="st0" width="2" height="1"/>
	<rect x="9.4" y="16.5" class="st0" width="2" height="1"/>
</g>
</svg>
