<?xml version="1.0" encoding="utf-8"?>
<!-- Generator: Adobe Illustrator 21.0.0, SVG Export Plug-In . SVG Version: 6.00 Build 0)  -->
<svg version="1.1"
	 id="Слой_1" xmlns:cc="http://creativecommons.org/ns#" xmlns:dc="http://purl.org/dc/elements/1.1/" xmlns:inkscape="http://www.inkscape.org/namespaces/inkscape" xmlns:rdf="http://www.w3.org/1999/02/22-rdf-syntax-ns#" xmlns:sodipodi="http://sodipodi.sourceforge.net/DTD/sodipodi-0.dtd" xmlns:svg="http://www.w3.org/2000/svg"
	 xmlns="http://www.w3.org/2000/svg" xmlns:xlink="http://www.w3.org/1999/xlink" x="0px" y="0px" viewBox="0 0 100 100"
	 style="enable-background:new 0 0 100 100;" xml:space="preserve">
<g>
	<path d="M88.3,64.7c-3.8-3.8-9.4-5-15.1-3.3L63,51.2l27.3-27.8c0.6-0.6,0.6-1.5,0-2.3L77.9,9c-0.6-0.6-1.7-0.6-2.3,0l-9.9,10.1
		c-0.1,0.1-0.1,0.1-0.2,0.2c0,0.1-0.1,0.1-0.1,0.2L49,36.3l-9.8-9.8c1.7-5.6,0.4-11.2-3.3-15c-3.4-2.9-7.7-4.3-12-3.9
		c-1.4,0.1-2.8,0.4-4.4,1c-0.6,0.2-0.9,0.7-1,1.3c-0.1,0.5,0.1,1.1,0.5,1.3l6.7,6.6l-0.9,6.9l-6.9,0.8l-6.7-6.6
		c-0.3-0.3-0.9-0.6-1.4-0.5c-0.5,0.1-1,0.5-1.2,1c-2.1,5.9-0.9,12,3.1,16c3.8,3.7,9.4,5,15.1,3.4l10,10L15.5,70.4L9,91.7l21.1-6.9
		h0.2l20.8-21.3l10,10c-1.6,5.5-0.4,11.3,3.4,15c0.1,0.1,0.2,0.1,0.2,0.2l0.1,0.1c2.7,2.5,6.3,3.9,10.1,3.9c2,0,3.9-0.3,5.7-1
		c0.6-0.2,0.9-0.7,1-1.3c0.1-0.5-0.1-1.1-0.5-1.3l-6.8-6.6l0.9-6.9l6.9-0.8l6.7,6.6c0.3,0.3,0.9,0.6,1.4,0.5c0.5-0.1,1-0.5,1.2-1
		C93.6,74.8,92.4,68.7,88.3,64.7z M70.6,18.7l6.2-6.3l10.2,9.9l-6.2,6.3L70.6,18.7z M26.8,82.5l-12.9,4.3l3.9-13.1L26.8,82.5z
		 M19.5,70.8L68.5,21l10.1,9.8l-0.3,0.3c-0.1,0.1-0.2,0.2-0.3,0.5L29.7,80.7L19.5,70.8z M27.9,26.2l1.1-8.9c0-0.5-0.2-0.9-0.5-1.3
		l-5.2-5.2c4-0.6,7.6,0.4,10.1,2.9c3.2,3.1,4.1,8,2.4,12.6c-0.4,0.6-0.1,1.3,0.3,1.8l10.6,10.4l-7.7,7.8L28.4,35.9
		c-0.4-0.4-1.1-0.6-1.7-0.5c-4.6,1.7-9.6,0.8-12.7-2.3c-2.6-2.5-3.6-6.2-2.9-10.1l5.2,5.2c0.2,0.2,0.8,0.6,1.3,0.5l8.9-1.1
		C27.2,27.5,27.7,26.9,27.9,26.2z M72.5,73.6l-1.1,8.9c0,0.5,0.2,0.9,0.5,1.3l5.2,5.2c-4,0.6-7.6-0.4-10.1-2.9
		c-3.2-3.2-4.1-8-2.3-12.8c0.1-0.5,0-1.2-0.5-1.6L53.4,61.2l7.7-7.8L71.8,64c0.4,0.4,1.1,0.6,1.7,0.5c4.7-1.6,9.7-0.7,12.7,2.3
		c2.5,2.4,3.6,6.1,3,10l-5.2-5.2c-0.2-0.2-0.8-0.6-1.3-0.5l-8.9,1.1C73.2,72.3,72.6,72.9,72.5,73.6z"/>
</g>
</svg>
