<?xml version="1.0" encoding="utf-8"?>
<!-- Generator: Adobe Illustrator 21.1.0, SVG Export Plug-In . SVG Version: 6.00 Build 0)  -->
<svg version="1.1" id="Calque_1" xmlns="http://www.w3.org/2000/svg" xmlns:xlink="http://www.w3.org/1999/xlink" x="0px" y="0px"
	 width="100px" height="100px" viewBox="0 0 100 100" style="enable-background:new 0 0 100 100;" xml:space="preserve">
<title>header_fleche-haute</title>
<path id="select-haut" d="M16.3,62.1l30.5-30.5l0,0c1.7-1.7,4.4-1.7,6.1,0l0,0l30.5,30.5l0,0c1.8,1.6,2,4.3,0.5,6.1
	c-1.6,1.8-4.3,2-6.1,0.5c-0.2-0.1-0.3-0.3-0.5-0.5l0,0L49.9,40.8L22.5,68.2l0,0c-1.7,1.7-4.5,1.7-6.2,0
	C14.6,66.5,14.6,63.8,16.3,62.1z"/>
</svg>
