<?xml version="1.0" encoding="utf-8"?>
<!-- Generator: Adobe Illustrator 21.0.0, SVG Export Plug-In . SVG Version: 6.00 Build 0)  -->
<svg version="1.1" id="Слой_1" xmlns="http://www.w3.org/2000/svg" xmlns:xlink="http://www.w3.org/1999/xlink" x="0px" y="0px"
	 viewBox="0 0 100 100" style="enable-background:new 0 0 100 100;" xml:space="preserve">
<g>
	<path d="M62.7,7.5H37.3C30.9,7.5,26,12.4,26,18.8v62.4c0,6.2,5.1,11.3,11.3,11.3h25.5c6.3,0,11.3-4.9,11.3-11.3V18.8
		C74,12.6,68.9,7.5,62.7,7.5z M37.3,10.5h25.5c4,0,7.4,2.9,8.2,6.8H29.1C29.8,13.4,33.2,10.5,37.3,10.5z M71.1,20.2v50.9H28.9V20.2
		H71.1z M71.1,77.7v3.5c0,4.7-3.7,8.3-8.4,8.3H37.3c-4.6,0-8.3-3.7-8.3-8.3v-3.5c0-0.9-0.1-1.9-0.1-2.8h0v-0.1v-0.6h42.2v0.7
		C71.1,75.8,71.1,76.7,71.1,77.7z"/>
	<path d="M50,77.3c-2.6,0-4.8,2.2-4.8,4.7c0,2.6,2.2,4.7,4.8,4.7s4.8-2.2,4.8-4.7C54.8,79.4,52.6,77.3,50,77.3z M50,84
		c-1,0-1.9-0.9-1.9-1.9s0.9-2,1.9-2s1.9,0.9,1.9,1.9S51,84,50,84z"/>
</g>
</svg>
