<?xml version="1.0" encoding="utf-8"?>
<!-- Generator: Adobe Illustrator 21.0.0, SVG Export Plug-In . SVG Version: 6.00 Build 0)  -->
<svg version="1.1" id="Слой_1" xmlns="http://www.w3.org/2000/svg" xmlns:xlink="http://www.w3.org/1999/xlink" x="0px" y="0px"
	 viewBox="0 0 24 24" style="enable-background:new 0 0 24 24;" xml:space="preserve">
<title>Path_51</title>
<desc>Created with Sketch.</desc>
<g id="Header_x2F_ic_x5F_mobile" transform="translate(-13.000000, -8.000000)">
	<g id="Preview">
		<path id="Path_51" d="M30.4,8H19.6C18.7,8,18,8.7,18,9.6v20.8c0,0.9,0.7,1.6,1.6,1.6h10.7c0.9,0,1.6-0.7,1.6-1.6V9.6
			C32,8.7,31.3,8,30.4,8z M23.3,9.2h3.4c0.1,0,0.2,0.1,0.2,0.2s-0.1,0.2-0.2,0.2h-3.4c-0.1,0-0.2-0.1-0.2-0.2S23.2,9.2,23.3,9.2z
			 M25,31.2c-0.3,0-0.6-0.2-0.8-0.5c-0.1-0.3-0.1-0.7,0.2-0.9c0.2-0.2,0.6-0.3,0.9-0.2c0.3,0.1,0.5,0.4,0.5,0.7
			c0,0.2-0.1,0.4-0.2,0.6S25.2,31.2,25,31.2z M30.9,29H19.1V10.6h11.7V29z"/>
	</g>
</g>
</svg>
