<?xml version="1.0" encoding="utf-8"?>
<!-- Generator: Adobe Illustrator 21.0.0, SVG Export Plug-In . SVG Version: 6.00 Build 0)  -->
<svg version="1.1" id="Слой_1" xmlns="http://www.w3.org/2000/svg" xmlns:xlink="http://www.w3.org/1999/xlink" x="0px" y="0px"
	 viewBox="0 0 20 20" style="enable-background:new 0 0 20 20;" xml:space="preserve">
<title>image-archive</title>
<desc>Created with Sketch.</desc>
<g>
	<path d="M18.1,0H1.9C0.9,0,0,0.9,0,1.9v16.2C0,19.1,0.9,20,1.9,20h16.2c1.1,0,1.9-0.9,1.9-1.9V1.9C20,0.9,19.1,0,18.1,0z
		 M17.8,12.2c-0.1-0.2-1.4-1.4-3.9-3.6c-2,2.4-3,3.6-3,3.6C10.8,11.9,9.3,9.8,6.5,6c-2.7,3.8-4.1,5.8-4.3,6.2V2.2h15.7V12.2z"/>
	<circle cx="14.4" cy="5" r="1.4"/>
</g>
</svg>
