<?xml version="1.0" encoding="utf-8"?>
<!-- Generator: Adobe Illustrator 21.0.0, SVG Export Plug-In . SVG Version: 6.00 Build 0)  -->
<svg version="1.1" id="Слой_1" xmlns="http://www.w3.org/2000/svg" xmlns:xlink="http://www.w3.org/1999/xlink" x="0px" y="0px"
	 viewBox="0 0 24 24" style="enable-background:new 0 0 24 24;" xml:space="preserve">
<g>
	<path d="M2.8,18.6H2.1V4h0.7C3.5,4,4,3.5,4,2.8V2.4h13.9v0.4c0,0.7,0.5,1.2,1.2,1.2h0.6v5.6h1V4h0c0.7,0,1.2-0.5,1.2-1.2V1.2
		c0-0.7-0.5-1.2-1.2-1.2h-1.6c-0.7,0-1.2,0.5-1.2,1.2v0.3H4V1.2C4,0.5,3.5,0,2.8,0H1.2C0.5,0,0,0.5,0,1.2v1.6C0,3.5,0.5,4,1.2,4
		v14.6c-0.6,0-1.2,0.5-1.2,1.2v1.6c0,0.7,0.5,1.2,1.2,1.2h1.6c0.7,0,1.2-0.5,1.2-1.2v-0.7h7v-1H4C3.9,19.1,3.4,18.6,2.8,18.6z
		 M18.9,1.2C18.9,1.1,19,1,19.1,1h1.6c0.1,0,0.2,0.1,0.2,0.2v1.6C20.9,3,20.8,3,20.7,3h-1.6C19,3,18.9,3,18.9,2.8V1.2z M1,2.8V1.2
		C1,1.1,1.1,1,1.2,1h1.6C2.9,1,3,1.1,3,1.2v1.6C3,3,2.9,3,2.8,3H1.2C1.1,3,1,3,1,2.8z M3,21.5c0,0.1-0.1,0.2-0.2,0.2H1.2
		c-0.1,0-0.2-0.1-0.2-0.2v-1.6c0-0.1,0.1-0.2,0.2-0.2h1.6c0.1,0,0.2,0.1,0.2,0.2V21.5z"/>
	<path d="M17.5,13.2c-1.8,0-3.4,1.5-3.4,3.3c0,1.8,1.5,3.3,3.4,3.3c1.8,0,3.4-1.5,3.4-3.3C20.8,14.8,19.3,13.2,17.5,13.2z
		 M17.5,19.1c-1.4,0-2.5-1.1-2.5-2.5s1.1-2.5,2.5-2.5c1.4,0,2.5,1.1,2.5,2.5S18.8,19.1,17.5,19.1z"/>
	<path d="M23.8,18.1l-0.9-0.7c0-0.3,0.1-0.6,0.1-0.8c0-0.3,0-0.5-0.1-0.8l0.9-0.7c0.2-0.1,0.2-0.4,0.1-0.6L22.5,12
		c-0.1-0.2-0.3-0.3-0.5-0.2l-1,0.4c-0.4-0.3-0.9-0.6-1.4-0.8l-0.1-1.1c0-0.2-0.2-0.4-0.4-0.4c0,0,0,0,0,0H16c-0.1,0-0.3,0-0.4,0.4
		l-0.1,1.1c-0.5,0.2-1,0.5-1.4,0.8l-1-0.4c-0.2-0.1-0.4,0-0.5,0.2L11,14.6c-0.1,0.2,0,0.4,0.1,0.5l0.9,0.7c0,0.3-0.1,0.6-0.1,0.8
		c0,0.3,0,0.5,0.1,0.8l-0.9,0.7c-0.2,0.1-0.2,0.4-0.1,0.6l1.5,2.5c0.1,0.2,0.3,0.3,0.5,0.2l1-0.4c0.4,0.3,0.9,0.6,1.4,0.8l0.1,1.1
		c0,0.2,0.2,0.4,0.4,0.4c0,0,0,0,0,0h2.9c0.2,0,0.4-0.2,0.4-0.4l0.1-1.1c0.5-0.2,1-0.5,1.4-0.8l1,0.4c0.2,0.1,0.4,0,0.5-0.2l1.5-2.5
		C24.1,18.5,24,18.2,23.8,18.1z M21,20c-0.2-0.1-0.3,0-0.4,0.1c-0.5,0.4-1,0.7-1.6,0.9c-0.2,0.1-0.3,0.2-0.3,0.4l-0.1,1h-2.2l-0.1-1
		c0-0.2-0.1-0.3-0.3-0.4c-0.6-0.2-1.1-0.5-1.6-0.9C14.2,20,14.1,20,13.9,20L13,20.4l-1.1-1.9l0.8-0.6c0.1-0.1,0.2-0.3,0.2-0.4
		c-0.1-0.3-0.1-0.6-0.1-0.9c0-0.3,0-0.6,0.1-0.9c0-0.2,0-0.3-0.2-0.4l-0.8-0.6l1.1-1.9l0.9,0.4c0.1,0.1,0.3,0,0.4-0.1
		c0.5-0.4,1-0.7,1.6-0.9c0.2,0,0.3-0.2,0.3-0.3l0.1-1h2.2l0.1,1c0,0.2,0.1,0.3,0.3,0.3c0.6,0.2,1.1,0.5,1.6,0.9
		c0.1,0.1,0.3,0.1,0.4,0.1l0.9-0.4l1.1,1.9l-0.8,0.6c-0.1,0.1-0.2,0.3-0.2,0.4c0.1,0.3,0.1,0.6,0.1,0.9c0,0.3,0,0.6-0.1,0.9
		c0,0.2,0,0.3,0.2,0.4l0.8,0.6l-1.1,1.9L21,20z"/>
</g>
</svg>
