<?xml version="1.0" encoding="utf-8"?>
<!-- Generator: Adobe Illustrator 21.0.0, SVG Export Plug-In . SVG Version: 6.00 Build 0)  -->
<svg version="1.1" id="Слой_1" xmlns="http://www.w3.org/2000/svg" xmlns:xlink="http://www.w3.org/1999/xlink" x="0px" y="0px"
	 viewBox="0 0 100 100" style="enable-background:new 0 0 100 100;" xml:space="preserve">
<style type="text/css">
	.icon-fill-inverse{fill:#cfdbe0;}
</style>
<path class="icon-fill-inverse" d="M76.3,70.4c-0.3,0-0.6-0.2-0.8-0.4L58.8,50.7c-0.4-0.4-0.4-1,0-1.4l16.7-19.4c0.3-0.3,0.8-0.5,1.2-0.3
	c0.4,0.1,0.7,0.6,0.7,1v38.8c0,0.4-0.3,0.8-0.7,1C76.6,70.4,76.5,70.4,76.3,70.4z"/>
<path d="M24.5,29.8c-0.3-0.3-0.8-0.5-1.2-0.3c-0.4,0.2-0.7,0.6-0.7,1v38.8c0,0.5,0.3,0.9,0.7,1c0.1,0,0.3,0.1,0.4,0.1
	c0.3,0,0.6-0.1,0.8-0.4l16.7-19.4c0.4-0.4,0.4-1,0-1.4L24.5,29.8z M24.8,66.3V33.5L39,49.9L24.8,66.3z"/>
<g>
	<g>
		<path d="M48.8,26.9v-5c0-0.7,0.6-1.2,1.2-1.2s1.2,0.6,1.2,1.2v5c0,0.7-0.6,1.2-1.2,1.2S48.8,27.6,48.8,26.9z"/>
	</g>
	<g>
		<path d="M48.8,63.7v-9.2c0-0.7,0.6-1.2,1.2-1.2c0.6,0,1.2,0.6,1.2,1.2v9.2c0,0.7-0.6,1.2-1.2,1.2S48.8,64.4,48.8,63.7z M48.8,45.3
			v-9.2c0-0.7,0.6-1.2,1.2-1.2c0.6,0,1.2,0.6,1.2,1.2v9.2c0,0.7-0.6,1.2-1.2,1.2C49.4,46.5,48.8,46,48.8,45.3z"/>
	</g>
	<g>
		<path d="M48.8,78v-5c0-0.7,0.6-1.2,1.2-1.2s1.2,0.6,1.2,1.2v5c0,0.7-0.6,1.2-1.2,1.2S48.8,78.7,48.8,78z"/>
	</g>
</g>
</svg>
