<svg xmlns="http://www.w3.org/2000/svg" width="27" height="15" viewBox="0 0 27 15">
  <metadata><?xpacket begin="﻿" id="W5M0MpCehiHzreSzNTczkc9d"?>
<x:xmpmeta xmlns:x="adobe:ns:meta/" x:xmptk="Adobe XMP Core 5.6-c138 79.159824, 2016/09/14-01:09:01        ">
   <rdf:RDF xmlns:rdf="http://www.w3.org/1999/02/22-rdf-syntax-ns#">
      <rdf:Description rdf:about=""/>
   </rdf:RDF>
</x:xmpmeta>
                                                                                                    
                                                                                                    
                                                                                                    
                                                                                                    
                                                                                                    
                                                                                                    
                                                                                                    
                                                                                                    
                                                                                                    
                                                                                                    
                                                                                                    
                                                                                                    
                                                                                                    
                                                                                                    
                                                                                                    
                                                                                                    
                                                                                                    
                                                                                                    
                                                                                                    
                                                                                                    
                           
<?xpacket end="w"?></metadata>
<defs>
    <style>
      .cls-1 {
        fill: #fff;
        fill-rule: evenodd;
      }
    </style>
  </defs>
  <path id="Rectangle_arrondi_1" data-name="Rectangle arrondi 1" class="cls-1" d="M1.589,10.5h9.089A0.943,0.943,0,0,0,11.6,9.539V4.683a0.943,0.943,0,0,0-.922-0.961H1.589a0.943,0.943,0,0,0-.922.961V9.539A0.943,0.943,0,0,0,1.589,10.5Zm23.756-7H16.256a0.943,0.943,0,0,0-.922.961V9.984a0.943,0.943,0,0,0,.922.961h9.089a0.943,0.943,0,0,0,.922-0.961V4.461A0.943,0.943,0,0,0,25.345,3.5Zm0.389,6.484a0.4,0.4,0,0,1-.389.405H16.256a0.4,0.4,0,0,1-.389-0.405V4.461a0.4,0.4,0,0,1,.389-0.4h9.089a0.4,0.4,0,0,1,.389.4V9.984h0ZM13.6,0.333a0.272,0.272,0,0,0-.267.278V14.722a0.267,0.267,0,1,0,.533,0V0.611A0.272,0.272,0,0,0,13.6.333ZM1.589,10.5h9.089A0.943,0.943,0,0,0,11.6,9.539V4.683a0.943,0.943,0,0,0-.922-0.961H1.589a0.943,0.943,0,0,0-.922.961V9.539A0.943,0.943,0,0,0,1.589,10.5Zm0,0h9.089A0.943,0.943,0,0,0,11.6,9.539V4.683a0.943,0.943,0,0,0-.922-0.961H1.589a0.943,0.943,0,0,0-.922.961V9.539A0.943,0.943,0,0,0,1.589,10.5ZM13.6,0.333a0.272,0.272,0,0,0-.267.278V14.722a0.267,0.267,0,1,0,.533,0V0.611A0.272,0.272,0,0,0,13.6.333Z"/>
</svg>
