<?xml version="1.0" encoding="UTF-8" standalone="no"?>
<svg
   xmlns:dc="http://purl.org/dc/elements/1.1/"
   xmlns:cc="http://creativecommons.org/ns#"
   xmlns:rdf="http://www.w3.org/1999/02/22-rdf-syntax-ns#"
   xmlns:svg="http://www.w3.org/2000/svg"
   xmlns="http://www.w3.org/2000/svg"
   xmlns:sodipodi="http://sodipodi.sourceforge.net/DTD/sodipodi-0.dtd"
   xmlns:inkscape="http://www.inkscape.org/namespaces/inkscape"
   width="100px"
   height="100px"
   viewBox="0 0 100 100"
   version="1.1"
   id="svg11"
   sodipodi:docname="icons_svg_text_g_1_contact_us.svg"
   inkscape:version="0.92.1 r15371">
  <metadata
     id="metadata15">
    <rdf:RDF>
      <cc:Work
         rdf:about="">
        <dc:format>image/svg+xml</dc:format>
        <dc:type
           rdf:resource="http://purl.org/dc/dcmitype/StillImage" />
        <dc:title>Artboard Copy 70</dc:title>
      </cc:Work>
    </rdf:RDF>
  </metadata>
  <sodipodi:namedview
     pagecolor="#ffffff"
     bordercolor="#666666"
     borderopacity="1"
     objecttolerance="10"
     gridtolerance="10"
     guidetolerance="10"
     inkscape:pageopacity="0"
     inkscape:pageshadow="2"
     inkscape:window-width="1920"
     inkscape:window-height="1017"
     id="namedview13"
     showgrid="false"
     inkscape:zoom="2.36"
     inkscape:cx="50"
     inkscape:cy="50"
     inkscape:window-x="-8"
     inkscape:window-y="-8"
     inkscape:window-maximized="1"
     inkscape:current-layer="svg11" />
  <!-- Generator: Sketch 48.2 (47327) - http://www.bohemiancoding.com/sketch -->
  <title
     id="title2">Artboard Copy 70</title>
  <desc
     id="desc4">Created with Sketch.</desc>
  <defs
     id="defs6" />
  
  <g
     id="Insert-Buttons"
     transform="matrix(7.1071429,0,0,7.1071429,-305.35717,-305.35715)"
     style="fill:none;fill-rule:evenodd;stroke:none;stroke-width:1">
    <g
       id="Artboard-Copy-70"
       style="fill:#27aea1;fill-rule:nonzero">
      <path 
         d="m 56.706066,53.637858 c -0.235287,-0.383952 -0.600465,-0.831136 -1.02945,-1.259521 -0.310487,-0.310466 -1.376398,-1.322754 -2.061749,-1.322754 -0.219905,0 -0.359481,0.09399 -0.43753,0.172037 l -0.912662,0.912028 c -0.01538,0.01538 -0.06438,0.03304 -0.15268,0.03304 -0.506464,0 -1.580351,-0.560547 -2.653098,-1.63265 -1.43052,-1.43099 -1.77462,-2.630697 -1.599721,-2.805583 l 0.911522,-0.912028 c 0.07862,-0.07861 0.172619,-0.21818 0.172619,-0.4375 5.7e-4,-0.685872 -1.012359,-1.751709 -1.322846,-2.062174 C 47.310553,44.012288 46.245212,43 45.558722,43 c -0.219335,0 -0.358912,0.09342 -0.43753,0.172038 l -1.824753,1.824625 c -0.538938,0.53833 -0.342391,1.591635 0.584513,3.13029 0.804418,1.335287 2.0777,2.900716 3.58399,4.406901 2.671899,2.671712 5.37741,4.466715 6.73216,4.466146 0.337263,0 0.607871,-0.100261 0.805557,-0.297933 l 1.824753,-1.824626 c 0.394803,-0.394775 0.0063,-1.030517 -0.121346,-1.239583 z m -2.322102,2.445557 c -0.02051,0.01994 -0.07976,0.04158 -0.186862,0.04158 -0.922347,0 -3.378328,-1.475423 -6.113464,-4.209798 -1.457865,-1.457764 -2.683863,-2.963379 -3.452959,-4.23999 -0.866516,-1.437826 -0.785049,-1.990398 -0.715545,-2.059896 l 1.717649,-1.71753 c 0.223893,0.08659 0.742891,0.416993 1.368992,1.04362 0.626102,0.626628 0.957098,1.14502 1.043693,1.368897 l -0.804988,0.805501 c -0.83917,0.839111 0.240984,2.683675 1.599721,4.042887 1.165609,1.165528 2.419521,1.888998 3.271794,1.888998 0.398221,0 0.639205,-0.157227 0.771376,-0.289388 l 0.805557,-0.804932 c 0.223893,0.08659 0.742321,0.417562 1.368992,1.04362 0.626102,0.626058 0.957098,1.145019 1.043693,1.368896 z"
         id="Shape"
         inkscape:connector-curvature="0" />
    </g>
  </g>
</svg>
