<svg version="1.1" xmlns="http://www.w3.org/2000/svg" xmlns:xlink="http://www.w3.org/1999/xlink" width="19" height="18" viewBox="0 0 19 18"><path id="instagram" d="M2.815,0.907 C2.815,0.907 15.834,0.907 15.834,0.907 C17.070,0.907 18.082,1.791 18.082,3.076 C18.082,3.076 18.082,15.634 18.082,15.634 C18.082,16.920 17.070,17.803 15.834,17.803 C15.834,17.803 2.815,17.803 2.815,17.803 C1.578,17.803 0.567,16.920 0.567,15.634 C0.567,15.634 0.567,3.076 0.567,3.076 C0.567,1.791 1.578,0.907 2.815,0.907 C2.815,0.907 2.815,0.907 2.815,0.907 zM13.326,2.785 C12.892,2.785 12.537,3.127 12.537,3.545 C12.537,3.545 12.537,5.366 12.537,5.366 C12.537,5.784 12.892,6.127 13.326,6.127 C13.326,6.127 15.305,6.127 15.305,6.127 C15.739,6.127 16.094,5.784 16.094,5.366 C16.094,5.366 16.094,3.545 16.094,3.545 C16.094,3.127 15.739,2.785 15.305,2.785 C15.305,2.785 13.326,2.785 13.326,2.785 C13.326,2.785 13.326,2.785 13.326,2.785 zM16.102,8.052 C16.102,8.052 14.560,8.052 14.560,8.052 C14.706,8.512 14.785,8.998 14.785,9.502 C14.785,12.312 12.348,14.590 9.341,14.590 C6.334,14.590 3.897,12.312 3.897,9.502 C3.897,8.998 3.976,8.512 4.122,8.052 C4.122,8.052 2.513,8.052 2.513,8.052 C2.513,8.052 2.513,15.189 2.513,15.189 C2.513,15.559 2.826,15.861 3.209,15.861 C3.209,15.861 15.406,15.861 15.406,15.861 C15.789,15.861 16.102,15.559 16.102,15.189 C16.102,15.189 16.102,8.052 16.102,8.052 L16.102,8.052 zM9.341,6.031 C7.398,6.031 5.823,7.503 5.823,9.319 C5.823,11.134 7.398,12.606 9.341,12.606 C11.283,12.606 12.859,11.134 12.859,9.319 C12.859,7.503 11.284,6.031 9.341,6.031 z" fill="#2B88D8" /></svg>