<svg version="1.1" xmlns="http://www.w3.org/2000/svg" xmlns:xlink="http://www.w3.org/1999/xlink" width="25" height="28" viewBox="0 0 25 28"><path id="professionnel" d="M24.975,13.129 C24.975,13.129 24.931,13.911 24.931,13.911 C24.931,13.911 23.859,13.659 23.859,13.659 C23.859,14.304 23.815,15.246 23.621,16.319 C23.410,17.481 23.066,18.559 22.598,19.523 C22.005,20.743 21.213,21.783 20.242,22.612 C20.242,22.612 19.605,23.156 19.605,23.156 C19.605,23.156 19.239,22.467 19.239,22.467 C18.926,22.911 18.500,23.470 17.973,24.068 C16.850,25.344 15.030,27.046 12.739,27.910 C12.739,27.910 12.500,28.000 12.500,28.000 C12.500,28.000 12.261,27.910 12.261,27.910 C9.969,27.046 8.149,25.344 7.026,24.068 C6.499,23.470 6.074,22.911 5.760,22.467 C5.760,22.467 5.395,23.156 5.395,23.156 C5.395,23.156 4.758,22.612 4.758,22.612 C3.787,21.783 2.994,20.743 2.402,19.523 C1.934,18.559 1.590,17.481 1.379,16.319 C1.185,15.246 1.140,14.304 1.141,13.659 C1.141,13.659 0.069,13.911 0.069,13.911 C0.069,13.911 0.025,13.129 0.025,13.129 C-0.096,10.957 0.224,9.019 0.975,7.369 C1.584,6.033 2.473,4.887 3.617,3.962 C4.429,3.306 5.252,2.858 5.940,2.557 C5.940,2.557 4.051,1.738 4.051,1.738 C4.051,1.738 5.113,1.085 5.113,1.085 C6.286,0.365 7.738,0.000 9.429,0.000 C10.858,0.000 12.048,0.265 12.500,0.382 C12.952,0.265 14.142,0.000 15.571,0.000 C17.263,0.000 18.714,0.365 19.887,1.085 C19.887,1.085 20.949,1.738 20.949,1.738 C20.949,1.738 19.061,2.557 19.061,2.557 C19.749,2.858 20.571,3.306 21.383,3.962 C22.527,4.887 23.416,6.033 24.025,7.369 C24.776,9.019 25.096,10.957 24.975,13.129 zM3.613,18.981 C3.992,19.758 4.463,20.448 5.018,21.040 C5.018,21.040 5.678,19.796 5.678,19.796 C5.678,19.796 6.281,20.847 6.281,20.847 C6.287,20.857 6.927,21.963 8.053,23.237 C9.032,24.346 10.585,25.807 12.500,26.597 C14.416,25.807 15.968,24.346 16.948,23.237 C18.073,21.963 18.714,20.857 18.720,20.847 C18.720,20.847 19.323,19.799 19.323,19.799 C19.323,19.799 19.983,21.041 19.983,21.041 C20.537,20.448 21.009,19.758 21.388,18.981 C21.642,18.462 21.854,17.902 22.026,17.310 C21.586,16.213 20.911,15.472 20.019,15.108 C19.630,14.950 19.281,14.899 19.058,14.884 C19.058,14.884 17.889,16.144 17.889,16.144 C18.103,16.706 18.239,17.328 18.206,17.972 C18.149,19.082 17.615,20.052 16.619,20.855 C16.619,20.855 16.324,21.092 16.324,21.092 C16.324,21.092 15.980,20.968 15.980,20.968 C15.968,21.486 15.826,22.045 15.346,22.367 C15.095,22.536 14.804,22.621 14.480,22.621 C14.144,22.621 13.813,22.529 13.493,22.440 C13.170,22.351 12.837,22.258 12.500,22.258 C12.164,22.258 11.830,22.351 11.508,22.440 C11.188,22.529 10.858,22.621 10.520,22.621 C10.197,22.621 9.906,22.536 9.655,22.367 C9.175,22.045 9.032,21.486 9.021,20.968 C9.021,20.968 8.677,21.092 8.677,21.092 C8.677,21.092 8.382,20.855 8.382,20.855 C7.386,20.052 6.852,19.082 6.795,17.972 C6.762,17.328 6.898,16.706 7.112,16.144 C7.112,16.144 5.941,14.882 5.941,14.882 C5.333,14.920 3.812,15.231 2.975,17.310 C3.146,17.902 3.359,18.462 3.613,18.981 zM9.258,14.098 C9.258,14.098 9.705,14.533 9.705,14.533 C9.688,14.550 8.034,16.213 8.124,17.911 C8.157,18.543 8.428,19.100 8.949,19.603 C8.949,19.603 9.267,19.489 9.267,19.489 C9.267,19.489 12.278,18.400 12.278,18.400 C12.223,17.972 12.099,17.448 11.820,17.254 C11.317,16.906 10.460,16.355 11.820,16.268 C11.820,16.268 12.145,16.442 12.500,16.442 C12.855,16.442 13.180,16.268 13.180,16.268 C14.540,16.355 13.683,16.906 13.180,17.254 C12.901,17.448 12.777,17.972 12.722,18.400 C12.722,18.400 15.734,19.489 15.734,19.489 C15.734,19.489 16.051,19.603 16.051,19.603 C16.573,19.099 16.845,18.541 16.877,17.907 C16.921,17.035 16.495,16.169 16.129,15.597 C15.724,14.962 15.301,14.538 15.297,14.534 C15.297,14.534 16.240,13.613 16.240,13.613 C16.281,13.654 16.770,14.142 17.250,14.893 C17.250,14.893 19.526,12.440 19.526,12.440 C19.470,11.655 19.157,9.161 17.428,7.780 C16.269,6.854 14.654,6.585 12.630,6.979 C12.630,6.979 12.500,7.004 12.500,7.004 C12.500,7.004 12.371,6.979 12.371,6.979 C10.346,6.585 8.731,6.854 7.572,7.780 C5.844,9.161 5.531,11.654 5.475,12.440 C5.475,12.440 7.751,14.893 7.751,14.893 C8.231,14.142 8.720,13.654 8.761,13.613 C8.761,13.613 9.258,14.098 9.258,14.098 zM10.414,21.296 C10.430,21.306 10.457,21.317 10.520,21.317 C10.672,21.317 10.902,21.253 11.145,21.185 C11.516,21.082 11.978,20.953 12.500,20.953 C13.022,20.953 13.484,21.082 13.855,21.185 C14.098,21.253 14.328,21.317 14.480,21.317 C14.544,21.317 14.570,21.306 14.586,21.296 C14.661,21.192 14.666,20.828 14.610,20.473 C14.610,20.473 12.500,19.710 12.500,19.710 C12.500,19.710 10.390,20.473 10.390,20.473 C10.330,20.847 10.344,21.199 10.414,21.296 zM1.331,12.272 C1.331,12.272 2.593,11.975 2.593,11.975 C2.593,11.975 2.501,12.888 2.501,12.888 C2.500,12.899 2.402,13.936 2.577,15.353 C3.196,14.566 3.899,14.137 4.472,13.903 C4.617,13.844 4.759,13.795 4.895,13.755 C4.895,13.755 4.131,12.931 4.131,12.931 C4.131,12.931 4.132,12.676 4.132,12.676 C4.132,12.610 4.141,11.915 4.341,10.980 C4.275,10.857 4.063,10.505 3.650,10.193 C3.106,9.783 2.423,9.590 1.614,9.618 C1.424,10.440 1.329,11.327 1.331,12.272 zM4.771,4.733 C4.653,4.819 4.536,4.910 4.418,5.006 C3.446,5.803 2.691,6.788 2.174,7.936 C2.118,8.061 2.065,8.188 2.015,8.317 C3.197,8.373 4.015,8.805 4.531,9.212 C4.630,9.291 4.721,9.370 4.805,9.450 C5.187,8.506 5.786,7.526 6.725,6.773 C6.753,6.752 6.780,6.731 6.808,6.709 C6.761,6.531 6.680,6.308 6.544,6.075 C6.185,5.461 5.590,5.011 4.771,4.733 zM17.915,1.627 C17.219,1.413 16.436,1.305 15.571,1.305 C13.987,1.305 12.706,1.679 12.693,1.683 C12.693,1.683 12.500,1.740 12.500,1.740 C12.500,1.740 12.306,1.683 12.306,1.683 C12.294,1.679 11.013,1.305 9.429,1.305 C8.565,1.305 7.781,1.413 7.085,1.627 C7.085,1.627 10.001,2.892 10.001,2.892 C10.001,2.892 7.891,3.279 7.891,3.279 C7.881,3.281 7.123,3.429 6.132,3.913 C6.976,4.392 7.464,5.001 7.742,5.504 C7.841,5.682 7.918,5.855 7.980,6.017 C9.237,5.469 10.751,5.353 12.500,5.675 C14.249,5.353 15.763,5.469 17.020,6.017 C17.081,5.855 17.159,5.682 17.258,5.504 C17.536,5.001 18.025,4.391 18.870,3.911 C17.875,3.425 17.120,3.281 17.108,3.279 C17.108,3.279 14.999,2.892 14.999,2.892 C14.999,2.892 17.915,1.627 17.915,1.627 zM22.810,7.902 C22.287,6.751 21.522,5.765 20.537,4.970 C20.435,4.887 20.332,4.808 20.230,4.733 C18.786,5.227 18.332,6.170 18.189,6.707 C18.218,6.729 18.247,6.751 18.275,6.774 C19.214,7.526 19.813,8.506 20.195,9.450 C20.279,9.371 20.370,9.291 20.469,9.212 C20.985,8.805 21.804,8.373 22.986,8.317 C22.931,8.176 22.872,8.038 22.810,7.902 zM23.387,9.619 C21.490,9.560 20.782,10.742 20.660,10.979 C20.860,11.915 20.869,12.610 20.869,12.676 C20.869,12.676 20.870,12.931 20.870,12.931 C20.870,12.931 20.106,13.755 20.106,13.755 C20.242,13.795 20.384,13.844 20.529,13.903 C21.101,14.137 21.805,14.566 22.423,15.353 C22.598,13.936 22.501,12.899 22.499,12.887 C22.499,12.887 22.410,11.976 22.410,11.976 C22.410,11.976 23.670,12.272 23.670,12.272 C23.672,11.328 23.577,10.441 23.387,9.619 zM8.267,12.092 C8.296,11.855 8.446,11.655 8.666,11.523 C8.072,10.953 7.781,10.681 7.781,10.681 C7.781,10.681 9.699,10.681 9.699,10.681 C10.403,10.681 10.974,11.241 10.974,11.932 C10.974,11.932 10.974,13.766 10.974,13.766 C10.660,13.458 10.371,13.175 10.104,12.915 C9.882,13.054 9.586,13.122 9.272,13.085 C8.659,13.012 8.208,12.568 8.267,12.092 zM15.301,10.681 C15.301,10.681 17.219,10.681 17.219,10.681 C17.219,10.681 16.928,10.953 16.335,11.523 C16.554,11.655 16.704,11.855 16.733,12.092 C16.792,12.568 16.341,13.012 15.728,13.085 C15.414,13.122 15.118,13.054 14.896,12.915 C14.629,13.175 14.340,13.458 14.026,13.766 C14.026,13.766 14.026,11.932 14.026,11.932 C14.026,11.241 14.597,10.681 15.301,10.681 z" fill="#FFFFFF" opacity="0.502" /></svg>