<?xml version="1.0" encoding="utf-8"?>
<!-- Generator: Adobe Illustrator 21.0.0, SVG Export Plug-In . SVG Version: 6.00 Build 0)  -->
<svg version="1.1" id="Слой_1" xmlns="http://www.w3.org/2000/svg" xmlns:xlink="http://www.w3.org/1999/xlink" x="0px" y="0px"
	 viewBox="0 0 16 16" style="enable-background:new 0 0 16 16;" xml:space="preserve">
<title>Group 2</title>
<desc>Created with Sketch.</desc>
<g>
	<path d="M15.5,2.8l-2.3-2.3c-0.6-0.6-1.6-0.6-2.3,0l-9,9c-0.4,0.2-0.6,0.5-0.8,1L0,16l3.4-0.8l2-0.5c0.2,0,0.4-0.2,0.5-0.3l0,0
		l0.1-0.1c0,0,0,0,0.1-0.1L15.5,5C16.1,4.4,16.1,3.4,15.5,2.8z M5.3,13.1c0,0.1-0.1,0.2-0.2,0.2l-2,0.5L2.7,14L2,13.3l0.5-2.6
		c0-0.1,0.1-0.2,0.2-0.2l0.1,0L5.3,13.1L5.3,13.1z M14.5,4l-8.2,8.1L3.7,9.4l8.1-8c0.1-0.1,0.3-0.1,0.4,0l2.3,2.3
		C14.6,3.8,14.6,3.9,14.5,4z"/>
</g>
</svg>
