<?xml version="1.0" encoding="UTF-8"?>
<svg width="13px" height="13px" viewBox="0 0 13 13" version="1.1" xmlns="http://www.w3.org/2000/svg" xmlns:xlink="http://www.w3.org/1999/xlink">
    <!-- Generator: Sketch 50.2 (55047) - http://www.bohemiancoding.com/sketch -->
    <title>Shape</title>
    <desc>Created with Sketch.</desc>
    <defs></defs>
    <g id="Pages-(general-functions)" stroke="none" stroke-width="1" fill="none" fill-rule="evenodd">
        <g id="Pages_structure-ver-1.2" transform="translate(-1215.000000, -68.000000)" fill="#F7F7F9" fill-rule="nonzero">
            <g id="Panel" transform="translate(954.000000, 53.000000)">
                <g id="Tab-2" transform="translate(213.000000, 0.000000)">
                    <g id="ic_insert_drive_file_black_24px" transform="translate(48.000000, 15.000000)">
                        <path d="M6.5,13 C10.0898509,13 13,10.0898509 13,6.5 C13,2.91014913 10.0898509,0 6.5,0 C2.91014913,0 0,2.91014913 0,6.5 C0,10.0898509 2.91014913,13 6.5,13 Z M7.2898038,4.57308261 C7.26169745,4.58987484 7.23967599,4.60211495 7.2184272,4.61577128 C6.49567879,5.08453737 5.77331672,5.5539104 5.04969904,6.02105796 C4.99725317,6.05494588 4.97754976,6.08266317 4.99348634,6.15225986 C5.0440005,6.37187384 5.04535269,6.59432024 5.00073025,6.81636201 C4.99242391,6.85773563 4.97812927,6.8960745 5.02941611,6.92935548 C5.78529331,7.41987053 6.53981831,7.91291453 7.30187697,8.41010601 C7.32061454,8.38886284 7.338676,8.36761966 7.35751015,8.34718575 C7.78934339,7.87841966 8.31090446,7.70918236 8.90760895,7.8915702 C9.50093295,8.07294646 9.86167935,8.50661073 9.97487741,9.14208517 C10.1283516,10.0036477 9.56197491,10.8280853 8.73124404,10.9775967 C7.91364878,11.1247816 7.11768865,10.5305796 6.99009936,9.66992752 C6.96846423,9.52375423 6.97821936,9.37181495 6.9818896,9.22270808 C6.9832418,9.16868972 6.97319692,9.13834232 6.92857447,9.10930998 C6.17540166,8.61980651 5.4226152,8.12949377 4.67195361,7.63553935 C4.60955945,7.59446921 4.58531652,7.62714324 4.54629603,7.66305432 C4.1004579,8.07345225 3.58894172,8.19959625 3.0274909,7.99849419 C2.46613666,7.79739212 2.12808782,7.36999965 2.02329268,6.75941007 C1.90912876,6.09459981 2.22274149,5.43424051 2.78602744,5.10891644 C3.34602949,4.78551437 4.0364218,4.86411412 4.51886578,5.31325556 C4.58241896,5.37233182 4.62085994,5.36939824 4.68798678,5.32549568 C5.42821715,4.84165705 6.17018605,4.36085317 6.91331398,3.88187012 C6.96991301,3.84535209 6.98498033,3.81085722 6.97638423,3.74146284 C6.90249642,3.1471597 7.21485354,2.51866516 7.73264777,2.20982984 C8.2650264,1.89219378 8.93416993,1.93589403 9.41014269,2.336075 C9.88360423,2.73423282 10.0815077,3.2593439 9.96715058,3.88429791 C9.8500891,4.52391983 9.47369587,4.94918799 8.87390065,5.11832413 C8.28057665,5.28563943 7.76635607,5.10760139 7.34553356,4.63782372 C7.32834137,4.61870486 7.31192185,4.5988779 7.2898038,4.57308261 Z M8.48118448,2.79604035 C8.08093466,2.77156012 7.71951216,3.18276731 7.72009167,3.58871429 C7.72067119,3.99567285 8.07707125,4.38654729 8.48060497,4.3879635 C8.88703626,4.38937972 9.24700998,3.99668443 9.24585095,3.58497145 C9.24469193,3.18337426 8.88539431,2.76984043 8.48118448,2.79604035 Z M3.51737195,5.70716474 C3.11461091,5.68035788 2.75376792,6.09470097 2.75357475,6.49670279 C2.75338158,6.9112482 3.11499725,7.29635664 3.51128707,7.2990879 C3.91781495,7.30192032 4.2788511,6.9100343 4.27923745,6.49862479 C4.27972037,6.09207086 3.91540031,5.68066135 3.51737195,5.70716474 Z M9.24044217,9.40873761 C9.26516803,9.00076747 8.87921284,8.61201735 8.48321278,8.61201735 C8.08508783,8.61191619 7.72009167,9.00228484 7.71999509,9.40813066 C7.7198985,9.82146217 8.08286637,10.211932 8.48688302,10.21001 C8.88085479,10.2081891 9.26410559,9.82449691 9.24044217,9.40873761 Z" id="Shape"></path>
                    </g>
                </g>
            </g>
        </g>
    </g>
</svg>