<?xml version="1.0" encoding="utf-8"?>
<!-- Generator: Adobe Illustrator 21.0.0, SVG Export Plug-In . SVG Version: 6.00 Build 0)  -->
<svg version="1.1" id="Слой_1" xmlns="http://www.w3.org/2000/svg" xmlns:xlink="http://www.w3.org/1999/xlink" x="0px" y="0px"
	 viewBox="0 0 16 16" style="enable-background:new 0 0 16 16;" xml:space="preserve">
<style type="text/css">
	.st0{fill:#89929E;}
</style>
<g>
	<path class="st0" d="M13.2,2.3C11.7,0.8,9.7,0,7.6,0c-2.7,0-4.3,0.7-6,2.6l0-2L1.4,0.5H0.6L0.5,0.6L0.4,4.5C0.4,4.7,0.6,5,0.8,5
		c0.1,0,0.2,0,0.3,0l3.9-0.8l0.1-0.2v-1L5,2.9L2.5,3.5C3.8,2,5.6,1.2,7.6,1.2c3.8,0,6.8,3.1,6.8,6.8s-3.1,6.8-6.8,6.8
		c-2.5,0-4.8-1.4-6-3.6C1.4,10.9,1,10.8,0.7,11c-0.1,0.1-0.2,0.2-0.3,0.3c0,0.2,0,0.3,0,0.4C1.9,14.4,4.6,16,7.6,16
		c2.1,0,4.1-0.8,5.7-2.3c1.5-1.5,2.4-3.5,2.4-5.7C15.6,5.9,14.7,3.9,13.2,2.3z M15.4,8c0,0.5,0,0.9-0.1,1.3
		C15.3,8.9,15.4,8.5,15.4,8c0-0.4,0-0.9-0.1-1.3C15.3,7.1,15.4,7.6,15.4,8z M7.6,0.2C7.6,0.2,7.6,0.2,7.6,0.2
		C7.6,0.2,7.6,0.2,7.6,0.2C7.6,0.2,7.6,0.2,7.6,0.2z M3.6,1.1C3.1,1.4,2.6,1.8,2.1,2.3C2.6,1.8,3.1,1.4,3.6,1.1z M6.6,0.2
		C6.6,0.2,6.6,0.2,6.6,0.2C6.6,0.2,6.6,0.2,6.6,0.2z M5.7,0.3C5.7,0.3,5.7,0.4,5.7,0.3C5.7,0.4,5.7,0.3,5.7,0.3z M5,0.5
		c-0.1,0-0.2,0.1-0.3,0.1C4.8,0.6,4.9,0.6,5,0.5z M4.3,0.8C4.1,0.9,3.9,1,3.7,1.1C3.9,1,4,0.9,4.3,0.8z M1.4,3.2L1.6,3
		c0.2-0.2,0.3-0.4,0.5-0.6C1.9,2.6,1.6,2.9,1.4,3.2L1.4,0.7l0,0L1.4,3.2z M1.3,0.7L1.3,0.7l-0.6,0l0,0H1.3z M0.6,4.5l0-2.4L0.6,4.5
		c0,0.1,0,0.2,0.1,0.2C0.7,4.6,0.6,4.5,0.6,4.5z M0.9,4.9C0.9,4.9,0.9,4.8,0.9,4.9C0.9,4.8,0.9,4.9,0.9,4.9c0,0,0.1,0,0.1,0
		C1,4.9,1,4.9,0.9,4.9z M4.8,4.1l0.1,0l0,0L4.8,4.1z M3.8,3.4L2,3.8c0,0,0,0,0,0L3.8,3.4z M2.3,3.3c0.1-0.1,0.2-0.2,0.2-0.3
		C2.5,3.1,2.4,3.2,2.3,3.3z M2.9,2.8C3,2.7,3.1,2.6,3.2,2.5C3.1,2.6,3,2.7,2.9,2.8z M6.8,1c-0.1,0-0.1,0-0.2,0C6.6,1.1,6.7,1,6.8,1z
		 M6,1.2c-0.1,0-0.2,0-0.2,0.1C5.8,1.2,5.9,1.2,6,1.2z M5.2,1.4C5.1,1.4,5,1.5,5,1.5C5,1.5,5.1,1.4,5.2,1.4z M4.5,1.7
		c-0.1,0-0.2,0.1-0.2,0.1C4.3,1.8,4.4,1.7,4.5,1.7z M3.8,2.1C3.7,2.1,3.6,2.2,3.5,2.3C3.6,2.2,3.7,2.1,3.8,2.1z M14.6,8
		c0-3.6-2.7-6.5-6.2-7C11.9,1.5,14.6,4.4,14.6,8c0,3.9-3.2,7-7,7c-0.3,0-0.6,0-1-0.1c0.3,0,0.6,0.1,1,0.1C11.4,15,14.6,11.9,14.6,8z
		 M1.9,12.2C1.9,12.2,1.9,12.2,1.9,12.2C1.9,12.2,1.9,12.2,1.9,12.2z M1.5,11.5c0-0.1-0.1-0.1-0.1-0.2c0,0,0,0,0,0c0,0,0,0,0,0
		C1.4,11.4,1.4,11.5,1.5,11.5z M1.2,11.2C1.2,11.2,1.2,11.2,1.2,11.2C1.2,11.2,1.2,11.2,1.2,11.2z M1,11.1C1,11.1,1,11.1,1,11.1
		C1,11.1,1,11.1,1,11.1C1,11.1,1,11.1,1,11.1z M0.8,11.2C0.8,11.2,0.8,11.2,0.8,11.2C0.8,11.2,0.8,11.2,0.8,11.2
		C0.8,11.2,0.8,11.2,0.8,11.2C0.8,11.2,0.8,11.2,0.8,11.2z M0.6,11.4C0.6,11.4,0.6,11.5,0.6,11.4C0.6,11.5,0.6,11.4,0.6,11.4
		C0.6,11.4,0.6,11.4,0.6,11.4z M0.7,11.7c0,0,0-0.1,0-0.1C0.6,11.6,0.7,11.6,0.7,11.7c1.4,2.5,4,4.1,6.9,4.1c0.1,0,0.1,0,0.2,0
		c-0.1,0-0.1,0-0.2,0C4.7,15.8,2,14.2,0.7,11.7z M13.1,13.5C13.1,13.5,13.1,13.5,13.1,13.5L13.1,13.5C13.1,13.5,13.1,13.5,13.1,13.5
		z"/>
	<path class="st0" d="M6.9,10.7c0.1,0,0.2,0,0.3-0.1L11.6,7L11,6.1L6.9,9.5L4.6,7.1L4,8l2.6,2.5l0,0C6.7,10.6,6.8,10.7,6.9,10.7z"/>
</g>
</svg>
