<?xml version="1.0" encoding="utf-8"?>
<!-- Generator: Adobe Illustrator 21.0.0, SVG Export Plug-In . SVG Version: 6.00 Build 0)  -->
<svg version="1.1" id="Слой_1" xmlns="http://www.w3.org/2000/svg" xmlns:xlink="http://www.w3.org/1999/xlink" x="0px" y="0px"
	 viewBox="0 0 12 15" style="enable-background:new 0 0 12 15;" xml:space="preserve">
<style type="text/css">
	.st0{fill:#89929E;}
</style>
<g>
	<path class="st0" d="M11,7.1V4.2L6.9,0H1.4C0.6,0,0,0.6,0,1.4l0,11.2C0,13.4,0.6,14,1.4,14h1.7c0.2,0.6,0.8,1,1.4,1h6
		c0.8,0,1.5-0.7,1.5-1.5v-5C12,7.8,11.6,7.3,11,7.1z M11,12.6v0.9c0,0.3-0.2,0.5-0.5,0.5H9.6H4.5C4.2,14,4,13.8,4,13.5v-5
		C4,8.2,4.2,8,4.5,8h6C10.8,8,11,8.2,11,8.5V12.6z M6,1l4,4H6V1z"/>
	<path class="st0" d="M9.2,9.5C9,9.5,8.8,9.5,8.6,9.6l-1.1,1.1L6.4,9.6C6.2,9.5,6,9.5,5.8,9.5C5.6,9.6,5.5,9.8,5.5,10v3h1v-1.8
		l0.6,0.6c0.2,0.2,0.5,0.2,0.7,0l0.6-0.6V13h1v-3C9.5,9.8,9.4,9.6,9.2,9.5z"/>
</g>
</svg>
