<svg xmlns="http://www.w3.org/2000/svg" width="14" height="17" viewBox="0 0 14 17">
  <metadata><?xpacket begin="﻿" id="W5M0MpCehiHzreSzNTczkc9d"?>
<x:xmpmeta xmlns:x="adobe:ns:meta/" x:xmptk="Adobe XMP Core 5.6-c138 79.159824, 2016/09/14-01:09:01        ">
   <rdf:RDF xmlns:rdf="http://www.w3.org/1999/02/22-rdf-syntax-ns#">
      <rdf:Description rdf:about=""/>
   </rdf:RDF>
</x:xmpmeta>
                                                                                                    
                                                                                                    
                                                                                                    
                                                                                                    
                                                                                                    
                                                                                                    
                                                                                                    
                                                                                                    
                                                                                                    
                                                                                                    
                                                                                                    
                                                                                                    
                                                                                                    
                                                                                                    
                                                                                                    
                                                                                                    
                                                                                                    
                                                                                                    
                                                                                                    
                                                                                                    
                           
<?xpacket end="w"?></metadata>
<defs>
    <style>
      .cls-1 {
        fill: #fff;
        fill-rule: evenodd;
      }
    </style>
  </defs>
  <path id="Forma_1" data-name="Forma 1" class="cls-1" d="M13.078,3.333H11.333V0.278a0.267,0.267,0,1,0-.533,0V3.333H9.055a0.943,0.943,0,0,0-.922.961v8.079a0.943,0.943,0,0,0,.922.961H10.8v3.056a0.267,0.267,0,1,0,.533,0V13.333h1.745A0.943,0.943,0,0,0,14,12.373V4.294A0.943,0.943,0,0,0,13.078,3.333ZM5.611,1.944H3.867V0.278a0.267,0.267,0,1,0-.533,0V1.944H1.589a0.943,0.943,0,0,0-.922.961V13.761a0.943,0.943,0,0,0,.922.961H3.333v1.667a0.267,0.267,0,1,0,.533,0V14.722H5.611a0.943,0.943,0,0,0,.922-0.961V2.905A0.943,0.943,0,0,0,5.611,1.944ZM6,13.761a0.4,0.4,0,0,1-.389.405H1.589A0.4,0.4,0,0,1,1.2,13.761V2.905a0.4,0.4,0,0,1,.389-0.4H5.611a0.4,0.4,0,0,1,.389.4V13.761Z"/>
</svg>
