<?xml version="1.0" encoding="UTF-8" standalone="no"?>
<!-- Generator: Adobe Illustrator 21.0.2, SVG Export Plug-In . SVG Version: 6.00 Build 0)  -->

<svg
   xmlns:dc="http://purl.org/dc/elements/1.1/"
   xmlns:cc="http://creativecommons.org/ns#"
   xmlns:rdf="http://www.w3.org/1999/02/22-rdf-syntax-ns#"
   xmlns:svg="http://www.w3.org/2000/svg"
   xmlns="http://www.w3.org/2000/svg"
   xmlns:xlink="http://www.w3.org/1999/xlink"
   xmlns:sodipodi="http://sodipodi.sourceforge.net/DTD/sodipodi-0.dtd"
   xmlns:inkscape="http://www.inkscape.org/namespaces/inkscape"
   version="1.1"
   id="Calque_1"
   x="0px"
   y="0px"
   viewBox="0 0 15 8.5"
   xml:space="preserve"
   inkscape:version="0.91 r13725"
   sodipodi:docname="mini-arrow-top-new-min.svg"
   width="15"
   height="8.5"><metadata
     id="metadata10"><rdf:RDF><cc:Work
         rdf:about=""><dc:format>image/svg+xml</dc:format><dc:type
           rdf:resource="http://purl.org/dc/dcmitype/StillImage" /><dc:title></dc:title></cc:Work></rdf:RDF></metadata><defs
     id="defs8"><linearGradient
       inkscape:collect="always"
       id="linearGradient3338"><stop
         style="stop-color:#ffffff;stop-opacity:1;"
         offset="0"
         id="stop3340" /><stop
         style="stop-color:#ff00ff;stop-opacity:1"
         offset="1"
         id="stop3342" /></linearGradient><linearGradient
       inkscape:collect="always"
       xlink:href="#linearGradient3338"
       id="linearGradient3344"
       x1="-5.6375837"
       y1="5.0268455"
       x2="3.7046981"
       y2="1.8590604"
       gradientUnits="userSpaceOnUse"
       gradientTransform="matrix(-0.94375,0,0,-0.94375,15.12047,8.5224499)" /></defs><sodipodi:namedview
     pagecolor="#ffffff"
     bordercolor="#666666"
     borderopacity="1"
     objecttolerance="10"
     gridtolerance="10"
     guidetolerance="10"
     inkscape:pageopacity="0"
     inkscape:pageshadow="2"
     inkscape:window-width="1301"
     inkscape:window-height="744"
     id="namedview6"
     showgrid="false"
     inkscape:zoom="18.625"
     inkscape:cx="8"
     inkscape:cy="4.5"
     inkscape:window-x="65"
     inkscape:window-y="24"
     inkscape:window-maximized="1"
     inkscape:current-layer="Calque_1" /><style
     type="text/css"
     id="style3">
	.st0{fill:#FFFFFF;}
</style><path
     id="select-haut"
     class="st0"
     d="m 0.30359411,6.8974499 6.60624969,-6.62500018 0,0 c 0.18875,0 0.3775,0 0.6606257,0 0.283125,0 0.471875,0 0.660625,0 l 0,0 6.6062505,6.62500018 0,0 c 0.18875,0 0.283125,0.625 0.283125,0.6875 0,0.625 -0.3775,0.9375 -0.94375,0.9375 -0.283125,0 -0.471875,0 -0.660625,0 l 0,0 -5.9456255,-5.9375002 -5.945624,5.9375002 0,0 c -0.18875,0 -0.3775,0 -0.66062508,0 -0.56625001,0 -0.94375001,-0.625 -0.94375001,-0.9375 0,0 0.094375,-0.625 0.283125,-0.6875 l 0,0 z"
     style="fill:url(#linearGradient3344);fill-opacity:1"
     inkscape:connector-curvature="0" /></svg>