<?xml version="1.0" encoding="UTF-8" standalone="no"?>
<!-- Generator: Adobe Illustrator 21.0.2, SVG Export Plug-In . SVG Version: 6.00 Build 0)  -->

<svg
   xmlns:dc="http://purl.org/dc/elements/1.1/"
   xmlns:cc="http://creativecommons.org/ns#"
   xmlns:rdf="http://www.w3.org/1999/02/22-rdf-syntax-ns#"
   xmlns:svg="http://www.w3.org/2000/svg"
   xmlns="http://www.w3.org/2000/svg"
   xmlns:sodipodi="http://sodipodi.sourceforge.net/DTD/sodipodi-0.dtd"
   xmlns:inkscape="http://www.inkscape.org/namespaces/inkscape"
   version="1.1"
   id="Calque_1"
   x="0px"
   y="0px"
   viewBox="0 0 20 15"
   xml:space="preserve"
   inkscape:version="0.91 r13725"
   sodipodi:docname="mini-arrow-horizontal.svg"
   width="20"
   height="15"><metadata
     id="metadata10"><rdf:RDF><cc:Work
         rdf:about=""><dc:format>image/svg+xml</dc:format><dc:type
           rdf:resource="http://purl.org/dc/dcmitype/StillImage" /><dc:title></dc:title></cc:Work></rdf:RDF></metadata><defs
     id="defs8" /><sodipodi:namedview
     pagecolor="#ffffff"
     bordercolor="#666666"
     borderopacity="1"
     objecttolerance="10"
     gridtolerance="10"
     guidetolerance="10"
     inkscape:pageopacity="0"
     inkscape:pageshadow="2"
     inkscape:window-width="1301"
     inkscape:window-height="744"
     id="namedview6"
     showgrid="false"
     inkscape:zoom="18.625"
     inkscape:cx="11.279785"
     inkscape:cy="7.1558177"
     inkscape:window-x="65"
     inkscape:window-y="24"
     inkscape:window-maximized="1"
     inkscape:current-layer="Calque_1" /><style
     type="text/css"
     id="style3">
	.st0{fill:#FFFFFF;}
</style><path
     id="select-haut"
     class="st0"
     d="m 6.6342284,14.835466 -6.62499991,-6.6062481 0,0 c 0,-0.18875 0,-0.3775 0,-0.660626 0,-0.283125 0,-0.471875 0,-0.660625 l 0,0 6.62499991,-6.60625086 0,0 c 0,-0.18875 0.625,-0.283125 0.6875,-0.283125 0.625,0 0.9375,0.3775 0.9375,0.94375001 0,0.28312495 0,0.47187495 0,0.66062495 l 0,0 -5.9374999,5.9456259 5.9374999,5.9456231 0,0 c 0,0.18875 0,0.3775 0,0.660625 0,0.56625 -0.625,0.94375 -0.9375,0.94375 0,0 -0.625,-0.09437 -0.6875,-0.283125 l 0,0 z"
     style="fill:#cd1e37;fill-opacity:1"
     inkscape:connector-curvature="0" /><style
     id="style3-2"
     type="text/css">
	.st0{fill:#FFFFFF;}
</style><path
     inkscape:connector-curvature="0"
     style="fill:#cd1e37;fill-opacity:0.98039216"
     d="m 13.285235,0.2700363 6.625,6.6062501 0,0 c 0,0.18875 0,0.3775 0,0.660626 0,0.283125 0,0.471875 0,0.660625 l 0,0 -6.625,6.6062506 0,0 c 0,0.18875 -0.625,0.283125 -0.6875,0.283125 -0.625,0 -0.9375,-0.3775 -0.9375,-0.94375 0,-0.283125 0,-0.471875 0,-0.660625 l 0,0 5.9375,-5.9456256 -5.9375,-5.945624 0,0 c 0,-0.18875 0,-0.3775 0,-0.66062512 0,-0.56624998 0.625,-0.94374998 0.9375,-0.94374998 0,0 0.625,0.09437 0.6875,0.283125 l 0,0 z"
     class="st0"
     id="select-haut-9" /></svg>