<?xml version="1.0" encoding="UTF-8" standalone="no"?>
<!-- Generator: Adobe Illustrator 21.0.2, SVG Export Plug-In . SVG Version: 6.00 Build 0)  -->

<svg
   xmlns:dc="http://purl.org/dc/elements/1.1/"
   xmlns:cc="http://creativecommons.org/ns#"
   xmlns:rdf="http://www.w3.org/1999/02/22-rdf-syntax-ns#"
   xmlns:svg="http://www.w3.org/2000/svg"
   xmlns="http://www.w3.org/2000/svg"
   xmlns:sodipodi="http://sodipodi.sourceforge.net/DTD/sodipodi-0.dtd"
   xmlns:inkscape="http://www.inkscape.org/namespaces/inkscape"
   version="1.1"
   id="Calque_1"
   x="0px"
   y="0px"
   viewBox="0 0 15 20"
   xml:space="preserve"
   inkscape:version="0.91 r13725"
   sodipodi:docname="mini-arrow-vertical-new.svg"
   width="15"
   height="20"><metadata
     id="metadata10"><rdf:RDF><cc:Work
         rdf:about=""><dc:format>image/svg+xml</dc:format><dc:type
           rdf:resource="http://purl.org/dc/dcmitype/StillImage" /><dc:title></dc:title></cc:Work></rdf:RDF></metadata><defs
     id="defs8" /><sodipodi:namedview
     pagecolor="#ffffff"
     bordercolor="#666666"
     borderopacity="1"
     objecttolerance="10"
     gridtolerance="10"
     guidetolerance="10"
     inkscape:pageopacity="0"
     inkscape:pageshadow="2"
     inkscape:window-width="1301"
     inkscape:window-height="744"
     id="namedview6"
     showgrid="false"
     inkscape:zoom="18.625"
     inkscape:cx="1.9911944"
     inkscape:cy="7.1558177"
     inkscape:window-x="65"
     inkscape:window-y="24"
     inkscape:window-maximized="1"
     inkscape:current-layer="Calque_1" /><style
     type="text/css"
     id="style3">
	.st0{fill:#FFFFFF;}
</style><path
     id="select-haut"
     class="st0"
     d="M 0.19621196,6.7464424 6.80246,0.12144285 l 0,0 c 0.18875,0 0.3775,0 0.660626,0 0.283125,0 0.471875,0 0.660625,0 l 0,0 6.606251,6.62499955 0,0 c 0.18875,0 0.283125,0.625 0.283125,0.6875 0,0.625 -0.3775,0.9375 -0.94375,0.9375 -0.283125,0 -0.471875,0 -0.660625,0 l 0,0 -5.945626,-5.937499 -5.945623,5.937499 0,0 c -0.18875,0 -0.3775,0 -0.66062504,0 -0.56625,0 -0.94375,-0.625 -0.94375,-0.9375 0,0 0.09437,-0.625 0.283125,-0.6875 l 0,0 z"
     style="fill:#cd1e37;fill-opacity:1"
     inkscape:connector-curvature="0" /><style
     id="style3-2"
     type="text/css">
	.st0{fill:#FFFFFF;}
</style><path
     inkscape:connector-curvature="0"
     style="fill:#cd1e37;fill-opacity:0.98039216"
     d="m 14.729965,13.365772 -6.6062504,6.625 0,0 c -0.1887501,0 -0.3775,0 -0.6606261,0 -0.283125,0 -0.471875,0 -0.660625,0 l 0,0 -6.606251,-6.625 0,0 c -0.18874995,0 -0.28312495,-0.625 -0.28312495,-0.6875 0,-0.625 0.37749995,-0.9375 0.94374995,-0.9375 0.283125,0 0.471875,0 0.660625,0 l 0,0 5.945626,5.9375 5.9456245,-5.9375 0,0 c 0.18875,0 0.3775,0 0.660625,0 0.56625,0 0.94375,0.625 0.94375,0.9375 0,0 -0.09437,0.625 -0.283125,0.6875 l 0,0 z"
     class="st0"
     id="select-haut-9" /></svg>