<svg version="1.1" xmlns="http://www.w3.org/2000/svg" xmlns:xlink="http://www.w3.org/1999/xlink" width="20" height="18" viewBox="0 0 20 18"><path id="mosaique" d="M19.333,18.004 C19.333,18.004 12.090,18.004 12.090,18.004 C11.730,18.004 11.419,17.693 11.419,17.333 C11.419,17.333 11.419,11.090 11.419,11.090 C11.419,10.714 11.714,10.419 12.090,10.419 C12.090,10.419 19.333,10.419 19.333,10.419 C19.709,10.419 20.004,10.714 20.004,11.090 C20.004,11.090 20.004,17.333 20.004,17.333 C20.004,17.709 19.709,18.004 19.333,18.004 zM18.663,11.760 L12.760,11.760 L12.760,16.663 L18.663,16.663 L18.663,11.760 zM19.330,7.584 C19.330,7.584 12.086,7.584 12.086,7.584 C11.710,7.584 11.416,7.290 11.416,6.914 C11.416,6.914 11.416,0.670 11.416,0.670 C11.416,0.294 11.710,0.000 12.086,0.000 C12.086,0.000 19.330,0.000 19.330,0.000 C19.706,0.000 20.000,0.294 20.000,0.670 C20.000,0.670 20.000,6.914 20.000,6.914 C20.000,7.290 19.706,7.584 19.330,7.584 zM18.659,1.341 L12.756,1.341 L12.756,6.244 L18.659,6.244 L18.659,1.341 zM7.914,7.584 C7.914,7.584 0.670,7.584 0.670,7.584 C0.311,7.584 -0.000,7.274 -0.000,6.914 C-0.000,6.914 -0.000,0.670 -0.000,0.670 C-0.000,0.294 0.294,0.000 0.670,0.000 C0.670,0.000 7.914,0.000 7.914,0.000 C8.290,0.000 8.584,0.294 8.584,0.670 C8.584,0.670 8.584,6.914 8.584,6.914 C8.584,7.290 8.290,7.584 7.914,7.584 zM7.244,1.341 L1.341,1.341 L1.341,6.244 L7.244,6.244 L7.244,1.341 zM0.670,10.419 C0.670,10.419 7.914,10.419 7.914,10.419 C8.290,10.419 8.584,10.714 8.584,11.090 C8.584,11.090 8.584,17.333 8.584,17.333 C8.584,17.709 8.290,18.004 7.914,18.004 C7.914,18.004 0.670,18.004 0.670,18.004 C0.311,18.004 0.000,17.693 0.000,17.333 C0.000,17.333 0.000,11.090 0.000,11.090 C0.000,10.714 0.294,10.419 0.670,10.419 zM1.341,16.663 L7.244,16.663 L7.244,11.760 L1.341,11.760 L1.341,16.663 z" fill="#FF3466" /></svg>