<svg version="1.1" xmlns="http://www.w3.org/2000/svg" xmlns:xlink="http://www.w3.org/1999/xlink" width="21" height="20" viewBox="0 0 21 20"><path id="mes-sites" d="M20.894,8.696 C20.787,8.852 20.621,8.935 20.453,8.935 C20.341,8.935 20.228,8.898 20.131,8.822 C20.131,8.822 10.499,1.275 10.499,1.275 C10.499,1.275 0.868,8.822 0.868,8.822 C0.625,9.013 0.283,8.956 0.105,8.696 C-0.073,8.436 -0.020,8.070 0.223,7.880 C0.223,7.880 10.177,0.081 10.177,0.081 C10.369,-0.070 10.630,-0.070 10.822,0.081 C10.822,0.081 20.776,7.880 20.776,7.880 C21.019,8.070 21.072,8.436 20.894,8.696 zM2.861,8.954 C3.162,8.954 3.406,9.216 3.406,9.538 C3.406,9.538 3.406,18.832 3.406,18.832 L7.771,18.832 C7.771,18.832 7.771,15.762 7.771,15.762 C7.771,14.152 8.995,12.842 10.499,12.842 C12.004,12.842 13.228,14.152 13.228,15.762 C13.228,15.762 13.228,18.832 13.228,18.832 L17.593,18.832 C17.593,18.832 17.593,9.538 17.593,9.538 C17.593,9.216 17.837,8.954 18.138,8.954 C18.439,8.954 18.684,9.216 18.684,9.538 C18.684,9.538 18.684,19.416 18.684,19.416 C18.684,19.739 18.439,20.000 18.138,20.000 C18.138,20.000 12.682,20.000 12.682,20.000 C12.395,20.000 12.160,19.763 12.139,19.461 C12.137,19.448 12.136,19.433 12.136,19.416 C12.136,19.416 12.136,15.762 12.136,15.762 C12.136,14.796 11.402,14.010 10.499,14.010 C9.597,14.010 8.862,14.796 8.862,15.762 C8.862,15.762 8.862,19.416 8.862,19.416 C8.862,19.433 8.862,19.448 8.860,19.462 C8.838,19.763 8.604,20.000 8.317,20.000 C8.317,20.000 2.861,20.000 2.861,20.000 C2.559,20.000 2.315,19.739 2.315,19.416 C2.315,19.416 2.315,9.538 2.315,9.538 C2.315,9.216 2.559,8.954 2.861,8.954 z" fill="#2B88D8" /></svg>