<?xml version="1.0" encoding="UTF-8"?>
<svg width="100px" height="100px" viewBox="0 0 100 100" version="1.1" xmlns="http://www.w3.org/2000/svg" xmlns:xlink="http://www.w3.org/1999/xlink" style="background: #FFFFFF;">
    <!-- Generator: Sketch 48.2 (47327) - http://www.bohemiancoding.com/sketch -->
    <title>Star fill</title>
    <desc>Created with Sketch.</desc>
    <defs></defs>
    <g id="Insert-Buttons" stroke="none" stroke-width="1" fill="none" fill-rule="evenodd">
        <g id="Star-fill" fill="#000000" fill-rule="nonzero">
            <g transform="translate(21.000000, 23.000000)" id="Shape">
                <path d="M19.8413745,17.6899793 C19.8413745,17.6899793 8.86749441,18.8983112 1.54694406,19.7061674 C0.887122156,19.7855721 0.303700685,20.2240239 0.084917634,20.8903327 C-0.133865417,21.5566414 0.084917634,22.2505692 0.571102193,22.6890211 C6.00942376,27.6224677 14.1807971,35.0105543 14.1807971,35.0105543 C14.1738516,35.0105543 11.9374026,45.7578036 10.451067,52.9283904 C10.3260481,53.5774373 10.5621949,54.2644603 11.1317254,54.6752931 C11.6977831,55.086126 12.4270599,55.0930307 13.0000632,54.7719597 C19.4038084,51.1538687 28.9955351,45.7129227 28.9955351,45.7129227 C28.9955351,45.7129227 38.5907347,51.1538687 44.9840616,54.7754121 C45.5674831,55.0930307 46.2967599,55.086126 46.8628177,54.6752931 C47.4323482,54.2644603 47.668495,53.5774373 47.5400033,52.9318428 C46.0536677,45.7578036 43.8206914,35.0105543 43.8206914,35.0105543 C43.8206914,35.0105543 51.9920648,27.6224677 57.4303863,22.6993782 C57.9165709,22.2471168 58.1318812,21.5531891 57.9165709,20.8903327 C57.7012606,20.2274763 57.1178391,19.7890245 56.4580172,19.7130722 C49.1374669,18.8983112 38.1601141,17.6899793 38.1601141,17.6899793 C38.1601141,17.6899793 33.6108157,7.684991 30.5791077,1.01499881 C30.2943425,0.417737606 29.69703,0 28.9955351,0 C28.2940403,0 27.6932551,0.421189983 27.4223808,1.01499881 C24.3872001,7.684991 19.8413745,17.6899793 19.8413745,17.6899793 Z"></path>
            </g>
        </g>
    </g>
</svg>