<?xml version="1.0" encoding="UTF-8"?>
<svg width="100px" height="100px" viewBox="0 0 100 100" version="1.1" xmlns="http://www.w3.org/2000/svg" xmlns:xlink="http://www.w3.org/1999/xlink" style="background: #FFFFFF;">
    <!-- Generator: Sketch 48.2 (47327) - http://www.bohemiancoding.com/sketch -->
    <title>Headphone fill</title>
    <desc>Created with Sketch.</desc>
    <defs></defs>
    <g id="Insert-Buttons" stroke="none" stroke-width="1" fill="none" fill-rule="evenodd">
        <g id="Headphone-fill" fill="#000000" fill-rule="nonzero">
            <g id="headphones" transform="translate(21.000000, 23.000000)">
                <g id="Group">
                    <path d="M17.2619048,0.247566076 C9.6353156,0.247566076 3.45238095,6.36842506 3.45238095,13.9184522 L3.45238095,22.1209838 L1.38095238,22.1209838 C0.615905729,22.1209838 0,22.7307053 0,23.4880724 L0,37.1589585 C0,37.9163256 0.615905729,38.5260471 1.38095238,38.5260471 L8.28571429,38.5260471 C9.05076052,38.5260471 9.66666667,37.9163256 9.66666667,37.1589585 L9.66666667,23.4880724 C9.66666667,22.7307053 9.05076052,22.1209838 8.28571429,22.1209838 L6.21428571,22.1209838 L6.21428571,13.9184522 C6.21428571,7.83587165 11.1176382,2.98174329 17.2619048,2.98174329 L40.7380952,2.98174329 C46.8823618,2.98174329 51.7857143,7.83587165 51.7857143,13.9184522 L51.7857143,22.1209838 L49.7142857,22.1209838 C48.9492395,22.1209838 48.3333333,22.7307053 48.3333333,23.4880724 L48.3333333,37.1589585 C48.3333333,37.9163256 48.9492395,38.5260471 49.7142857,38.5260471 L51.7857143,38.5260471 L51.7857143,39.8931357 C51.7857143,45.975723 46.8823618,50.8298446 40.7380952,50.8298446 L22.7857143,50.8298446 C22.2876933,50.822872 21.8244591,51.0819019 21.5733931,51.5077467 C21.3223272,51.9335914 21.3223272,52.4602749 21.5733931,52.8861196 C21.8244591,53.3119644 22.2876933,53.5709943 22.7857143,53.5640218 L40.7380952,53.5640218 C48.3646844,53.5640218 54.547619,47.4431559 54.547619,39.8931357 L54.547619,38.5260471 L56.6190476,38.5260471 C57.3840939,38.5260471 58,37.9163256 58,37.1589585 L58,23.4880724 C58,22.7307053 57.3840939,22.1209838 56.6190476,22.1209838 L54.547619,22.1209838 L54.547619,13.9184522 C54.547619,6.36842506 48.3646844,0.247566076 40.7380952,0.247566076 L17.2619048,0.247566076 Z" id="Shape"></path>
                </g>
            </g>
        </g>
    </g>
</svg>