<?xml version="1.0" encoding="UTF-8"?>
<svg width="100px" height="100px" viewBox="0 0 100 100" version="1.1" xmlns="http://www.w3.org/2000/svg" xmlns:xlink="http://www.w3.org/1999/xlink" style="background: #FFFFFF;">
    <!-- Generator: Sketch 48.2 (47327) - http://www.bohemiancoding.com/sketch -->
    <title>Map fill</title>
    <desc>Created with Sketch.</desc>
    <defs></defs>
    <g id="Insert-Buttons" stroke="none" stroke-width="1" fill="none" fill-rule="evenodd">
        <g id="Map-fill" fill="#000000" fill-rule="nonzero">
            <g id="map2" transform="translate(21.000000, 19.000000)">
                <path d="M29.0755149,0 C19.1186635,0 11,8.24175824 11,18.5243328 C11,19.7017268 11.1531823,20.8791209 11.3063647,22.1350078 C11.459547,22.8414443 11.6127293,23.4693878 11.7659116,24.0973312 C14.9827406,35.2433281 27.9266474,49.1365777 28.5393768,49.7645212 C28.6925591,49.9215071 28.8457414,50 28.9989237,50 C29.1521061,50 29.3052884,49.9215071 29.4584707,49.7645212 C29.9946089,49.2150706 43.0151069,35.2433281 46.2319358,24.0973312 C46.4617093,23.4693878 46.5383005,22.7629513 46.6914828,22.1350078 C46.9212563,20.9576138 46.9978475,19.7802198 46.9978475,18.5243328 C47.1510298,8.24175824 39.1089575,0 29.0755149,0 Z M29.0755149,27.5510204 C24.1736804,27.5510204 20.1909398,23.4693878 20.1909398,18.4458399 C20.1909398,13.422292 24.1736804,9.34065934 29.0755149,9.34065934 C33.9773495,9.34065934 37.96009,13.422292 37.96009,18.4458399 C37.96009,23.4693878 34.0539406,27.5510204 29.0755149,27.5510204 Z" id="Shape"></path>
                <path d="M53.1178223,44.3178197 C53.0407686,44.0836495 53.0407686,44.0055928 52.8096073,43.927536 L45.8747702,37.2927128 C45.4895015,36.9024291 44.8730716,36.9024291 44.4878028,37.2927128 C44.1025341,37.6829965 44.1025341,38.3074505 44.4878028,38.6977342 L51.1914787,45.0983872 L55.4294347,58.6802606 L43.9484266,52.5918346 C43.6402116,52.5137778 43.3319966,52.3576643 43.0237817,52.5918346 L29.0770537,59.6949982 L15.1303258,52.6698913 C14.8221108,52.5918346 14.5138959,52.5918346 14.2056809,52.6698913 L2.72467282,58.8363741 L6.96262881,45.2545007 L13.6663047,38.8538477 C14.0515734,38.4635639 14.0515734,37.83911 13.6663047,37.4488263 C13.2810359,37.0585426 12.664606,37.0585426 12.2793372,37.4488263 L5.34450016,44.0836495 C5.26744642,44.1617062 5.11333892,44.3958765 5.03628518,44.4739332 L0.0277917276,60.7097359 C-0.0492620178,61.1000196 0.0277917276,61.4903033 0.336006709,61.8025303 C0.4901142,61.9586438 0.644221691,61.9586438 0.875382927,61.9586438 C1.10654416,61.9586438 1.18359791,61.9586438 1.41475914,61.8805871 L14.5909496,54.8554801 L28.5376775,61.8805871 C28.8458925,61.9586438 29.1541075,61.9586438 29.4623225,61.8805871 L43.4090504,54.8554801 L56.5852409,61.8805871 C56.9705096,62.1147573 57.3557783,61.9586438 57.6639933,61.8025303 C57.9722083,61.4903033 58.049262,61.1000196 57.9722083,60.7097359 L53.1178223,44.3178197 Z" id="Shape"></path>
            </g>
        </g>
    </g>
</svg>