<?xml version="1.0" encoding="iso-8859-1"?>
<!-- Generator: Adobe Illustrator 19.0.0, SVG Export Plug-In . SVG Version: 6.00 Build 0)  -->
<svg version="1.1" id="Capa_1" xmlns="http://www.w3.org/2000/svg" xmlns:xlink="http://www.w3.org/1999/xlink" x="0px" y="0px"
	 viewBox="0 0 512 512" style="enable-background:new 0 0 512 512;" xml:space="preserve">
<g>
	<g>
		<path d="M386.418,171.761c-8.421-11.867-12.23-26.876-11.016-43.404c0.787-10.723,0.094-21.589-2.061-32.295
			C362.917,44.263,318.991,4.948,266.523,0.457c-34.005-2.908-66.489,8.119-91.476,31.059
			c-24.645,22.625-38.779,54.777-38.779,88.214c0,2.656,0.092,5.347,0.272,8.001c0.813,11.926-0.396,29.196-10.766,43.74
			c-22.23,31.18-32.479,69.528-28.859,107.982c3.391,36.018,19.438,70.291,45.185,96.508c24.487,24.935,56.398,41.193,90.357,46.159
			v74.88h-8.53c-4.142,0-7.5,3.358-7.5,7.5c0,4.142,3.358,7.5,7.5,7.5h64.128c4.142,0,7.5-3.358,7.5-7.5c0-4.142-3.358-7.5-7.5-7.5
			h-8.532v-74.904c36.461-5.388,69.953-23.259,94.91-50.795c26.674-29.431,41.364-67.531,41.364-107.282
			C415.798,230.75,405.638,198.847,386.418,171.761z M363.321,361.228c-22.145,24.434-51.699,40.466-83.927,45.705
			c-0.646-3.485-3.697-6.125-7.368-6.125c-4.142,0-7.5,3.358-7.5,7.5v88.692h-17.067V383.442c2.83,0.199,5.676,0.301,8.535,0.301
			c15.381,0,30.358-2.877,44.516-8.551c3.845-1.541,5.712-5.907,4.172-9.752c-1.542-3.844-5.907-5.712-9.752-4.172
			c-12.376,4.96-25.477,7.475-38.937,7.475c-12.903,0-25.497-2.316-37.432-6.885c-3.866-1.48-8.205,0.455-9.686,4.323
			c-1.481,3.868,0.455,8.205,4.323,9.686c6.275,2.402,12.708,4.253,19.259,5.56v25.52c-29.919-4.858-57.982-19.426-79.655-41.495
			c-23.34-23.767-37.885-54.807-40.953-87.405c-3.282-34.866,6-69.622,26.139-97.868c10.247-14.372,14.921-32.861,13.517-53.467
			c-0.158-2.316-0.238-4.665-0.238-6.982c0-29.248,12.365-57.373,33.923-77.165c21.856-20.064,50.285-29.71,80.053-27.163
			c45.87,3.926,84.275,38.312,93.393,83.619c1.886,9.372,2.493,18.872,1.806,28.237c-1.473,20.048,3.28,38.438,13.744,53.183
			c17.411,24.535,26.613,53.435,26.613,83.577C400.798,300.039,387.489,334.562,363.321,361.228z"/>
	</g>
</g>
<g>
</g>
<g>
</g>
<g>
</g>
<g>
</g>
<g>
</g>
<g>
</g>
<g>
</g>
<g>
</g>
<g>
</g>
<g>
</g>
<g>
</g>
<g>
</g>
<g>
</g>
<g>
</g>
<g>
</g>
</svg>
