<?xml version="1.0" encoding="UTF-8"?>
<svg width="22px" height="23px" viewBox="0 0 22 23" version="1.1" xmlns="http://www.w3.org/2000/svg" xmlns:xlink="http://www.w3.org/1999/xlink">
    <!-- Generator: Sketch 61.2 (89653) - https://sketch.com -->
    <title>Group 13</title>
    <desc>Created with Sketch.</desc>
    <g id="White-desk-Copy" stroke="none" stroke-width="1" fill="none" fill-rule="evenodd">
        <g id="Room-2" transform="translate(-820.000000, -21.000000)">
            <g id="Group-9" transform="translate(525.000000, 11.000000)">
                <g id="Group-15" transform="translate(281.000000, 11.000000)">
                    <g id="Group-13" transform="translate(14.000000, 0.000000)">
                        <g id="Group-11">
                            <g id="TRASH">
                                <path d="M2.57458848,4.49382716 L18.0221193,4.49382716 L18.0221193,18.2518519 C18.0221193,19.0536875 17.3721031,19.7037037 16.5702675,19.7037037 L4.02644033,19.7037037 C3.22460469,19.7037037 2.57458848,19.0536875 2.57458848,18.2518519 L2.57458848,4.49382716 L2.57458848,4.49382716 Z" id="Rectangle-12" fill="#89929E"></path>
                                <line x1="0.643647119" y1="2.59259259" x2="19.9530607" y2="2.59259259" id="Line-2" stroke="#89929E" stroke-width="0.725925926"></line>
                                <rect id="Rectangle-23" stroke="#89929E" stroke-width="0.725925926" x="7.36080247" y="-0.141870677" width="5.87510288" height="2.45432099"></rect>
                            </g>
                            <rect id="Rectangle" fill="#FFFFFF" x="13.3333333" y="8.88888889" width="1" height="7.40740741"></rect>
                            <rect id="Rectangle" fill="#FFFFFF" x="6.66666667" y="8.88888889" width="1" height="7.40740741"></rect>
                        </g>
                        <g id="Group-8" transform="translate(10.000000, 10.000000)">
                            <circle id="Oval-3" fill="#EA4D44" cx="6" cy="6" r="6"></circle>
                            <path d="M4.17236193,3.65603824 L4.24016504,3.70983496 L6,5.469 L7.75983496,3.70983496 C7.90628157,3.56338835 8.14371843,3.56338835 8.29016504,3.70983496 C8.41569071,3.83536062 8.43362295,4.02773627 8.34396176,4.17236193 L8.29016504,4.24016504 L6.531,6 L8.29016504,7.75983496 C8.43661165,7.90628157 8.43661165,8.14371843 8.29016504,8.29016504 C8.16463938,8.41569071 7.97226373,8.43362295 7.82763807,8.34396176 L7.75983496,8.29016504 L6,6.531 L4.24016504,8.29016504 C4.09371843,8.43661165 3.85628157,8.43661165 3.70983496,8.29016504 C3.58430929,8.16463938 3.56637705,7.97226373 3.65603824,7.82763807 L3.70983496,7.75983496 L5.469,6 L3.70983496,4.24016504 C3.56338835,4.09371843 3.56338835,3.85628157 3.70983496,3.70983496 C3.83536062,3.58430929 4.02773627,3.56637705 4.17236193,3.65603824 Z" id="Path-3" fill="#FFFFFF"></path>
                        </g>
                    </g>
                </g>
            </g>
        </g>
    </g>
</svg>