<?xml version="1.0" encoding="UTF-8" standalone="no"?>
<svg
   xmlns:dc="http://purl.org/dc/elements/1.1/"
   xmlns:cc="http://creativecommons.org/ns#"
   xmlns:rdf="http://www.w3.org/1999/02/22-rdf-syntax-ns#"
   xmlns:svg="http://www.w3.org/2000/svg"
   xmlns="http://www.w3.org/2000/svg"
   xml:space="preserve"
   style="enable-background:new 0 0 100 100;"
   viewBox="0 0 100 100"
   height="100px"
   width="100px">
<path
   id="path4560"
   d="m 63.614715,24.693071 a 1.6494636,1.6494636 0 0 0 -2.21713,0.11457 l -36.54578,36.54578 a 1.6494636,1.6494636 0 0 0 -0.48503,1.23997 l 0.54588,11.51701 a 1.6494636,1.6494636 0 0 0 1.66452,1.57019 l 10.87005,-0.0876 a 1.6494636,1.6494636 0 0 0 1.1591,-0.48522 l 36.54577,-36.54578 a 1.6494636,1.6494636 0 0 0 0,-2.33171 l -11.42261,-11.42264 a 1.6494636,1.6494636 0 0 0 -0.11467,-0.11457 z m -1.0513,3.61214 9.09095,9.09094 -5.43166,5.43166 -9.09095,-9.09094 z m -7.76337,7.76337 9.09095,9.09093 -27.13808,27.13809 -8.61925,0.0741 -0.43818,-9.19876 z"
    /></svg>