<?xml version="1.0" encoding="UTF-8" standalone="no"?>
<svg
   xmlns:dc="http://purl.org/dc/elements/1.1/"
   xmlns:cc="http://creativecommons.org/ns#"
   xmlns:rdf="http://www.w3.org/1999/02/22-rdf-syntax-ns#"
   xmlns:svg="http://www.w3.org/2000/svg"
   xmlns="http://www.w3.org/2000/svg"
   xml:space="preserve"
   style="enable-background:new 0 0 100 100;"
   viewBox="0 0 100 100"
   height="100px"
   width="100px">
<g
   transform="matrix(4.8795819,0,0,4.8795819,-1854.9859,0.90397253)"
   id="g4580"><path
     id="path4570"
     d="m 390.40039,3.0117188 c -3.88954,-1e-7 -7.05078,3.1612442 -7.05078,7.0507812 0,3.889537 3.16124,7.048828 7.05078,7.048828 3.88954,0 7.04883,-3.159291 7.04883,-7.048828 0,-3.889537 -3.15929,-7.0507812 -7.04883,-7.0507812 z m 0,0.6757812 c 3.5242,0 6.37305,2.8508005 6.37305,6.375 0,3.5242 -2.84885,6.373047 -6.37305,6.373047 -3.5242,0 -6.375,-2.848847 -6.375,-6.373047 0,-3.5241995 2.8508,-6.375 6.375,-6.375 z"
     /><path
     id="path4572"
     d="m 390.18945,6.03125 a 0.3380338,0.3380338 0 0 0 -0.33203,0.3417969 v 4.2324221 a 0.3380338,0.3380338 0 0 0 0.33789,0.33789 h 4.04492 a 0.3380338,0.3380338 0 1 0 0,-0.675781 H 390.5332 V 6.3730469 A 0.3380338,0.3380338 0 0 0 390.18945,6.03125 Z"
     /></g></svg>