<?xml version="1.0" encoding="utf-8"?>
<!-- Generator: Adobe Illustrator 21.1.0, SVG Export Plug-In . SVG Version: 6.00 Build 0)  -->
<svg version="1.1" id="Слой_1" xmlns:ev="http://www.w3.org/2001/xml-events"
	 xmlns="http://www.w3.org/2000/svg" xmlns:xlink="http://www.w3.org/1999/xlink" x="0px" y="0px" viewBox="0 0 38.1 38.6"
	 style="enable-background:new 0 0 38.1 38.6;" xml:space="preserve">
<style type="text/css">
	.st0{fill:#FF3466;}
</style>
<path class="st0" d="M36.8,19.3l-3.9,3.9c-0.4,0.4-0.9,0.4-1.3,0c-0.4-0.4-0.4-0.9,0-1.3l2.3-2.3v-1.9l-2.3-2.3
	c-0.4-0.4-0.4-0.9,0-1.3c0.4-0.4,0.9-0.4,1.3,0l3.9,3.9C37.2,18.4,37.2,19,36.8,19.3z M19.6,36.6c-0.4,0.4-0.9,0.4-1.3,0l-3.9-3.9
	c-0.4-0.4-0.4-0.9,0-1.3c0.4-0.4,0.9-0.4,1.3,0l2.3,2.3h1.9l2.3-2.3c0.4-0.4,0.9-0.4,1.3,0c0.4,0.4,0.4,0.9,0,1.3L19.6,36.6z
	 M21.7,18.7c0,1.5-1.3,2.8-2.8,2.8c-1.5,0-2.8-1.3-2.8-2.8c0-1.5,1.3-2.8,2.8-2.8C20.5,15.9,21.7,17.1,21.7,18.7z M22.2,6l-2.3-2.3
	H18L15.6,6c-0.4,0.4-0.9,0.4-1.3,0C14,5.6,14,5,14.3,4.7l3.9-3.9c0.4-0.4,0.9-0.4,1.3,0l3.9,3.9c0.4,0.4,0.4,0.9,0,1.3
	C23.1,6.4,22.6,6.4,22.2,6z M3.9,17.7v1.9l2.3,2.3c0.4,0.4,0.4,0.9,0,1.3c-0.4,0.4-0.9,0.4-1.3,0L1,19.3C0.6,19,0.6,18.4,1,18
	l3.9-3.9c0.4-0.4,0.9-0.4,1.3,0c0.4,0.4,0.4,0.9,0,1.3L3.9,17.7z"/>
</svg>
