<?xml version="1.0" encoding="UTF-8" standalone="no"?>
<svg
   xmlns:dc="http://purl.org/dc/elements/1.1/"
   xmlns:cc="http://creativecommons.org/ns#"
   xmlns:rdf="http://www.w3.org/1999/02/22-rdf-syntax-ns#"
   xmlns:svg="http://www.w3.org/2000/svg"
   xmlns="http://www.w3.org/2000/svg"
   xmlns:sodipodi="http://sodipodi.sourceforge.net/DTD/sodipodi-0.dtd"
   xmlns:inkscape="http://www.inkscape.org/namespaces/inkscape"
   version="1.1"
   width="100"
   height="100"
   viewBox="0 0 100 100"
   id="svg3"
   sodipodi:docname="quickmenu_arrow-up.svg"
   inkscape:version="0.92.1 r15371">
  <metadata
     id="metadata9">
    <rdf:RDF>
      <cc:Work
         rdf:about="">
        <dc:format>image/svg+xml</dc:format>
        <dc:type
           rdf:resource="http://purl.org/dc/dcmitype/StillImage" />
        <dc:title></dc:title>
      </cc:Work>
    </rdf:RDF>
  </metadata>
  <defs
     id="defs7" />
  <sodipodi:namedview
     pagecolor="#ffffff"
     bordercolor="#666666"
     borderopacity="1"
     objecttolerance="10"
     gridtolerance="10"
     guidetolerance="10"
     inkscape:pageopacity="0"
     inkscape:pageshadow="2"
     inkscape:window-width="1920"
     inkscape:window-height="932"
     id="namedview5"
     showgrid="false"
     inkscape:zoom="2.8284271"
     inkscape:cx="-27.716876"
     inkscape:cy="-14.165629"
     inkscape:window-x="0"
     inkscape:window-y="27"
     inkscape:window-maximized="1"
     inkscape:current-layer="svg3" />
  <path
     id="select-haut"
     d="m 11.465,63.96 35,-34.99 c 0,0 0,0 0,0 0.905,-0.9 2.155,-1.465 3.535,-1.465 1.38,0 2.63,0.565 3.535,1.465 0,0 0,0 0,0 l 35,34.99 c 0,0 0,0 0,0 0.905,0.905 1.465,2.155 1.465,3.535 0,2.76 -2.24,5 -5,5 -1.38,0 -2.63,-0.56 -3.535,-1.465 0,0 0,0 0,0 L 50,39.575 18.535,71.03 c 0,0 0,0 0,0 -0.905,0.905 -2.155,1.465 -3.535,1.465 -2.765,0 -5,-2.24 -5,-5 0,-1.38 0.56,-2.63 1.465,-3.535 0,0 0,0 0,0 z"
     inkscape:connector-curvature="0"
     style="fill:#bbbbbb;stroke-width:5" />
</svg>
