<?xml version="1.0" encoding="UTF-8" standalone="no"?>
<svg
   xmlns:dc="http://purl.org/dc/elements/1.1/"
   xmlns:cc="http://creativecommons.org/ns#"
   xmlns:rdf="http://www.w3.org/1999/02/22-rdf-syntax-ns#"
   xmlns:svg="http://www.w3.org/2000/svg"
   xmlns="http://www.w3.org/2000/svg"
   xmlns:sodipodi="http://sodipodi.sourceforge.net/DTD/sodipodi-0.dtd"
   xmlns:inkscape="http://www.inkscape.org/namespaces/inkscape"
   width="100px"
   height="100px"
   viewBox="0 0 100 100"
   version="1.1"
   style="background: #FFFFFF;"
   id="svg11"
   sodipodi:docname="social_svg_g_3_tw.svg"
   inkscape:version="0.92.1 r15371">
  <metadata
     id="metadata15">
    <rdf:RDF>
      <cc:Work
         rdf:about="">
        <dc:format>image/svg+xml</dc:format>
        <dc:type
           rdf:resource="http://purl.org/dc/dcmitype/StillImage" />
        <dc:title>Artboard Copy 46</dc:title>
      </cc:Work>
    </rdf:RDF>
  </metadata>
  <sodipodi:namedview
     pagecolor="#ffffff"
     bordercolor="#666666"
     borderopacity="1"
     objecttolerance="10"
     gridtolerance="10"
     guidetolerance="10"
     inkscape:pageopacity="0"
     inkscape:pageshadow="2"
     inkscape:window-width="1920"
     inkscape:window-height="1017"
     id="namedview13"
     showgrid="false"
     inkscape:zoom="2.36"
     inkscape:cx="50"
     inkscape:cy="50"
     inkscape:window-x="-8"
     inkscape:window-y="-8"
     inkscape:window-maximized="1"
     inkscape:current-layer="svg11" />
  <!-- Generator: Sketch 48.2 (47327) - http://www.bohemiancoding.com/sketch -->
  <title
     id="title2">Artboard Copy 46</title>
  <desc
     id="desc4">Created with Sketch.</desc>
  <defs
     id="defs6" />
<style type="text/css">
    .icon-fill-ffa386{
        fill:#ffa386;
    }
</style>     
  <g
     id="Insert-Buttons"
     transform="matrix(4.1458333,0,0,4.1458333,-157.29166,-157.29166)"
     style="fill:none;fill-rule:evenodd;stroke:none;stroke-width:1">
    <g
       id="Artboard-Copy-46"
       style="fill:#ffa386">
      <path class="icon-fill-ffa386"
         d="M 38,50 50,38 62,50 50,62 Z m 15.283957,-3.577536 c -0.359047,-0.382594 -0.870599,-0.622465 -1.436788,-0.622465 -1.088548,0 -1.969954,0.881526 -1.969954,1.96874 0,0.154117 0.01741,0.305836 0.05103,0.449758 -1.637326,-0.08335 -3.088523,-0.866533 -4.059991,-2.058092 -0.170517,0.291443 -0.267184,0.629062 -0.267184,0.990667 0,0.682432 0.347639,1.284508 0.877203,1.638318 -0.323022,-0.0096 -0.627431,-0.09895 -0.893414,-0.245868 v 0.02519 c 0,0.953487 0.679667,1.748659 1.581487,1.930361 -0.166914,0.04438 -0.340434,0.06896 -0.519357,0.06896 -0.126687,0 -0.250972,-0.01199 -0.371655,-0.03538 0.250972,0.781979 0.978673,1.351672 1.840865,1.366664 -0.674263,0.528315 -1.523847,0.842546 -2.446682,0.842546 -0.159109,0 -0.315216,-0.0084 -0.469522,-0.02699 0.871799,0.559498 1.90631,0.885123 3.019475,0.885123 3.62229,0 5.603052,-3.000784 5.603052,-5.602183 0,-0.08575 -0.0012,-0.170308 -0.0048,-0.254863 0.384864,-0.27825 0.718093,-0.624264 0.982275,-1.018851 -0.352442,0.156516 -0.732504,0.262658 -1.131178,0.308834 0.40708,-0.243469 0.718694,-0.629062 0.866996,-1.088414 -0.381262,0.225478 -0.802751,0.38979 -1.25186,0.477942 z"
         id="Twitter"
         inkscape:connector-curvature="0" />
    </g>
  </g>
</svg>
