<?xml version="1.0" encoding="UTF-8" standalone="no"?>
<svg
   xmlns:dc="http://purl.org/dc/elements/1.1/"
   xmlns:cc="http://creativecommons.org/ns#"
   xmlns:rdf="http://www.w3.org/1999/02/22-rdf-syntax-ns#"
   xmlns:svg="http://www.w3.org/2000/svg"
   xmlns="http://www.w3.org/2000/svg"
   xmlns:sodipodi="http://sodipodi.sourceforge.net/DTD/sodipodi-0.dtd"
   xmlns:inkscape="http://www.inkscape.org/namespaces/inkscape"
   width="100px"
   height="100px"
   viewBox="0 0 100 100"
   version="1.1"
   id="svg18"
   sodipodi:docname="social_svg_g_1_youtube.svg"
   inkscape:version="0.92.1 r15371">
  <metadata
     id="metadata22">
    <rdf:RDF>
      <cc:Work
         rdf:about="">
        <dc:format>image/svg+xml</dc:format>
        <dc:type
           rdf:resource="http://purl.org/dc/dcmitype/StillImage" />
        <dc:title>Artboard Copy 10</dc:title>
      </cc:Work>
    </rdf:RDF>
  </metadata>
  <sodipodi:namedview
     pagecolor="#ffffff"
     bordercolor="#666666"
     borderopacity="1"
     objecttolerance="10"
     gridtolerance="10"
     guidetolerance="10"
     inkscape:pageopacity="0"
     inkscape:pageshadow="2"
     inkscape:window-width="1920"
     inkscape:window-height="1017"
     id="namedview20"
     showgrid="false"
     inkscape:zoom="2.36"
     inkscape:cx="50"
     inkscape:cy="50"
     inkscape:window-x="-8"
     inkscape:window-y="-8"
     inkscape:window-maximized="1"
     inkscape:current-layer="svg18" />
  <!-- Generator: Sketch 48.2 (47327) - http://www.bohemiancoding.com/sketch -->
  <title
     id="title2">Artboard Copy 10</title>
  <desc
     id="desc4">Created with Sketch.</desc>
  <defs
     id="defs6" />
<style type="text/css">
  .icon-fill-ff0033{fill:#ff0033;}
</style>

  <g
     id="Insert-Buttons"
     transform="matrix(8.6695144,0,0,8.6695144,-389.51907,-380.85057)"
     style="fill:none;fill-rule:evenodd;stroke:none;stroke-width:1">
    <g
       id="Artboard-Copy-10">
      <g
         id="Group"
         transform="translate(44,44)">
        <path 
           d="M 10.339174,5.43114 H 3.054988 c -1.157832,0 -2.096406,0.93951 -2.096406,2.097108 v 1.685034 c 0,1.157598 0.938574,2.096874 2.096406,2.096874 h 7.284186 c 1.157598,0 2.096406,-0.939276 2.096406,-2.096874 V 7.528248 c 0,-1.157598 -0.938808,-2.097108 -2.096406,-2.097108 z M 4.585348,6.742944 H 3.908152 v 3.36492 H 3.253888 V 6.742944 H 2.57716 V 6.17058 h 2.008188 z m 1.91295,3.36492 H 5.917978 V 9.789624 C 5.810104,9.907326 5.698954,9.997182 5.58289,10.057788 c -0.116064,0.06318 -0.22815,0.09266 -0.337194,0.09266 -0.134784,0 -0.234936,-0.04282 -0.303498,-0.12987 C 4.874806,9.933768 4.840408,9.805068 4.840408,9.631206 V 7.202988 h 0.58032 V 9.43137 c 0,0.068796 0.01287,0.11817 0.036036,0.148824 0.025038,0.03159 0.064818,0.046098 0.11934,0.046098 0.04212,0 0.096408,-0.020124 0.161694,-0.06084 C 5.803552,9.524268 5.863456,9.472788 5.917978,9.40914 V 7.202754 h 0.58032 z M 8.605234,9.508122 c 0,0.205218 -0.04563,0.362934 -0.136656,0.472914 -0.090558,0.10998 -0.223002,0.164034 -0.394524,0.164034 -0.114192,0 -0.215748,-0.02059 -0.303966,-0.06318 C 7.681402,10.03977 7.597864,9.974952 7.521814,9.885096 V 10.10763 H 6.934474 V 6.17058 h 0.58734 v 1.268046 c 0.078624,-0.08775 0.161694,-0.155844 0.248508,-0.201474 0.088686,-0.046566 0.17784,-0.06903 0.268164,-0.06903 0.18369,0 0.323622,0.061308 0.420498,0.185094 0.097344,0.123786 0.145782,0.305136 0.145782,0.54288 v 1.612026 z m 1.16181,-1.868958 c 0.088218,0 0.153504,0.026208 0.192582,0.080262 0.040716,0.050778 0.061308,0.138294 0.061308,0.260208 v 0.29367 H 9.507772 v -0.29367 c 0,-0.121914 0.019188,-0.209196 0.060372,-0.260208 0.040248,-0.054288 0.106236,-0.080262 0.1989,-0.080262 z m 0.851292,1.086228 H 9.507772 v 0.547326 c 0,0.152568 0.01872,0.258804 0.056628,0.318006 0.038844,0.059436 0.10413,0.088452 0.197028,0.088452 0.096408,0 0.163098,-0.025038 0.201942,-0.075114 0.03744,-0.050544 0.057564,-0.160524 0.057564,-0.331344 v -0.13221 h 0.597402 v 0.149058 c 0,0.297648 -0.07231,0.522054 -0.219024,0.673452 -0.144378,0.149994 -0.361998,0.224406 -0.651222,0.224406 -0.260442,0 -0.46566,-0.07933 -0.614718,-0.238914 C 8.984782,9.789858 8.908966,9.569664 8.908966,9.2898 V 7.985016 c 0,-0.251082 0.082836,-0.457704 0.247338,-0.616122 0.164034,-0.158418 0.375336,-0.23751 0.63531,-0.23751 0.266058,0 0.47034,0.073242 0.612846,0.220194 0.142506,0.147186 0.213876,0.357786 0.213876,0.633204 z M 7.764706,7.629336 c 0.078156,0 0.138528,0.025272 0.181116,0.075348 0.041184,0.050778 0.06084,0.124722 0.06084,0.22347 v 1.500174 c 0,0.092898 -0.016848,0.158652 -0.049842,0.199836 C 7.923358,9.669816 7.87141,9.690408 7.80004,9.690408 7.750666,9.690408 7.704334,9.679176 7.65964,9.659286 7.614712,9.638694 7.568614,9.602658 7.522048,9.555858 V 7.746336 C 7.56136,7.706556 7.60114,7.675902 7.641856,7.657416 7.68187,7.638462 7.723522,7.629336 7.764706,7.629336 Z"
           id="Shape"
           inkscape:connector-curvature="0"
           style="fill:#ff0033" />
        <polygon
           id="polygon9"
           points="5.601142,0.08424 4.853278,0.08424 4.397914,1.81818 4.351582,1.81818 3.87352,0.08424 3.132442,0.08424 4.008772,2.703636 4.008772,4.422132 4.744468,4.422132 4.744468,2.622672 "
           style="fill:#000000" />
        <path
           d="m 6.597982,4.502862 c 0.29718,0 0.530244,-0.077922 0.700128,-0.233766 C 7.466824,4.11255 7.551298,3.898908 7.551298,3.625128 V 1.972152 C 7.551298,1.728558 7.464952,1.52802 7.292962,1.373346 7.119802,1.21914 6.89797,1.141452 6.627466,1.141452 c -0.29718,0 -0.533754,0.073476 -0.709722,0.220194 C 5.742244,1.508364 5.654026,1.705158 5.654026,1.9539 v 1.658592 c 0,0.272142 0.085878,0.487422 0.2574,0.648882 0.171522,0.160758 0.400842,0.241488 0.686556,0.241488 z M 6.32701,1.929564 c 0,-0.069498 0.025038,-0.125658 0.073944,-0.16965 0.050778,-0.043056 0.115128,-0.063882 0.195156,-0.063882 0.086346,0 0.156312,0.020826 0.209664,0.063882 0.053118,0.043992 0.07956,0.100152 0.07956,0.16965 v 1.743534 c 0,0.08541 -0.025974,0.15327 -0.078624,0.202176 -0.052182,0.04914 -0.122382,0.073242 -0.2106,0.073242 -0.086346,0 -0.153036,-0.0234 -0.199836,-0.07254 C 6.350176,3.828006 6.326776,3.760614 6.326776,3.672864 v -1.7433 z"
           id="path11"
           inkscape:connector-curvature="0"
           style="fill:#000000" />
        <path
           d="m 8.538076,4.468932 c 0.12285,0 0.248976,-0.0351 0.378846,-0.102492 C 9.048196,4.298112 9.173854,4.198194 9.293428,4.067856 v 0.35451 H 9.94699 V 1.222416 H 9.293428 v 2.42892 C 9.232588,3.720834 9.164962,3.77793 9.092422,3.823326 9.018478,3.868254 8.957638,3.890718 8.909668,3.890718 8.84836,3.890718 8.803198,3.87387 8.776756,3.839004 8.749846,3.805542 8.734636,3.750786 8.734636,3.675672 V 1.222416 H 8.08201 v 2.674386 c 0,0.19071 0.038376,0.333216 0.114192,0.427752 0.07722,0.09594 0.190008,0.144378 0.341874,0.144378 z"
           id="path13"
           inkscape:connector-curvature="0"
           style="fill:#000000" />
      </g>
    </g>
  </g>
</svg>
