<?xml version="1.0" encoding="UTF-8" standalone="no"?>
<svg
   xmlns:dc="http://purl.org/dc/elements/1.1/"
   xmlns:cc="http://creativecommons.org/ns#"
   xmlns:rdf="http://www.w3.org/1999/02/22-rdf-syntax-ns#"
   xmlns:svg="http://www.w3.org/2000/svg"
   xmlns="http://www.w3.org/2000/svg"
   xmlns:sodipodi="http://sodipodi.sourceforge.net/DTD/sodipodi-0.dtd"
   xmlns:inkscape="http://www.inkscape.org/namespaces/inkscape"
   width="100px"
   height="100px"
   viewBox="0 0 100 100"
   version="1.1"
   id="svg14"
   sodipodi:docname="social_svg_g_1_apple.svg"
   inkscape:version="0.92.1 r15371">
  <metadata
     id="metadata18">
    <rdf:RDF>
      <cc:Work
         rdf:about="">
        <dc:format>image/svg+xml</dc:format>
        <dc:type
           rdf:resource="http://purl.org/dc/dcmitype/StillImage" />
        <dc:title>Artboard Copy 5</dc:title>
      </cc:Work>
    </rdf:RDF>
  </metadata>
  <sodipodi:namedview
     pagecolor="#ffffff"
     bordercolor="#666666"
     borderopacity="1"
     objecttolerance="10"
     gridtolerance="10"
     guidetolerance="10"
     inkscape:pageopacity="0"
     inkscape:pageshadow="2"
     inkscape:window-width="1920"
     inkscape:window-height="1017"
     id="namedview16"
     showgrid="false"
     inkscape:zoom="2.36"
     inkscape:cx="50"
     inkscape:cy="50"
     inkscape:window-x="-8"
     inkscape:window-y="-8"
     inkscape:window-maximized="1"
     inkscape:current-layer="svg14" />
  <!-- Generator: Sketch 48.2 (47327) - http://www.bohemiancoding.com/sketch -->
  <title
     id="title2">Artboard Copy 5</title>
  <desc
     id="desc4">Created with Sketch.</desc>
  <defs
     id="defs6" />
<style type="text/css">
  .icon-fill-black{fill:#000000;}
</style>     
  <g
     id="Insert-Buttons"
     transform="matrix(8.6428566,0,0,8.6428566,-380.07818,-380.79208)"
     style="fill:none;fill-rule:evenodd;stroke:none;stroke-width:1">
    <g
       id="Artboard-Copy-5"
       style="fill:#000000">
      <g
         id="Group"
         transform="translate(45,44)">
        <path class="icon-fill-black"
           d="M 7.903818,6.204978 C 7.88931,4.74669 9.093006,4.047264 9.146826,4.01193 8.470332,3.022812 7.416396,2.887092 7.041294,2.871648 6.145074,2.780622 5.291676,3.399552 4.837014,3.399552 4.383288,3.399552 3.68082,2.884986 2.937636,2.89809 1.959984,2.912598 1.05885,3.46671 0.55575,4.34187 c -1.015326,1.761318 -0.25974,4.371588 0.729612,5.801094 0.483678,0.698724 1.060488,1.484964 1.817244,1.456182 0.729378,-0.02878 1.004562,-0.471744 1.886274,-0.471744 0.881712,0 1.129284,0.471744 1.900782,0.457002 C 7.67403,11.57013 8.17128,10.872342 8.65098,10.17081 9.206262,9.359064 9.43488,8.573058 9.448452,8.533278 9.43137,8.525322 7.919496,7.946172 7.903818,6.204978 Z"
           id="Shape"
           inkscape:connector-curvature="0" />
        <path class="icon-fill-black"
           d="M 6.454188,1.925586 C 6.855498,1.438398 7.127406,0.761436 7.053462,0.087516 6.474312,0.110916 5.773248,0.472446 5.35743,0.959166 4.984902,1.39113 4.659174,2.078856 4.746456,2.740608 5.39253,2.790684 6.051474,2.411838 6.454188,1.925586 Z"
           id="path9"
           inkscape:connector-curvature="0" />
      </g>
    </g>
  </g>
</svg>
