<?xml version="1.0" encoding="UTF-8" standalone="no"?>
<svg
   xmlns:dc="http://purl.org/dc/elements/1.1/"
   xmlns:cc="http://creativecommons.org/ns#"
   xmlns:rdf="http://www.w3.org/1999/02/22-rdf-syntax-ns#"
   xmlns:svg="http://www.w3.org/2000/svg"
   xmlns="http://www.w3.org/2000/svg"
   xmlns:sodipodi="http://sodipodi.sourceforge.net/DTD/sodipodi-0.dtd"
   xmlns:inkscape="http://www.inkscape.org/namespaces/inkscape"
   width="100px"
   height="100px"
   viewBox="0 0 100 100"
   version="1.1"
   id="svg16"
   sodipodi:docname="social_svg_g_1_yahoo.svg"
   inkscape:version="0.92.1 r15371">
  <metadata
     id="metadata20">
    <rdf:RDF>
      <cc:Work
         rdf:about="">
        <dc:format>image/svg+xml</dc:format>
        <dc:type
           rdf:resource="http://purl.org/dc/dcmitype/StillImage" />
        <dc:title>Artboard Copy 7</dc:title>
      </cc:Work>
    </rdf:RDF>
  </metadata>
  <sodipodi:namedview
     pagecolor="#ffffff"
     bordercolor="#666666"
     borderopacity="1"
     objecttolerance="10"
     gridtolerance="10"
     guidetolerance="10"
     inkscape:pageopacity="0"
     inkscape:pageshadow="2"
     inkscape:window-width="1920"
     inkscape:window-height="1017"
     id="namedview18"
     showgrid="false"
     inkscape:zoom="2.36"
     inkscape:cx="50"
     inkscape:cy="50"
     inkscape:window-x="-8"
     inkscape:window-y="-8"
     inkscape:window-maximized="1"
     inkscape:current-layer="svg16" />
  <!-- Generator: Sketch 48.2 (47327) - http://www.bohemiancoding.com/sketch -->
  <title
     id="title2">Artboard Copy 7</title>
  <desc
     id="desc4">Created with Sketch.</desc>
  <defs
     id="defs6" />
  <style type="text/css">.icon-fill-ff0033{fill:#ff0033;}</style>
  <g
     id="Insert-Buttons"
     transform="matrix(8.5695737,0,0,8.5695737,-384.44836,-381.58785)"
     style="fill:none;fill-rule:evenodd;stroke:none;stroke-width:1">
    <g
       id="Artboard-Copy-7"
       style="fill:#ff0033">
      <g
         id="Group"
         transform="translate(44,46)">
        <path 

           d="m 10.243702,2.60758 c 0.06435,-0.01287 0.160056,-0.034164 0.268164,-0.057564 h 0.837252 l 0.130338,-0.192582 c 0.0028,-0.0014 0.0077,-0.00187 0.01053,-0.00187 l 0.32409,-0.468 c -0.0047,0 -0.0124,-9.36e-4 -0.01591,-9.36e-4 L 11.832096,1.83585 H 7.293898 L 7.468462,2.549782 H 8.707024 L 6.62302,4.430908 C 6.197608,3.843568 5.200768,2.619748 4.505554,1.606762 H 6.065632 V 1.063414 L 6.083416,0.943606 C 6.078736,0.94267 6.070078,0.941266 6.065632,0.941266 V 0.89236 H 0.89119 v 0.714402 h 1.534572 c 0.59553,0.46566 2.87352,3.30993 2.968056,3.593772 C 5.431726,5.466124 5.466592,7.034158 5.354974,7.152562 5.131036,7.38937 4.109626,7.326658 3.863224,7.343974 L 3.778048,7.829758 C 4.22803,7.843096 5.692402,7.793254 6.147532,7.793254 c 0.897156,0 2.468466,-0.00421 2.690064,0.01287 L 8.864974,7.296472 C 8.638228,7.258096 7.401538,7.291792 7.230718,7.252948 7.19281,7.006078 7.151158,5.355442 7.189066,5.184856 7.359886,4.692052 9.958924,2.684332 10.243702,2.60758 Z"
           id="Shape"
           inkscape:connector-curvature="0" />
        <path 
           d="M 10.996948,6.509296 11.692162,6.56452 12.502036,3.436174 C 12.366784,3.431494 11.137816,3.31543 10.978228,3.284542 Z"
           id="path9"
           inkscape:connector-curvature="0" />
        <polygon 
           id="polygon11"
           points="11.724454,7.085638 11.323612,7.065982 10.876672,7.010758 10.880884,7.7743 11.232586,7.804954 11.612836,7.833268 " />
      </g>
    </g>
  </g>
</svg>
