<?xml version="1.0" encoding="UTF-8" standalone="no"?>
<svg
   xmlns:dc="http://purl.org/dc/elements/1.1/"
   xmlns:cc="http://creativecommons.org/ns#"
   xmlns:rdf="http://www.w3.org/1999/02/22-rdf-syntax-ns#"
   xmlns:svg="http://www.w3.org/2000/svg"
   xmlns="http://www.w3.org/2000/svg"
   xmlns:sodipodi="http://sodipodi.sourceforge.net/DTD/sodipodi-0.dtd"
   xmlns:inkscape="http://www.inkscape.org/namespaces/inkscape"
   width="100px"
   height="100px"
   viewBox="0 0 100 100"
   version="1.1"
   style="background: #FFFFFF;"
   id="svg11"
   sodipodi:docname="social_svg_g_3_insta.svg"
   inkscape:version="0.92.1 r15371">
  <metadata
     id="metadata15">
    <rdf:RDF>
      <cc:Work
         rdf:about="">
        <dc:format>image/svg+xml</dc:format>
        <dc:type
           rdf:resource="http://purl.org/dc/dcmitype/StillImage" />
        <dc:title>Artboard Copy 48</dc:title>
      </cc:Work>
    </rdf:RDF>
  </metadata>
  <sodipodi:namedview
     pagecolor="#ffffff"
     bordercolor="#666666"
     borderopacity="1"
     objecttolerance="10"
     gridtolerance="10"
     guidetolerance="10"
     inkscape:pageopacity="0"
     inkscape:pageshadow="2"
     inkscape:window-width="1920"
     inkscape:window-height="1017"
     id="namedview13"
     showgrid="false"
     inkscape:zoom="2.36"
     inkscape:cx="50"
     inkscape:cy="50"
     inkscape:window-x="-8"
     inkscape:window-y="-8"
     inkscape:window-maximized="1"
     inkscape:current-layer="svg11" />
  <!-- Generator: Sketch 48.2 (47327) - http://www.bohemiancoding.com/sketch -->
  <title
     id="title2">Artboard Copy 48</title>
  <desc
     id="desc4">Created with Sketch.</desc>
  <defs
     id="defs6" />
<style type="text/css">
    .icon-fill-ffa386{
        fill:#ffa386;
    }
</style>     
  <g
     id="Insert-Buttons"
     transform="matrix(4.1458333,0,0,4.1458333,-157.29166,-157.29166)"
     style="fill:none;fill-rule:evenodd;stroke:none;stroke-width:1">
    <g
       id="Artboard-Copy-48"
       style="fill:#ffa386">
      <path class="icon-fill-ffa386"
         d="M 50,62 38,50 50,38 62,50 Z M 53.303599,45.2036 H 46.7036 c -0.8286,0 -1.5,0.6714 -1.5,1.5 v 6.599999 c 0,0.8286 0.6714,1.5 1.5,1.5 h 6.599999 c 0.8286,0 1.5,-0.6714 1.5,-1.5 V 46.7036 c 0,-0.8286 -0.6714,-1.5 -1.5,-1.5 z m -0.3,8.399999 h -6 c -0.3312,0 -0.6,-0.2688 -0.6,-0.6 v -3.8064 H 47.1272 c -0.0726,0.2586 -0.123601,0.525 -0.123601,0.8064 0,1.6566 1.3428,3 3,3 1.6566,0 3,-1.3434 3,-3 0,-0.2814 -0.051,-0.5478 -0.1236,-0.8064 h 0.7236 v 3.8064 c 0,0.3312 -0.2688,0.6 -0.6,0.6 z m 0,-5.4 h -0.6 c -0.3312,0 -0.6,-0.2688 -0.6,-0.6 v -0.6 c 0,-0.3312 0.2688,-0.6 0.6,-0.6 h 0.6 c 0.3312,0 0.6,0.2688 0.6,0.6 v 0.6 c 0,0.3312 -0.2688,0.6 -0.6,0.6 z m -3,3.6 c -0.9942,0 -1.8,-0.8058 -1.8,-1.8 0,-0.9942 0.8058,-1.8 1.8,-1.8 0.9942,0 1.8,0.8058 1.8,1.8 0,0.9942 -0.8058,1.8 -1.8,1.8 z"
         id="Instagram"
         inkscape:connector-curvature="0" />
    </g>
  </g>
</svg>
