<?xml version="1.0" encoding="utf-8"?>
<!-- Generator: Adobe Illustrator 21.1.0, SVG Export Plug-In . SVG Version: 6.00 Build 0)  -->
<svg version="1.1" id="Слой_1" xmlns:ev="http://www.w3.org/2001/xml-events"
	 xmlns="http://www.w3.org/2000/svg" xmlns:xlink="http://www.w3.org/1999/xlink" x="0px" y="0px" width="100px" height="100px"
	 viewBox="0 0 100 100" style="enable-background:new 0 0 100 100;" xml:space="preserve">
<path d="M82.5,59H57.6c-1.4,0-2.5-1.2-2.5-2.6V41.2c0-1.4,1.1-2.6,2.5-2.6h24.9c1.4,0,2.5,1.2,2.5,2.6v15.1C85,57.8,83.9,59,82.5,59
	z M83.5,56.3V41.2c0-0.6-0.5-1.1-1.1-1.1H57.6c-0.6,0-1.1,0.5-1.1,1.1v15.1c0,0.6,0.5,1.1,1.1,1.1h24.9
	C83.1,57.4,83.5,56.9,83.5,56.3L83.5,56.3z M50.4,70.1c-0.4,0-0.7-0.3-0.7-0.8V30.7c0-0.4,0.3-0.8,0.7-0.8c0.4,0,0.7,0.3,0.7,0.8
	v38.6C51.1,69.7,50.8,70.1,50.4,70.1z M42.4,57.7H17.5c-1.4,0-2.5-1.2-2.5-2.6V41.8c0-1.4,1.1-2.6,2.5-2.6h24.9
	c1.4,0,2.5,1.2,2.5,2.6v13.3C44.9,56.6,43.8,57.7,42.4,57.7z"/>
</svg>
