<?xml version="1.0" encoding="utf-8"?>
<!-- Generator: Adobe Illustrator 21.0.0, SVG Export Plug-In . SVG Version: 6.00 Build 0)  -->
<svg version="1.1" id="Слой_1" xmlns="http://www.w3.org/2000/svg" xmlns:xlink="http://www.w3.org/1999/xlink" x="0px" y="0px"
	 viewBox="0 0 16 16" style="enable-background:new 0 0 16 16;" xml:space="preserve">
<style type="text/css">
	.st0{fill:#89929E;}
</style>
<title>Group</title>
<desc>Created with Sketch.</desc>
<g>
	<polygon class="st0" points="5,11 5,12 6,12 6,11 11,11 11,6 12,6 12,5.5 12,5 11,5 11,0 0,0 0,11 	"/>
	<polygon class="st0" points="16,15.5 16,15 15,15 15,16 16,16 	"/>
	<polygon class="st0" points="16,13.5 16,13 15,13 15,14 16,14 	"/>
	<rect x="15" y="11" class="st0" width="1" height="1"/>
	<polygon class="st0" points="16,9.5 16,9 15,9 15,10 16,10 	"/>
	<polygon class="st0" points="16,7.5 16,7 15,7 15,8 16,8 	"/>
	<rect x="5" y="13" class="st0" width="1" height="1"/>
	<rect x="13" y="15" class="st0" width="1" height="1"/>
	<rect x="11" y="15" class="st0" width="1" height="1"/>
	<polygon class="st0" points="9,16 10,16 10,15.5 10,15 9,15 	"/>
	<rect x="7" y="15" class="st0" width="1" height="1"/>
	<rect x="5" y="15" class="st0" width="1" height="1"/>
	<polygon class="st0" points="16,5.5 16,5 15,5 15,6 16,6 	"/>
	<polygon class="st0" points="14,5.5 14,5 13,5 13,6 14,6 	"/>
</g>
</svg>
