<?xml version="1.0" encoding="utf-8"?>
<!-- Generator: Adobe Illustrator 21.0.0, SVG Export Plug-In . SVG Version: 6.00 Build 0)  -->
<svg version="1.1" id="Слой_1" xmlns="http://www.w3.org/2000/svg" xmlns:xlink="http://www.w3.org/1999/xlink" x="0px" y="0px"
	 viewBox="0 0 15 17" style="enable-background:new 0 0 15 17;" xml:space="preserve">
<style type="text/css">
	.st0{fill:#89929E;}
</style>
<title>Group 2</title>
<desc>Created with Sketch.</desc>
<g>
	<polygon class="st0" points="11,5 11,1 8,1 8,3 7,3 4,3 3,3 3,1 0,1 0,15 4,15 4,5 	"/>
	<polygon class="st0" points="7,2 7,1 6,1 6,0 5,0 5,1 4,1 4,2 	"/>
	<path class="st0" d="M10,10V6H5v10h9c0-3.2,0-5.2,0-6C13.2,10,11.8,10,10,10z"/>
	<polygon class="st0" points="14,9 11,6 11,9 	"/>
</g>
</svg>
