<?xml version="1.0" encoding="utf-8"?>
<!-- Generator: Adobe Illustrator 21.0.0, SVG Export Plug-In . SVG Version: 6.00 Build 0)  -->
<svg version="1.1" id="Слой_1" xmlns="http://www.w3.org/2000/svg" xmlns:xlink="http://www.w3.org/1999/xlink" x="0px" y="0px"
	 viewBox="0 0 17 16" style="enable-background:new 0 0 17 16;" xml:space="preserve">
<style type="text/css">
	.st0{fill:#89929E;}
</style>
<title>Group</title>
<desc>Created with Sketch.</desc>
<g>
	<polygon class="st0" points="6,8.4 6,7.4 11.5,7.4 12,7.4 12,0 0,0 0,12 12,12 12,8.4 11.5,8.4 	"/>
	<polygon class="st0" points="15.2,15.4 17,13.5 16.3,12.9 15,14.2 15,8.9 15,7.4 14,7.4 12,7.4 12,8.4 14,8.4 14,8.9 14,14.2 
		12.7,12.9 12,13.6 13.8,15.4 13.8,15.4 14.5,16.1 14.7,15.9 14.7,15.9 15.1,15.5 15.2,15.4 	"/>
</g>
</svg>
