<svg width="31" height="26" viewBox="0 0 31 26" fill="none" xmlns="http://www.w3.org/2000/svg">
<g id="user-admin">
<g id="cadre">
<line id="Line 4" x1="0.5" y1="1.89282" x2="0.5" y2="21.5357" stroke="#676161"/>
<line id="Line 3" y1="-0.5" x2="30" y2="-0.5" transform="matrix(1 0.000249123 -0.0003125 1 0 1.88062)" stroke="#676161"/>
<line id="Line 5" y1="21.0356" x2="18.1818" y2="21.0356" stroke="#676161"/>
<line id="Line 6" x1="30.5" y1="1" x2="30.5" y2="15.2857" stroke="#676161"/>
</g>
<g id="Roue">
<path id="Vector" d="M30.6385 19.3605L29.665 19.2457C29.5655 18.881 29.4198 18.5364 29.2321 18.2167L29.8374 17.4612C29.9299 17.345 29.9194 17.1655 29.8125 17.0609L28.8093 16.0752C28.7037 15.9711 28.5204 15.96 28.4017 16.0508L27.6311 16.6461C27.3069 16.4618 26.9561 16.3187 26.5856 16.2218L26.4691 15.2657C26.4512 15.1196 26.3137 15 26.1636 15H24.7446C24.5945 15 24.457 15.1196 24.4396 15.2657L24.3226 16.2218C23.9517 16.3191 23.6004 16.4627 23.2762 16.6465L22.506 16.0521C22.3882 15.9612 22.2049 15.972 22.0989 16.0761L21.0953 17.0622C20.9897 17.1659 20.9788 17.3459 21.0717 17.4625L21.6765 18.2184C21.4889 18.5373 21.3431 18.8823 21.2441 19.247L20.271 19.3614C20.1222 19.3785 20 19.5135 20 19.6614V21.055C20 21.2025 20.1217 21.3366 20.271 21.3546L21.2445 21.4695C21.344 21.8329 21.4893 22.1774 21.6769 22.4963L21.0721 23.2531C20.9801 23.3692 20.9905 23.5488 21.097 23.6534L22.0989 24.6395C22.2049 24.7432 22.3882 24.7548 22.506 24.6639L23.2767 24.0682C23.6013 24.2525 23.9521 24.3961 24.3231 24.4929L24.44 25.4486C24.4579 25.5951 24.5949 25.7143 24.745 25.7143H26.1641C26.3146 25.7143 26.4516 25.5951 26.4691 25.4486L26.586 24.4929C26.9574 24.3952 27.3082 24.2521 27.6324 24.0682L28.4031 24.6626C28.5213 24.7535 28.7041 24.7428 28.8102 24.6386L29.8134 23.6525C29.9199 23.5488 29.9308 23.3688 29.8378 23.2518L29.2321 22.4958C29.4202 22.177 29.5655 21.8324 29.665 21.4686L30.6381 21.3537C30.7873 21.3362 30.9091 21.2025 30.9091 21.0542V19.6605C30.9095 19.5122 30.7882 19.3781 30.6385 19.3605ZM25.455 23.0354C23.9487 23.0354 22.7277 21.8363 22.7277 20.3569C22.7277 18.8776 23.9487 17.6785 25.455 17.6785C26.9613 17.6785 28.1823 18.8776 28.1823 20.3569C28.1823 21.8363 26.9617 23.0354 25.455 23.0354Z" fill="#828282" fill-opacity="0.73"/>
</g>
<g id="personnage">
<path id="Corps" d="M11.5 16.2704C11.5 16.8529 11.3821 17.1226 11.2685 17.2537C11.163 17.3754 10.9869 17.4628 10.6417 17.4906C10.2889 17.5191 9.85227 17.4791 9.30215 17.4232C9.27854 17.4208 9.25476 17.4184 9.23083 17.416C8.71417 17.3633 8.12235 17.3031 7.5 17.3031C6.87765 17.3031 6.28583 17.3633 5.76917 17.416C5.74524 17.4184 5.72146 17.4208 5.69785 17.4232C5.14773 17.4791 4.71114 17.5191 4.35825 17.4906C4.01312 17.4628 3.83696 17.3754 3.73146 17.2537C3.61787 17.1226 3.5 16.8529 3.5 16.2704C3.5 13.9969 5.30096 12.1724 7.5 12.1724C9.69904 12.1724 11.5 13.9969 11.5 16.2704Z" fill="#828282" stroke="#C4C4C4"/>
<path id="T&#195;&#170;te" d="M9.88464 8.33621C9.88464 9.95388 8.71672 11.1724 7.38464 11.1724C6.05256 11.1724 4.88464 9.95388 4.88464 8.33621C4.88464 6.71853 6.05256 5.5 7.38464 5.5C8.71672 5.5 9.88464 6.71853 9.88464 8.33621Z" fill="#828282" stroke="#C4C4C4"/>
</g>
<g id="Ligne">
<line id="Line 2" x1="15" y1="11.5" x2="25" y2="11.5" stroke="#828282"/>
<line id="Line 1" x1="15" y1="7.5" x2="25" y2="7.5" stroke="#828282"/>
</g>
</g>
</svg>
