<?xml version="1.0" encoding="utf-8"?>
<!-- Generator: Adobe Illustrator 21.0.0, SVG Export Plug-In . SVG Version: 6.00 Build 0)  -->
<svg version="1.1" id="Слой_1" xmlns="http://www.w3.org/2000/svg" xmlns:xlink="http://www.w3.org/1999/xlink" x="0px" y="0px"
	 viewBox="0 0 100 100" style="enable-background:new 0 0 100 100;" xml:space="preserve">
<style type="text/css">
	.icon-fill-inverse{fill:#cfdbe0;}
</style>
<path class="icon-fill-inverse" d="M70.5,23.7c0,0.3-0.2,0.6-0.4,0.8L50.7,41.2c-0.4,0.4-1,0.4-1.4,0L29.9,24.5c-0.3-0.3-0.5-0.8-0.3-1.2
	c0.1-0.4,0.6-0.7,1-0.7h38.8c0.4,0,0.8,0.3,1,0.7C70.5,23.4,70.5,23.6,70.5,23.7z"/>
<path d="M29.9,75.5c-0.3,0.3-0.5,0.8-0.3,1.2c0.2,0.4,0.6,0.7,1,0.7h38.8c0.5,0,0.9-0.3,1-0.7c0-0.1,0.1-0.3,0.1-0.4
	c0-0.3-0.1-0.6-0.4-0.8L50.7,58.8c-0.4-0.4-1-0.4-1.4,0L29.9,75.5z M66.4,75.2H33.6L50,61L66.4,75.2z"/>
<g>
	<g>
		<path d="M27,51.2h-5c-0.7,0-1.2-0.6-1.2-1.2s0.6-1.2,1.2-1.2h5c0.7,0,1.2,0.6,1.2,1.2S27.7,51.2,27,51.2z"/>
	</g>
	<g>
		<path d="M63.8,51.2h-9.2c-0.7,0-1.2-0.6-1.2-1.2s0.6-1.2,1.2-1.2h9.2c0.7,0,1.2,0.6,1.2,1.2S64.5,51.2,63.8,51.2z M45.4,51.2h-9.2
			c-0.7,0-1.2-0.6-1.2-1.2s0.6-1.2,1.2-1.2h9.2c0.7,0,1.2,0.6,1.2,1.2S46.1,51.2,45.4,51.2z"/>
	</g>
	<g>
		<path d="M78.1,51.2h-5c-0.7,0-1.2-0.6-1.2-1.2s0.6-1.2,1.2-1.2h5c0.7,0,1.2,0.6,1.2,1.2S78.8,51.2,78.1,51.2z"/>
	</g>
</g>
</svg>
