<svg version="1.1" xmlns="http://www.w3.org/2000/svg" xmlns:xlink="http://www.w3.org/1999/xlink" width="39" height="31" viewBox="0 0 39 31"><path id="meteo-mitige" d="M39.012,23.570 C39.012,27.521 35.767,30.769 31.779,30.769 C31.779,30.769 7.935,30.769 7.935,30.769 C4.289,30.769 1.322,27.836 1.322,24.225 C1.322,20.825 3.952,18.026 7.304,17.711 C7.622,14.392 10.453,11.787 13.885,11.787 C14.229,11.787 14.570,11.814 14.907,11.865 C16.036,7.989 19.677,5.239 23.804,5.239 C28.908,5.239 33.061,9.351 33.061,14.407 C33.061,15.099 32.983,15.784 32.829,16.451 C36.356,16.970 39.012,19.952 39.012,23.570 zM31.959,17.685 C31.752,17.677 31.560,17.574 31.442,17.406 C31.323,17.238 31.290,17.024 31.354,16.829 C31.609,16.050 31.738,15.235 31.738,14.407 C31.738,10.074 28.179,6.548 23.804,6.548 C20.077,6.548 16.813,9.165 16.042,12.769 C16.004,12.944 15.896,13.097 15.742,13.191 C15.588,13.284 15.403,13.312 15.227,13.267 C14.792,13.154 14.340,13.097 13.885,13.097 C10.969,13.097 8.596,15.446 8.596,18.335 C8.596,18.696 8.300,18.989 7.935,18.989 C5.018,18.989 2.645,21.337 2.645,24.225 C2.645,27.114 5.018,29.460 7.935,29.460 C7.935,29.460 31.775,29.460 31.775,29.460 C35.035,29.460 37.689,26.803 37.689,23.570 C37.689,20.384 35.172,17.801 31.959,17.685 zM16.998,5.047 C16.869,5.175 16.700,5.239 16.530,5.239 C16.361,5.239 16.192,5.175 16.063,5.047 C15.805,4.791 15.805,4.377 16.063,4.121 C16.063,4.121 16.724,3.466 16.724,3.466 C16.982,3.210 17.401,3.210 17.659,3.466 C17.917,3.722 17.917,4.136 17.659,4.392 C17.659,4.392 16.998,5.047 16.998,5.047 zM15.105,8.598 C14.764,8.724 14.382,8.553 14.254,8.214 C13.581,6.435 11.838,5.239 9.918,5.239 C7.366,5.239 5.290,7.295 5.290,9.823 C5.290,11.190 5.899,12.475 6.962,13.350 C7.243,13.581 7.282,13.994 7.048,14.272 C6.918,14.428 6.729,14.509 6.539,14.509 C6.391,14.509 6.241,14.459 6.117,14.358 C4.751,13.233 3.967,11.581 3.967,9.823 C3.967,6.573 6.637,3.929 9.918,3.929 C12.386,3.929 14.626,5.467 15.492,7.755 C15.621,8.094 15.447,8.471 15.105,8.598 zM10.656,2.619 C10.291,2.619 9.995,2.326 9.995,1.965 C9.995,1.965 9.995,0.655 9.995,0.655 C9.995,0.293 10.291,0.000 10.656,0.000 C11.021,0.000 11.317,0.293 11.317,0.655 C11.317,0.655 11.317,1.965 11.317,1.965 C11.317,2.326 11.021,2.619 10.656,2.619 zM4.629,4.584 C4.459,4.584 4.290,4.520 4.161,4.392 C4.161,4.392 3.500,3.737 3.500,3.737 C3.242,3.482 3.242,3.067 3.500,2.811 C3.758,2.556 4.177,2.556 4.435,2.811 C4.435,2.811 5.096,3.466 5.096,3.466 C5.354,3.722 5.354,4.136 5.096,4.392 C4.967,4.520 4.798,4.584 4.629,4.584 zM4.435,14.599 C4.693,14.854 4.693,15.269 4.435,15.525 C4.435,15.525 3.774,16.179 3.774,16.179 C3.644,16.307 3.475,16.371 3.306,16.371 C3.137,16.371 2.968,16.307 2.839,16.179 C2.580,15.924 2.580,15.509 2.839,15.253 C2.839,15.253 3.500,14.599 3.500,14.599 C3.758,14.343 4.177,14.343 4.435,14.599 zM1.984,9.814 C1.984,9.814 0.661,9.814 0.661,9.814 C0.296,9.814 0.000,9.521 0.000,9.159 C0.000,8.798 0.296,8.505 0.661,8.505 C0.661,8.505 1.984,8.505 1.984,8.505 C2.349,8.505 2.645,8.798 2.645,9.159 C2.645,9.521 2.349,9.814 1.984,9.814 z" fill="#FFFFFF" /></svg>