<?xml version="1.0" encoding="utf-8"?>
<!-- Generator: Adobe Illustrator 21.0.0, SVG Export Plug-In . SVG Version: 6.00 Build 0)  -->
<svg version="1.1" id="Слой_1" xmlns="http://www.w3.org/2000/svg" xmlns:xlink="http://www.w3.org/1999/xlink" x="0px" y="0px"
	 viewBox="0 0 20 18" style="enable-background:new 0 0 20 18;" xml:space="preserve">
<title>Group 19</title>
<desc>Created with Sketch.</desc>
<g>
	<path d="M18,1H1.9C1.4,1,1,1.5,1,2V16C1,16.5,1.4,17,1.9,17H18c0.5,0,0.9-0.4,0.9-0.9V2C18.9,1.5,18.5,1,18,1z M18.2,16
		c0,0.1-0.1,0.2-0.2,0.2h-1c0,0-13.9,0-13.9,0H1.9c-0.1,0-0.2-0.1-0.2-0.2V4.5h16.5V16z M18.2,3.8H1.7V2c0-0.1,0.1-0.2,0.2-0.2H18
		c0.1,0,0.2,0.1,0.2,0.2V3.8z"/>
	<circle cx="3.1" cy="2.9" r="0.5"/>
	<circle cx="5.7" cy="2.9" r="0.5"/>
	<circle cx="8.2" cy="2.9" r="0.5"/>
</g>
</svg>
