<?xml version="1.0" encoding="utf-8"?>
<!-- Generator: Adobe Illustrator 21.0.0, SVG Export Plug-In . SVG Version: 6.00 Build 0)  -->
<svg version="1.1" id="Слой_1" xmlns="http://www.w3.org/2000/svg" xmlns:xlink="http://www.w3.org/1999/xlink" x="0px" y="0px"
	 viewBox="0 0 26 26" style="enable-background:new 0 0 26 26;" xml:space="preserve">
<title>Group 10</title>
<desc>Created with Sketch.</desc>
<g>
	<path d="M13.6,20.3L13,20.2c-4.2,0-8.6,0-9.2,0l0,0l-1.6,0c-0.2,0-0.4-0.2-0.4-0.4V5.3h21v8.1c0.1,0,0.1,0.1,0.2,0.1l0.4,0.4V2.2
		c0-0.6-0.5-1-1-1H2.2c-0.6,0-1,0.5-1,1v17.6c0,0.6,0.5,1,1,1h11.7C13.8,20.6,13.7,20.5,13.6,20.3z M1.7,2.2c0-0.2,0.2-0.4,0.4-0.4
		h20.1c0.2,0,0.4,0.2,0.4,0.4v2.5h-21V2.2z"/>
	<circle cx="8.2" cy="3.3" r="0.6"/>
	<circle cx="6.1" cy="3.3" r="0.6"/>
	<circle cx="4" cy="3.3" r="0.6"/>
	<path d="M24.3,17.3l-0.9-0.2l0-0.1c-0.1-0.3-0.2-0.5-0.3-0.8l0-0.1l0.5-0.7c0.2-0.3,0.2-0.7-0.1-1l-0.8-0.8c-0.3-0.3-0.7-0.3-1-0.1
		L21,14.1l-0.1,0c-0.3-0.1-0.5-0.2-0.8-0.3l-0.1,0l-0.1-0.9c-0.1-0.4-0.4-0.7-0.8-0.7H18c-0.4,0-0.7,0.3-0.8,0.7l-0.2,0.9l-0.1,0
		c-0.3,0.1-0.5,0.2-0.8,0.3l-0.1,0l-0.7-0.5c-0.3-0.2-0.8-0.2-1,0.1l-0.8,0.8c-0.3,0.3-0.3,0.7-0.1,1l0.5,0.8l0,0.1
		c-0.1,0.2-0.2,0.5-0.3,0.8l0,0.1l-0.9,0.1c-0.4,0.1-0.7,0.4-0.7,0.8v1.1c0,0.4,0.3,0.7,0.7,0.8l0.9,0.2l0,0.1
		c0.1,0.3,0.2,0.5,0.3,0.8l0,0.1l-0.5,0.7c-0.2,0.3-0.2,0.7,0.1,1l0.8,0.8c0.3,0.3,0.7,0.3,1,0.1l0.8-0.5l0.1,0
		c0.2,0.1,0.5,0.2,0.7,0.3l0.1,0l0.1,0.9c0.1,0.4,0.4,0.7,0.8,0.7h1.1c0.4,0,0.7-0.3,0.8-0.7l0.2-0.9l0.1,0c0.3-0.1,0.5-0.2,0.8-0.3
		l0.1,0l0.7,0.5c0.3,0.2,0.7,0.2,1-0.1l0.8-0.8c0.3-0.3,0.3-0.7,0.1-1L23.1,21l0-0.1c0.1-0.2,0.2-0.5,0.3-0.8l0-0.1l0.9-0.1
		c0.4-0.1,0.7-0.4,0.7-0.8V18C25,17.6,24.7,17.3,24.3,17.3z M24.3,19.2L24.3,19.2C24.3,19.2,24.3,19.2,24.3,19.2l-1.2,0.3
		c-0.1,0-0.3,0.1-0.3,0.3c-0.1,0.4-0.3,0.8-0.5,1.1c-0.1,0.1-0.1,0.3,0,0.4l0.7,0.9c0,0,0,0.1,0,0.1L22.2,23c0,0,0,0-0.1,0
		c0,0,0,0,0,0l-0.9-0.7c-0.1-0.1-0.3-0.1-0.4,0c-0.4,0.2-0.7,0.4-1.1,0.5c-0.1,0-0.2,0.1-0.3,0.3l-0.2,1.1c0,0,0,0.1-0.1,0.1H18
		c0,0-0.1,0-0.1-0.1l-0.2-1.1c0-0.1-0.1-0.3-0.3-0.3c-0.4-0.1-0.8-0.3-1.1-0.4c-0.1,0-0.1,0-0.2,0c-0.1,0-0.1,0-0.2,0.1L15.1,23
		c0,0,0,0,0,0c0,0,0,0-0.1,0l-0.8-0.8c0,0,0-0.1,0-0.1l0.7-0.9c0.1-0.1,0.1-0.3,0-0.4c-0.2-0.3-0.4-0.7-0.5-1.1
		c0-0.1-0.1-0.2-0.3-0.3L13,19.3c0,0-0.1,0-0.1-0.1v-1.1c0,0,0-0.1,0.1-0.1l1.1-0.2c0.1,0,0.3-0.1,0.3-0.3c0.1-0.4,0.3-0.8,0.5-1.1
		c0.1-0.1,0.1-0.3,0-0.4l-0.7-0.9c0,0,0-0.1,0-0.1l0.8-0.8c0,0,0,0,0.1,0c0,0,0,0,0,0l0.9,0.7c0.1,0.1,0.3,0.1,0.4,0
		c0.3-0.2,0.7-0.4,1.1-0.5c0.1,0,0.2-0.1,0.3-0.3l0.2-1.1c0,0,0-0.1,0.1-0.1h1.1c0,0,0.1,0,0.1,0.1l0.2,1.1c0,0.1,0.1,0.3,0.3,0.3
		c0.4,0.1,0.8,0.3,1.1,0.5c0.1,0.1,0.3,0.1,0.4,0l0.9-0.7c0,0,0,0,0,0c0,0,0,0,0.1,0L23,15c0,0,0,0.1,0,0.1L22.4,16
		c-0.1,0.1-0.1,0.3,0,0.4c0.2,0.4,0.4,0.7,0.5,1.1c0,0.1,0.1,0.2,0.3,0.3l1.1,0.2c0,0,0.1,0,0.1,0.1V19.2z"/>
	<path d="M21.4,18.6c0-1.5-1.2-2.8-2.8-2.8c-1.5,0-2.8,1.2-2.8,2.8c0,1.5,1.2,2.8,2.8,2.8C20.1,21.4,21.4,20.1,21.4,18.6z
		 M16.6,18.6c0-1.1,0.9-2,2-2c1.1,0,2,0.9,2,2s-0.9,2-2,2C17.5,20.6,16.6,19.7,16.6,18.6z"/>
</g>
</svg>
