<?xml version="1.0" encoding="utf-8"?>
<!-- Generator: Adobe Illustrator 21.0.0, SVG Export Plug-In . SVG Version: 6.00 Build 0)  -->
<svg version="1.1" id="Слой_1" xmlns="http://www.w3.org/2000/svg" xmlns:xlink="http://www.w3.org/1999/xlink" x="0px" y="0px"
	 viewBox="0 0 24.3 22.6" style="enable-background:new 0 0 24.3 22.6;" xml:space="preserve">
<title>Group 10</title>
<desc>Created with Sketch.</desc>
<g>
	<circle cx="8.2" cy="3.3" r="0.6"/>
	<circle cx="6.1" cy="3.3" r="0.6"/>
	<circle cx="4" cy="3.3" r="0.6"/>
	<path d="M24,13.8L23.2,13V2.2c0-0.6-0.5-1-1-1H2.2c-0.6,0-1,0.5-1,1v17.6c0,0.6,0.5,1,1,1h11l-0.4,1.8l2.2-0.4l1.4-0.3
		c0.2,0,0.4-0.1,0.5-0.3l0,0l7-6C24.4,15.2,24.4,14.4,24,13.8z M16.6,20.9c-0.1,0.2-0.2,0.3-0.4,0.4l-1.3,0.3l-1.1,0.2l0.6-2.5
		c0.1-0.2,0.2-0.4,0.4-0.4l0,0L16.6,20.9z M23.4,15.1l-6.2,5.4l-1.9-2.3l6.1-5.3c0.1-0.1,0.2-0.1,0.4-0.1c0.1,0,0.3,0.1,0.4,0.2
		l1.2,1.4c0.1,0.1,0.1,0.2,0.1,0.4C23.5,14.9,23.5,15,23.4,15.1z M1.7,2.2c0-0.2,0.2-0.4,0.4-0.4h20.1c0.2,0,0.4,0.2,0.4,0.4v2.5
		h-21V2.2z M13,20.2c-4.2,0-8.6,0-9.2,0l0,0l-1.6,0c-0.2,0-0.4-0.2-0.4-0.4V5.3h21v7.1c-0.2-0.2-0.5-0.4-0.8-0.4
		c-0.3,0-0.7,0.1-0.9,0.3l-7,6l0,0c-0.2,0.2-0.3,0.4-0.3,0.6l-0.3,1.3L13,20.2z"/>
</g>
</svg>
