<?xml version="1.0" encoding="UTF-8"?>
<svg width="18px" height="18px" viewBox="0 0 18 18" version="1.1" xmlns="http://www.w3.org/2000/svg" xmlns:xlink="http://www.w3.org/1999/xlink">
    <!-- Generator: Sketch 61.2 (89653) - https://sketch.com -->
    <title>whiteboard</title>
    <desc>Created with Sketch.</desc>
    <g id="White-desk-Copy" stroke="none" stroke-width="1" fill="none" fill-rule="evenodd">
        <g id="School-9" transform="translate(-215.000000, -300.000000)" fill="#FFFFFF" fill-rule="nonzero">
            <g id="Group-3" transform="translate(129.000000, 287.000000)">
                <g id="Group">
                    <g id="whiteboard" transform="translate(86.000000, 13.000000)">
                        <path d="M16.2965854,1.23629268 L9.55317073,1.23629268 L9.55317073,0.56195122 C9.55317073,0.243512195 9.30965854,0 8.99121951,0 C8.67278049,0 8.42926829,0.243512195 8.42926829,0.56195122 L8.42926829,1.23629268 L1.68585366,1.23629268 C1.36741463,1.23629268 1.12390244,1.47980488 1.12390244,1.7982439 L1.12390244,11.2202927 L16.8585366,11.2202927 L16.8585366,1.7982439 C16.8585366,1.47980488 16.6150244,1.23629268 16.2965854,1.23629268 Z" id="Path"></path>
                        <path d="M17.4204878,12.156878 L0.56195122,12.156878 C0.262243902,12.156878 0,12.419122 0,12.7188293 C0,13.0372683 0.243512195,13.2807805 0.56195122,13.2807805 L7.84858537,13.2807805 L4.53307317,16.7836098 C4.32702439,17.0083902 4.32702439,17.3642927 4.55180488,17.5703415 C4.77658537,17.7763902 5.1324878,17.7763902 5.33853659,17.5516098 L8.42926829,14.2922927 L8.42926829,17.4204878 C8.42926829,17.7389268 8.67278049,17.982439 8.99121951,17.982439 C9.30965854,17.982439 9.55317073,17.7389268 9.55317073,17.4204878 L9.55317073,14.2922927 L12.6439024,17.5516098 C12.8499512,17.7763902 13.2058537,17.795122 13.4306341,17.5703415 C13.6554146,17.3642927 13.6741463,17.0083902 13.4493659,16.7836098 L10.1338537,13.2807805 L17.4204878,13.2807805 C17.7389268,13.2807805 17.982439,13.0372683 17.982439,12.7188293 C17.982439,12.4003902 17.7389268,12.156878 17.4204878,12.156878 Z" id="Path"></path>
                    </g>
                </g>
            </g>
        </g>
    </g>
</svg>