<svg width="40" height="40" viewBox="0 0 40 40" fill="none" xmlns="http://www.w3.org/2000/svg">
<g clip-path="url(#clip0)">
<path d="M19.7923 21.3154C15.5692 21.3154 11 23.4616 11 27.6154C11 27.9616 11.2769 28.1693 11.5538 28.1693C11.8308 28.1693 12.1077 27.8924 12.1077 27.6154C12.1077 24.1539 16.1231 22.4231 19.7231 22.4231C23.3231 22.4231 27.3385 24.0847 27.3385 27.6154C27.3385 27.9616 27.6154 28.1693 27.8923 28.1693C28.1692 28.1693 28.4462 27.8924 28.4462 27.6154C28.5154 23.4616 23.9462 21.3154 19.7923 21.3154Z" />
<path d="M19.7923 19.0308C22.0769 19.0308 23.8769 17.2308 23.8769 15.0154C23.8769 12.8 22.0077 11 19.7923 11C17.5077 11 15.6384 12.8 15.6384 15.0154C15.6384 17.2308 17.5077 19.0308 19.7923 19.0308ZM19.7923 12.1769C21.3846 12.1769 22.7 13.4923 22.7 15.0154C22.7 16.5385 21.3846 17.8538 19.7923 17.8538C18.2 17.8538 16.8846 16.5385 16.8846 15.0154C16.8846 13.4923 18.1307 12.1769 19.7923 12.1769Z" />
</g>
<defs>
<clipPath id="clip0">
<rect width="18" height="17.3077" fill="white" transform="translate(11 11)"/>
</clipPath>
</defs>
</svg>
